<svg width="329" height="57" viewBox="0 0 329 57" fill="none" xmlns="http://www.w3.org/2000/svg">
<path d="M328.51 0H319.47V0.03L318.74 0L299.44 33.75L280.14 0L279.41 0.03V0H270.37V56.15H279.41V19.69L296.7 48.41H302.18L319.47 19.69V56.15H328.51V0Z" fill="#212121"/>
<path d="M27.94 8.09047C31.4878 8.02702 35.0056 8.75106 38.24 10.2105L38.76 10.4605L40.66 4.04047L40.3 3.85046C39.24 3.30046 35.17 1.48047 27.7 1.48047C11.13 1.48047 0 12.6805 0 29.3405C0 45.6605 10.3 56.2005 26.24 56.2005C32.82 56.2005 37.78 54.8905 40.24 53.6705L40.59 53.5005L38.95 47.2105L38.42 47.4705C35.0163 48.9179 31.3483 49.64 27.65 49.5905C15.41 49.5905 8.1 41.9305 8.1 29.1105C8.1 16.2905 15.69 8.09047 27.94 8.09047Z" fill="#212121"/>
<path d="M183.53 20.3197C181.824 18.4741 179.75 17.0063 177.442 16.0108C175.134 15.0153 172.643 14.5142 170.13 14.5397C167.408 14.4968 164.707 15.0154 162.195 16.0633C159.683 17.1111 157.414 18.6656 155.53 20.6297C153.594 22.5477 152.066 24.8363 151.035 27.3586C150.004 29.8808 149.492 32.5851 149.53 35.3097C149.491 38.0294 149.994 40.7297 151.008 43.2534C152.023 45.7771 153.529 48.0737 155.44 50.0097C157.271 51.9757 159.492 53.5374 161.961 54.5947C164.431 55.6521 167.094 56.1817 169.78 56.1497C172.352 56.1322 174.895 55.5983 177.257 54.5796C179.618 53.561 181.752 52.0783 183.53 50.2197V54.8897H190.44V1.17969H183.53V20.3197ZM179.67 45.5597C177.168 48.0715 173.775 49.4915 170.23 49.5097C168.42 49.5249 166.628 49.1577 164.97 48.4322C163.312 47.7067 161.827 46.6392 160.61 45.2997C158.018 42.6638 156.579 39.1063 156.61 35.4097C156.578 31.738 157.989 28.2006 160.54 25.5597C161.775 24.2073 163.284 23.1346 164.968 22.4136C166.651 21.6927 168.469 21.3401 170.3 21.3797C172.105 21.3285 173.901 21.6583 175.571 22.3475C177.241 23.0367 178.746 24.0698 179.99 25.3797C182.56 28.1158 183.944 31.7572 183.84 35.5097C183.892 37.385 183.546 39.2501 182.826 40.9822C182.106 42.7144 181.027 44.2744 179.66 45.5597H179.67Z" fill="#212121"/>
<path d="M53.95 2.44043H46.97V56.1504H53.95V2.44043Z" fill="#212121"/>
<path d="M137.08 37.5104V38.5104C137.08 44.3304 132.08 49.0704 125.91 49.0704C119.74 49.0704 114.74 44.3304 114.74 38.5104V15.9204H107.67V38.5104C107.67 48.2404 115.85 56.1504 125.91 56.1504C129.938 56.1562 133.859 54.8504 137.08 52.4304V54.9004H144.16V15.9004H137.08V37.5104Z" fill="#212121"/>
<path d="M240.53 24.8898C240.53 23.6618 240.042 22.4842 239.174 21.6159C238.306 20.7476 237.128 20.2598 235.9 20.2598C234.672 20.2598 233.494 20.7476 232.626 21.6159C231.758 22.4842 231.27 23.6618 231.27 24.8898C231.271 25.7555 231.517 26.6033 231.979 27.3357C232.44 28.068 233.099 28.6552 233.88 29.0298V35.8898H237.93V29.0298C238.709 28.6548 239.367 28.0672 239.827 27.3347C240.287 26.6022 240.531 25.7547 240.53 24.8898Z" fill="#212121"/>
<path d="M241.53 8.81999C244.295 8.82264 246.947 9.92236 248.902 11.8778C250.858 13.8332 251.957 16.4846 251.96 19.25V36.9C251.957 39.6645 250.857 42.3148 248.902 44.2687C246.946 46.2225 244.294 47.32 241.53 47.32H222.29V8.81999H241.53ZM241.53 0H213.43V56.15H241.53C246.635 56.15 251.532 54.1219 255.142 50.5118C258.752 46.9017 260.78 42.0054 260.78 36.9V19.25C260.78 14.1446 258.752 9.24826 255.142 5.63818C251.532 2.02811 246.635 0 241.53 0Z" fill="#212121"/>
<path d="M73.4499 33.7702C73.1852 34.0315 72.9755 34.343 72.833 34.6864C72.6904 35.0299 72.618 35.3984 72.6199 35.7702C72.6112 36.1404 72.6776 36.5084 72.8151 36.8522C72.9526 37.1959 73.1583 37.5082 73.4199 37.7702C73.6814 38.0331 73.9934 38.2404 74.3371 38.3796C74.6808 38.5188 75.0491 38.5871 75.4199 38.5803C75.7913 38.5852 76.1599 38.5151 76.5035 38.3742C76.8472 38.2333 77.1589 38.0245 77.4199 37.7603C77.6893 37.5026 77.9022 37.1917 78.045 36.8475C78.1879 36.5032 78.2577 36.1329 78.2499 35.7603C78.2504 35.3868 78.1753 35.0171 78.0292 34.6734C77.8831 34.3297 77.6691 34.0191 77.3999 33.7603C77.1427 33.4896 76.8322 33.2752 76.488 33.1306C76.1437 32.986 75.7732 32.9144 75.3999 32.9203C75.0343 32.9231 74.6731 32.9999 74.338 33.1459C74.0029 33.292 73.7008 33.5044 73.4499 33.7702Z" fill="#212121"/>
<path d="M99.4 37.72V40.96H95.74V37.72H92.53C92.1504 40.1898 90.9699 42.4666 89.17 44.2C88.0673 45.3191 86.749 46.2028 85.2948 46.7975C83.8406 47.3922 82.2808 47.6857 80.71 47.66C79.126 47.7031 77.5501 47.4209 76.0795 46.8309C74.609 46.241 73.275 45.3558 72.16 44.23C71.0528 43.1354 70.1797 41.8273 69.5935 40.3851C69.0073 38.9428 68.7203 37.3965 68.75 35.84C68.7356 34.2531 69.0417 32.6796 69.65 31.2139C70.2583 29.7482 71.1562 28.4203 72.29 27.31C73.3674 26.1687 74.6685 25.2618 76.112 24.6459C77.5555 24.0299 79.1105 23.7181 80.68 23.73C82.255 23.7198 83.8155 24.0322 85.2653 24.6478C86.7151 25.2635 88.0235 26.1695 89.11 27.31C90.8708 29.0267 92.0524 31.25 92.49 33.67H101.08C100.663 28.9714 98.5853 24.5752 95.22 21.2699C93.348 19.3316 91.0976 17.7987 88.6083 16.7666C86.1191 15.7344 83.4443 15.225 80.75 15.2699C78.0446 15.2201 75.3578 15.727 72.8565 16.7592C70.3553 17.7914 68.0929 19.3267 66.21 21.2699C64.2851 23.15 62.7611 25.4006 61.7299 27.8858C60.6987 30.3711 60.1816 33.0394 60.21 35.73C60.1725 38.4078 60.6767 41.0655 61.6923 43.5435C62.7079 46.0216 64.2139 48.2687 66.12 50.15C68.0079 52.0977 70.2768 53.6356 72.7853 54.6679C75.2937 55.7002 77.988 56.2047 80.7 56.15C83.4063 56.2064 86.095 55.7025 88.5972 54.67C91.0994 53.6374 93.361 52.0985 95.24 50.15C98.5867 46.827 100.639 42.42 101.03 37.72H99.4Z" fill="#212121"/>
</svg>
