<svg height="919" viewBox="8.8 1.8 184 66.2" width="2500" xmlns="http://www.w3.org/2000/svg"><path d="m55.5 39.1c-2 0-3.5-1.5-3.5-3.5 0-1.9 1.5-3.5 3.5-3.5 1.9 0 3.4 1.6 3.4 3.5s-1.6 3.5-3.4 3.5" fill="#000000"/><path d="m41.8 9.1c6.5 0 12.5 1.8 17.6 4.8l6.1-4.8c-6.8-4.6-14.9-7.3-23.8-7.3-8.7 0-17 2.7-23.7 7.3l6 4.8c5.4-3 11.4-4.8 17.8-4.8m-17.6 46.9-6 4.7c6.7 4.6 15 7.3 23.7 7.3 8.8 0 17-2.7 23.8-7.3l-6.3-4.7c-5.1 3-11.2 4.7-17.6 4.7s-12.4-1.7-17.6-4.7m-8.2-21.1c0-6.4 1.8-12.4 4.8-17.6l-4.8-6.1c-4.5 6.8-7.2 14.9-7.2 23.7s2.7 17 7.2 23.8l4.8-6.1c-3-5.2-4.8-11.2-4.8-17.7m46.9 17.7 4.7 6.1c4.6-6.8 7.3-15 7.3-23.8s-2.7-17-7.3-23.7l-4.7 6.1c3 5.2 4.7 11.3 4.7 17.6 0 6.5-1.7 12.5-4.7 17.7m-31.8-1.8c-3.4 0-6.3-.9-8.9-2.8h-.1v-6.5l.4.4c.7.9 3.5 3.8 8.1 3.8 3.5 0 3.9-2.6 3.9-3.8 0-2.3-2.4-3.5-5-4.8l-.1-.1c-3.4-1.7-7.3-3.5-7.3-8.5 0-4.5 3.8-7.9 9-8.1h.7c4.5 0 6.8 1.7 7.2 2l.1.1v5.5l-.4-.3c-1.6-1.4-4.2-2.3-6.6-2.3-1.1 0-2.1.2-2.8.5-1.1.5-1.6 1.3-1.6 2.6 0 1.5 1.8 2.4 4.1 3.6l.4.2c2.9 1.6 8 4.1 8 9.8 0 2.4-1 4.9-2.6 6.4s-3.9 2.3-6.5 2.3m17.9.2h-5.6v-28.7l.2-.1c.2-.1 4.9-1.9 9.8-1.9 5.4 0 8.1 2 8.1 2l.1.1v5.6l-.3-.2c-.5-.3-2.9-2-7.2-2.1h-.2c-2.3 0-3.9.5-4.6.7h-.3zm39.8 7.4h2.4v-21h-2.4zm34.4.2h-3v-3.5h-8.4v-2.5h8.4v-3.6h-6.2v-2.7h6.1v-3.6h-7.8v-2.5h7.8v-3.2h3v3.2h7.8v2.5h-7.8v3.6h6.1v2.7h-6.1v3.6h8.4v2.5h-8.4v3.5zm53.3-17.2-3.4-3.2-1.8 1.8 3.4 3.4zm.1 10.5v-7.3h-5.3v2.7h2.8v5.1c-.4 2.8-1.3 3.9-3.2 3.9v2.5c2.2 0 3.7-1 4.7-2.8 1.1 1.4 2.9 2.8 5.8 2.8h11v-2.5h-11c-4.4-.2-4.8-4.3-4.8-4.4zm13.4-13.8h-11v2.4h11zm-11.4 13.4 3.9-5.8h-4.7v-2.4h13.8v2.4h-5.8l-4.2 6h5.9l-1.3-2.2 2.3-1.3 3.4 5.5-2.3 1.3-.6-1h-10.3v-2.5zm-21.5-2.5h3.5v-6.5h-5.2v-1.2h6v-2.4h-5.9v-1.9h-2.6v1.9h-5.9v2.4h5.9v1.2h-5.1v6.5h3.4c-.5 1.8-1.7 2.7-3.5 2.7v2.3c1.9 0 4.1-.6 5.2-3.1v4.7h2.5v-4.7c1.1 2.5 3.4 3.1 5.3 3.1v-2.3c-1.8-.1-3.1-.9-3.6-2.7zm-4.2-2.3h-2.5v-1.9h2.5zm2.6-1.9h2.5v1.9h-2.5zm-9.8-3.4-3.4-3.2-1.9 1.8 3.4 3.4zm.1 10.5c0 .1.4 4.2 4.6 4.2h11.1v2.5h-11.1c-2.9 0-4.6-1.3-5.7-2.8-1 1.8-2.7 2.8-4.7 2.8v-2.5c1.8 0 2.8-1.1 3.1-3.9v-5.1h-2.7v-2.7h5.3v7.5zm-61.6-14.5h-2.3v14.9c0 2.2-.3 3.3-1.2 3.8l1.1 2.2c1.2-.7 2.3-2.2 2.4-5.2v-.8zm14.6 15.7v-7.8h-2.3v7.8c-.1 1.3-.1 2.9-3.6 2.9v2.4h.1c2.4-.1 3.9-.8 4.6-1.7.8.9 2.3 1.6 4.6 1.7h.2v-2.4c-3.5-.1-3.6-1.6-3.6-2.9zm-6.5-13.3v-2.3h10.7v2.3h-4.8l-.7 1.7h5.1v12.4h-2.6v-10.1h-4.7v10.1h-2.5v-12.4h2.2l.7-1.7zm-7 15.4h2.4v-16.3h-2.4zm-3.4-43.3h12.9v3.7h-7.9v4.5h7v3.7h-7v4.9h7.9v4h-12.9zm16.3 17.1 3.8-6.9-1.8-3.2c-1.2-2.2-2.6-4.6-4-7h5.2l2.9 5.2 3-5.2h5.2c-.6 1.1-1.3 2.4-1.9 3.5l-3.9 6.9 1.8 3.3c1.2 2.2 2.8 4.8 4.1 7.2h-5.2l-3.1-5.4-3.1 5.4h-4.9c-.1-.1 1.3-2.7 1.9-3.8zm92.4-7.6c-.7-.6-1.4-1-2.2-1.2l-.7-.4c-2.4-.9-3.6-1.6-3.6-2.9 0-.8.7-2 2.6-2 2.2 0 3.6 1 4.7 1.7l.2.1v-4.2l-.1-.1c-1.2-.5-2.5-1.1-5.2-1.1-5.4 0-7.3 3.1-7.3 6.3 0 3.6 2.8 4.8 4.3 5.7l1 .5c1.9.9 3.5 1.6 3.5 3.1 0 1.1-1 2.4-3.5 2.4s-4.2-1.2-4.9-1.9l-.4-.1v4.6h.1c.4.1.6.3 1 .3.6.3 2.4.9 4.5.9.9 0 3-.1 4.8-1 2.4-1.2 3.4-3.5 3.4-5.9 0-1.8-.6-3.6-2.2-4.8zm-15.4 0c-.8-.6-1.6-1-2.3-1.2l-.7-.4c-2.4-.9-3.6-1.6-3.6-2.9 0-.8.8-2 2.6-2 2.2 0 3.7 1 4.7 1.7l.4.1v-4.2l-.2-.1c-1.2-.5-2.4-1.1-5.2-1.1-5.4 0-7.2 3.1-7.2 6.3 0 3.6 2.7 4.8 4.2 5.7l1 .5c2.1.9 3.5 1.6 3.5 3.1 0 1.1-1 2.4-3.4 2.4-2.6 0-4.2-1.2-5.1-1.9l-.2-.1v4.6h.1l.8.3c.7.3 2.4.9 4.6.9.8 0 3-.1 4.7-1 2.4-1.2 3.4-3.5 3.4-5.9-.1-1.8-.7-3.6-2.1-4.8zm-44.3 11.3v-20.8h5.5c3.4-.1 4.9.3 6.4 1.1 2.4 1.2 2.8 3.7 2.8 5.1 0 4-2.7 5.2-4 5.8.7 1.2 4.7 7.5 5.8 8.9h-5.8c-1.9-3.9-2.4-4.5-4.3-7.8h-1.3v7.7zm5.1-11.4c1.4 0 2.5-.1 3.3-.6 1.1-.6 1.3-1.8 1.3-2.6 0-2.4-2.3-2.7-3.4-2.7-.4 0-.7 0-1.2.1zm-22 11.4v-20.8h7.5c4 0 7.8 1.3 7.8 6.6 0 6-5.3 7.7-10.1 7.7v6.5zm5.1-10.7s2 0 3.4-.4c1.3-.4 2.3-1.6 2.3-3 0-1.2-.6-2.4-2.3-2.8-1-.1-2.8-.1-3.4-.1zm29.5-10.1h12.9v3.7h-8v4.5h7v3.7h-7v4.9h8v4h-12.9z" fill="#000000"/></svg>
