<svg width="183" height="116" viewBox="0 0 183 116" fill="none" xmlns="http://www.w3.org/2000/svg">
<path d="M36.6094 68.3101C36.6094 66.0338 38.4547 64.1885 40.731 64.1885C43.0073 64.1885 44.8526 66.0338 44.8526 68.3101V104.129C44.8526 106.406 43.0073 108.251 40.731 108.251C38.4547 108.251 36.6094 106.406 36.6094 104.129V68.3101Z" fill="#000000"/>
<path d="M24.4453 59.2144C24.4453 56.9381 26.2906 55.0928 28.5669 55.0928C30.8432 55.0928 32.6886 56.9381 32.6886 59.2144V101.6H24.4453V59.2144Z" fill="#000000"/>
<path d="M12.2793 62.0572C12.2793 59.7809 14.1246 57.9355 16.4009 57.9355C18.6772 57.9355 20.5225 59.7809 20.5225 62.0572V90.9113H12.2793V62.0572Z" fill="#000000"/>
<path d="M141.253 72.2583C137.796 72.2583 135.022 71.3304 132.931 69.4747C130.84 67.5886 129.795 64.7594 129.795 60.9871C129.795 57.5494 130.659 54.8115 132.388 52.7732C134.116 50.7349 136.709 49.7158 140.165 49.7158C143.316 49.7158 145.755 50.598 147.483 52.3625C149.212 54.127 150.076 56.4999 150.076 59.4812V60.5172C150.076 62.0872 148.803 63.36 147.233 63.36H136.026C136.332 64.7898 137.043 65.7937 138.158 66.3717C139.301 66.9193 140.848 67.1931 142.8 67.1931C143.887 67.1931 144.988 67.0866 146.103 66.8737C147.246 66.6607 148.194 66.3869 148.947 66.0523V70.8437C147.999 71.3304 146.87 71.6803 145.56 71.8932C144.25 72.1366 142.814 72.2583 141.253 72.2583ZM136.026 59.1161H144.222V58.1578C144.222 57.0931 143.929 56.2565 143.343 55.6481C142.758 55.0092 141.768 54.6898 140.375 54.6898C138.758 54.6898 137.629 55.0548 136.987 55.785C136.346 56.4847 136.026 57.595 136.026 59.1161Z" fill="#000000"/>
<path d="M112.982 72.258C110.641 72.258 108.815 71.5431 107.504 70.1133C106.194 68.6531 105.539 66.5388 105.539 63.7704V50.1719H109.429C110.999 50.1719 112.272 51.4446 112.272 53.0146V63.3597C112.272 64.5766 112.536 65.474 113.066 66.052C113.624 66.5996 114.446 66.8734 115.533 66.8734C116.342 66.8734 117.108 66.6909 117.833 66.3258C118.558 65.9607 119.157 65.5044 119.631 64.9568V50.1719H123.521C125.091 50.1719 126.364 51.4446 126.364 53.0146V71.8017H121.928C120.882 71.8017 120.001 71.0165 119.882 69.9764C119.074 70.6457 118.098 71.1933 116.955 71.6192C115.812 72.0451 114.488 72.258 112.982 72.258Z" fill="#000000"/>
<path d="M92.7976 71.802C91.2277 71.802 89.9551 70.5292 89.9551 68.9592V50.1721H96.353L96.5621 52.18C97.4263 51.602 98.4996 51.0848 99.782 50.6285C101.064 50.1417 102.347 49.8375 103.629 49.7158V52.768C103.629 54.1791 102.576 55.3661 101.204 55.6937C100.34 55.8762 99.5032 56.1044 98.6947 56.3782C97.9142 56.652 97.2451 56.941 96.6875 57.2452V71.802H92.7976Z" fill="#000000"/>
<path d="M78.2829 71.8014C76.7131 71.8014 75.4404 70.5287 75.4404 68.9587V48.0725H70.3796C68.8097 48.0725 67.5371 46.7998 67.5371 45.2298V42.4141H87.2338C88.8036 42.4141 90.0763 43.6868 90.0763 45.2568V48.0725H82.1729V71.8014H78.2829Z" fill="#000000"/>
<path d="M165.016 108.489C163.446 108.489 162.174 107.216 162.174 105.646V79.0811H166.064C167.634 79.0811 168.906 80.3538 168.906 81.9238V89.3344C169.659 88.7527 170.593 88.2873 171.708 87.9382C172.823 87.5601 174.022 87.371 175.304 87.371C177.953 87.371 179.89 88.0255 181.117 89.3344C182.371 90.6433 182.998 92.6504 182.998 95.3555V108.489H179.109C177.539 108.489 176.266 107.216 176.266 105.646V95.8355C176.266 94.6429 176.029 93.7993 175.555 93.3048C175.081 92.8104 174.231 92.5631 173.004 92.5631C172.28 92.5631 171.541 92.7376 170.788 93.0867C170.035 93.4357 169.408 93.8721 168.906 94.3956V108.489H165.016Z" fill="#000000"/>
<path d="M151.681 108.925C148.141 108.925 145.367 108.023 143.36 106.22C141.38 104.416 140.391 101.726 140.391 98.148C140.391 94.5121 141.422 91.8069 143.485 90.0326C145.576 88.2583 148.35 87.3711 151.807 87.3711C153.256 87.3711 154.511 87.4874 155.57 87.7201C156.657 87.9238 157.703 88.2728 158.706 88.7673V93.7413C157.145 92.9559 155.319 92.5632 153.228 92.5632C151.277 92.5632 149.785 92.9704 148.754 93.7849C147.75 94.5993 147.249 96.0537 147.249 98.148C147.249 100.097 147.722 101.522 148.67 102.424C149.618 103.297 151.124 103.733 153.187 103.733C155.222 103.733 157.075 103.297 158.748 102.424V107.616C157.745 108.081 156.657 108.416 155.486 108.62C154.343 108.823 153.075 108.925 151.681 108.925Z" fill="#000000"/>
<path d="M133.739 108.924C131.286 108.924 129.474 108.27 128.303 106.961C127.16 105.652 126.588 103.849 126.588 101.551V93.1298C125.11 93.1298 123.912 91.9315 123.912 90.4533V87.8068H126.588V83.4873H130.478C132.048 83.4873 133.321 84.76 133.321 86.33V87.8068H134.995C136.564 87.8068 137.837 89.0795 137.837 90.6495V93.1298H133.321V101.071C133.321 102.06 133.558 102.758 134.032 103.165C134.506 103.543 135.217 103.732 136.164 103.732C137.396 103.732 138.632 104.582 138.632 105.813V108.052C137.321 108.633 135.69 108.924 133.739 108.924Z" fill="#000000"/>
<path d="M108.334 108.925C107.079 108.925 105.908 108.692 104.821 108.227C103.762 107.761 102.912 107.049 102.27 106.089C101.629 105.1 101.309 103.878 101.309 102.424C101.309 100.3 101.992 98.6425 103.358 97.4499C104.751 96.2282 106.828 95.6174 109.588 95.6174H115.108V95.1375C115.108 94.0903 114.774 93.3486 114.104 92.9123C113.435 92.4469 112.181 92.2142 110.341 92.2142C108.083 92.2142 105.867 92.5778 103.692 93.3049V88.7673C104.668 88.3601 105.853 88.0256 107.247 87.7638C108.668 87.502 110.16 87.3711 111.721 87.3711C114.787 87.3711 117.185 88.0256 118.913 89.3345C120.67 90.6434 121.548 92.7232 121.548 95.5738V108.489H117.429C116.397 108.489 115.511 107.756 115.317 106.743C114.592 107.441 113.658 107.98 112.515 108.358C111.4 108.736 110.006 108.925 108.334 108.925ZM110.466 104.605C111.526 104.605 112.446 104.416 113.226 104.038C114.007 103.66 114.634 103.18 115.108 102.598V99.6751H110.341C108.362 99.6751 107.372 100.504 107.372 102.162C107.372 102.918 107.623 103.515 108.125 103.951C108.627 104.387 109.407 104.605 110.466 104.605Z" fill="#000000"/>
<path d="M80.0403 108.489C76.399 108.489 73.2454 105.962 72.452 102.408L67.5371 80.3906H71.8365C73.1812 80.3906 74.342 81.333 74.6183 82.6492L77.6985 97.3196L81.3784 84.3611V80.3906H84.7287C86.0098 80.3906 87.1326 81.2476 87.4705 82.4834L91.5398 97.3632L95.2615 80.3906H98.3266C100.145 80.3906 101.495 82.0738 101.102 83.8488L95.6379 108.489C91.9552 108.489 88.7241 106.034 87.7368 102.486L84.891 92.2583L80.0403 108.489Z" fill="#000000"/>
<path fill-rule="evenodd" clip-rule="evenodd" d="M28.4974 7.51462L0.454855 0L0.234147 0.823762C-0.741001 4.46337 1.41872 8.20444 5.05802 9.17967L28.498 15.4609L28.4981 15.4606L51.1131 9.40039C55.2073 8.30326 57.637 4.09456 56.54 0L28.4974 7.51462ZM24.6002 18.7772L28.4026 19.7961L32.1946 18.78C32.1902 18.8934 32.188 19.0073 32.188 19.1218C32.188 23.9165 36.0746 27.8035 40.869 27.8035C45.6634 27.8035 49.55 23.9165 49.55 19.1218C49.55 17.418 49.0592 15.8288 48.2113 14.4879L55.3876 12.5649C56.2919 14.5645 56.7953 16.7843 56.7953 19.1216C56.7953 27.9183 49.6648 35.0495 40.8688 35.0495C37.9966 35.0495 35.302 34.2891 32.9752 32.9586L28.8035 37.1307C28.6259 37.3083 28.3379 37.3083 28.1603 37.1307L23.9796 32.9496C23.9664 32.9364 23.9541 32.9226 23.9429 32.9082C21.5884 34.2824 18.8496 35.0697 15.9269 35.0697C7.13097 35.0697 0.000424156 27.9385 0.000424156 19.1418C0.000424156 16.7966 0.507244 14.5697 1.41732 12.5648L8.59675 14.4887C7.74132 15.8337 7.2458 17.4299 7.2458 19.142C7.2458 23.9368 11.1324 27.8237 15.9268 27.8237C20.7211 27.8237 24.6078 23.9368 24.6078 19.142C24.6078 19.0198 24.6052 18.8982 24.6002 18.7772ZM10.819 19.1331C10.819 17.693 11.4138 16.3918 12.3712 15.462L20.8591 17.7365C20.9847 18.1804 21.052 18.6489 21.052 19.1331C21.052 21.9591 18.7612 24.25 15.9355 24.25C13.1097 24.25 10.819 21.9591 10.819 19.1331ZM35.9305 17.7384C35.8088 18.1757 35.7438 18.6367 35.7438 19.1129C35.7438 21.9389 38.0345 24.2298 40.8603 24.2298C43.6861 24.2298 45.9768 21.9389 45.9768 19.1129C45.9768 17.681 45.3887 16.3865 44.441 15.4578L35.9305 17.7384ZM4.66175 100.917H14.4299C17.2083 103.721 20.2673 106.292 23.5667 108.593H0.113758V105.466C0.113758 102.954 2.14997 100.917 4.66175 100.917ZM0.113758 43.1529V51.5672V57.139C0.113758 88.5797 25.8767 113.806 56.9069 116V53.7846C56.9069 47.5046 51.8163 42.4136 45.5369 42.4136H16.0888C9.73206 42.2763 4.04018 39.4358 0.113758 34.9941V42.4136V43.1529ZM48.6636 54.0689C48.6636 51.5569 46.6274 49.5205 44.1156 49.5205H7.91598V58.1055C7.91598 85.2537 30.7275 103.021 48.6636 106.605V54.0689Z" fill="#000000"/>
</svg>
