<svg width="163" height="30" viewBox="0 0 163 30" fill="none" xmlns="http://www.w3.org/2000/svg">
<g clip-path="url(#clip0_5637_6239)">
<path d="M13.6055 4.59429L10.3322 1.32107C9.91508 0.90283 9.4196 0.57089 8.87411 0.344218C8.32862 0.117546 7.74381 0.000586913 7.15309 1.93118e-05C6.06361 -0.00328922 5.01583 0.418635 4.23267 1.17603C3.82369 1.57082 3.49737 2.04305 3.27269 2.56521C3.04802 3.08736 2.9295 3.649 2.92403 4.21741C2.91855 4.78583 3.02624 5.34965 3.24082 5.87603C3.4554 6.40241 3.77257 6.88084 4.17387 7.28343L10.1127 13.2223C10.2387 13.3417 10.4056 13.4082 10.5792 13.4082C10.7528 13.4082 10.9197 13.3417 11.0457 13.2223L13.6016 10.6664C13.7623 10.4743 16.4357 7.42063 13.6055 4.59429Z" fill="#15A9CA"/>
<path d="M18.9692 9.82317C18.3459 9.21949 17.6991 8.5962 17.115 7.92196V7.89844C17.0942 7.95976 17.0784 8.02269 17.068 8.0866C16.8227 9.5194 16.1199 10.8342 15.0648 11.8342C11.6191 15.2563 8.13421 18.753 4.76298 22.136L4.30826 22.5868C3.61334 23.226 3.14433 24.0733 2.97152 25.0015C2.89854 25.6633 2.9678 26.333 3.17468 26.9658C3.38155 27.5986 3.72126 28.1798 4.17105 28.6707C4.55505 29.1062 5.03102 29.451 5.56455 29.6802C6.09808 29.9093 6.67586 30.0171 7.25612 29.9957C8.60069 30.0153 9.25533 29.8389 10.2353 28.8863C14.1554 25.0486 18.0754 21.1795 21.0429 18.2395C22.4423 16.8479 22.7638 14.5429 21.772 12.9906C20.9654 11.8283 20.0246 10.7652 18.9692 9.82317Z" fill="#52CAA3"/>
<path d="M-0.00390618 7.7743V22.2314C-0.00397307 22.3904 0.0431223 22.5458 0.131419 22.678C0.219716 22.8102 0.345246 22.9133 0.492127 22.9741C0.639009 23.035 0.800637 23.0509 0.956566 23.0199C1.1125 22.9888 1.25572 22.9122 1.3681 22.7998L8.64368 15.5242C8.78109 15.3855 8.85817 15.1981 8.85817 15.0028C8.85817 14.8076 8.78109 14.6202 8.64368 14.4815L1.3681 7.2059C1.29503 7.13135 1.20781 7.07215 1.11155 7.03176C1.01529 6.99137 0.911933 6.97061 0.807543 6.9707C0.593686 6.97069 0.388466 7.05511 0.236514 7.20559C0.0845616 7.35607 -0.00183992 7.56046 -0.00390618 7.7743Z" fill="#5268AD"/>
<path d="M31.748 21.1408V8.875H35.3858C39.3725 8.875 41.8539 11.227 41.8539 15.002C41.8539 18.777 39.3725 21.1408 35.3858 21.1408H31.748ZM33.7081 19.3846H35.4682C38.1612 19.3846 39.8978 17.6676 39.8978 15.0138C39.8978 12.3599 38.1612 10.6429 35.4682 10.6429H33.7081V19.3846Z" fill="#1D2434"/>
<path d="M50.6121 21.3296C49.7812 21.3296 48.9585 21.166 48.1909 20.848C47.4232 20.5301 46.7258 20.064 46.1383 19.4765C45.5508 18.889 45.0847 18.1915 44.7668 17.4239C44.4488 16.6563 44.2852 15.8336 44.2852 15.0027C44.2852 14.1718 44.4488 13.3491 44.7668 12.5815C45.0847 11.8139 45.5508 11.1164 46.1383 10.5289C46.7258 9.94139 47.4232 9.47535 48.1909 9.15739C48.9585 8.83944 49.7812 8.67578 50.6121 8.67578C51.4429 8.67578 52.2657 8.83944 53.0333 9.15739C53.8009 9.47535 54.4984 9.94139 55.0859 10.5289C55.6734 11.1164 56.1394 11.8139 56.4574 12.5815C56.7754 13.3491 56.939 14.1718 56.939 15.0027C56.939 15.8336 56.7754 16.6563 56.4574 17.4239C56.1394 18.1915 55.6734 18.889 55.0859 19.4765C54.4984 20.064 53.8009 20.5301 53.0333 20.848C52.2657 21.166 51.4429 21.3296 50.6121 21.3296ZM50.6121 10.4947C49.449 10.5432 48.3497 11.0394 47.5439 11.8795C46.7381 12.7196 46.2882 13.8386 46.2882 15.0027C46.2882 16.1668 46.7381 17.2858 47.5439 18.126C48.3497 18.9661 49.449 19.4622 50.6121 19.5107C51.7977 19.4832 52.9258 18.9944 53.7566 18.1482C54.5875 17.302 55.0555 16.1651 55.0613 14.9792C55.0645 13.795 54.5978 12.6578 53.7638 11.8172C52.9297 10.9765 51.7963 10.5009 50.6121 10.4947Z" fill="#1D2434"/>
<path d="M75.0559 8.875H73.041V21.129H75.0559V8.875Z" fill="#1D2434"/>
<path d="M82.4742 21.3296C81.1795 21.3193 79.9005 21.0459 78.7148 20.526V18.7228C79.8924 19.2753 81.1736 19.5719 82.4742 19.5931C84.0422 19.5931 85.0888 18.8757 85.0888 17.8134C85.0888 16.6178 83.8109 16.1434 82.4585 15.6417C80.3377 14.8577 78.7148 14.1011 78.7148 12.0941C78.7148 9.57348 80.9963 8.67578 82.9524 8.67578C84.052 8.6765 85.1419 8.88119 86.1668 9.27947V11.0435C85.1273 10.6289 84.0205 10.4084 82.9014 10.3928C81.3961 10.3928 80.7219 11.1768 80.7219 11.9608C80.7219 12.9996 81.8509 13.4151 83.1758 13.8933C85.4887 14.7283 87.2527 15.5437 87.2527 17.735C87.2448 19.8596 85.2848 21.3296 82.4742 21.3296Z" fill="#1D2434"/>
<path d="M66.026 16.1741L66.7904 15.8448C67.4416 15.565 67.9968 15.1008 68.3875 14.5095C68.7782 13.9181 68.9875 13.2255 68.9896 12.5167C68.9896 10.3058 67.398 8.87891 64.9363 8.87891H60.291V21.1408H62.251V10.6116H64.7285C65.0223 10.5938 65.3166 10.6367 65.5931 10.7374C65.8697 10.8381 66.1226 10.9946 66.3361 11.1971C66.5497 11.3997 66.7193 11.6439 66.8346 11.9147C66.9498 12.1856 67.0082 12.4772 67.006 12.7715C67.0048 13.0648 66.9441 13.3549 66.8277 13.6241C66.7113 13.8934 66.5416 14.1362 66.3288 14.3381C66.1159 14.5399 65.8644 14.6966 65.5894 14.7986C65.3143 14.9005 65.0215 14.9457 64.7285 14.9314H63.6858C63.2271 14.9981 63.4662 15.3901 63.4662 15.3901L67.4216 21.1408H69.6364L66.026 16.1741Z" fill="#1D2434"/>
</g>
<path d="M154.455 7.01587C154.888 7.53626 155.43 8.24096 156.081 9.12996C156.731 10.0081 157.295 10.7941 157.772 11.488L156.357 12.545C155.956 11.8945 155.436 11.114 154.796 10.2033C154.167 9.29258 153.631 8.55536 153.186 7.9916L154.455 7.01587ZM153.495 18.7735C153.495 19.0987 153.528 19.3426 153.593 19.5053C153.669 19.6679 153.788 19.7817 153.951 19.8468C154.124 19.901 154.384 19.9281 154.731 19.9281H156.325C156.726 19.9281 157.019 19.901 157.203 19.8468C157.398 19.7817 157.534 19.6679 157.61 19.5053C157.685 19.3426 157.734 19.0933 157.756 18.7572C157.778 18.3777 157.794 17.9549 157.805 17.4887C157.816 17.0226 157.821 16.6431 157.821 16.3504L159.496 16.7244L159.382 19.3752C159.35 19.9389 159.241 20.3834 159.057 20.7087C158.883 21.0339 158.602 21.267 158.211 21.4079C157.832 21.5489 157.311 21.6194 156.65 21.6194H154.292C153.663 21.6194 153.165 21.5435 152.796 21.3917C152.427 21.2399 152.156 20.9851 151.983 20.6274C151.82 20.2587 151.739 19.7492 151.739 19.0987V10.4472H153.495V18.7735ZM160.033 11.4717C160.358 12.1981 160.77 13.1684 161.269 14.3827C161.778 15.5861 162.212 16.654 162.57 17.5863L161.025 18.2856C160.667 17.3424 160.244 16.2691 159.756 15.0657C159.279 13.8514 158.878 12.8865 158.553 12.171L160.033 11.4717ZM147.771 17.9441C148.389 16.2962 148.953 14.2634 149.462 11.8458L151.137 12.2198C150.606 14.6916 150.01 16.7786 149.348 18.4807L147.771 17.9441Z" fill="#484E5B"/>
<path d="M139.087 7.11328V10.073H144.6V17.2121H139.087V22.0583H137.379V17.2121H131.915V10.073H137.379V7.11328H139.087ZM133.558 11.6992V15.6022H137.379V11.6992H133.558ZM139.087 11.6992V15.6022H142.957V11.6992H139.087Z" fill="#484E5B"/>
<path d="M122.922 7.17847H124.532V12.2523H127.964V22.0259H126.402V21.229H119.215V19.7329H126.402V17.4074H119.816V15.9438H126.402V13.7647H119.54V12.2523H122.922V7.17847ZM118.889 16.2203C118.575 15.9275 118.255 15.6402 117.93 15.3584L117.572 15.0331V21.9934H116.06V15.2933C115.572 16.4534 115.03 17.467 114.433 18.3344L114.011 16.0902C114.358 15.5915 114.71 14.9301 115.068 14.1062C115.436 13.2714 115.756 12.4203 116.027 11.553H114.271V10.0244H116.06V7.21099H117.572V10.0244H119.263V11.553H117.572V13.0817C118.635 13.9273 119.377 14.5344 119.8 14.903L118.889 16.2203ZM121.15 11.6668C120.597 10.7562 119.941 9.72622 119.182 8.57702L120.402 7.69886C120.684 8.09999 121.036 8.62038 121.459 9.26003C121.882 9.89968 122.212 10.4201 122.451 10.8212L121.15 11.6668ZM128.321 8.54449C128.235 8.69628 128.164 8.81011 128.11 8.886C127.297 10.2629 126.706 11.2169 126.337 11.7482L125.02 10.9188C125.335 10.4851 125.681 9.95931 126.061 9.34134C126.451 8.72338 126.771 8.19215 127.02 7.74765L128.321 8.54449Z" fill="#484E5B"/>
<path d="M110.807 21.945C109.441 21.4463 108.238 20.9259 107.197 20.3838C106.156 19.8417 105.234 19.2455 104.432 18.595C103.652 19.2346 102.741 19.8363 101.7 20.4001C100.659 20.9638 99.4505 21.5167 98.0736 22.0588L97.2443 20.3676C98.5452 19.9122 99.6782 19.446 100.643 18.969C101.619 18.492 102.464 17.977 103.18 17.4241C102.41 16.6001 101.754 15.6732 101.212 14.6432C100.67 13.6025 100.209 12.4045 99.83 11.0493H97.3744V9.48812H103.879C103.717 8.96773 103.473 8.24677 103.147 7.32524L104.92 7C105.072 7.34693 105.289 7.94321 105.571 8.78885L105.814 9.48812H111.49V11.0493H108.953C108.606 12.4045 108.167 13.6025 107.636 14.6432C107.115 15.6732 106.465 16.6001 105.684 17.4241C107.137 18.5191 109.127 19.4514 111.653 20.2212L110.807 21.945ZM101.586 11.0493C101.879 12.1443 102.253 13.1254 102.708 13.9928C103.175 14.8601 103.744 15.6352 104.416 16.3183C105.077 15.6352 105.625 14.8655 106.058 14.009C106.492 13.1525 106.855 12.166 107.148 11.0493H101.586Z" fill="#484E5B"/>
<defs>
<clipPath id="clip0_5637_6239">
<rect width="87.2442" height="30" fill="white"/>
</clipPath>
</defs>
</svg>
