<svg width="144" height="30" viewBox="0 0 144 30" fill="none" xmlns="http://www.w3.org/2000/svg">
<g clip-path="url(#clip0_6835_735)">
<path d="M13.6055 4.59429L10.3322 1.32107C9.91508 0.90283 9.4196 0.57089 8.87411 0.344218C8.32862 0.117546 7.74381 0.000586913 7.15309 1.93118e-05C6.06361 -0.00328922 5.01583 0.418635 4.23267 1.17603C3.82369 1.57082 3.49737 2.04305 3.27269 2.56521C3.04802 3.08736 2.9295 3.649 2.92403 4.21741C2.91855 4.78583 3.02624 5.34965 3.24082 5.87603C3.4554 6.40241 3.77257 6.88084 4.17387 7.28343L10.1127 13.2223C10.2387 13.3417 10.4056 13.4082 10.5792 13.4082C10.7528 13.4082 10.9197 13.3417 11.0457 13.2223L13.6015 10.6664C13.7623 10.4743 16.4357 7.42063 13.6055 4.59429Z" fill="#15A9CA"/>
<path d="M18.9692 9.82317C18.3459 9.21949 17.6991 8.5962 17.115 7.92196V7.89844C17.0942 7.95976 17.0784 8.02269 17.068 8.0866C16.8227 9.5194 16.1199 10.8342 15.0648 11.8342C11.6191 15.2563 8.13421 18.753 4.76298 22.136L4.30826 22.5868C3.61334 23.226 3.14433 24.0733 2.97152 25.0015C2.89854 25.6633 2.9678 26.333 3.17468 26.9658C3.38155 27.5986 3.72126 28.1798 4.17105 28.6707C4.55505 29.1062 5.03102 29.451 5.56455 29.6802C6.09808 29.9093 6.67586 30.0171 7.25612 29.9957V29.9957C8.60069 30.0153 9.25533 29.8389 10.2353 28.8863C14.1554 25.0486 18.0754 21.1795 21.0429 18.2395C22.4423 16.8479 22.7638 14.5429 21.772 12.9906C20.9654 11.8283 20.0246 10.7652 18.9692 9.82317V9.82317Z" fill="#52CAA3"/>
<path d="M-0.00390618 7.77431V22.2314C-0.00397307 22.3904 0.0431223 22.5458 0.131419 22.678C0.219716 22.8102 0.345246 22.9133 0.492127 22.9741C0.639009 23.035 0.800637 23.0509 0.956566 23.0199C1.1125 22.9888 1.25572 22.9122 1.3681 22.7998L8.64368 15.5242C8.78109 15.3855 8.85817 15.1981 8.85817 15.0028C8.85817 14.8076 8.78109 14.6202 8.64368 14.4815L1.3681 7.2059C1.29503 7.13135 1.20781 7.07215 1.11155 7.03176C1.01529 6.99137 0.911933 6.97061 0.807543 6.9707C0.593686 6.97069 0.388466 7.05511 0.236514 7.20559C0.0845616 7.35607 -0.00183992 7.56046 -0.00390618 7.77431V7.77431Z" fill="#5268AD"/>
<path d="M31.748 21.1408V8.875H35.3858C39.3725 8.875 41.8539 11.227 41.8539 15.002C41.8539 18.777 39.3725 21.1408 35.3858 21.1408H31.748ZM33.7081 19.3846H35.4682C38.1612 19.3846 39.8978 17.6676 39.8978 15.0138C39.8978 12.3599 38.1612 10.6429 35.4682 10.6429H33.7081V19.3846Z" fill="#1D2434"/>
<path d="M50.6121 21.3296C49.7812 21.3296 48.9585 21.166 48.1909 20.848C47.4232 20.5301 46.7258 20.064 46.1383 19.4765C45.5508 18.889 45.0847 18.1915 44.7668 17.4239C44.4488 16.6563 44.2852 15.8336 44.2852 15.0027C44.2852 14.1718 44.4488 13.3491 44.7668 12.5815C45.0847 11.8139 45.5508 11.1164 46.1383 10.5289C46.7258 9.94139 47.4232 9.47535 48.1909 9.15739C48.9585 8.83944 49.7812 8.67578 50.6121 8.67578C51.4429 8.67578 52.2657 8.83944 53.0333 9.15739C53.8009 9.47535 54.4984 9.94139 55.0859 10.5289C55.6734 11.1164 56.1394 11.8139 56.4574 12.5815C56.7754 13.3491 56.939 14.1718 56.939 15.0027C56.939 15.8336 56.7754 16.6563 56.4574 17.4239C56.1394 18.1915 55.6734 18.889 55.0859 19.4765C54.4984 20.064 53.8009 20.5301 53.0333 20.848C52.2657 21.166 51.4429 21.3296 50.6121 21.3296V21.3296ZM50.6121 10.4947C49.449 10.5432 48.3497 11.0394 47.5439 11.8795C46.7381 12.7196 46.2882 13.8386 46.2882 15.0027C46.2882 16.1668 46.7381 17.2858 47.5439 18.126C48.3497 18.9661 49.449 19.4622 50.6121 19.5107C51.7977 19.4832 52.9258 18.9944 53.7566 18.1482C54.5875 17.302 55.0555 16.1651 55.0613 14.9792C55.0644 13.795 54.5978 12.6578 53.7638 11.8172C52.9297 10.9765 51.7963 10.5009 50.6121 10.4947V10.4947Z" fill="#1D2434"/>
<path d="M75.0559 8.875H73.041V21.129H75.0559V8.875Z" fill="#1D2434"/>
<path d="M82.4742 21.3296C81.1795 21.3193 79.9005 21.0459 78.7148 20.526V18.7228C79.8924 19.2753 81.1736 19.5719 82.4742 19.5931C84.0422 19.5931 85.0888 18.8757 85.0888 17.8134C85.0888 16.6178 83.8109 16.1434 82.4585 15.6417C80.3377 14.8577 78.7148 14.1011 78.7148 12.0941C78.7148 9.57347 80.9963 8.67578 82.9524 8.67578C84.052 8.6765 85.1419 8.88119 86.1668 9.27947V11.0435C85.1273 10.6289 84.0205 10.4084 82.9014 10.3928C81.3961 10.3928 80.7219 11.1768 80.7219 11.9608C80.7219 12.9996 81.8509 13.4151 83.1758 13.8933C85.4887 14.7283 87.2527 15.5437 87.2527 17.735C87.2448 19.8596 85.2848 21.3296 82.4742 21.3296Z" fill="#1D2434"/>
<path d="M66.026 16.1741L66.7904 15.8448C67.4416 15.565 67.9968 15.1008 68.3875 14.5095C68.7782 13.9181 68.9875 13.2255 68.9896 12.5167C68.9896 10.3058 67.398 8.87891 64.9363 8.87891H60.291V21.1408H62.251V10.6116H64.7285C65.0223 10.5938 65.3166 10.6367 65.5931 10.7374C65.8697 10.8381 66.1226 10.9946 66.3361 11.1971C66.5497 11.3997 66.7193 11.6439 66.8346 11.9147C66.9498 12.1856 67.0082 12.4772 67.006 12.7715C67.0048 13.0648 66.9441 13.3549 66.8277 13.6241C66.7113 13.8934 66.5416 14.1362 66.3288 14.3381C66.1159 14.5399 65.8644 14.6966 65.5894 14.7986C65.3143 14.9005 65.0215 14.9457 64.7285 14.9314H63.6858C63.2271 14.9981 63.4662 15.3901 63.4662 15.3901L67.4216 21.1408H69.6364L66.026 16.1741Z" fill="#1D2434"/>
</g>
<path d="M138.65 21.0823C137.389 21.0722 136.142 20.8057 134.987 20.2991V18.5417C136.134 19.0801 137.383 19.3692 138.65 19.3898C140.179 19.3898 141.199 18.6907 141.199 17.6554C141.199 16.4902 139.953 16.0279 138.635 15.5389C136.568 14.7748 134.987 14.0375 134.987 12.0814C134.987 9.62488 137.21 8.75 139.116 8.75C140.188 8.7507 141.25 8.95019 142.249 9.33835V11.0575C141.236 10.6535 140.157 10.4386 139.067 10.4233C137.6 10.4233 136.943 11.1874 136.943 11.9515C136.943 12.9639 138.043 13.3689 139.334 13.835C141.588 14.6487 143.307 15.4434 143.307 17.579C143.3 19.6496 141.39 21.0823 138.65 21.0823Z" fill="#484E5B"/>
<path d="M132.6 18.7109C132.174 19.4144 131.593 19.974 130.857 20.3897C130.122 20.8054 129.285 21.0132 128.347 21.0132C127.239 21.0132 126.263 20.7574 125.421 20.2458C124.579 19.7341 123.924 19.0147 123.455 18.0873C122.996 17.1493 122.767 16.0568 122.767 14.8097C122.767 13.5945 122.996 12.5286 123.455 11.612C123.924 10.6953 124.579 9.99178 125.421 9.50146C126.263 9.00049 127.239 8.75 128.347 8.75C129.274 8.75 130.111 8.95785 130.857 9.37355C131.603 9.78926 132.184 10.3489 132.6 11.0524L131.145 12.0596C130.825 11.5587 130.41 11.1696 129.898 10.8925C129.397 10.6153 128.875 10.4768 128.331 10.4768C127.585 10.4768 126.935 10.6526 126.381 11.0044C125.837 11.3561 125.416 11.8571 125.117 12.5073C124.819 13.1575 124.67 13.925 124.67 14.8097C124.67 15.7157 124.819 16.5044 125.117 17.176C125.416 17.8475 125.842 18.3698 126.396 18.7428C126.951 19.1053 127.596 19.2865 128.331 19.2865C128.875 19.2865 129.392 19.1479 129.882 18.8708C130.383 18.583 130.804 18.1832 131.145 17.6716L132.6 18.7109Z" fill="#484E5B"/>
<path d="M115.105 21.25C113.975 21.25 112.992 21.0001 112.155 20.5003C111.318 20.0005 110.672 19.2835 110.216 18.3491C109.77 17.4038 109.547 16.2848 109.547 14.9919C109.547 13.6989 109.77 12.5853 110.216 11.6509C110.672 10.7057 111.318 9.98859 112.155 9.49967C112.992 8.99989 113.975 8.75 115.105 8.75C116.235 8.75 117.213 8.99989 118.038 9.49967C118.875 9.98859 119.516 10.7057 119.961 11.6509C120.418 12.5853 120.646 13.6989 120.646 14.9919C120.646 16.2848 120.418 17.4038 119.961 18.3491C119.516 19.2835 118.875 20.0005 118.038 20.5003C117.213 21.0001 116.235 21.25 115.105 21.25ZM115.105 19.4899C116.213 19.4899 117.093 19.0933 117.745 18.3002C118.408 17.5071 118.739 16.4043 118.739 14.9919C118.739 14.0575 118.587 13.2535 118.283 12.5799C117.989 11.9062 117.566 11.3956 117.012 11.0479C116.468 10.6894 115.833 10.5101 115.105 10.5101C113.986 10.5101 113.1 10.9067 112.448 11.6998C111.796 12.4929 111.47 13.5903 111.47 14.9919C111.47 16.4043 111.796 17.5071 112.448 18.3002C113.1 19.0933 113.986 19.4899 115.105 19.4899Z" fill="#484E5B"/>
<path d="M97.2441 21.0639V8.95853H101.759C102.97 8.95853 104 9.20936 104.851 9.71102C105.712 10.2127 106.361 10.9161 106.798 11.8213C107.245 12.7265 107.468 13.7898 107.468 15.0112C107.468 16.2327 107.234 17.3014 106.765 18.2175C106.307 19.1227 105.625 19.8261 104.72 20.3278C103.826 20.8185 102.746 21.0639 101.481 21.0639H97.2441ZM101.497 19.2972C102.806 19.2972 103.804 18.9264 104.491 18.1848C105.178 17.4323 105.522 16.3744 105.522 15.0112C105.522 13.648 105.189 12.5956 104.524 11.854C103.858 11.1124 102.893 10.7416 101.628 10.7416H99.109V19.2972H101.497Z" fill="#484E5B"/>
<defs>
<clipPath id="clip0_6835_735">
<rect width="87.2442" height="30" fill="white"/>
</clipPath>
</defs>
</svg>
