<svg width="236" height="36" viewBox="0 0 236 36" fill="none" xmlns="http://www.w3.org/2000/svg">
<path d="M16.3268 5.50503L12.4216 1.59975C11.3864 0.564619 9.97487 0 8.61037 0C7.33998 0 6.06959 0.470515 5.08151 1.41155C4.09342 2.39963 3.52881 3.67002 3.52881 5.08157C3.52881 6.49311 4.04637 7.7635 5.03446 8.75159L12.1392 15.8564C12.4215 16.1387 12.9391 16.1387 13.2685 15.8564L16.3268 12.798C16.515 12.5628 19.7616 8.89274 16.3268 5.50503Z" fill="#1FCD94"/>
<path d="M22.7735 11.7629C22.0206 11.0571 21.2678 10.3043 20.5621 9.45739C20.5621 9.45739 20.562 9.45739 20.515 9.41034C20.515 9.45739 20.4679 9.55149 20.4679 9.6456C20.1856 11.3395 19.3858 12.8451 18.0683 14.1625C13.9278 18.256 9.74019 22.4907 5.69376 26.5371L5.17619 27.0547C4.23516 27.9957 3.7176 28.9838 3.57644 29.9719C3.38824 31.4775 3.9058 33.1714 5.03504 34.3947C6.02312 35.4769 7.34056 36.0415 8.75211 35.9945C10.3519 36.0415 11.1517 35.8063 12.328 34.677C17.0332 30.066 21.7383 25.4079 25.3143 21.879C27.0081 20.1851 27.3845 17.4562 26.2082 15.5741C25.2202 14.1155 23.9968 12.9392 22.7735 11.7629Z" fill="#1FCD94"/>
<path d="M0 9.31621V26.6782C0 27.1487 0.329359 27.4311 0.611668 27.5722C0.893977 27.7134 1.31744 27.7134 1.6468 27.384L10.3984 18.6324C10.7278 18.3031 10.7278 17.7384 10.3984 17.362L1.6468 8.61044C1.4586 8.42223 1.17629 8.32812 0.988082 8.32812C0.846927 8.32812 0.705771 8.37518 0.611668 8.42223C0.329359 8.56338 0 8.84569 0 9.31621Z" fill="#1FCD94"/>
<path d="M78.3223 25.6841C77.4841 25.6841 76.7323 25.5444 76.067 25.265C75.4017 24.9723 74.8761 24.5731 74.4902 24.0675C74.1044 23.5485 73.8915 22.9564 73.8516 22.2911H75.7277C75.7809 22.8367 76.0337 23.2824 76.4861 23.6284C76.9518 23.9743 77.5572 24.1473 78.3024 24.1473C78.9943 24.1473 79.5398 23.9943 79.939 23.6883C80.3382 23.3822 80.5378 22.9964 80.5378 22.5306C80.5378 22.0516 80.3249 21.699 79.8991 21.4728C79.4733 21.2333 78.8147 21.0005 77.9232 20.7743C77.1115 20.5614 76.4462 20.3485 75.9273 20.1356C75.4217 19.9094 74.9826 19.5834 74.61 19.1576C74.2507 18.7185 74.0711 18.1464 74.0711 17.4412C74.0711 16.8823 74.2374 16.37 74.5701 15.9043C74.9027 15.4386 75.3751 15.0727 75.9872 14.8066C76.5992 14.5272 77.2978 14.3875 78.0828 14.3875C79.2937 14.3875 80.2716 14.6935 81.0168 15.3056C81.7619 15.9176 82.1611 16.7559 82.2143 17.8204H80.3981C80.3581 17.2482 80.1253 16.7892 79.6995 16.4432C79.287 16.0973 78.7282 15.9243 78.023 15.9243C77.371 15.9243 76.852 16.064 76.4662 16.3434C76.0803 16.6228 75.8874 16.9888 75.8874 17.4412C75.8874 17.8004 76.0005 18.0998 76.2267 18.3393C76.4662 18.5655 76.7589 18.7518 77.1048 18.8981C77.4641 19.0312 77.9564 19.1842 78.5818 19.3572C79.3668 19.5701 80.0055 19.783 80.4978 19.9959C80.9902 20.1955 81.4093 20.5015 81.7553 20.914C82.1145 21.3265 82.3008 21.8654 82.3141 22.5306C82.3141 23.1294 82.1478 23.6683 81.8151 24.1473C81.4825 24.6263 81.0101 25.0055 80.3981 25.285C79.7993 25.5511 79.1074 25.6841 78.3223 25.6841Z" fill="#18201D"/>
<path d="M75.8856 22.1165L75.901 22.2742C75.9493 22.7694 76.1761 23.1718 76.5917 23.4896C77.0194 23.8066 77.5846 23.9727 78.3018 23.9727V24.1472L78.1637 24.1453C77.4815 24.125 76.9221 23.9527 76.4855 23.6284C76.0331 23.2824 75.7804 22.8367 75.7272 22.2911H73.851C73.8909 22.9564 74.1038 23.5486 74.4897 24.0675C74.8756 24.5731 75.4011 24.9723 76.0664 25.265C76.6901 25.527 77.3898 25.6661 78.1655 25.6825L78.3217 25.6842C79.1068 25.6842 79.7987 25.551 80.3974 25.2849C81.0095 25.0055 81.4819 24.6263 81.8145 24.1472C82.1472 23.6682 82.3135 23.1294 82.3135 22.5306C82.3002 21.8653 82.1139 21.3264 81.7547 20.914C81.4088 20.5015 80.9896 20.1954 80.4973 19.9959C80.0666 19.8096 79.5237 19.6233 78.8688 19.437L78.5812 19.3572C77.9559 19.1842 77.4636 19.0312 77.1043 18.8981C76.7584 18.7517 76.4656 18.5655 76.2261 18.3393C75.9999 18.0998 75.8868 17.8003 75.8868 17.4411C75.8868 17.017 76.0564 16.6688 76.3956 16.3968L76.4656 16.3435C76.8515 16.064 77.3704 15.9242 78.0224 15.9242L78.1529 15.9263C78.7969 15.9466 79.3122 16.1189 79.6989 16.4432C80.1114 16.7784 80.3428 17.2197 80.3932 17.7671L80.3974 17.8204H82.2137C82.1622 16.7892 81.7859 15.9702 81.085 15.3635L81.0162 15.3055C80.2711 14.6935 79.2931 14.3874 78.0823 14.3874C77.2972 14.3874 76.5986 14.5271 75.9865 14.8066C75.3745 15.0727 74.9022 15.4386 74.5696 15.9043L74.5092 15.9921C74.2168 16.4342 74.0706 16.9172 74.0706 17.4411L74.0727 17.5718C74.0938 18.2174 74.2727 18.746 74.6095 19.1576C74.9821 19.5834 75.4211 19.9094 75.9267 20.1356C76.4456 20.3485 77.111 20.5614 77.9227 20.7743C78.8141 21.0005 79.4728 21.2333 79.8986 21.4728C80.3243 21.699 80.5371 22.0516 80.5371 22.5306C80.5371 22.9963 80.3375 23.3822 79.9384 23.6882C79.5392 23.9942 78.9937 24.1472 78.3018 24.1472V23.9727C78.9695 23.9727 79.4731 23.8249 79.8322 23.5496C80.1922 23.2736 80.3626 22.9371 80.3626 22.5306C80.3626 22.3177 80.3155 22.1421 80.228 21.9972C80.1405 21.8523 80.0064 21.7278 79.8166 21.627L79.8129 21.625C79.4075 21.397 78.7668 21.1686 77.8796 20.9435L77.8783 20.9432C77.0625 20.7293 76.3891 20.514 75.8605 20.2972L75.8579 20.2962L75.8553 20.295C75.3262 20.0583 74.8668 19.7169 74.478 19.2726L74.476 19.2705L74.4742 19.2682C74.0837 18.7909 73.8959 18.1765 73.8959 17.4411C73.8959 16.8449 74.0742 16.2974 74.4274 15.8028C74.7808 15.3081 75.2792 14.9242 75.914 14.6477C76.5524 14.3563 77.2763 14.2128 78.0823 14.2128C79.3229 14.2128 80.3434 14.5268 81.1271 15.1705C81.9145 15.8173 82.3327 16.7037 82.3881 17.8116L82.3974 17.9949H80.2346L80.2233 17.8325C80.1866 17.3061 79.9751 16.8926 79.5888 16.5787L79.5868 16.577C79.2144 16.2646 78.6995 16.0989 78.0224 16.0989C77.394 16.0989 76.915 16.2337 76.5681 16.4849C76.2248 16.7335 76.0614 17.0481 76.0614 17.4411C76.0614 17.7588 76.1596 18.0131 76.3506 18.2166C76.5717 18.4242 76.8438 18.5978 77.1698 18.7361C77.5218 18.8662 78.0068 19.0171 78.6269 19.1886C79.4144 19.4022 80.0606 19.6171 80.5629 19.834C81.081 20.044 81.5227 20.3665 81.8863 20.7993H81.8864C82.2781 21.2489 82.4742 21.8302 82.4882 22.5272V22.5306C82.4882 23.1639 82.3116 23.7378 81.9581 24.2469C81.6049 24.7554 81.1062 25.1534 80.47 25.4438L80.4685 25.4445C79.8434 25.7223 79.1265 25.8588 78.3217 25.8588C77.464 25.8588 76.6886 25.7158 75.9987 25.4261L75.9975 25.4255L75.996 25.4248C75.3077 25.1219 74.757 24.7056 74.3508 24.1734L74.3501 24.1725L74.3496 24.1717C73.9428 23.6246 73.7185 22.9997 73.6766 22.3016L73.6655 22.1165H75.8856Z" fill="#18201D"/>
<path d="M70.4762 12.7907C70.1303 12.7907 69.8375 12.6709 69.598 12.4314C69.3585 12.1919 69.2388 11.8992 69.2388 11.5532C69.2388 11.2073 69.3585 10.9146 69.598 10.6751C69.8375 10.4355 70.1303 10.3158 70.4762 10.3158C70.8089 10.3158 71.0883 10.4355 71.3145 10.6751C71.554 10.9146 71.6737 11.2073 71.6737 11.5532C71.6737 11.8992 71.554 12.1919 71.3145 12.4314C71.0883 12.6709 70.8089 12.7907 70.4762 12.7907ZM71.3544 14.567V25.5045H69.5382V14.567H71.3544Z" fill="#18201D"/>
<path d="M71.3543 14.5669H69.5381V25.5044H71.3543V14.5669ZM71.6736 11.5532C71.6736 11.2073 71.5538 10.9146 71.3143 10.6751C71.1023 10.4505 70.8434 10.3312 70.5378 10.3172L70.4761 10.3158C70.1301 10.3158 69.8374 10.4356 69.5979 10.6751L69.5544 10.7205C69.3439 10.9513 69.2386 11.2289 69.2386 11.5532L69.2401 11.6175C69.2541 11.9356 69.3734 12.2069 69.5979 12.4314C69.8225 12.6559 70.0938 12.7752 70.4119 12.7893L70.4761 12.7907C70.8087 12.7907 71.0881 12.6709 71.3143 12.4314C71.5389 12.2069 71.6582 11.9356 71.6722 11.6175L71.6736 11.5532ZM71.5289 25.679H69.3634V14.3924H71.5289V25.679ZM71.8483 11.5532C71.8483 11.9427 71.7119 12.2788 71.4412 12.5512C71.1817 12.826 70.8563 12.9654 70.4761 12.9654C70.0849 12.9654 69.7474 12.8279 69.4744 12.5549C69.2014 12.2819 69.064 11.9444 69.064 11.5532C69.064 11.1621 69.2014 10.8246 69.4744 10.5516C69.7474 10.2785 70.0849 10.1411 70.4761 10.1411C70.8563 10.1411 71.1818 10.2803 71.4414 10.5551H71.4412C71.712 10.8275 71.8483 11.1637 71.8483 11.5532Z" fill="#18201D"/>
<path d="M63.909 16.3434C64.2284 15.718 64.6808 15.2323 65.2662 14.8864C65.865 14.5404 66.5902 14.3674 67.4417 14.3674V16.2436H66.9627C64.9269 16.2436 63.909 17.3479 63.909 19.5567V25.5044H62.0928V14.567H63.909V16.3434Z" fill="#18201D"/>
<path d="M63.909 19.5567C63.909 17.3824 64.8952 16.2784 66.8679 16.2444L66.9626 16.2436H67.4415V14.3674C66.59 14.3674 65.8648 14.5404 65.2661 14.8863C64.6806 15.2323 64.2283 15.718 63.909 16.3433V14.567H62.0926V25.5044H63.909V19.5567ZM64.0835 15.7258C64.3779 15.3233 64.7426 14.9928 65.1773 14.7359L65.1787 14.7351C65.8095 14.3706 66.5664 14.1928 67.4415 14.1927H67.6162V16.4182H66.9626C65.9754 16.4182 65.2661 16.6853 64.8008 17.1902C64.3329 17.6979 64.0835 18.4759 64.0835 19.5567V25.6791H61.918V14.3924H64.0835V15.7258Z" fill="#18201D"/>
<path d="M54.0962 25.6841C53.0717 25.6841 52.1403 25.4513 51.302 24.9856C50.477 24.5199 49.825 23.8612 49.346 23.0097C48.8803 22.1448 48.6475 21.1468 48.6475 20.0158C48.6475 18.8981 48.887 17.9135 49.366 17.0619C49.8583 16.1971 50.5236 15.5384 51.3619 15.086C52.2001 14.6203 53.1382 14.3875 54.1761 14.3875C55.2139 14.3875 56.152 14.6203 56.9902 15.086C57.8285 15.5384 58.4872 16.1904 58.9662 17.042C59.4585 17.8936 59.7046 18.8848 59.7046 20.0158C59.7046 21.1468 59.4518 22.1448 58.9462 23.0097C58.4539 23.8612 57.7819 24.5199 56.9304 24.9856C56.0788 25.4513 55.1341 25.6841 54.0962 25.6841ZM54.0962 24.0874C54.7482 24.0874 55.3603 23.9344 55.9324 23.6284C56.5046 23.3223 56.9636 22.8633 57.3096 22.2512C57.6688 21.6392 57.8485 20.894 57.8485 20.0158C57.8485 19.1376 57.6755 18.3925 57.3295 17.7805C56.9836 17.1684 56.5312 16.716 55.9723 16.4233C55.4135 16.1172 54.8081 15.9642 54.1561 15.9642C53.4908 15.9642 52.8787 16.1172 52.3199 16.4233C51.7743 16.716 51.3352 17.1684 51.0026 17.7805C50.67 18.3925 50.5036 19.1376 50.5036 20.0158C50.5036 20.9073 50.6633 21.6591 50.9826 22.2712C51.3153 22.8833 51.7544 23.3423 52.2999 23.6483C52.8455 23.9411 53.4442 24.0874 54.0962 24.0874Z" fill="#18201D"/>
<path d="M59.7051 20.0158C59.705 18.8848 59.4589 17.8935 58.9666 17.042C58.5026 16.217 57.8699 15.5794 57.0687 15.129L56.9907 15.086C56.1524 14.6203 55.2142 14.3874 54.1764 14.3874C53.1385 14.3874 52.2005 14.6203 51.3622 15.086C50.5239 15.5384 49.8587 16.197 49.3664 17.0619C48.8874 17.9135 48.6478 18.8981 48.6478 20.0158C48.6478 21.1468 48.8806 22.1448 49.3463 23.0097C49.8254 23.8613 50.4774 24.5199 51.3024 24.9856C52.1144 25.4368 53.0139 25.6694 54.0008 25.6834L54.0966 25.6842C55.1021 25.6841 56.0201 25.4656 56.8507 25.0285L56.9307 24.9856C57.7822 24.5199 58.4542 23.8613 58.9465 23.0097C59.4364 22.1719 59.6889 21.2091 59.7042 20.1215L59.7051 20.0158ZM57.6741 20.0158C57.6741 19.1603 57.5057 18.4464 57.1778 17.8663C56.8465 17.2801 56.4173 16.8533 55.8916 16.578L55.8902 16.5773L55.8888 16.5764C55.3563 16.2848 54.7798 16.1388 54.1565 16.1388C53.5191 16.1388 52.9361 16.2851 52.4041 16.5764L52.4028 16.5771C51.8909 16.8518 51.4749 17.2778 51.1564 17.8639C50.8409 18.4445 50.6786 19.1593 50.6786 20.0158C50.6786 20.8868 50.8346 21.6091 51.1375 22.1899C51.456 22.7753 51.8725 23.208 52.3853 23.4958C52.9035 23.7733 53.4729 23.9127 54.0966 23.9127V24.0874L53.975 24.0857C53.37 24.0686 52.8117 23.9227 52.3002 23.6483C51.7547 23.3422 51.3156 22.8832 50.983 22.2712C50.6637 21.6592 50.5039 20.9073 50.5039 20.0158C50.5039 19.165 50.66 18.4391 50.9722 17.8382L51.0029 17.7805C51.3252 17.1875 51.7473 16.7444 52.2694 16.4512L52.3202 16.4232C52.8791 16.1172 53.4912 15.9641 54.1565 15.9641L54.2781 15.966C54.8839 15.9839 55.4487 16.1363 55.9726 16.4232C56.5315 16.7159 56.984 17.1684 57.3299 17.7805C57.6758 18.3925 57.8488 19.1376 57.8488 20.0158C57.8488 20.8939 57.6691 21.6391 57.3099 22.2512C56.9639 22.8632 56.505 23.3223 55.9328 23.6284L55.825 23.6839C55.2839 23.9529 54.7078 24.0874 54.0966 24.0874V23.9127C54.72 23.9127 55.3038 23.7668 55.8504 23.4744C56.3909 23.1853 56.8269 22.751 57.1579 22.1652L57.1587 22.1641L57.1594 22.1628C57.4995 21.5832 57.6741 20.8702 57.6741 20.0158ZM59.8796 20.0158C59.8796 21.1733 59.6205 22.2022 59.0976 23.097C58.5895 23.9758 57.8946 24.6576 57.0145 25.1388C56.1355 25.6196 55.1617 25.8588 54.0966 25.8588C53.0445 25.8588 52.0835 25.6194 51.2175 25.1383L51.2165 25.1377C50.3629 24.6558 49.6883 23.9737 49.1941 23.0953L49.1934 23.0938L49.1926 23.0924C48.7112 22.1985 48.4731 21.1712 48.4731 20.0158C48.4732 18.8725 48.7185 17.8576 49.2142 16.9763L49.2146 16.9755C49.7223 16.0835 50.4109 15.401 51.2792 14.9323C52.1451 14.4517 53.1121 14.2128 54.1764 14.2128C55.2406 14.2128 56.2077 14.4517 57.0735 14.9323L57.1544 14.9768C57.9835 15.4429 58.6385 16.1034 59.1177 16.9546L59.1647 17.0376C59.643 17.9004 59.8796 18.8949 59.8796 20.0158Z" fill="#18201D"/>
<path d="M39.5459 11.5932C41.0628 11.5932 42.3734 11.8793 43.4778 12.4514C44.5955 13.0103 45.4471 13.8153 46.0325 14.8664C46.6313 15.9176 46.9307 17.1551 46.9307 18.5788C46.9307 20.0025 46.6313 21.24 46.0325 22.2911C45.4471 23.329 44.5955 24.1273 43.4778 24.6862C42.3734 25.2317 41.0628 25.5045 39.5459 25.5045H35.2148V11.5932H39.5459ZM39.5459 24.0076C41.3422 24.0076 42.7127 23.5352 43.6574 22.5905C44.6021 21.6325 45.0745 20.2952 45.0745 18.5788C45.0745 16.849 44.5955 15.4985 43.6375 14.5271C42.6927 13.5558 41.3289 13.0702 39.5459 13.0702H37.0311V24.0076H39.5459Z" fill="#18201D"/>
<path d="M46.9305 18.5788C46.9305 17.155 46.6311 15.9176 46.0323 14.8664C45.4469 13.8153 44.5953 13.0103 43.4777 12.4515C42.3733 11.8793 41.0626 11.5932 39.5457 11.5932V11.4185C41.0835 11.4185 42.4221 11.7085 43.5557 12.2953L43.6626 12.3497C44.7577 12.9209 45.5998 13.7315 46.1841 14.78C46.8003 15.8618 47.1052 17.1301 47.1052 18.5788C47.1052 20.0271 46.8003 21.295 46.1844 22.3767L46.1845 22.3768C45.5811 23.4465 44.7029 24.2688 43.5557 24.8424L43.555 24.8428C42.4216 25.4026 41.0833 25.6791 39.5457 25.6791H35.04V11.4185H39.5457V11.5932H35.2147V25.5045H39.5457L39.6874 25.5037C41.0974 25.4877 42.3261 25.232 43.3735 24.7365L43.4777 24.6862C44.5954 24.1273 45.4469 23.329 46.0323 22.2911C46.6124 21.2728 46.9116 20.0796 46.9297 18.7117L46.9305 18.5788ZM44.8998 18.5788C44.8998 16.882 44.4307 15.5803 43.5129 14.6498L43.4264 14.5633C42.5273 13.6918 41.2424 13.2448 39.5457 13.2448H37.2056V23.8329H39.5457V24.0076H37.031V13.0701H39.5457C41.3287 13.0701 42.6926 13.5558 43.6373 14.5272C44.5953 15.4985 45.0744 16.849 45.0744 18.5788L45.073 18.7385C45.0444 20.3784 44.5725 21.6624 43.6573 22.5905C42.7126 23.5352 41.342 24.0076 39.5457 24.0076V23.8329C41.3121 23.8329 42.6319 23.3689 43.5338 22.4669C44.4375 21.55 44.8998 20.262 44.8998 18.5788Z" fill="#18201D"/>
<path d="M231.308 14.724C232.508 14.724 233.48 15.09 234.224 15.822C234.968 16.542 235.34 17.586 235.34 18.954V24.768H233.72V19.188C233.72 18.204 233.474 17.454 232.982 16.938C232.49 16.41 231.818 16.146 230.966 16.146C230.102 16.146 229.412 16.416 228.896 16.956C228.392 17.496 228.14 18.282 228.14 19.314V24.768H226.502V14.904H228.14V16.308C228.464 15.804 228.902 15.414 229.454 15.138C230.018 14.862 230.636 14.724 231.308 14.724Z" fill="#252C2A"/>
<path d="M219.363 24.93C218.439 24.93 217.599 24.72 216.843 24.3C216.099 23.88 215.511 23.286 215.079 22.518C214.659 21.738 214.449 20.838 214.449 19.818C214.449 18.81 214.665 17.922 215.097 17.154C215.541 16.374 216.141 15.78 216.897 15.372C217.653 14.952 218.499 14.742 219.435 14.742C220.371 14.742 221.217 14.952 221.973 15.372C222.729 15.78 223.323 16.368 223.755 17.136C224.199 17.904 224.421 18.798 224.421 19.818C224.421 20.838 224.193 21.738 223.737 22.518C223.293 23.286 222.687 23.88 221.919 24.3C221.151 24.72 220.299 24.93 219.363 24.93ZM219.363 23.49C219.951 23.49 220.503 23.352 221.019 23.076C221.535 22.8 221.949 22.386 222.261 21.834C222.585 21.282 222.747 20.61 222.747 19.818C222.747 19.026 222.591 18.354 222.279 17.802C221.967 17.25 221.559 16.842 221.055 16.578C220.551 16.302 220.005 16.164 219.417 16.164C218.817 16.164 218.265 16.302 217.761 16.578C217.269 16.842 216.873 17.25 216.573 17.802C216.273 18.354 216.123 19.026 216.123 19.818C216.123 20.622 216.267 21.3 216.555 21.852C216.855 22.404 217.251 22.818 217.743 23.094C218.235 23.358 218.775 23.49 219.363 23.49Z" fill="#252C2A"/>
<path d="M211.55 13.3019C211.238 13.3019 210.974 13.1939 210.758 12.9779C210.542 12.7619 210.434 12.4979 210.434 12.1859C210.434 11.8739 210.542 11.6099 210.758 11.3939C210.974 11.1779 211.238 11.0699 211.55 11.0699C211.85 11.0699 212.102 11.1779 212.306 11.3939C212.522 11.6099 212.63 11.8739 212.63 12.1859C212.63 12.4979 212.522 12.7619 212.306 12.9779C212.102 13.1939 211.85 13.3019 211.55 13.3019ZM212.342 14.9039V24.7679H210.704V14.9039H212.342Z" fill="#252C2A"/>
<path d="M206.217 16.254V22.068C206.217 22.548 206.319 22.89 206.523 23.094C206.727 23.286 207.081 23.382 207.585 23.382H208.791V24.768H207.315C206.403 24.768 205.719 24.558 205.263 24.138C204.807 23.718 204.579 23.028 204.579 22.068V16.254H203.301V14.904H204.579V12.42H206.217V14.904H208.791V16.254H206.217Z" fill="#252C2A"/>
<path d="M191.515 19.8C191.515 18.792 191.719 17.91 192.127 17.154C192.535 16.386 193.093 15.792 193.801 15.372C194.521 14.952 195.319 14.742 196.195 14.742C197.059 14.742 197.809 14.928 198.445 15.3C199.081 15.672 199.555 16.14 199.867 16.704V14.904H201.523V24.768H199.867V22.932C199.543 23.508 199.057 23.988 198.409 24.372C197.773 24.744 197.029 24.93 196.177 24.93C195.301 24.93 194.509 24.714 193.801 24.282C193.093 23.85 192.535 23.244 192.127 22.464C191.719 21.684 191.515 20.796 191.515 19.8ZM199.867 19.818C199.867 19.074 199.717 18.426 199.417 17.874C199.117 17.322 198.709 16.902 198.193 16.614C197.689 16.314 197.131 16.164 196.519 16.164C195.907 16.164 195.349 16.308 194.845 16.596C194.341 16.884 193.939 17.304 193.639 17.856C193.339 18.408 193.189 19.056 193.189 19.8C193.189 20.556 193.339 21.216 193.639 21.78C193.939 22.332 194.341 22.758 194.845 23.058C195.349 23.346 195.907 23.49 196.519 23.49C197.131 23.49 197.689 23.346 198.193 23.058C198.709 22.758 199.117 22.332 199.417 21.78C199.717 21.216 199.867 20.562 199.867 19.818Z" fill="#252C2A"/>
<path d="M187.64 16.254V22.068C187.64 22.548 187.742 22.89 187.946 23.094C188.15 23.286 188.504 23.382 189.008 23.382H190.214V24.768H188.738C187.826 24.768 187.142 24.558 186.686 24.138C186.23 23.718 186.002 23.028 186.002 22.068V16.254H184.724V14.904H186.002V12.42H187.64V14.904H190.214V16.254H187.64Z" fill="#252C2A"/>
<path d="M179.007 14.724C180.207 14.724 181.179 15.09 181.923 15.822C182.667 16.542 183.039 17.586 183.039 18.954V24.768H181.419V19.188C181.419 18.204 181.173 17.454 180.681 16.938C180.189 16.41 179.517 16.146 178.665 16.146C177.801 16.146 177.111 16.416 176.595 16.956C176.091 17.496 175.839 18.282 175.839 19.314V24.768H174.201V14.904H175.839V16.308C176.163 15.804 176.601 15.414 177.153 15.138C177.717 14.862 178.335 14.724 179.007 14.724Z" fill="#252C2A"/>
<path d="M172.111 19.458C172.111 19.77 172.093 20.1 172.057 20.448H164.173C164.233 21.42 164.563 22.182 165.163 22.734C165.775 23.274 166.513 23.544 167.377 23.544C168.085 23.544 168.673 23.382 169.141 23.058C169.621 22.722 169.957 22.278 170.149 21.726H171.913C171.649 22.674 171.121 23.448 170.329 24.048C169.537 24.636 168.553 24.93 167.377 24.93C166.441 24.93 165.601 24.72 164.857 24.3C164.125 23.88 163.549 23.286 163.129 22.518C162.709 21.738 162.499 20.838 162.499 19.818C162.499 18.798 162.703 17.904 163.111 17.136C163.519 16.368 164.089 15.78 164.821 15.372C165.565 14.952 166.417 14.742 167.377 14.742C168.313 14.742 169.141 14.946 169.861 15.354C170.581 15.762 171.133 16.326 171.517 17.046C171.913 17.754 172.111 18.558 172.111 19.458ZM170.419 19.116C170.419 18.492 170.281 17.958 170.005 17.514C169.729 17.058 169.351 16.716 168.871 16.488C168.403 16.248 167.881 16.128 167.305 16.128C166.477 16.128 165.769 16.392 165.181 16.92C164.605 17.448 164.275 18.18 164.191 19.116H170.419Z" fill="#252C2A"/>
<path d="M156.499 14.724C157.267 14.724 157.951 14.886 158.551 15.21C159.151 15.522 159.625 15.996 159.973 16.632C160.321 17.268 160.495 18.042 160.495 18.954V24.768H158.875V19.188C158.875 18.204 158.629 17.454 158.137 16.938C157.657 16.41 157.003 16.146 156.175 16.146C155.323 16.146 154.645 16.422 154.141 16.974C153.637 17.514 153.385 18.3 153.385 19.332V24.768H151.765V19.188C151.765 18.204 151.519 17.454 151.027 16.938C150.547 16.41 149.893 16.146 149.065 16.146C148.213 16.146 147.535 16.422 147.031 16.974C146.527 17.514 146.275 18.3 146.275 19.332V24.768H144.637V14.904H146.275V16.326C146.599 15.81 147.031 15.414 147.571 15.138C148.123 14.862 148.729 14.724 149.389 14.724C150.217 14.724 150.949 14.91 151.585 15.282C152.221 15.654 152.695 16.2 153.007 16.92C153.283 16.224 153.739 15.684 154.375 15.3C155.011 14.916 155.719 14.724 156.499 14.724Z" fill="#252C2A"/>
<path d="M141.943 14.904V24.768H140.305V23.31C139.993 23.814 139.555 24.21 138.991 24.498C138.439 24.774 137.827 24.912 137.155 24.912C136.387 24.912 135.697 24.756 135.085 24.444C134.473 24.12 133.987 23.64 133.627 23.004C133.279 22.368 133.105 21.594 133.105 20.682V14.904H134.725V20.466C134.725 21.438 134.971 22.188 135.463 22.716C135.955 23.232 136.627 23.49 137.479 23.49C138.355 23.49 139.045 23.22 139.549 22.68C140.053 22.14 140.305 21.354 140.305 20.322V14.904H141.943Z" fill="#252C2A"/>
<path d="M121.722 19.818C121.722 18.798 121.926 17.91 122.334 17.154C122.742 16.386 123.306 15.792 124.026 15.372C124.758 14.952 125.592 14.742 126.528 14.742C127.74 14.742 128.736 15.036 129.516 15.624C130.308 16.212 130.83 17.028 131.082 18.072H129.318C129.15 17.472 128.82 16.998 128.328 16.65C127.848 16.302 127.248 16.128 126.528 16.128C125.592 16.128 124.836 16.452 124.26 17.1C123.684 17.736 123.396 18.642 123.396 19.818C123.396 21.006 123.684 21.924 124.26 22.572C124.836 23.22 125.592 23.544 126.528 23.544C127.248 23.544 127.848 23.376 128.328 23.04C128.808 22.704 129.138 22.224 129.318 21.6H131.082C130.818 22.608 130.29 23.418 129.498 24.03C128.706 24.63 127.716 24.93 126.528 24.93C125.592 24.93 124.758 24.72 124.026 24.3C123.306 23.88 122.742 23.286 122.334 22.518C121.926 21.75 121.722 20.85 121.722 19.818Z" fill="#252C2A"/>
<path d="M115.194 24.93C114.27 24.93 113.43 24.72 112.674 24.3C111.93 23.88 111.342 23.286 110.91 22.518C110.49 21.738 110.28 20.838 110.28 19.818C110.28 18.81 110.496 17.922 110.928 17.154C111.372 16.374 111.972 15.78 112.728 15.372C113.484 14.952 114.33 14.742 115.266 14.742C116.202 14.742 117.048 14.952 117.804 15.372C118.56 15.78 119.154 16.368 119.586 17.136C120.03 17.904 120.252 18.798 120.252 19.818C120.252 20.838 120.024 21.738 119.568 22.518C119.124 23.286 118.518 23.88 117.75 24.3C116.982 24.72 116.13 24.93 115.194 24.93ZM115.194 23.49C115.782 23.49 116.334 23.352 116.85 23.076C117.366 22.8 117.78 22.386 118.092 21.834C118.416 21.282 118.578 20.61 118.578 19.818C118.578 19.026 118.422 18.354 118.11 17.802C117.798 17.25 117.39 16.842 116.886 16.578C116.382 16.302 115.836 16.164 115.248 16.164C114.648 16.164 114.096 16.302 113.592 16.578C113.1 16.842 112.704 17.25 112.404 17.802C112.104 18.354 111.954 19.026 111.954 19.818C111.954 20.622 112.098 21.3 112.386 21.852C112.686 22.404 113.082 22.818 113.574 23.094C114.066 23.358 114.606 23.49 115.194 23.49Z" fill="#252C2A"/>
<path d="M102.144 12.222C103.512 12.222 104.694 12.48 105.69 12.996C106.698 13.5 107.466 14.226 107.994 15.174C108.534 16.122 108.804 17.238 108.804 18.522C108.804 19.806 108.534 20.922 107.994 21.87C107.466 22.806 106.698 23.526 105.69 24.03C104.694 24.522 103.512 24.768 102.144 24.768H98.2378V12.222H102.144ZM102.144 23.418C103.764 23.418 105 22.992 105.852 22.14C106.704 21.276 107.13 20.07 107.13 18.522C107.13 16.962 106.698 15.744 105.834 14.868C104.982 13.992 103.752 13.554 102.144 13.554H99.8758V23.418H102.144Z" fill="#252C2A"/>
</svg>
