<svg width="161" height="40" viewBox="0 0 161 40" fill="none" xmlns="http://www.w3.org/2000/svg">
<g clip-path="url(#clip0_6771_1473)">
<path d="M13.6055 9.59429L10.3322 6.32107C9.91508 5.90283 9.4196 5.57089 8.87411 5.34422C8.32862 5.11755 7.74381 5.00059 7.15309 5.00002C6.06361 4.99671 5.01583 5.41864 4.23267 6.17603C3.82369 6.57082 3.49737 7.04305 3.27269 7.56521C3.04802 8.08736 2.9295 8.649 2.92403 9.21741C2.91855 9.78583 3.02624 10.3496 3.24082 10.876C3.4554 11.4024 3.77257 11.8808 4.17387 12.2834L10.1127 18.2223C10.2387 18.3417 10.4056 18.4082 10.5792 18.4082C10.7528 18.4082 10.9197 18.3417 11.0457 18.2223L13.6015 15.6664C13.7623 15.4743 16.4357 12.4206 13.6055 9.59429Z" fill="#15A9CA"/>
<path d="M18.9692 14.8232C18.3459 14.2195 17.6991 13.5962 17.115 12.922V12.8984C17.0942 12.9598 17.0784 13.0227 17.068 13.0866C16.8227 14.5194 16.1199 15.8342 15.0648 16.8342C11.6191 20.2563 8.13421 23.753 4.76298 27.136L4.30826 27.5868C3.61334 28.226 3.14433 29.0733 2.97152 30.0015C2.89854 30.6633 2.9678 31.333 3.17468 31.9658C3.38155 32.5986 3.72126 33.1798 4.17105 33.6707C4.55505 34.1062 5.03102 34.451 5.56455 34.6802C6.09808 34.9093 6.67586 35.0171 7.25612 34.9957V34.9957C8.60069 35.0153 9.25533 34.8389 10.2353 33.8863C14.1554 30.0486 18.0754 26.1795 21.0429 23.2395C22.4423 21.8479 22.7638 19.5429 21.772 17.9906C20.9654 16.8283 20.0246 15.7652 18.9692 14.8232V14.8232Z" fill="#52CAA3"/>
<path d="M-0.00390618 12.7743V27.2314C-0.00397307 27.3904 0.0431223 27.5458 0.131419 27.678C0.219716 27.8102 0.345246 27.9133 0.492127 27.9741C0.639009 28.035 0.800637 28.0509 0.956566 28.0199C1.1125 27.9888 1.25572 27.9122 1.3681 27.7998L8.64368 20.5242C8.78109 20.3855 8.85817 20.1981 8.85817 20.0028C8.85817 19.8076 8.78109 19.6202 8.64368 19.4815L1.3681 12.2059C1.29503 12.1314 1.20781 12.0721 1.11155 12.0318C1.01529 11.9914 0.911933 11.9706 0.807543 11.9707C0.593686 11.9707 0.388466 12.0551 0.236514 12.2056C0.0845616 12.3561 -0.00183992 12.5605 -0.00390618 12.7743V12.7743Z" fill="#5268AD"/>
<path d="M31.748 26.1408V13.875H35.3858C39.3725 13.875 41.8539 16.227 41.8539 20.002C41.8539 23.777 39.3725 26.1408 35.3858 26.1408H31.748ZM33.7081 24.3846H35.4682C38.1612 24.3846 39.8978 22.6676 39.8978 20.0138C39.8978 17.3599 38.1612 15.6429 35.4682 15.6429H33.7081V24.3846Z" fill="#1D2434"/>
<path d="M50.6121 26.3296C49.7812 26.3296 48.9585 26.166 48.1909 25.848C47.4232 25.5301 46.7258 25.064 46.1383 24.4765C45.5508 23.889 45.0847 23.1915 44.7668 22.4239C44.4488 21.6563 44.2852 20.8336 44.2852 20.0027C44.2852 19.1718 44.4488 18.3491 44.7668 17.5815C45.0847 16.8139 45.5508 16.1164 46.1383 15.5289C46.7258 14.9414 47.4232 14.4754 48.1909 14.1574C48.9585 13.8394 49.7812 13.6758 50.6121 13.6758C51.4429 13.6758 52.2657 13.8394 53.0333 14.1574C53.8009 14.4754 54.4984 14.9414 55.0859 15.5289C55.6734 16.1164 56.1394 16.8139 56.4574 17.5815C56.7754 18.3491 56.939 19.1718 56.939 20.0027C56.939 20.8336 56.7754 21.6563 56.4574 22.4239C56.1394 23.1915 55.6734 23.889 55.0859 24.4765C54.4984 25.064 53.8009 25.5301 53.0333 25.848C52.2657 26.166 51.4429 26.3296 50.6121 26.3296V26.3296ZM50.6121 15.4947C49.449 15.5432 48.3497 16.0394 47.5439 16.8795C46.7381 17.7196 46.2882 18.8386 46.2882 20.0027C46.2882 21.1668 46.7381 22.2858 47.5439 23.126C48.3497 23.9661 49.449 24.4622 50.6121 24.5107C51.7977 24.4832 52.9258 23.9944 53.7566 23.1482C54.5875 22.302 55.0555 21.1651 55.0613 19.9792C55.0644 18.795 54.5978 17.6578 53.7638 16.8172C52.9297 15.9765 51.7963 15.5009 50.6121 15.4947V15.4947Z" fill="#1D2434"/>
<path d="M75.0559 13.875H73.041V26.129H75.0559V13.875Z" fill="#1D2434"/>
<path d="M82.4742 26.3296C81.1795 26.3193 79.9005 26.0459 78.7148 25.526V23.7228C79.8924 24.2753 81.1736 24.5719 82.4742 24.5931C84.0422 24.5931 85.0888 23.8757 85.0888 22.8134C85.0888 21.6178 83.8109 21.1434 82.4585 20.6417C80.3377 19.8577 78.7148 19.1011 78.7148 17.0941C78.7148 14.5735 80.9963 13.6758 82.9524 13.6758C84.052 13.6765 85.1419 13.8812 86.1668 14.2795V16.0435C85.1273 15.6289 84.0205 15.4084 82.9014 15.3928C81.3961 15.3928 80.7219 16.1768 80.7219 16.9608C80.7219 17.9996 81.8509 18.4151 83.1758 18.8933C85.4887 19.7283 87.2527 20.5437 87.2527 22.735C87.2448 24.8596 85.2848 26.3296 82.4742 26.3296Z" fill="#1D2434"/>
<path d="M66.026 21.1741L66.7904 20.8448C67.4416 20.565 67.9968 20.1008 68.3875 19.5095C68.7782 18.9181 68.9875 18.2255 68.9896 17.5167C68.9896 15.3058 67.398 13.8789 64.9363 13.8789H60.291V26.1408H62.251V15.6116H64.7285C65.0223 15.5938 65.3166 15.6367 65.5931 15.7374C65.8697 15.8381 66.1226 15.9946 66.3361 16.1971C66.5497 16.3997 66.7193 16.6439 66.8346 16.9147C66.9498 17.1856 67.0082 17.4772 67.006 17.7715C67.0048 18.0648 66.9441 18.3549 66.8277 18.6241C66.7113 18.8934 66.5416 19.1362 66.3288 19.3381C66.1159 19.5399 65.8644 19.6966 65.5894 19.7986C65.3143 19.9005 65.0215 19.9457 64.7285 19.9314H63.6858C63.2271 19.9981 63.4662 20.3901 63.4662 20.3901L67.4216 26.1408H69.6364L66.026 21.1741Z" fill="#1D2434"/>
</g>
<path d="M152.455 12.0159C152.888 12.5363 153.43 13.241 154.081 14.13C154.731 15.0082 155.295 15.7942 155.772 16.488L154.357 17.5451C153.956 16.8946 153.436 16.114 152.796 15.2033C152.167 14.2926 151.631 13.5554 151.186 12.9917L152.455 12.0159ZM151.495 23.7735C151.495 24.0988 151.528 24.3427 151.593 24.5053C151.669 24.6679 151.788 24.7818 151.95 24.8468C152.124 24.901 152.384 24.9281 152.731 24.9281H154.325C154.726 24.9281 155.019 24.901 155.203 24.8468C155.398 24.7818 155.534 24.6679 155.609 24.5053C155.685 24.3427 155.734 24.0933 155.756 23.7573C155.777 23.3778 155.794 22.955 155.805 22.4888C155.815 22.0226 155.821 21.6432 155.821 21.3505L157.496 21.7245L157.382 24.3752C157.349 24.939 157.241 25.3835 157.057 25.7087C156.883 26.034 156.601 26.2671 156.211 26.408C155.832 26.5489 155.311 26.6194 154.65 26.6194H152.292C151.663 26.6194 151.164 26.5435 150.796 26.3917C150.427 26.24 150.156 25.9852 149.983 25.6274C149.82 25.2588 149.739 24.7493 149.739 24.0988V15.4473H151.495V23.7735ZM158.032 16.4718C158.358 17.1982 158.77 18.1685 159.268 19.3827C159.778 20.5861 160.212 21.654 160.569 22.5864L159.024 23.2857C158.667 22.3424 158.244 21.2691 157.756 20.0657C157.279 18.8515 156.878 17.8866 156.553 17.1711L158.032 16.4718ZM145.771 22.9441C146.389 21.2962 146.952 19.2635 147.462 16.8458L149.137 17.2198C148.606 19.6917 148.01 21.7787 147.348 23.4808L145.771 22.9441Z" fill="#484E5B"/>
<path d="M137.087 12.1133V15.0731H142.6V22.2122H137.087V27.0583H135.379V22.2122H129.915V15.0731H135.379V12.1133H137.087ZM131.558 16.6993V20.6022H135.379V16.6993H131.558ZM137.087 16.6993V20.6022H140.957V16.6993H137.087Z" fill="#484E5B"/>
<path d="M120.922 12.1784H122.532V17.2522H125.963V27.0258H124.402V26.229H117.214V24.7328H124.402V22.4073H117.816V20.9437H124.402V18.7646H117.54V17.2522H120.922V12.1784ZM116.889 21.2202C116.575 20.9275 116.255 20.6402 115.93 20.3583L115.572 20.0331V26.9933H114.06V20.2933C113.572 21.4533 113.03 22.467 112.433 23.3343L112.01 21.0901C112.357 20.5914 112.71 19.9301 113.068 19.1061C113.436 18.2713 113.756 17.4203 114.027 16.5529H112.271V15.0243H114.06V12.2109H115.572V15.0243H117.263V16.5529H115.572V18.0816C116.634 18.9272 117.377 19.5344 117.8 19.903L116.889 21.2202ZM119.15 16.6668C118.597 15.7561 117.941 14.7262 117.182 13.577L118.402 12.6988C118.683 13.0999 119.036 13.6203 119.459 14.26C119.881 14.8996 120.212 15.42 120.451 15.8211L119.15 16.6668ZM126.321 13.5444C126.235 13.6962 126.164 13.81 126.11 13.8859C125.297 15.2628 124.706 16.2169 124.337 16.7481L123.02 15.9187C123.334 15.4851 123.681 14.9592 124.061 14.3413C124.451 13.7233 124.771 13.1921 125.02 12.7476L126.321 13.5444Z" fill="#484E5B"/>
<path d="M108.807 26.945C107.441 26.4463 106.237 25.9259 105.197 25.3838C104.156 24.8417 103.234 24.2455 102.432 23.595C101.651 24.2346 100.741 24.8363 99.7 25.4001C98.6592 25.9638 97.4504 26.5167 96.0735 27.0588L95.2441 25.3676C96.5451 24.9122 97.6781 24.446 98.6429 23.969C99.6187 23.492 100.464 22.977 101.18 22.4241C100.41 21.6001 99.7542 20.6732 99.2121 19.6432C98.6701 18.6025 98.2093 17.4045 97.8298 16.0493H95.3742V14.4881H101.879C101.717 13.9677 101.473 13.2468 101.147 12.3252L102.92 12C103.072 12.3469 103.289 12.9432 103.57 13.7888L103.814 14.4881H109.49V16.0493H106.953C106.606 17.4045 106.167 18.6025 105.636 19.6432C105.115 20.6732 104.465 21.6001 103.684 22.4241C105.137 23.5191 107.126 24.4514 109.652 25.2212L108.807 26.945ZM99.5862 16.0493C99.8789 17.1443 100.253 18.1254 100.708 18.9928C101.174 19.8601 101.744 20.6352 102.416 21.3183C103.077 20.6352 103.625 19.8655 104.058 19.009C104.492 18.1525 104.855 17.166 105.148 16.0493H99.5862Z" fill="#484E5B"/>
<defs>
<clipPath id="clip0_6771_1473">
<rect width="87.2442" height="30" fill="white" transform="translate(0 5)"/>
</clipPath>
</defs>
</svg>
