<svg width="236" height="30" viewBox="0 0 236 30" fill="none" xmlns="http://www.w3.org/2000/svg">
    <g clip-path="url(#clip0_7708_8755)">
        <path
            d="M13.6055 4.59429L10.3322 1.32107C9.91508 0.90283 9.4196 0.57089 8.87411 0.344218C8.32862 0.117546 7.74381 0.000586913 7.15309 1.93118e-05C6.06361 -0.00328922 5.01583 0.418635 4.23267 1.17603C3.82369 1.57082 3.49737 2.04305 3.27269 2.56521C3.04802 3.08736 2.9295 3.649 2.92403 4.21741C2.91855 4.78583 3.02624 5.34965 3.24082 5.87603C3.4554 6.40241 3.77257 6.88084 4.17387 7.28343L10.1127 13.2223C10.2387 13.3417 10.4056 13.4082 10.5792 13.4082C10.7528 13.4082 10.9197 13.3417 11.0457 13.2223L13.6016 10.6664C13.7623 10.4743 16.4357 7.42063 13.6055 4.59429Z"
            fill="#15A9CA" />
        <path
            d="M18.9692 9.82317C18.3459 9.21949 17.6991 8.5962 17.115 7.92196V7.89844C17.0942 7.95976 17.0784 8.02269 17.068 8.0866C16.8227 9.5194 16.1199 10.8342 15.0648 11.8342C11.6191 15.2563 8.13421 18.753 4.76298 22.136L4.30826 22.5868C3.61334 23.226 3.14433 24.0733 2.97152 25.0015C2.89854 25.6633 2.9678 26.333 3.17468 26.9658C3.38155 27.5986 3.72126 28.1798 4.17105 28.6707C4.55505 29.1062 5.03102 29.451 5.56455 29.6802C6.09808 29.9093 6.67586 30.0171 7.25612 29.9957C8.60069 30.0153 9.25533 29.8389 10.2353 28.8863C14.1554 25.0486 18.0754 21.1795 21.0429 18.2395C22.4423 16.8479 22.7638 14.5429 21.772 12.9906C20.9654 11.8283 20.0246 10.7652 18.9692 9.82317Z"
            fill="#52CAA3" />
        <path
            d="M-0.00390618 7.7743V22.2314C-0.00397307 22.3904 0.0431223 22.5458 0.131419 22.678C0.219716 22.8102 0.345246 22.9133 0.492127 22.9741C0.639009 23.035 0.800637 23.0509 0.956566 23.0199C1.1125 22.9888 1.25572 22.9122 1.3681 22.7998L8.64368 15.5242C8.78109 15.3855 8.85817 15.1981 8.85817 15.0028C8.85817 14.8076 8.78109 14.6202 8.64368 14.4815L1.3681 7.2059C1.29503 7.13135 1.20781 7.07215 1.11155 7.03176C1.01529 6.99137 0.911933 6.97061 0.807543 6.9707C0.593686 6.97069 0.388466 7.05511 0.236514 7.20559C0.0845616 7.35607 -0.00183992 7.56046 -0.00390618 7.7743Z"
            fill="#5268AD" />
        <path
            d="M31.748 21.1408V8.875H35.3858C39.3725 8.875 41.8539 11.227 41.8539 15.002C41.8539 18.777 39.3725 21.1408 35.3858 21.1408H31.748ZM33.7081 19.3846H35.4682C38.1612 19.3846 39.8978 17.6676 39.8978 15.0138C39.8978 12.3599 38.1612 10.6429 35.4682 10.6429H33.7081V19.3846Z"
            fill="#1D2434" />
        <path
            d="M50.6121 21.3296C49.7812 21.3296 48.9585 21.166 48.1909 20.848C47.4232 20.5301 46.7258 20.064 46.1383 19.4765C45.5508 18.889 45.0847 18.1915 44.7668 17.4239C44.4488 16.6563 44.2852 15.8336 44.2852 15.0027C44.2852 14.1718 44.4488 13.3491 44.7668 12.5815C45.0847 11.8139 45.5508 11.1164 46.1383 10.5289C46.7258 9.94139 47.4232 9.47535 48.1909 9.15739C48.9585 8.83944 49.7812 8.67578 50.6121 8.67578C51.4429 8.67578 52.2657 8.83944 53.0333 9.15739C53.8009 9.47535 54.4984 9.94139 55.0859 10.5289C55.6734 11.1164 56.1394 11.8139 56.4574 12.5815C56.7754 13.3491 56.939 14.1718 56.939 15.0027C56.939 15.8336 56.7754 16.6563 56.4574 17.4239C56.1394 18.1915 55.6734 18.889 55.0859 19.4765C54.4984 20.064 53.8009 20.5301 53.0333 20.848C52.2657 21.166 51.4429 21.3296 50.6121 21.3296ZM50.6121 10.4947C49.449 10.5432 48.3497 11.0394 47.5439 11.8795C46.7381 12.7196 46.2882 13.8386 46.2882 15.0027C46.2882 16.1668 46.7381 17.2858 47.5439 18.126C48.3497 18.9661 49.449 19.4622 50.6121 19.5107C51.7977 19.4832 52.9258 18.9944 53.7566 18.1482C54.5875 17.302 55.0555 16.1651 55.0613 14.9792C55.0645 13.795 54.5978 12.6578 53.7638 11.8172C52.9297 10.9765 51.7963 10.5009 50.6121 10.4947Z"
            fill="#1D2434" />
        <path d="M75.0559 8.875H73.041V21.129H75.0559V8.875Z" fill="#1D2434" />
        <path
            d="M82.4742 21.3296C81.1795 21.3193 79.9005 21.0459 78.7148 20.526V18.7228C79.8924 19.2753 81.1736 19.5719 82.4742 19.5931C84.0422 19.5931 85.0888 18.8757 85.0888 17.8134C85.0888 16.6178 83.8109 16.1434 82.4585 15.6417C80.3377 14.8577 78.7148 14.1011 78.7148 12.0941C78.7148 9.57348 80.9963 8.67578 82.9524 8.67578C84.052 8.6765 85.1419 8.88119 86.1668 9.27947V11.0435C85.1273 10.6289 84.0205 10.4084 82.9014 10.3928C81.3961 10.3928 80.7219 11.1768 80.7219 11.9608C80.7219 12.9996 81.8509 13.4151 83.1758 13.8933C85.4887 14.7283 87.2527 15.5437 87.2527 17.735C87.2448 19.8596 85.2848 21.3296 82.4742 21.3296Z"
            fill="#1D2434" />
        <path
            d="M66.026 16.1741L66.7904 15.8448C67.4416 15.565 67.9968 15.1008 68.3875 14.5095C68.7782 13.9181 68.9875 13.2255 68.9896 12.5167C68.9896 10.3058 67.398 8.87891 64.9363 8.87891H60.291V21.1408H62.251V10.6116H64.7285C65.0223 10.5938 65.3166 10.6367 65.5931 10.7374C65.8697 10.8381 66.1226 10.9946 66.3361 11.1971C66.5497 11.3997 66.7193 11.6439 66.8346 11.9147C66.9498 12.1856 67.0082 12.4772 67.006 12.7715C67.0048 13.0648 66.9441 13.3549 66.8277 13.6241C66.7113 13.8934 66.5416 14.1362 66.3288 14.3381C66.1159 14.5399 65.8644 14.6966 65.5894 14.7986C65.3143 14.9005 65.0215 14.9457 64.7285 14.9314H63.6858C63.2271 14.9981 63.4662 15.3901 63.4662 15.3901L67.4216 21.1408H69.6364L66.026 16.1741Z"
            fill="#1D2434" />
    </g>
    <path
        d="M228.138 20.9651H226.317V8.93408H228.073L234.007 17.5997H234.105V8.93408H235.925V20.9651H234.218L228.235 12.2995H228.138V20.9651Z"
        fill="#484E5B" />
    <path
        d="M219.104 21.1927C217.976 21.1927 216.995 20.9434 216.161 20.4448C215.326 19.9462 214.681 19.2308 214.226 18.2987C213.782 17.3557 213.56 16.2393 213.56 14.9495C213.56 13.6597 213.782 12.5487 214.226 11.6166C214.681 10.6736 215.326 9.95828 216.161 9.47053C216.995 8.97195 217.976 8.72266 219.104 8.72266C220.231 8.72266 221.206 8.97195 222.03 9.47053C222.865 9.95828 223.504 10.6736 223.949 11.6166C224.404 12.5487 224.631 13.6597 224.631 14.9495C224.631 16.2393 224.404 17.3557 223.949 18.2987C223.504 19.2308 222.865 19.9462 222.03 20.4448C221.206 20.9434 220.231 21.1927 219.104 21.1927ZM219.104 19.4368C220.209 19.4368 221.087 19.0412 221.737 18.2499C222.399 17.4587 222.729 16.3586 222.729 14.9495C222.729 14.0174 222.577 13.2153 222.274 12.5433C221.981 11.8713 221.559 11.3619 221.006 11.0151C220.464 10.6574 219.83 10.4785 219.104 10.4785C217.987 10.4785 217.104 10.8742 216.454 11.6654C215.803 12.4566 215.478 13.5513 215.478 14.9495C215.478 16.3586 215.803 17.4587 216.454 18.2499C217.104 19.0412 217.987 19.4368 219.104 19.4368Z"
        fill="#484E5B" />
    <path d="M211.897 8.93408V20.9651H210.044V8.93408H211.897Z" fill="#484E5B" />
    <path d="M204.154 20.9651H202.284V10.7062H198.626V8.93408H207.812V10.7062H204.154V20.9651Z"
        fill="#484E5B" />
    <path
        d="M199.83 20.9651H197.846L196.529 17.3395H192.221L190.904 20.9651H188.92L193.408 8.93408H195.342L199.83 20.9651ZM194.334 11.5191L192.855 15.5837H195.895L194.432 11.5191H194.334Z"
        fill="#484E5B" />
    <path d="M186.483 20.9651H184.614V10.7062H180.956V8.93408H190.141V10.7062H186.483V20.9651Z"
        fill="#484E5B" />
    <path
        d="M170.935 20.9651H169.114V8.93408H170.87L176.804 17.5997H176.902V8.93408H178.723V20.9651H177.016L171.033 12.2995H170.935V20.9651Z"
        fill="#484E5B" />
    <path
        d="M160.569 15.6162V19.2417H166.601V20.9651H158.716V8.93408H166.39V10.6737H160.569V13.8928H166.065V15.6162H160.569Z"
        fill="#484E5B" />
    <path
        d="M146.454 20.9651H144.633V8.93408H146.405L150.616 15.7137H150.713L154.924 8.93408H156.713V20.9651H154.875V12.4296H154.778L151.282 18.0386H150.047L146.551 12.4458H146.454V20.9651Z"
        fill="#484E5B" />
    <path
        d="M137.64 19.502C138.483 19.502 139.149 19.23 139.64 18.686C140.131 18.142 140.376 17.3847 140.376 16.414V8.95801H142.28V16.526C142.28 17.5073 142.088 18.3553 141.704 19.07C141.331 19.7847 140.797 20.334 140.104 20.718C139.411 21.0913 138.589 21.278 137.64 21.278C136.691 21.278 135.869 21.0913 135.176 20.718C134.483 20.334 133.944 19.7847 133.56 19.07C133.187 18.3553 133 17.5073 133 16.526V8.95801H134.904V16.35C134.904 17.3313 135.149 18.1047 135.64 18.67C136.131 19.2247 136.797 19.502 137.64 19.502Z"
        fill="#484E5B" />
    <path
        d="M131.113 18.8515C130.679 19.5668 130.089 20.1359 129.341 20.5586C128.593 20.9813 127.742 21.1927 126.788 21.1927C125.661 21.1927 124.669 20.9325 123.813 20.4123C122.957 19.892 122.29 19.1604 121.813 18.2174C121.347 17.2636 121.114 16.1526 121.114 14.8845C121.114 13.6489 121.347 12.565 121.813 11.6329C122.29 10.7007 122.957 9.98537 123.813 9.48679C124.669 8.97737 125.661 8.72266 126.788 8.72266C127.731 8.72266 128.582 8.93401 129.341 9.35672C130.1 9.77944 130.69 10.3485 131.113 11.0638L129.634 12.0881C129.308 11.5787 128.886 11.1831 128.365 10.9012C127.856 10.6194 127.325 10.4785 126.772 10.4785C126.013 10.4785 125.352 10.6574 124.789 11.0151C124.236 11.3727 123.808 11.8822 123.504 12.5433C123.201 13.2045 123.049 13.9849 123.049 14.8845C123.049 15.8058 123.201 16.6079 123.504 17.2907C123.808 17.9735 124.241 18.5046 124.805 18.884C125.368 19.2525 126.024 19.4368 126.772 19.4368C127.325 19.4368 127.851 19.2959 128.349 19.0141C128.859 18.7214 129.287 18.315 129.634 17.7947L131.113 18.8515Z"
        fill="#484E5B" />
    <path
        d="M114.258 21.1927C113.131 21.1927 112.15 20.9434 111.316 20.4448C110.481 19.9462 109.836 19.2308 109.381 18.2987C108.937 17.3557 108.714 16.2393 108.714 14.9495C108.714 13.6597 108.937 12.5487 109.381 11.6166C109.836 10.6736 110.481 9.95828 111.316 9.47053C112.15 8.97195 113.131 8.72266 114.258 8.72266C115.386 8.72266 116.361 8.97195 117.185 9.47053C118.019 9.95828 118.659 10.6736 119.103 11.6166C119.559 12.5487 119.786 13.6597 119.786 14.9495C119.786 16.2393 119.559 17.3557 119.103 18.2987C118.659 19.2308 118.019 19.9462 117.185 20.4448C116.361 20.9434 115.386 21.1927 114.258 21.1927ZM114.258 19.4368C115.364 19.4368 116.242 19.0412 116.892 18.2499C117.553 17.4587 117.884 16.3586 117.884 14.9495C117.884 14.0174 117.732 13.2153 117.429 12.5433C117.136 11.8713 116.713 11.3619 116.161 11.0151C115.619 10.6574 114.985 10.4785 114.258 10.4785C113.142 10.4785 112.259 10.8742 111.608 11.6654C110.958 12.4566 110.633 13.5513 110.633 14.9495C110.633 16.3586 110.958 17.4587 111.608 18.2499C112.259 19.0412 113.142 19.4368 114.258 19.4368Z"
        fill="#484E5B" />
    <path
        d="M97.2441 20.9651V8.93408H101.731C102.934 8.93408 103.959 9.18337 104.804 9.68196C105.66 10.1805 106.305 10.8796 106.739 11.7793C107.183 12.6789 107.405 13.7357 107.405 14.9496C107.405 16.1635 107.172 17.2257 106.706 18.1362C106.251 19.0358 105.574 19.7349 104.674 20.2335C103.785 20.7212 102.712 20.9651 101.455 20.9651H97.2441ZM101.471 19.2092C102.772 19.2092 103.764 18.8407 104.447 18.1037C105.129 17.3558 105.471 16.3044 105.471 14.9496C105.471 13.5948 105.14 12.5488 104.479 11.8118C103.818 11.0747 102.859 10.7062 101.601 10.7062H99.0976V19.2092H101.471Z"
        fill="#484E5B" />
    <defs>
        <clipPath id="clip0_7708_8755">
            <rect width="87.2442" height="30" fill="white" />
        </clipPath>
    </defs>
</svg>