<svg width="236" height="40" viewBox="0 0 236 40" fill="none" xmlns="http://www.w3.org/2000/svg">
<g clip-path="url(#clip0_6771_1495)">
<path d="M13.6055 9.59429L10.3322 6.32107C9.91508 5.90283 9.4196 5.57089 8.87411 5.34422C8.32862 5.11755 7.74381 5.00059 7.15309 5.00002C6.06361 4.99671 5.01583 5.41864 4.23267 6.17603C3.82369 6.57082 3.49737 7.04305 3.27269 7.56521C3.04802 8.08736 2.9295 8.649 2.92403 9.21741C2.91855 9.78583 3.02624 10.3496 3.24082 10.876C3.4554 11.4024 3.77257 11.8808 4.17387 12.2834L10.1127 18.2223C10.2387 18.3417 10.4056 18.4082 10.5792 18.4082C10.7528 18.4082 10.9197 18.3417 11.0457 18.2223L13.6015 15.6664C13.7623 15.4743 16.4357 12.4206 13.6055 9.59429Z" fill="#15A9CA"/>
<path d="M18.9692 14.8232C18.3459 14.2195 17.6991 13.5962 17.115 12.922V12.8984C17.0942 12.9598 17.0784 13.0227 17.068 13.0866C16.8227 14.5194 16.1199 15.8342 15.0648 16.8342C11.6191 20.2563 8.13421 23.753 4.76298 27.136L4.30826 27.5868C3.61334 28.226 3.14433 29.0733 2.97152 30.0015C2.89854 30.6633 2.9678 31.333 3.17468 31.9658C3.38155 32.5986 3.72126 33.1798 4.17105 33.6707C4.55505 34.1062 5.03102 34.451 5.56455 34.6802C6.09808 34.9093 6.67586 35.0171 7.25612 34.9957V34.9957C8.60069 35.0153 9.25533 34.8389 10.2353 33.8863C14.1554 30.0486 18.0754 26.1795 21.0429 23.2395C22.4423 21.8479 22.7638 19.5429 21.772 17.9906C20.9654 16.8283 20.0246 15.7652 18.9692 14.8232V14.8232Z" fill="#52CAA3"/>
<path d="M-0.00390618 12.7743V27.2314C-0.00397307 27.3904 0.0431223 27.5458 0.131419 27.678C0.219716 27.8102 0.345246 27.9133 0.492127 27.9741C0.639009 28.035 0.800637 28.0509 0.956566 28.0199C1.1125 27.9888 1.25572 27.9122 1.3681 27.7998L8.64368 20.5242C8.78109 20.3855 8.85817 20.1981 8.85817 20.0028C8.85817 19.8076 8.78109 19.6202 8.64368 19.4815L1.3681 12.2059C1.29503 12.1314 1.20781 12.0721 1.11155 12.0318C1.01529 11.9914 0.911933 11.9706 0.807543 11.9707C0.593686 11.9707 0.388466 12.0551 0.236514 12.2056C0.0845616 12.3561 -0.00183992 12.5605 -0.00390618 12.7743V12.7743Z" fill="#5268AD"/>
<path d="M31.748 26.1408V13.875H35.3858C39.3725 13.875 41.8539 16.227 41.8539 20.002C41.8539 23.777 39.3725 26.1408 35.3858 26.1408H31.748ZM33.7081 24.3846H35.4682C38.1612 24.3846 39.8978 22.6676 39.8978 20.0138C39.8978 17.3599 38.1612 15.6429 35.4682 15.6429H33.7081V24.3846Z" fill="#1D2434"/>
<path d="M50.6121 26.3296C49.7812 26.3296 48.9585 26.166 48.1909 25.848C47.4232 25.5301 46.7258 25.064 46.1383 24.4765C45.5508 23.889 45.0847 23.1915 44.7668 22.4239C44.4488 21.6563 44.2852 20.8336 44.2852 20.0027C44.2852 19.1718 44.4488 18.3491 44.7668 17.5815C45.0847 16.8139 45.5508 16.1164 46.1383 15.5289C46.7258 14.9414 47.4232 14.4754 48.1909 14.1574C48.9585 13.8394 49.7812 13.6758 50.6121 13.6758C51.4429 13.6758 52.2657 13.8394 53.0333 14.1574C53.8009 14.4754 54.4984 14.9414 55.0859 15.5289C55.6734 16.1164 56.1394 16.8139 56.4574 17.5815C56.7754 18.3491 56.939 19.1718 56.939 20.0027C56.939 20.8336 56.7754 21.6563 56.4574 22.4239C56.1394 23.1915 55.6734 23.889 55.0859 24.4765C54.4984 25.064 53.8009 25.5301 53.0333 25.848C52.2657 26.166 51.4429 26.3296 50.6121 26.3296V26.3296ZM50.6121 15.4947C49.449 15.5432 48.3497 16.0394 47.5439 16.8795C46.7381 17.7196 46.2882 18.8386 46.2882 20.0027C46.2882 21.1668 46.7381 22.2858 47.5439 23.126C48.3497 23.9661 49.449 24.4622 50.6121 24.5107C51.7977 24.4832 52.9258 23.9944 53.7566 23.1482C54.5875 22.302 55.0555 21.1651 55.0613 19.9792C55.0644 18.795 54.5978 17.6578 53.7638 16.8172C52.9297 15.9765 51.7963 15.5009 50.6121 15.4947V15.4947Z" fill="#1D2434"/>
<path d="M75.0559 13.875H73.041V26.129H75.0559V13.875Z" fill="#1D2434"/>
<path d="M82.4742 26.3296C81.1795 26.3193 79.9005 26.0459 78.7148 25.526V23.7228C79.8924 24.2753 81.1736 24.5719 82.4742 24.5931C84.0422 24.5931 85.0888 23.8757 85.0888 22.8134C85.0888 21.6178 83.8109 21.1434 82.4585 20.6417C80.3377 19.8577 78.7148 19.1011 78.7148 17.0941C78.7148 14.5735 80.9963 13.6758 82.9524 13.6758C84.052 13.6765 85.1419 13.8812 86.1668 14.2795V16.0435C85.1273 15.6289 84.0205 15.4084 82.9014 15.3928C81.3961 15.3928 80.7219 16.1768 80.7219 16.9608C80.7219 17.9996 81.8509 18.4151 83.1758 18.8933C85.4887 19.7283 87.2527 20.5437 87.2527 22.735C87.2448 24.8596 85.2848 26.3296 82.4742 26.3296Z" fill="#1D2434"/>
<path d="M66.026 21.1741L66.7904 20.8448C67.4416 20.565 67.9968 20.1008 68.3875 19.5095C68.7782 18.9181 68.9875 18.2255 68.9896 17.5167C68.9896 15.3058 67.398 13.8789 64.9363 13.8789H60.291V26.1408H62.251V15.6116H64.7285C65.0223 15.5938 65.3166 15.6367 65.5931 15.7374C65.8697 15.8381 66.1226 15.9946 66.3361 16.1971C66.5497 16.3997 66.7193 16.6439 66.8346 16.9147C66.9498 17.1856 67.0082 17.4772 67.006 17.7715C67.0048 18.0648 66.9441 18.3549 66.8277 18.6241C66.7113 18.8934 66.5416 19.1362 66.3288 19.3381C66.1159 19.5399 65.8644 19.6966 65.5894 19.7986C65.3143 19.9005 65.0215 19.9457 64.7285 19.9314H63.6858C63.2271 19.9981 63.4662 20.3901 63.4662 20.3901L67.4216 26.1408H69.6364L66.026 21.1741Z" fill="#1D2434"/>
</g>
<path d="M227.279 26.0074H225.458V13.9764H227.214L233.148 22.642H233.246V13.9764H235.067V26.0074H233.359L227.376 17.3418H227.279V26.0074Z" fill="#484E5B"/>
<path d="M218.044 26.235C216.917 26.235 215.936 25.9857 215.101 25.4871C214.267 24.9886 213.622 24.2732 213.167 23.3411C212.722 22.3981 212.5 21.2817 212.5 19.9919C212.5 18.7021 212.722 17.5911 213.167 16.659C213.622 15.716 214.267 15.0006 215.101 14.5129C215.936 14.0143 216.917 13.765 218.044 13.765C219.171 13.765 220.147 14.0143 220.97 14.5129C221.805 15.0006 222.445 15.716 222.889 16.659C223.344 17.5911 223.572 18.7021 223.572 19.9919C223.572 21.2817 223.344 22.3981 222.889 23.3411C222.445 24.2732 221.805 24.9886 220.97 25.4871C220.147 25.9857 219.171 26.235 218.044 26.235ZM218.044 24.4791C219.15 24.4791 220.028 24.0835 220.678 23.2923C221.339 22.5011 221.67 21.4009 221.67 19.9919C221.67 19.0597 221.518 18.2577 221.214 17.5857C220.922 16.9137 220.499 16.4043 219.946 16.0574C219.404 15.6997 218.77 15.5209 218.044 15.5209C216.928 15.5209 216.044 15.9165 215.394 16.7077C214.744 17.499 214.418 18.5937 214.418 19.9919C214.418 21.4009 214.744 22.5011 215.394 23.2923C216.044 24.0835 216.928 24.4791 218.044 24.4791Z" fill="#484E5B"/>
<path d="M210.853 14V26.031H209V14H210.853Z" fill="#484E5B"/>
<path d="M203.375 26.0074H201.505V15.7485H197.847V13.9764H207.033V15.7485H203.375V26.0074Z" fill="#484E5B"/>
<path d="M198.347 26.0074H196.363L195.047 22.3818H190.738L189.421 26.0074H187.438L191.925 13.9764H193.86L198.347 26.0074ZM192.852 16.5614L191.372 20.626H194.412L192.949 16.5614H192.852Z" fill="#484E5B"/>
<path d="M184.28 26.0074H182.41V15.7485H178.752V13.9764H187.938V15.7485H184.28V26.0074Z" fill="#484E5B"/>
<path d="M169.464 26.0074H167.643V13.9764H169.399L175.333 22.642H175.431V13.9764H177.252V26.0074H175.545L169.562 17.3418H169.464V26.0074Z" fill="#484E5B"/>
<path d="M159.111 20.6585V24.284H165.143V26.0074H157.258V13.9764H164.932V15.716H159.111V18.9351H164.607V20.6585H159.111Z" fill="#484E5B"/>
<path d="M144.499 26.0074H142.678V13.9764H144.45L148.661 20.756H148.759L152.97 13.9764H154.758V26.0074H152.921V17.4719H152.823L149.328 23.0809H148.092L144.597 17.4881H144.499V26.0074Z" fill="#484E5B"/>
<path d="M135.577 24.4791C136.423 24.4791 137.089 24.2082 137.577 23.6662C138.065 23.1243 138.308 22.3656 138.308 21.3901V13.9764H140.178V21.5039C140.178 22.4794 139.989 23.3248 139.609 24.0402C139.241 24.7447 138.71 25.2866 138.016 25.666C137.322 26.0453 136.509 26.235 135.577 26.235C134.645 26.235 133.832 26.0453 133.138 25.666C132.445 25.2866 131.908 24.7447 131.529 24.0402C131.16 23.3248 130.976 22.4794 130.976 21.5039V13.9764H132.83V21.3251C132.83 22.3114 133.073 23.0864 133.561 23.65C134.06 24.2027 134.732 24.4791 135.577 24.4791Z" fill="#484E5B"/>
<path d="M129.476 23.8938C129.042 24.6092 128.452 25.1782 127.704 25.6009C126.956 26.0237 126.105 26.235 125.151 26.235C124.024 26.235 123.032 25.9749 122.176 25.4546C121.32 24.9344 120.653 24.2027 120.176 23.2598C119.71 22.306 119.477 21.195 119.477 19.9268C119.477 18.6912 119.71 17.6074 120.176 16.6752C120.653 15.7431 121.32 15.0277 122.176 14.5291C123.032 14.0197 124.024 13.765 125.151 13.765C126.094 13.765 126.945 13.9764 127.704 14.3991C128.463 14.8218 129.053 15.3908 129.476 16.1062L127.997 17.1304C127.671 16.621 127.249 16.2254 126.728 15.9436C126.219 15.6618 125.688 15.5209 125.135 15.5209C124.376 15.5209 123.715 15.6997 123.152 16.0574C122.599 16.4151 122.171 16.9245 121.867 17.5857C121.564 18.2468 121.412 19.0272 121.412 19.9268C121.412 20.8481 121.564 21.6502 121.867 22.3331C122.171 23.0159 122.604 23.547 123.168 23.9264C123.732 24.2949 124.387 24.4791 125.135 24.4791C125.688 24.4791 126.214 24.3382 126.712 24.0564C127.222 23.7638 127.65 23.3573 127.997 22.8371L129.476 23.8938Z" fill="#484E5B"/>
<path d="M112.45 26.235C111.322 26.235 110.341 25.9857 109.507 25.4871C108.672 24.9885 108.027 24.2732 107.572 23.3411C107.128 22.3981 106.906 21.2817 106.906 19.9919C106.906 18.7021 107.128 17.5911 107.572 16.659C108.027 15.716 108.672 15.0006 109.507 14.5129C110.341 14.0143 111.322 13.765 112.45 13.765C113.577 13.765 114.552 14.0143 115.376 14.5129C116.211 15.0006 116.85 15.716 117.294 16.659C117.75 17.5911 117.977 18.7021 117.977 19.9919C117.977 21.2817 117.75 22.3981 117.294 23.3411C116.85 24.2732 116.211 24.9885 115.376 25.4871C114.552 25.9857 113.577 26.235 112.45 26.235ZM112.45 24.4791C113.555 24.4791 114.433 24.0835 115.083 23.2923C115.745 22.5011 116.075 21.4009 116.075 19.9919C116.075 19.0597 115.923 18.2577 115.62 17.5857C115.327 16.9137 114.905 16.4043 114.352 16.0574C113.81 15.6997 113.176 15.5209 112.45 15.5209C111.333 15.5209 110.45 15.9165 109.799 16.7077C109.149 17.499 108.824 18.5937 108.824 19.9919C108.824 21.4009 109.149 22.5011 109.799 23.2923C110.45 24.0835 111.333 24.4791 112.45 24.4791Z" fill="#484E5B"/>
<path d="M95.2441 26.0074V13.9764H99.7314C100.934 13.9764 101.959 14.2257 102.804 14.7243C103.66 15.2228 104.305 15.9219 104.739 16.8216C105.183 17.7212 105.405 18.7779 105.405 19.9919C105.405 21.2058 105.172 22.268 104.706 23.1785C104.251 24.0781 103.574 24.7772 102.674 25.2758C101.785 25.7635 100.712 26.0074 99.455 26.0074H95.2441ZM99.4713 24.2515C100.772 24.2515 101.764 23.883 102.446 23.146C103.129 22.3981 103.471 21.3467 103.471 19.9919C103.471 18.637 103.14 17.5911 102.479 16.8541C101.818 16.117 100.859 15.7485 99.6013 15.7485H97.0976V24.2515H99.4713Z" fill="#484E5B"/>
<defs>
<clipPath id="clip0_6771_1495">
<rect width="87.2442" height="30" fill="white" transform="translate(0 5)"/>
</clipPath>
</defs>
</svg>
