<svg width="127" height="30" viewBox="0 0 127 30" fill="none" xmlns="http://www.w3.org/2000/svg">
    <g clip-path="url(#clip0_7714_13564)">
        <path
            d="M13.6055 4.59429L10.3322 1.32107C9.91508 0.90283 9.4196 0.57089 8.87411 0.344218C8.32862 0.117546 7.74381 0.000586913 7.15309 1.93118e-05C6.06361 -0.00328922 5.01583 0.418635 4.23267 1.17603C3.82369 1.57082 3.49737 2.04305 3.27269 2.56521C3.04802 3.08736 2.9295 3.649 2.92403 4.21741C2.91855 4.78583 3.02624 5.34965 3.24082 5.87603C3.4554 6.40241 3.77257 6.88084 4.17387 7.28343L10.1127 13.2223C10.2387 13.3417 10.4056 13.4082 10.5792 13.4082C10.7528 13.4082 10.9197 13.3417 11.0457 13.2223L13.6016 10.6664C13.7623 10.4743 16.4357 7.42063 13.6055 4.59429Z"
            fill="#15A9CA" />
        <path
            d="M18.9692 9.82317C18.3459 9.21949 17.6991 8.5962 17.115 7.92196V7.89844C17.0942 7.95976 17.0784 8.02269 17.068 8.0866C16.8227 9.5194 16.1199 10.8342 15.0648 11.8342C11.6191 15.2563 8.13421 18.753 4.76298 22.136L4.30826 22.5868C3.61334 23.226 3.14433 24.0733 2.97152 25.0015C2.89854 25.6633 2.9678 26.333 3.17468 26.9658C3.38155 27.5986 3.72126 28.1798 4.17105 28.6707C4.55505 29.1062 5.03102 29.451 5.56455 29.6802C6.09808 29.9093 6.67586 30.0171 7.25612 29.9957C8.60069 30.0153 9.25533 29.8389 10.2353 28.8863C14.1554 25.0486 18.0754 21.1795 21.0429 18.2395C22.4423 16.8479 22.7638 14.5429 21.772 12.9906C20.9654 11.8283 20.0246 10.7652 18.9692 9.82317Z"
            fill="#52CAA3" />
        <path
            d="M-0.00390618 7.7743V22.2314C-0.00397307 22.3904 0.0431223 22.5458 0.131419 22.678C0.219716 22.8102 0.345246 22.9133 0.492127 22.9741C0.639009 23.035 0.800637 23.0509 0.956566 23.0199C1.1125 22.9888 1.25572 22.9122 1.3681 22.7998L8.64368 15.5242C8.78109 15.3855 8.85817 15.1981 8.85817 15.0028C8.85817 14.8076 8.78109 14.6202 8.64368 14.4815L1.3681 7.2059C1.29503 7.13135 1.20781 7.07215 1.11155 7.03176C1.01529 6.99137 0.911933 6.97061 0.807543 6.9707C0.593686 6.97069 0.388466 7.05511 0.236514 7.20559C0.0845616 7.35607 -0.00183992 7.56046 -0.00390618 7.7743Z"
            fill="#5268AD" />
        <path
            d="M31.748 21.1408V8.875H35.3858C39.3725 8.875 41.8539 11.227 41.8539 15.002C41.8539 18.777 39.3725 21.1408 35.3858 21.1408H31.748ZM33.7081 19.3846H35.4682C38.1612 19.3846 39.8978 17.6676 39.8978 15.0138C39.8978 12.3599 38.1612 10.6429 35.4682 10.6429H33.7081V19.3846Z"
            fill="#1D2434" />
        <path
            d="M50.6121 21.3296C49.7812 21.3296 48.9585 21.166 48.1909 20.848C47.4232 20.5301 46.7258 20.064 46.1383 19.4765C45.5508 18.889 45.0847 18.1915 44.7668 17.4239C44.4488 16.6563 44.2852 15.8336 44.2852 15.0027C44.2852 14.1718 44.4488 13.3491 44.7668 12.5815C45.0847 11.8139 45.5508 11.1164 46.1383 10.5289C46.7258 9.94139 47.4232 9.47535 48.1909 9.15739C48.9585 8.83944 49.7812 8.67578 50.6121 8.67578C51.4429 8.67578 52.2657 8.83944 53.0333 9.15739C53.8009 9.47535 54.4984 9.94139 55.0859 10.5289C55.6734 11.1164 56.1394 11.8139 56.4574 12.5815C56.7754 13.3491 56.939 14.1718 56.939 15.0027C56.939 15.8336 56.7754 16.6563 56.4574 17.4239C56.1394 18.1915 55.6734 18.889 55.0859 19.4765C54.4984 20.064 53.8009 20.5301 53.0333 20.848C52.2657 21.166 51.4429 21.3296 50.6121 21.3296ZM50.6121 10.4947C49.449 10.5432 48.3497 11.0394 47.5439 11.8795C46.7381 12.7196 46.2882 13.8386 46.2882 15.0027C46.2882 16.1668 46.7381 17.2858 47.5439 18.126C48.3497 18.9661 49.449 19.4622 50.6121 19.5107C51.7977 19.4832 52.9258 18.9944 53.7566 18.1482C54.5875 17.302 55.0555 16.1651 55.0613 14.9792C55.0645 13.795 54.5978 12.6578 53.7638 11.8172C52.9297 10.9765 51.7963 10.5009 50.6121 10.4947Z"
            fill="#1D2434" />
        <path d="M75.0559 8.875H73.041V21.129H75.0559V8.875Z" fill="#1D2434" />
        <path
            d="M82.4742 21.3296C81.1795 21.3193 79.9005 21.0459 78.7148 20.526V18.7228C79.8924 19.2753 81.1736 19.5719 82.4742 19.5931C84.0422 19.5931 85.0888 18.8757 85.0888 17.8134C85.0888 16.6178 83.8109 16.1434 82.4585 15.6417C80.3377 14.8577 78.7148 14.1011 78.7148 12.0941C78.7148 9.57348 80.9963 8.67578 82.9524 8.67578C84.052 8.6765 85.1419 8.88119 86.1668 9.27947V11.0435C85.1273 10.6289 84.0205 10.4084 82.9014 10.3928C81.3961 10.3928 80.7219 11.1768 80.7219 11.9608C80.7219 12.9996 81.8509 13.4151 83.1758 13.8933C85.4887 14.7283 87.2527 15.5437 87.2527 17.735C87.2448 19.8596 85.2848 21.3296 82.4742 21.3296Z"
            fill="#1D2434" />
        <path
            d="M66.026 16.1741L66.7904 15.8448C67.4416 15.565 67.9968 15.1008 68.3875 14.5095C68.7782 13.9181 68.9875 13.2255 68.9896 12.5167C68.9896 10.3058 67.398 8.87891 64.9363 8.87891H60.291V21.1408H62.251V10.6116H64.7285C65.0223 10.5938 65.3166 10.6367 65.5931 10.7374C65.8697 10.8381 66.1226 10.9946 66.3361 11.1971C66.5497 11.3997 66.7193 11.6439 66.8346 11.9147C66.9498 12.1856 67.0082 12.4772 67.006 12.7715C67.0048 13.0648 66.9441 13.3549 66.8277 13.6241C66.7113 13.8934 66.5416 14.1362 66.3288 14.3381C66.1159 14.5399 65.8644 14.6966 65.5894 14.7986C65.3143 14.9005 65.0215 14.9457 64.7285 14.9314H63.6858C63.2271 14.9981 63.4662 15.3901 63.4662 15.3901L67.4216 21.1408H69.6364L66.026 16.1741Z"
            fill="#1D2434" />
    </g>
    <path
        d="M121.317 7.66748H122.826V12.4242H126.043V21.5869H124.58V20.8399H117.841V19.4373H124.58V17.2571H118.405V15.885H124.58V13.842H118.146V12.4242H121.317V7.66748ZM117.536 16.1442C117.241 15.8697 116.942 15.6004 116.637 15.3361L116.301 15.0312V21.5564H114.883V15.2752C114.426 16.3627 113.918 17.313 113.359 18.1261L112.962 16.0222C113.288 15.5547 113.618 14.9347 113.953 14.1622C114.299 13.3796 114.599 12.5817 114.853 11.7686H113.206V10.3355H114.883V7.69797H116.301V10.3355H117.887V11.7686H116.301V13.2017C117.297 13.9945 117.994 14.5637 118.39 14.9093L117.536 16.1442ZM119.655 11.8753C119.137 11.0216 118.522 10.056 117.811 8.97862L118.954 8.15535C119.218 8.53141 119.549 9.01928 119.945 9.61895C120.341 10.2186 120.651 10.7065 120.875 11.0825L119.655 11.8753ZM126.379 8.94813C126.297 9.09043 126.231 9.19715 126.181 9.26829C125.418 10.5591 124.864 11.4535 124.519 11.9516L123.284 11.174C123.579 10.7675 123.904 10.2745 124.26 9.69518C124.625 9.11584 124.925 8.61781 125.159 8.20109L126.379 8.94813Z"
        fill="#484E5B" />
    <path
        d="M109.959 21.5109C108.679 21.0434 107.55 20.5555 106.575 20.0473C105.599 19.5391 104.735 18.9801 103.983 18.3703C103.251 18.97 102.397 19.534 101.422 20.0626C100.446 20.5911 99.3125 21.1095 98.0217 21.6176L97.2441 20.0321C98.4638 19.6052 99.5259 19.1681 100.431 18.7209C101.345 18.2737 102.138 17.7909 102.809 17.2726C102.087 16.5001 101.472 15.6311 100.964 14.6655C100.456 13.6898 100.024 12.5667 99.6682 11.2962H97.3661V9.83261H103.464C103.312 9.34475 103.083 8.66885 102.778 7.80492L104.44 7.5C104.582 7.82524 104.786 8.38426 105.05 9.17704L105.279 9.83261H110.599V11.2962H108.221C107.896 12.5667 107.484 13.6898 106.986 14.6655C106.498 15.6311 105.889 16.5001 105.157 17.2726C106.519 18.2991 108.384 19.1732 110.752 19.8949L109.959 21.5109ZM101.315 11.2962C101.589 12.3228 101.94 13.2426 102.367 14.0557C102.804 14.8688 103.337 15.5955 103.968 16.2359C104.588 15.5955 105.101 14.8739 105.507 14.071C105.914 13.268 106.254 12.3431 106.529 11.2962H101.315Z"
        fill="#484E5B" />
    <defs>
        <clipPath id="clip0_7714_13564">
            <rect width="87.2442" height="30" fill="white" />
        </clipPath>
    </defs>
</svg>