<svg width="60" height="24" viewBox="0 0 60 24" fill="none" xmlns="http://www.w3.org/2000/svg">
<path d="M40.497 2.69378C40.497 3.54445 41.4268 3.88708 42.5213 4.27696C44.4279 4.96222 45.8872 5.62385 45.8872 7.43152C45.8872 9.1683 44.2631 10.3734 41.9446 10.3734C40.8737 10.3616 39.8144 10.1371 38.8376 9.71178V8.23493C39.8144 8.68389 40.8737 8.932 41.9446 8.94382C43.251 8.94382 44.1101 8.36489 44.1101 7.49059C44.1101 6.51182 43.0549 6.12156 41.9392 5.70891L41.9329 5.70656C40.1793 5.06856 38.8376 4.44237 38.8376 2.80011C38.8376 0.73252 40.7207 0 42.333 0C43.251 0 44.1454 0.165409 44.9928 0.496224V1.93763C44.1337 1.595 43.2275 1.41778 42.2977 1.40596C41.0502 1.40596 40.497 2.05578 40.497 2.69378Z" fill="white"/>
<path fill-rule="evenodd" clip-rule="evenodd" d="M19.3129 1.52411C18.8304 1.0397 18.2537 0.661629 17.6182 0.401703C16.9826 0.141777 16.3 0.0118155 15.6174 0.0118155C14.9348 0.0118155 14.2522 0.141777 13.6167 0.401703C12.9812 0.661629 12.4045 1.0397 11.922 1.52411C11.4394 2.00852 11.0511 2.57563 10.7921 3.20182C10.5332 3.828 10.392 4.50144 10.392 5.1867C10.392 5.87196 10.5215 6.54541 10.7921 7.17159C11.0511 7.79778 11.4394 8.3767 11.922 8.8493C12.4045 9.3337 12.9812 9.71178 13.6167 9.9717C14.2522 10.2316 14.9348 10.3616 15.6174 10.3616C16.3 10.3616 16.9826 10.2316 17.6182 9.9717C18.2537 9.71178 18.8304 9.3337 19.3129 8.8493C19.7954 8.36489 20.1838 7.79778 20.4427 7.17159C20.7016 6.54541 20.8429 5.87196 20.8429 5.1867C20.8429 4.50144 20.7134 3.828 20.4427 3.20182C20.1838 2.57563 19.7954 1.9967 19.3129 1.52411ZM18.2184 7.76233C17.5358 8.45941 16.606 8.86111 15.6174 8.87293C14.6524 8.83748 13.7462 8.42396 13.0871 7.7387C12.4163 7.05344 12.0514 6.13189 12.0514 5.17489C12.0514 4.21789 12.428 3.30815 13.0871 2.61107C13.7579 1.92582 14.6642 1.5123 15.6174 1.47685C16.5943 1.47685 17.5358 1.86674 18.2184 2.56382C18.9127 3.24908 19.2894 4.18245 19.2894 5.15126C19.2894 6.13189 18.901 7.06526 18.2184 7.76233Z" fill="white"/>
<path fill-rule="evenodd" clip-rule="evenodd" d="M3.0364 0.165407H0.0353127V10.208H3.0364C6.33171 10.208 8.3795 8.27037 8.3795 5.17489C8.3795 2.09122 6.33171 0.165407 3.0364 0.165407ZM3.10701 8.77841H1.64766V1.61863H3.10701C5.33135 1.61863 6.76716 3.02459 6.76716 5.19852C6.76716 7.36063 5.33135 8.77841 3.10701 8.77841Z" fill="white"/>
<path d="M34.1418 0.165407H35.8012V10.1962H34.1418V0.165407Z" fill="white"/>
<path d="M49.5709 13.792H47.9115V23.8228H49.5709V13.792Z" fill="white"/>
<path d="M3.68369 17.9036C2.58917 17.5137 1.65942 17.171 1.65942 16.3204C1.65942 15.6824 2.21257 15.0326 3.46008 15.0326C4.38983 15.0444 5.29604 15.2216 6.15518 15.5642V14.1228C5.30781 13.792 4.41337 13.6266 3.49538 13.6266C1.88304 13.6266 0 14.3591 0 16.4267C0 18.069 1.34167 18.6951 3.09525 19.3331L3.10158 19.3355C4.21731 19.7481 5.27251 20.1384 5.27251 21.1172C5.27251 21.9915 4.41337 22.5704 3.10701 22.5704C2.03604 22.5586 0.976831 22.3105 0 21.8615V23.3384C0.976831 23.7637 2.03604 23.9882 3.10701 24C5.42549 24 7.0496 22.7949 7.0496 21.0581C7.0496 19.2504 5.59026 18.577 3.68369 17.9036Z" fill="white"/>
<path d="M27.2805 1.58318H25.2445V10.208H23.6203V0.165407H27.457C29.493 0.165407 30.8112 1.33507 30.8112 3.14274C30.8112 3.72167 30.6346 4.28878 30.3169 4.77318C29.9991 5.25759 29.5401 5.64748 28.9987 5.87196L28.3632 6.1437L31.3408 10.208H29.5166L26.2448 5.49389C26.2448 5.49389 26.0447 5.17489 26.4213 5.11582H27.2805C27.5159 5.12763 27.763 5.09218 27.9866 5.00948C28.2102 4.92678 28.4221 4.79682 28.5986 4.63141C28.7751 4.47782 28.9164 4.27697 29.0105 4.05248C29.1164 3.828 29.1635 3.5917 29.1635 3.35541C29.1635 3.11911 29.1164 2.88282 29.0223 2.65833C28.9281 2.43385 28.7869 2.233 28.6104 2.06759C28.4338 1.90219 28.222 1.77222 27.9984 1.68952C27.763 1.60682 27.5276 1.57137 27.2805 1.58318Z" fill="white"/>
<path d="M39.685 20.4556L36.4838 13.792H34.5419V23.8228H36.0837V16.3204L39.1436 22.7831H40.2146L43.2745 16.3204L43.2863 23.8228H44.7927V13.792H42.8744L39.685 20.4556Z" fill="white"/>
<path d="M22.973 13.792L26.1742 20.4556L29.3636 13.792H31.2819V23.8228H29.7755L29.7637 16.3204L26.7038 22.7831H25.6328L22.5729 16.3204V23.8228H21.0312V13.792H22.973Z" fill="white"/>
<path d="M16.3707 19.5931C16.3707 21.2944 15.382 22.2987 13.805 22.2987C12.2162 22.2987 11.2041 21.2826 11.2041 19.5931V13.7802H9.56818V19.5931C9.56818 22.216 11.1805 23.8228 13.7932 23.8228C16.4177 23.8228 18.0065 22.216 18.0065 19.5931V13.7802H16.3707V19.5931Z" fill="white"/>
<path d="M51.7717 15.3043V13.792H59.551V15.3043H56.4675V23.8228H54.8435V15.3043H51.7717Z" fill="white"/>
<path d="M50.1241 0.165407H52.5132C52.8192 0.165407 53.1134 0.224481 53.3958 0.342629C53.6783 0.460777 53.9372 0.626186 54.149 0.838853C54.5492 1.22874 54.7728 1.77222 54.7846 2.32752C54.7846 2.62289 54.7375 2.90644 54.6316 3.17818C54.5257 3.44993 54.3609 3.69804 54.1608 3.9107C53.9608 4.12337 53.7136 4.28878 53.4429 4.39511C53.1722 4.51326 52.878 4.57233 52.5955 4.57233H48.2645C48.1704 4.57233 48.088 4.53689 48.0292 4.466C47.9703 4.40693 47.935 4.31241 47.9233 4.22971V2.37478C47.9233 2.24482 48.0645 0.165407 50.1241 0.165407Z" fill="white"/>
<path d="M50.2064 5.67111C49.2061 5.67111 48.2645 6.39181 48.0645 7.31337C47.935 8.03407 47.8997 8.76659 47.9233 9.4873C47.935 9.93626 47.9468 10.397 47.9115 10.8578L47.8997 10.8696C47.9053 10.8668 47.9115 10.864 47.918 10.8611C47.9393 10.8516 47.9641 10.8404 47.9821 10.8224C48.5823 10.3852 49.3002 10.1607 50.0417 10.1844C51.6937 10.1923 53.3563 10.1896 55.0013 10.187C55.8172 10.1857 56.6288 10.1844 57.4326 10.1844H57.7621C58.2329 10.208 58.7037 10.0662 59.1038 9.79448C59.3745 9.58181 59.5863 9.31008 59.7393 9.00289C59.8923 8.69571 59.9865 8.36489 59.9982 8.02226C60.01 7.72689 59.9629 7.4197 59.857 7.14796C59.7511 6.86441 59.5745 6.6163 59.3627 6.41545C58.8802 5.91922 58.586 5.742 57.8916 5.73019C55.4797 5.69941 53.0589 5.68645 51.0763 5.67583C50.7757 5.67422 50.4853 5.67267 50.2064 5.67111Z" fill="white"/>
</svg>
