<svg width="16" height="16" viewBox="0 0 16 16" fill="none" xmlns="http://www.w3.org/2000/svg">
<g clip-path="url(#clip0_6835_694)">
<path d="M2.1 0.5H10.2746C10.2988 0.5 10.3222 0.508792 10.3404 0.524742L13.9659 3.697C13.9876 3.71599 14 3.74342 14 3.77226V15.4C14 15.4552 13.9552 15.5 13.9 15.5H2.1C2.04477 15.5 2 15.4552 2 15.4V0.6C2 0.544772 2.04477 0.5 2.1 0.5Z" stroke="#8592A6"/>
<path d="M10 0.500092V4.00009H14" stroke="#8592A6" stroke-linejoin="round"/>
<path d="M1.6 7.20514H0.600001C0.26863 7.20514 0 7.47377 0 7.80514V13.4012C0 13.7325 0.268629 14.0012 0.6 14.0012H8H15.4C15.7314 14.0012 16 13.7325 16 13.4012V7.80514C16 7.47376 15.7314 7.20514 15.4 7.20514H2.4V7.1958H1.6V7.20514ZM3.25312 11.1094V12.8H2.4625V8.25H4.20312C4.71146 8.25 5.1151 8.38229 5.41406 8.64687C5.71302 8.91146 5.8625 9.26146 5.8625 9.69687C5.8625 10.1427 5.71615 10.4896 5.42344 10.7375C5.13073 10.9854 4.72084 11.1094 4.19375 11.1094H3.25312ZM3.25312 10.475H4.20312C4.48438 10.475 4.69896 10.4089 4.84688 10.2766C4.99479 10.1443 5.06875 9.95313 5.06875 9.70312C5.06875 9.45729 4.99375 9.26094 4.84375 9.11406C4.69375 8.96719 4.4875 8.89167 4.225 8.8875H3.25312V10.475ZM6.55312 12.8V8.25H7.89687C8.29896 8.25 8.65573 8.33958 8.96719 8.51875C9.27865 8.69792 9.51979 8.95208 9.69063 9.28125C9.86146 9.61042 9.94687 9.9875 9.94687 10.4125V10.6406C9.94687 11.0719 9.86094 11.451 9.68906 11.7781C9.51719 12.1052 9.2724 12.3573 8.95469 12.5344C8.63698 12.7115 8.27292 12.8 7.8625 12.8H6.55312ZM7.34375 8.8875V12.1687H7.85938C8.27396 12.1687 8.59219 12.0391 8.81406 11.7797C9.03594 11.5203 9.14896 11.1479 9.15312 10.6625V10.4094C9.15312 9.91562 9.04583 9.53854 8.83125 9.27812C8.61667 9.01771 8.30521 8.8875 7.89687 8.8875H7.34375ZM13.3562 10.8719H11.525V12.8H10.7344V8.25H13.625V8.8875H11.525V10.2406H13.3562V10.8719Z" fill="#8592A6"/>
</g>
<defs>
<clipPath id="clip0_6835_694">
<rect width="16" height="16" fill="white"/>
</clipPath>
</defs>
</svg>
