<svg id="logo_fullcolour" xmlns="http://www.w3.org/2000/svg" width="245.992" height="64" viewBox="0 0 245.992 64">
  <path id="logotype" fill="#000000" d="M763.916,271.269h-4.68l2.108-5.631h.45Zm50.526-5.631h-.45l-2.108,5.631h4.68Zm-62.263,32.3h3.767V276.67h-3.767Zm9.4-42.564,6.042,15.894h4.011L763.621,250h-4.076L751.6,271.269h4.024ZM843.214,250h-3.767v14.013L830.242,250h-4.384l-.013,21.269h3.78V255.8l10.054,15.472h3.548V250Zm-84.428,26.67-.013,21.269h3.78V282.48l10.054,15.459h3.548V276.67h-3.767V290.7l-9.205-14.013h-4.4ZM812.166,250l-7.958,21.269h4.037l5.94-15.894,5.953,15.894h4.1l-8-21.269ZM795.08,278.27v19.606h13.769v-3.75H798.86v-5h9.424v-3.75H798.86v-5h9.989v-3.75H795.08Zm70.35-.013v19.606H879.2v-3.75H869.21v-5h9.424v-3.75H869.21v-5H879.2v-3.75H865.43Zm-2.391,7.026h-7.945V288.8h4.41v5.209h-4.011c-1.684,0-3.715-.486-4.281-1.446s-.848-2.227-.848-4.7a17.941,17.941,0,0,1,.411-4.773,3.42,3.42,0,0,1,1.273-2.1,10.347,10.347,0,0,1,3.767-.55h7.212v-3.852h-9.038c-3.047,0-5.13.806-6.274,2.444S846,283.069,846,287.2a23.482,23.482,0,0,0,.347,4.466,9.4,9.4,0,0,0,1.221,3.4,5.188,5.188,0,0,0,2.456,2.112,16.717,16.717,0,0,0,5.078.665h7.919V285.283Zm-13.923-14.64a10.972,10.972,0,0,0,4.165.665h7.92v-3.75h-8.112c-1.684,0-2.815-.486-3.368-1.446s-.849-2.227-.849-4.7v-1.2a16.31,16.31,0,0,1,.4-3.814,3.42,3.42,0,0,1,1.273-2.1,5.664,5.664,0,0,1,2.867-.55h7.829V250h-8.177c-3.047,0-5.13.806-6.274,2.444s-1.71,4.057-1.71,8.2a23.473,23.473,0,0,0,.347,4.466,9.4,9.4,0,0,0,1.221,3.4A5.368,5.368,0,0,0,849.115,270.642Zm52.878,8.344c-1.131,1.625-1.71,4.057-1.71,8.2a23.478,23.478,0,0,0,.347,4.466,9.4,9.4,0,0,0,1.221,3.4,5.187,5.187,0,0,0,2.456,2.112,10.971,10.971,0,0,0,4.165.665h7.92v-3.75h-8.138c-1.684,0-2.816-.486-3.368-1.446s-.848-2.227-.848-4.7v-1.2a16.313,16.313,0,0,1,.4-3.814,3.42,3.42,0,0,1,1.273-2.1,5.665,5.665,0,0,1,2.867-.55h7.83v-3.75h-8.177C905.221,276.542,903.125,277.361,901.994,278.986Zm-8.112,11.7-8.575-14.026h-4.4v21.257h4.4V283.939l4.281,7,4.294,6.987h4.4V276.657h-4.384v14.026Zm-79.375-14.064h-3.767v21.269h12.908v-3.75h-9.141Zm-27.114,21.257V280.368h5.8v-3.75H778.033v3.75h5.58v17.52h3.78Zm52.943-.013H844.1V276.606h-3.767Zm-61.119-26.593h-5.978V250h5.94a9.988,9.988,0,0,1,5.04,1.267,8.851,8.851,0,0,1,3.471,3.6,10.975,10.975,0,0,1,1.247,5.3v.973a11.159,11.159,0,0,1-1.221,5.273,8.861,8.861,0,0,1-3.458,3.583A10.337,10.337,0,0,1,779.215,271.269Zm-.373-3.75a6.485,6.485,0,0,0,3.266-.832,5.786,5.786,0,0,0,2.25-2.329,7.224,7.224,0,0,0,.8-3.43v-.576a7.2,7.2,0,0,0-.81-3.443,5.711,5.711,0,0,0-2.25-2.329,6.492,6.492,0,0,0-3.278-.819h-1.826v13.77h1.851Zm-10.9,42.4,1.517,4.057h-2.366l-1.234-3.558h-2.083v3.57h-2.16V303.365h4.14c2.507,0,3.767,1.165,3.767,3.494A3.369,3.369,0,0,1,767.94,309.918Zm-.643-3.046a1.735,1.735,0,0,0-.4-1.216,1.451,1.451,0,0,0-1.157-.448h-1.98v3.379h2.006a1.35,1.35,0,0,0,1.144-.474A1.912,1.912,0,0,0,767.3,306.872Zm20.493,3.468a1.852,1.852,0,0,1-3.7,0v-6.975h-2.121V310.3a3.63,3.63,0,0,0,.99,2.8,5.414,5.414,0,0,0,5.965,0,3.611,3.611,0,0,0,.99-2.8v-6.936h-2.121Zm11.545-3.379a3.84,3.84,0,0,1-.938,2.79,3.723,3.723,0,0,1-2.764.973H793.91v3.263h-2.121V303.353h3.831C798.1,303.353,799.336,304.555,799.336,306.961Zm-2.147,0a2.021,2.021,0,0,0-.386-1.382,1.543,1.543,0,0,0-1.2-.422h-1.7v3.75h1.7C796.662,308.907,797.189,308.254,797.189,306.961Zm-37.476.742H755.74v1.753h2.211v2.611h-2.006a1.809,1.809,0,0,1-1.684-.717,4.441,4.441,0,0,1-.424-2.342,9.143,9.143,0,0,1,.206-2.406,1.725,1.725,0,0,1,.643-1.049,2.8,2.8,0,0,1,1.427-.269h3.6v-1.92H755.65a3.569,3.569,0,0,0-3.124,1.216c-.566.806-.848,2.022-.848,4.1a12.91,12.91,0,0,0,.167,2.227,4.87,4.87,0,0,0,.617,1.7,2.657,2.657,0,0,0,1.221,1.062,5.487,5.487,0,0,0,2.083.333h3.96v-6.3Zm19.516-3.123c.566.806.848,2.022.848,4.1a12.9,12.9,0,0,1-.167,2.227,4.871,4.871,0,0,1-.617,1.7,2.658,2.658,0,0,1-1.221,1.062,5.487,5.487,0,0,1-2.083.333h-.5a5.533,5.533,0,0,1-2.083-.333,2.529,2.529,0,0,1-1.221-1.062,4.87,4.87,0,0,1-.617-1.7,11.734,11.734,0,0,1-.167-2.227c0-2.073.283-3.289.849-4.1a3.536,3.536,0,0,1,3.124-1.216h.72A3.515,3.515,0,0,1,779.228,304.581ZM777.9,309a9.143,9.143,0,0,0-.206-2.406,1.687,1.687,0,0,0-.643-1.049,3.4,3.4,0,0,0-2.648,0,1.744,1.744,0,0,0-.643,1.049,9.143,9.143,0,0,0-.206,2.406,4.41,4.41,0,0,0,.424,2.342,1.8,1.8,0,0,0,1.684.717h.128a1.809,1.809,0,0,0,1.684-.717A4.41,4.41,0,0,0,777.9,309Zm93.826-58.971h-7.65v3.75h9.051ZM875,258.8H864.067v3.75H876.41Zm-10.928,8.715v3.762h15.621l-1.414-3.762Zm62.263,9.073h-7.65v3.75h9.051Zm3.266,8.779H918.668v3.75h12.342Zm3.278,8.715H918.668v3.762h15.62ZM800.3,271.269l8-21.269h-4.1l-5.952,15.894L792.316,250h-4.037l7.958,21.269Zm29,5.349h-3.767v21.269h12.921v-3.75H829.3Z" transform="translate(-688.297 -250)"/>
  <g id="mark">
    <path d="M250.4,250v19.209a105.047,105.047,0,0,1,25.337,12.8A105.008,105.008,0,0,1,250.4,294.791v19.2a126.06,126.06,0,0,0,50.673-31.994A126.06,126.06,0,0,0,250.4,250Z" transform="translate(-250.4 -250)" fill="#000000"/>
    <path d="M278.225,303.711a123.6,123.6,0,0,0,22.848,10.276V294.778c-2.374-.806-4.7-1.715-6.985-2.7A128.074,128.074,0,0,1,278.225,303.711Zm0-43.435a127.938,127.938,0,0,1,15.851,11.633q3.429-1.478,7-2.7V250A123.6,123.6,0,0,0,278.225,260.276Zm-20.373,14.615c-2.577,2.265-5.065,4.645-7.452,7.1,2.374,2.47,4.863,4.825,7.439,7.1a100.013,100.013,0,0,0,13.249-7.1A101.384,101.384,0,0,0,257.852,274.891Z" transform="translate(-250.4 -250)" fill="#000000"/>
  </g>
</svg>
