<svg xmlns="http://www.w3.org/2000/svg" version="1.2" baseProfile="tiny-ps" viewBox="0 0 1524 379" width="1524" height="379">
<g fill="#000000">
<path fill-rule="evenodd" d="M100.96 0L277.43 0C289.73 0.6 302.15 0.86 314.22 3.62C336.78 8.63 357.1 23.67 367.64 44.4C379.54 66.37 378.32 92.19 378.7 116.4C378.69 167.07 378.71 217.75 378.7 268.42C378.54 282.29 378.42 296.25 376.05 309.97C372.54 331.01 360.6 350.72 342.97 362.85C334.34 368.76 324.66 373.24 314.42 375.5C303.11 378.04 291.47 378.6 279.93 379L98.67 379C85.39 378.5 71.92 377.91 59.07 374.17C42.17 369.05 26.74 358.53 16.59 343.97C10.46 335.14 5.81 325.2 3.51 314.69C0.89 302.94 0.4 290.85 0 278.86L0 100.38C0.38 88.67 0.86 76.86 3.32 65.36C5.78 53.71 10.97 42.68 18.08 33.15C27.79 20.16 41.79 10.7 57.1 5.6C71.25 1.03 86.25 0.71 100.96 0ZM65.73 118.67C66.21 122.55 66.67 126.43 67.15 130.31C58.97 130.32 50.77 130.31 42.59 130.31C42.59 134.87 42.59 139.44 42.59 144C62.88 144 83.16 144 103.46 144C103.46 147.65 103.45 151.3 103.45 154.94C84.31 154.94 65.17 154.94 46.04 154.94C46.04 159.5 46.04 164.06 46.04 168.63C65.18 168.61 84.31 168.63 103.45 168.61C103.46 172.07 103.46 175.53 103.45 178.99C84.31 178.99 65.18 178.99 46.05 178.98C46.04 183.5 46.04 188.01 46.04 192.52C65.18 192.53 84.31 192.52 103.45 192.53C103.46 196.79 103.46 201.07 103.45 205.34C83.16 205.34 62.88 205.34 42.6 205.34C42.59 209.95 42.59 214.56 42.59 219.16C61.58 219.2 80.56 219.11 99.55 219.21C86.74 235.45 65.75 243.69 45.47 244.46C43.83 249.79 42.11 255.09 40.45 260.42C49.98 259.71 59.48 258.23 68.68 255.6C85.35 250.9 101.53 242.12 111.95 227.93C127.42 247.01 151.66 256.87 175.5 259.99C178.38 255.02 181.22 250.05 184.08 245.08C162.3 243.17 139.4 236.07 124.52 219.2C143.59 219.12 162.66 219.19 181.72 219.16C181.73 214.56 181.73 209.95 181.72 205.34C161.24 205.34 140.76 205.34 120.29 205.34C120.29 201.07 120.29 196.79 120.29 192.53C139.42 192.52 158.56 192.53 177.69 192.52C177.69 188.01 177.7 183.5 177.7 178.99C158.56 178.98 139.43 178.99 120.29 178.98C120.29 175.54 120.29 172.08 120.29 168.63C139.42 168.61 158.56 168.63 177.69 168.61C177.7 164.06 177.7 159.5 177.69 154.95C158.56 154.93 139.43 154.95 120.29 154.94C120.29 151.29 120.29 147.65 120.29 144C140.76 143.99 161.24 144.01 181.73 144C181.72 139.44 181.72 134.87 181.72 130.31C173.51 130.31 165.3 130.32 157.08 130.31C157.64 126.44 158.1 122.55 158.48 118.65C152.63 118.65 146.77 118.64 140.92 118.67C140.54 122.57 140.04 126.45 139.35 130.31C121.14 130.32 102.94 130.31 84.73 130.32C84.15 126.43 83.57 122.55 83.01 118.65C77.25 118.65 71.49 118.64 65.73 118.67ZM201.44 121.53C201.42 163.97 201.46 206.4 201.41 248.84C201.42 251.36 201.52 254.16 203.28 256.16C205.28 258.66 208.7 258.93 211.66 258.92C253.23 258.88 294.82 258.92 336.4 258.91C336.41 216.74 336.37 174.58 336.41 132.42C336.35 129.52 336.41 126.2 334.22 124C332.37 121.96 329.5 121.46 326.89 121.52C285.07 121.56 243.25 121.52 201.44 121.53ZM217.99 244.79C217.98 208.42 217.98 172.02 217.99 135.65C251.9 135.65 285.8 135.65 319.71 135.65C319.71 172.04 319.72 208.42 319.69 244.79C285.8 244.79 251.89 244.79 217.99 244.79ZM281 142.98C281.01 146.97 281 150.95 281 154.94C262.73 154.95 244.46 154.94 226.18 154.94C226.18 159.35 226.18 163.78 226.18 168.19C234.15 168.2 242.11 168.18 250.08 168.2C247.52 192.51 240.38 216.8 226.82 237.32C232.85 237.31 238.89 237.3 244.93 237.32C249.16 230.78 252.37 223.63 255.11 216.36C260.85 200.86 264.74 184.65 266.4 168.2C271.27 168.19 276.13 168.19 281 168.19C280.94 182.39 281.13 196.58 280.89 210.78C280.79 219.97 278.5 229.04 274.52 237.32C280.44 237.31 286.36 237.3 292.29 237.32C295.7 227.72 297.21 217.56 297.26 207.4C297.27 194.33 297.26 181.26 297.26 168.19C302.39 168.19 307.52 168.19 312.66 168.18C312.65 163.76 312.65 159.35 312.65 154.94C307.52 154.94 302.39 154.94 297.26 154.94C297.26 150.95 297.25 146.98 297.26 142.99C291.84 142.98 286.42 142.98 281 142.98Z"/>
<path d="M885.72 100.08C885.4 91.59 885.67 83.09 885.6 74.59C893.87 74.69 902.14 74.39 910.41 74.71C914.18 74.8 917.47 78.01 917.55 81.82C917.89 90.34 917.58 98.89 917.67 107.41C909.5 107.33 901.31 107.62 893.15 107.31C889.26 107.26 885.75 104.03 885.72 100.08Z"/>
<path d="M475.1 80.5C484.03 80.48 492.96 80.51 501.88 80.48C505.44 80.55 509.46 80.51 512.32 82.99C515.24 85.68 516.66 89.52 518.42 92.99C538.75 134.03 559.08 175.08 579.42 216.12C601.8 170.91 624.24 125.73 646.62 80.5C654.36 80.51 662.11 80.44 669.87 80.51C673.6 80.67 677.83 80.87 680.71 83.61C683.42 86.5 683.66 90.72 683.74 94.47C683.72 160.47 683.74 226.47 683.73 292.46C673.79 292.46 663.87 292.46 653.94 292.46C653.94 258.32 653.94 224.17 653.94 190.03C654.13 167.84 653.26 145.62 655.18 123.48C635.57 163.22 616.28 203.12 596.79 242.91C587.37 242.84 577.95 243.12 568.54 242.78C564.16 242.66 560.35 239.75 558.55 235.83C540.11 198.45 522.13 160.83 503.61 123.48C505.37 146.02 504.8 168.64 504.89 191.23C504.89 224.97 504.89 258.71 504.89 292.45C494.95 292.46 485.03 292.46 475.1 292.45C475.1 221.8 475.09 151.15 475.1 80.5Z"/>
<path d="M967.76 85.68C977.54 85.68 987.33 85.64 997.11 85.71C997.09 101.63 997.1 117.56 997.1 133.48C1010.99 133.5 1024.86 133.47 1038.74 133.49C1036.31 141.46 1033.87 149.43 1031.4 157.38C1019.97 157.41 1008.53 157.37 997.1 157.41C997.11 187.14 997.09 216.87 997.11 246.6C997.25 252.55 997.47 258.7 999.8 264.26C1001.18 267.73 1004.52 270.52 1008.4 270.35C1020.14 270.31 1031.75 267.67 1042.81 263.85C1040.06 272.93 1037.37 282.03 1034.62 291.1C1021.94 294.54 1008.64 296.29 995.54 294.88C986.7 293.87 978.17 288.87 974.05 280.79C967.46 268.18 967.75 253.46 967.75 239.61C967.74 212.21 967.76 184.8 967.74 157.39C960.06 157.38 952.4 157.41 944.73 157.38C944.73 149.42 944.72 141.45 944.74 133.49C952.41 133.47 960.07 133.49 967.75 133.48C967.75 117.55 967.74 101.62 967.76 85.68Z"/>
<path fill-rule="evenodd" d="M740.44 150.14C753.9 135.99 773.89 129.8 793.06 130.29C810.13 130.14 827.61 136.84 838.73 150.1C851.84 165.44 856.01 186.46 855.26 206.16C854.98 211.51 854.25 217.75 849.65 221.25C844.97 224.61 838.91 224.84 833.37 225.05C804.91 225.1 776.45 225.05 747.99 225.07C749.13 236.66 752.02 248.78 760.01 257.64C766.89 265.4 777.23 269.15 787.36 270.03C809.04 271.53 831.33 267.95 850.74 257.87C848.69 267.05 846.56 276.22 844.52 285.41C825.75 294.31 804.4 296.25 783.89 295C765.59 293.73 746.45 287.57 734.21 273.19C720.61 257.41 717.09 235.65 717.37 215.43C717.63 192.07 723.88 167.38 740.44 150.14ZM762.75 166.62C753.62 175.73 749.79 188.67 748.26 201.16C774.24 201.17 800.2 201.16 826.17 201.16C826.48 190.33 824.95 179.04 819.41 169.55C815.48 162.74 808.59 157.79 800.89 156.22C787.55 153.54 772.49 156.7 762.75 166.62Z"/>
<path fill-rule="evenodd" d="M1238.69 138.61C1257.91 132.33 1278.28 129.65 1298.47 130.44C1313.49 131.29 1329.23 135.35 1340.43 145.94C1349.41 154.2 1353.97 166.51 1353.93 178.59C1353.93 212.5 1353.92 246.41 1353.94 280.32C1341.55 287 1327.73 290.51 1313.94 292.91C1300.82 295.02 1287.45 296.08 1274.19 294.85C1260.83 293.47 1247.15 288.59 1238.12 278.23C1227.96 266.75 1225.57 250.29 1227.88 235.57C1229.7 223.71 1236.36 212.77 1246.04 205.71C1259.12 196.04 1275.54 192.1 1291.54 191.14C1303.04 190.55 1314.55 191.23 1326.01 192.2C1325.68 184.12 1327.43 175.17 1322.7 168C1317.6 160.16 1308.04 156.96 1299.2 155.84C1278.61 153.86 1257.73 157.73 1238.68 165.63C1238.69 156.62 1238.65 147.61 1238.69 138.61ZM1276.52 217.54C1267.61 220.44 1259.74 227.58 1257.97 237.07C1256.29 245.8 1257.12 256.12 1263.71 262.73C1270.43 269.18 1280.3 270.31 1289.2 270.37C1301.62 270.23 1314.38 269.48 1326.02 264.75C1326.01 248.27 1326.03 231.8 1326.01 215.33C1309.58 214.12 1292.44 212.21 1276.52 217.54Z"/>
<path d="M1391.92 145.61C1412.23 135.83 1434.67 130.33 1457.24 130.29C1471.02 130.17 1485.32 131.62 1497.72 138.08C1506.85 142.79 1514.1 150.85 1517.93 160.38C1522.01 169.84 1522.62 180.23 1524 190.31L1524 292.3C1514.02 292.64 1504.05 292.38 1494.07 292.46C1494.04 259.48 1494.13 226.5 1494.03 193.52C1493.76 184.18 1493.87 173.96 1488.35 165.94C1483.2 158.63 1473.84 156.2 1465.39 155.57C1450.45 154.62 1435.31 156.36 1421.13 161.22C1421.13 204.97 1421.13 248.71 1421.13 292.45C1411.38 292.46 1401.65 292.46 1391.92 292.45C1391.92 243.5 1391.9 194.56 1391.92 145.61Z"/>
<path d="M887.04 133.49C896.81 133.48 906.6 133.48 916.38 133.49C916.39 186.48 916.39 239.47 916.38 292.45C906.6 292.46 896.81 292.46 887.04 292.45C887.03 239.47 887.03 186.48 887.04 133.49Z"/>
<path d="M1064.74 133.49C1074.51 133.48 1084.3 133.48 1094.08 133.49C1094.1 167.31 1094.03 201.13 1094.11 234.95C1094.4 243.91 1094.71 253.87 1100.74 261.11C1106.85 268.25 1116.81 269.88 1125.71 270.29C1139.28 270.51 1153.3 270.02 1166.01 264.77C1166.03 221.01 1166.01 177.25 1166.03 133.49C1175.81 133.48 1185.58 133.48 1195.36 133.49C1195.38 182.43 1195.37 231.36 1195.37 280.3C1177.26 289.18 1157.33 294.3 1137.18 295.21C1120.84 295.82 1103.56 294.97 1088.97 286.86C1078.72 281.28 1071.39 271.23 1068.23 260.1C1064.33 247.53 1064.68 234.22 1064.73 221.2C1064.73 191.97 1064.72 162.73 1064.74 133.49Z"/>
</g>
</svg>
