<?xml version="1.0" encoding="UTF-8"?>
<svg xmlns="http://www.w3.org/2000/svg" width="100pt" height="31.34pt" viewBox="0 0 100 31.34" version="1.1">
<defs>
<clipPath id="clip1">
  <path d="M 0 16 L 30 16 L 30 31.339844 L 0 31.339844 Z M 0 16 "/>
</clipPath>
</defs>
<g fill="#000000" fill-rule="nonzero">
<path d="M 16.9375 0.015625 C 21.472656 -0.0117188 26.003906 0.00390625 30.535156 0.0078125 C 36.167969 9.785156 41.839844 19.546875 47.492188 29.316406 C 42.964844 29.335938 38.4375 29.324219 33.910156 29.320313 C 28.261719 19.546875 22.613281 9.773438 16.9375 0.015625 "/>
<path d="M 34.632813 5.054688 C 35.660156 3.453125 36.632813 1.808594 37.410156 0.0664063 C 42.664063 0.0820313 47.917969 0.0742188 53.171875 0.0742188 C 52.878906 0.890625 52.375 1.613281 51.941406 2.363281 C 48.824219 7.335938 44.949219 11.808594 40.660156 15.804688 C 38.699219 12.378906 36.710938 8.972656 34.734375 5.558594 C 34.667969 5.40625 34.492188 5.214844 34.632813 5.054688 "/>
<path d="M 91.5 9.921875 C 93.054688 9.863281 94.617188 9.910156 96.175781 9.902344 C 95.535156 10.984375 94.890625 12.058594 94.214844 13.121094 C 96.140625 13.136719 98.070313 13.113281 100 13.128906 C 99.714844 13.585938 99.492188 14.101563 99.082031 14.457031 C 97.183594 14.492188 95.285156 14.449219 93.386719 14.472656 C 92.929688 15.277344 92.425781 16.054688 91.953125 16.847656 C 94.472656 16.84375 96.996094 16.839844 99.515625 16.847656 C 99.152344 17.554688 98.730469 18.234375 98.351563 18.9375 C 95.789063 18.941406 93.230469 18.933594 90.671875 18.941406 C 89.417969 20.957031 88.230469 23.019531 86.933594 25.003906 C 85.386719 24.972656 83.84375 25 82.300781 24.988281 C 83.332031 23.21875 84.445313 21.496094 85.480469 19.730469 C 83.011719 19.734375 80.539063 19.734375 78.066406 19.730469 C 78.34375 19.300781 78.621094 18.867188 78.898438 18.433594 C 80.074219 18.4375 81.253906 18.441406 82.429688 18.433594 C 83.976563 15.824219 85.585938 13.253906 87.144531 10.648438 C 87.925781 10.640625 88.707031 10.570313 89.488281 10.597656 C 89.140625 11.390625 88.617188 12.089844 88.1875 12.84375 C 87.078125 14.710938 85.875 16.53125 84.832031 18.4375 C 85.304688 18.4375 85.777344 18.4375 86.253906 18.4375 C 86.785156 17.367188 87.546875 16.441406 88.136719 15.40625 C 89.261719 13.582031 90.351563 11.730469 91.5 9.921875 "/>
<path d="M 74.550781 13.101563 C 75.160156 12.21875 75.753906 11.320313 76.335938 10.417969 C 77.597656 10.417969 78.863281 10.410156 80.128906 10.417969 C 79.5 11.292969 78.941406 12.214844 78.324219 13.09375 C 78.878906 13.097656 79.4375 13.089844 79.992188 13.117188 C 79.691406 13.585938 79.398438 14.0625 79.113281 14.542969 C 78.535156 14.546875 77.957031 14.546875 77.378906 14.542969 C 76.714844 15.492188 76.089844 16.46875 75.433594 17.421875 C 75.988281 17.433594 76.546875 17.429688 77.101563 17.433594 C 76.800781 17.929688 76.503906 18.429688 76.203125 18.921875 C 72.367188 18.917969 68.53125 18.925781 64.695313 18.917969 C 64.988281 18.417969 65.285156 17.921875 65.585938 17.425781 C 67.621094 17.429688 69.65625 17.433594 71.691406 17.425781 C 72.296875 16.449219 72.980469 15.527344 73.578125 14.546875 C 72.179688 14.542969 70.78125 14.550781 69.386719 14.542969 C 69.675781 14.066406 69.972656 13.597656 70.242188 13.113281 C 71.679688 13.085938 73.113281 13.097656 74.550781 13.101563 "/>
<path d="M 62.960938 14.011719 C 63.75 12.953125 64.433594 11.824219 65.175781 10.738281 C 66.191406 10.75 67.203125 10.738281 68.21875 10.746094 C 67.53125 11.839844 66.726563 12.867188 66.105469 14.003906 C 66.800781 14.003906 67.496094 13.996094 68.191406 14.003906 C 67.941406 14.414063 67.6875 14.824219 67.449219 15.242188 C 66.703125 15.242188 65.960938 15.242188 65.21875 15.242188 C 62.390625 19.527344 59.527344 23.785156 56.6875 28.058594 C 53.851563 28.058594 51.011719 28.09375 48.175781 28.066406 C 48.492188 27.523438 48.777344 26.960938 49.117188 26.433594 C 50.992188 26.457031 52.867188 26.453125 54.742188 26.433594 C 55.664063 24.945313 56.734375 23.542969 57.605469 22.023438 C 57.054688 22.066406 56.460938 21.929688 55.933594 22.089844 C 55.144531 22.976563 54.480469 23.976563 53.726563 24.898438 C 52.828125 24.890625 51.933594 24.917969 51.035156 24.878906 C 52.167969 23.476563 53.25 22.039063 54.347656 20.613281 C 55.761719 20.59375 57.175781 20.640625 58.589844 20.628906 C 59.78125 18.835938 60.976563 17.042969 62.175781 15.253906 C 61.476563 15.238281 60.777344 15.238281 60.078125 15.253906 C 59.273438 16.527344 58.453125 17.792969 57.625 19.054688 C 56.800781 19.039063 55.980469 19.050781 55.15625 19.046875 C 56.550781 16.804688 58.039063 14.625 59.429688 12.386719 C 60.273438 12.355469 61.121094 12.367188 61.96875 12.382813 C 61.613281 12.890625 61.28125 13.414063 60.933594 13.929688 C 61.601563 14.054688 62.285156 13.984375 62.960938 14.011719 "/>
<g clip-path="url(#clip1)" clip-rule="nonzero">
<path d="M 14.675781 23.980469 C 18.460938 21.71875 22.054688 19.125 25.261719 16.09375 C 26.816406 18.796875 28.390625 21.484375 29.9375 24.1875 C 23.277344 28.359375 15.554688 30.78125 7.71875 31.28125 C 5.148438 31.335938 2.554688 31.445313 0 31.082031 C 5.074219 29.117188 10.007813 26.777344 14.675781 23.980469 "/>
</g>
<path d="M 92.035156 20.613281 C 93.605469 20.613281 95.179688 20.605469 96.75 20.617188 C 95.007813 23.050781 93.28125 25.496094 91.570313 27.953125 C 84.890625 27.976563 78.214844 27.957031 71.535156 27.960938 C 71.953125 27.226563 72.375 26.492188 72.796875 25.757813 C 78 25.765625 83.199219 25.757813 88.402344 25.765625 C 89.613281 24.046875 90.832031 22.335938 92.035156 20.613281 "/>
<path d="M 61.457031 22.101563 C 61.777344 21.609375 62.082031 21.101563 62.402344 20.605469 C 67.089844 20.628906 71.777344 20.597656 76.464844 20.621094 C 76.152344 21.105469 75.839844 21.59375 75.554688 22.097656 C 74.816406 22.113281 74.082031 22.101563 73.347656 22.109375 C 72.019531 24.089844 70.730469 26.09375 69.363281 28.042969 C 68.433594 28.027344 67.503906 28.039063 66.578125 28.039063 C 63.667969 27.882813 60.753906 28.007813 57.839844 27.957031 C 58.183594 27.492188 58.40625 26.925781 58.808594 26.515625 C 61.410156 26.5 64.011719 26.503906 66.613281 26.515625 C 67.660156 25.085938 68.574219 23.5625 69.601563 22.117188 C 66.886719 22.082031 64.171875 22.117188 61.457031 22.101563 "/>
<path d="M 80.972656 20.726563 C 81.773438 20.710938 82.574219 20.707031 83.375 20.730469 C 82.429688 22.109375 81.457031 23.476563 80.566406 24.894531 C 78.871094 24.902344 77.175781 24.902344 75.480469 24.894531 C 75.773438 24.480469 76.054688 24.054688 76.324219 23.621094 C 77.199219 23.59375 78.078125 23.636719 78.957031 23.601563 C 79.726563 22.730469 80.308594 21.683594 80.972656 20.726563 "/>
<path d="M 65.582031 22.609375 C 66.140625 22.5625 66.707031 22.601563 67.265625 22.59375 C 66.570313 23.636719 65.867188 24.679688 65.183594 25.738281 C 63.320313 25.757813 61.453125 25.605469 59.589844 25.734375 C 59.96875 25.003906 60.476563 24.347656 60.914063 23.652344 C 62.238281 23.644531 63.558594 23.667969 64.882813 23.640625 C 65.109375 23.292969 65.3125 22.929688 65.582031 22.609375 "/>
</g>
</svg>
