<svg width="26" height="26" viewBox="0 0 26 26" fill="none" xmlns="http://www.w3.org/2000/svg">
<path d="M16.3785 4C16.144 4.41199 15.9334 4.8382 15.742 5.27388C13.9232 5.00395 12.0709 5.00395 10.2473 5.27388C10.0606 4.8382 9.84523 4.41199 9.61072 4C7.902 4.28888 6.23636 4.79558 4.65689 5.51065C1.52664 10.0995 0.679468 14.5698 1.10067 18.9787C2.93381 20.3189 4.98715 21.3417 7.17448 21.9953C7.66747 21.3417 8.10303 20.6456 8.47636 19.9211C7.76798 19.6606 7.08354 19.3339 6.42782 18.955C6.60012 18.8319 6.76765 18.704 6.93038 18.5809C10.7738 20.371 15.2251 20.371 19.0732 18.5809C19.236 18.7135 19.4035 18.8414 19.5758 18.955C18.9201 19.3386 18.2356 19.6606 17.5225 19.9258C17.8958 20.6504 18.3313 21.3465 18.8244 22C21.0116 21.3465 23.0649 20.3283 24.8982 18.9882C25.3959 13.8737 24.0462 9.44119 21.3323 5.51539C19.7577 4.80032 18.092 4.29361 16.3833 4.00947L16.3785 4ZM9.01242 16.2652C7.83022 16.2652 6.84902 15.2044 6.84902 13.8927C6.84902 12.5809 7.79192 11.5154 9.00765 11.5154C10.2234 11.5154 11.1902 12.5856 11.171 13.8927C11.1519 15.1997 10.2186 16.2652 9.01242 16.2652ZM16.9864 16.2652C15.7994 16.2652 14.8278 15.2044 14.8278 13.8927C14.8278 12.5809 15.7707 11.5154 16.9864 11.5154C18.2021 11.5154 19.1642 12.5856 19.145 13.8927C19.1259 15.1997 18.1926 16.2652 16.9864 16.2652Z" fill="#0DBE85"/>
</svg>
