<svg width="26" height="26" viewBox="0 0 26 26" fill="none" xmlns="http://www.w3.org/2000/svg">
<g id="icon">
<path id="Star 2" d="M12.1547 2.33768C12.5471 1.71664 13.4529 1.71664 13.8453 2.33768L16.843 7.08122C16.9796 7.29735 17.1938 7.45295 17.4415 7.51606L22.8792 8.90119C23.5912 9.08254 23.8711 9.94396 23.4017 10.5091L19.8167 14.8259C19.6533 15.0226 19.5715 15.2744 19.588 15.5295L19.9511 21.1291C19.9986 21.8622 19.2658 22.3946 18.5833 22.1229L13.3699 20.0473C13.1324 19.9527 12.8676 19.9527 12.6301 20.0473L7.41675 22.1229C6.73419 22.3946 6.00142 21.8622 6.04895 21.1291L6.41195 15.5295C6.42849 15.2744 6.34669 15.0226 6.18335 14.8259L2.59831 10.5091C2.12894 9.94396 2.40883 9.08254 3.12076 8.90119L8.55847 7.51606C8.80622 7.45295 9.02039 7.29735 9.15697 7.08122L12.1547 2.33768Z" fill="#1D1D1D"/>
<g id="Mask group">
<mask id="mask0_177_2212" style="mask-type:alpha" maskUnits="userSpaceOnUse" x="4" y="4" width="18" height="17">
<path id="Star 3" d="M9.75957 6.12766C11.264 3.74705 14.736 3.74705 16.2404 6.12766C16.764 6.95612 17.5849 7.55259 18.5346 7.7945C21.2636 8.48965 22.3365 11.7917 20.5373 13.9582C19.9112 14.7121 19.5976 15.6772 19.661 16.6552C19.8432 19.4654 17.0343 21.5062 14.4179 20.4645C13.5074 20.102 12.4926 20.102 11.5821 20.4645C8.9657 21.5062 6.1568 19.4654 6.33898 16.6552C6.40238 15.6772 6.0888 14.7121 5.46267 13.9582C3.66347 11.7917 4.73637 8.48965 7.46536 7.7945C8.41506 7.55259 9.23603 6.95612 9.75957 6.12766Z" fill="#1D1D1D"/>
</mask>
<g mask="url(#mask0_177_2212)">
<path id="Vector" d="M11.3196 20.6026C11.3196 20.8074 11.1807 21.041 10.8091 20.9733V22H15.5277V20.9725C15.1562 21.0504 15.0165 20.8074 15.0165 20.6034C15.0165 20.3401 15.0261 19.5029 15.0261 18.4617C15.0261 17.7312 14.7935 17.264 14.5245 17.021C16.1779 16.8263 17.9145 16.1643 17.9145 13.1754C17.9145 12.3188 17.6262 11.628 17.1528 11.0828C17.2271 10.8882 17.4872 10.0899 17.0785 9.01909C17.0785 9.01909 16.4558 8.80415 15.035 9.81656C14.4406 9.64133 13.809 9.55411 13.1773 9.55411C12.5496 9.55282 11.9245 9.64138 11.3196 9.81734C9.89811 8.81428 9.27615 9.01832 9.27615 9.01832C8.86746 10.0891 9.12753 10.8874 9.20184 11.0821C8.72776 11.628 8.44018 12.3281 8.44018 13.1754C8.44018 16.1542 10.1678 16.8263 11.8212 17.021C11.6072 17.2157 11.4125 17.556 11.3471 18.0622C10.9206 18.2663 9.85204 18.5972 9.18327 17.4197C9.04357 17.1861 8.62595 16.6114 8.04041 16.6215C7.41845 16.6308 7.78999 16.9914 8.05007 17.137C8.36588 17.3224 8.72776 18.0132 8.81172 18.2374C8.96034 18.6759 9.44334 19.5131 11.31 19.1525C11.31 19.8051 11.3196 20.418 11.3196 20.6026Z" fill="#F7F9FE"/>
</g>
</g>
</g>
</svg>
