<svg width="21" height="20" viewBox="0 0 21 20" fill="#7F7F83" xmlns="http://www.w3.org/2000/svg">
    <g clip-path="url(#clip0_8019_4529)">
        <g clip-path="url(#clip1_8019_4529)">
            <path
                d="M10.506 2.69849C14.6502 2.69681 18.0068 6.05174 18.0068 10.1926C18.0068 13.4671 15.9071 16.2506 12.9828 17.2728C12.589 17.3717 12.6493 17.0918 12.6493 16.9008V15.6021C14.9234 15.8685 15.0155 14.3637 15.168 14.1123C15.4764 13.5861 16.2054 13.452 15.9875 13.2007C15.4697 12.9342 14.9418 13.2677 14.3302 14.1709C13.8877 14.8262 13.0247 14.7156 12.5873 14.6067C12.4918 14.2128 12.2874 13.8609 12.0058 13.5878C14.362 13.1655 15.344 11.7276 15.344 10.0183C15.344 9.18882 15.0709 8.42634 14.5346 7.81132C14.8765 6.79747 14.5028 5.92941 14.4525 5.80037C13.4788 5.71323 12.4667 6.4975 12.3879 6.55951C11.8349 6.41036 11.2031 6.3316 10.4959 6.3316C9.78541 6.3316 9.15196 6.41371 8.59392 6.56453C8.40456 6.42042 7.46611 5.74675 6.56119 5.82886C6.51259 5.9579 6.14727 6.80585 6.46902 7.8063C5.92606 8.42299 5.64956 9.19217 5.64956 10.0234C5.64956 11.736 6.63827 13.1755 9.00114 13.5911C8.60733 13.9799 8.36266 14.5195 8.36266 15.1161V17.0014C8.34926 17.1522 8.36266 17.3013 8.11129 17.3013C5.14347 16.3009 3.00684 13.4973 3.00684 10.1943C3.00684 6.05174 6.36512 2.69849 10.506 2.69849Z"
            />
        </g>
    </g>
    <defs>
        <clipPath id="clip0_8019_4529">
            <rect width="21" height="20" fill="white" />
        </clipPath>
        <clipPath id="clip1_8019_4529">
            <rect width="16" height="16" fill="white" transform="matrix(-1 0 0 1 18.5 2)" />
        </clipPath>
    </defs>
</svg>