<?xml version="1.0"?>
<!DOCTYPE svg PUBLIC "-//W3C//DTD SVG 1.0//EN"
	"http://www.w3.org/TR/2001/REC-SVG-20010904/DTD/svg10.dtd">
<!-- ========================================================================= -->
<!-- Copyright (C) The Apache Software Foundation. All rights reserved.        -->
<!--                                                                           -->
<!-- This software is published under the terms of the Apache Software License -->
<!-- version 1.1, a copy of which has been included with this distribution in  -->
<!-- the LICENSE file.                                                         -->
<!-- ========================================================================= -->
<!-- ========================================================================= -->
<!-- Test description here                                                     -->
<!--                                                                           -->
<!-- @version $Id: apache-incubator-logo-source.svg 537581 2007-05-13 11:54:03Z rdonkin $ -->
<!-- ========================================================================= -->
<svg id="body" xmlns="http://www.w3.org/2000/svg"
	xmlns:xlink="http://www.w3.org/1999/xlink" xml:space="preserve" width="229"
	height="57">
	<defs>
		<linearGradient id="black-white_1" x1="82.2222%" y1="100%" x2="0%" y2="0%"
			spreadMethod="pad" gradientUnits="objectBoundingBox">
			<stop offset="0%" style="stop-color:rgb(0,0,0);stop-opacity:1"/>
			<stop offset="100%" style="stop-color:rgb(255,255,255);stop-opacity:1"/>
		</linearGradient>
		<linearGradient id="black-white" x1="0%" y1="0%" x2="100%" y2="0%"
			spreadMethod="pad" gradientUnits="objectBoundingBox">
			<stop offset="0%" style="stop-color:rgb(0,0,0);stop-opacity:1"/>
			<stop offset="100%" style="stop-color:rgb(255,255,255);stop-opacity:1"/>
		</linearGradient>
		<filter id="medGlow" x="-5%" y="-5%" width="110%" height="110%">
			<feGaussianBlur in="SourceGraphic" stdDeviation="2" result="glowSrc"/>
			<feComponentTransfer in="glowSrc" result="glowingGraphic">
				<feFuncA type="linear" slope="3"/>
			</feComponentTransfer>
		</filter>
	</defs>
	<rect id="background" x="12" y="7" width="413" height="72" rx="4" ry="4"
		transform="translate(218.5 7) scale(1 1.27778) translate(-218.5 -7) translate(218.5 7) scale(1 0.820972) translate(-218.5 -7) translate(218.5 7) scale(1 1.17134) translate(-218.5 -7) translate(12 43) scale(0.780658 1) translate(-12 -43) translate(12 43) scale(1.01824 1) translate(-12 -43) translate(0 4.78723) translate(425 7) scale(0.926894 0.830453) translate(-425 -7) translate(12 79) scale(0.927701 0.795837) translate(-12 -79) translate(0 -1.23138) translate(-49.7427 -32.016) translate(-1.46302 0) translate(425 43) scale(0.854135 1) translate(-425 -43) translate(-1.71287 0) translate(-1.71287 0) translate(-1.71287 0) translate(-1.71287 0) translate(-1.71287 0) translate(-1.71287 0) translate(-1.71287 0) translate(-1.71287 0) translate(-1.71287 0) translate(-1.71287 0) translate(-1.71287 0) translate(-1.71287 0) translate(-1.71287 0) translate(-1.71287 0) translate(-1.71287 0) translate(-1.71287 0) translate(-1.71287 0) translate(-1.71287 0) translate(-1.71287 0) translate(-1.71287 0) translate(-1.71287 0) translate(-1.71287 0) translate(-1.71287 0) translate(-1.71287 0) translate(-1.71287 0) translate(-1.71287 0) translate(-1.71287 0) translate(-1.71287 0) translate(-1.71287 0) translate(-1.71287 0) translate(-1.71287 0) translate(-1.71287 0) translate(-1.71287 0) translate(-1.71287 0) translate(-1.71287 0) translate(-1.71287 0) translate(-1.71287 0) translate(-1.71287 0) translate(-1.71287 0) translate(-1.71287 0) translate(1.71287 0) translate(1.71287 0) translate(-1.71287 0) translate(-1.71287 0) translate(-1.71287 0) translate(-1.71287 0) translate(12 7) scale(0.945604 0.945604) translate(-12 -7)"
		
		 style="fill:rgb(255,255,255);stroke:rgb(0,0,0);stroke-width:2"/>
	<g id="Apache_feather"
		transform="matrix(-0.479341 0 0 0.479341 264.331 2.92285) translate(2.0862 0) translate(2.0862 0) translate(2.0862 0) translate(2.0862 0) translate(2.0862 0) translate(2.0862 0) translate(2.0862 0) translate(2.0862 0) translate(2.0862 0) translate(2.0862 0) translate(2.0862 0) translate(2.0862 0) translate(2.0862 0) translate(2.0862 0) translate(2.0862 0) translate(2.0862 0) translate(2.0862 0) translate(2.0862 0) translate(2.0862 0) translate(2.0862 0) translate(2.0862 0) translate(2.0862 0) translate(2.0862 0) translate(2.0862 0) translate(2.0862 0) translate(2.0862 0) translate(2.0862 0) translate(2.0862 0) translate(2.0862 0) translate(2.0862 0) translate(2.0862 0) translate(2.0862 0) translate(2.0862 0) translate(2.0862 0) translate(2.0862 0) translate(2.0862 0) translate(2.0862 0) translate(2.0862 0) translate(2.0862 0) translate(2.0862 0) translate(-2.0862 0) translate(-2.0862 0) translate(2.0862 0) translate(2.0862 0) translate(2.0862 0) translate(2.0862 0) translate(463.457 -4.25684) scale(0.945604 0.945604) translate(-463.457 4.25684)"
		>
		<defs>
			<linearGradient id="AIgd1" gradientUnits="userSpaceOnUse" x1="-3510.37"
				y1="4186.3" x2="-3520.39" y2="4153.28"
				gradientTransform="matrix(0.5318 0.0004 -0.0004 0.5318 -2022.6 2980.66)">
				<stop offset="0" style="stop-color:rgb(79,12,129)"/>
				<stop offset="0.0701" style="stop-color:rgb(105,12,115)"/>
				<stop offset="0.209" style="stop-color:rgb(154,10,91)"/>
				<stop offset="0.3368" style="stop-color:rgb(194,7,72)"/>
				<stop offset="0.4512" style="stop-color:rgb(224,5,58)"/>
				<stop offset="0.5481" style="stop-color:rgb(242,0,50)"/>
				<stop offset="0.6158" style="stop-color:rgb(250,0,47)"/>
				<stop offset="1" style="stop-color:rgb(247,238,95)"/>
			</linearGradient>
		</defs>
		<g style="fill-rule:nonzero;fill:url(#AIgd1);stroke:rgb(0,0,0);stroke-width:0.254;stroke-miterlimit:4;
			">
			<path style="fill:rgb(0,0,0);stroke-width:0.5956"
				d="M0.241 40.672 C13.802 38.805 63.854 36.279 86.184 32.621 C104.145 29.684 121.686
					24.336 138.426 18.721 C142.754 17.268 150.417 14.287 155.322 11.651 C158.426
					9.278 165.893 5.762 167.928 2.429 C135.478 17.836 122.415 22.078 84.346 29.783
					C68.91 32.952 12.729 37.504 0.241 40.672 z"/>
			<defs>
				<linearGradient id="AIgd2" gradientUnits="userSpaceOnUse" x1="-3788.1"
					y1="-3507.62" x2="-3789.16" y2="-3479.41"
					gradientTransform="matrix(0.5318 0.0004 -0.0004 0.5318 2070.83 1900.09)">
					<stop offset="0" style="stop-color:rgb(79,12,129)"/>
					<stop offset="0.0701" style="stop-color:rgb(105,12,115)"/>
					<stop offset="0.209" style="stop-color:rgb(154,10,91)"/>
					<stop offset="0.3368" style="stop-color:rgb(194,7,72)"/>
					<stop offset="0.4512" style="stop-color:rgb(224,5,58)"/>
					<stop offset="0.5481" style="stop-color:rgb(242,0,50)"/>
					<stop offset="0.6158" style="stop-color:rgb(250,0,47)"/>
					<stop offset="1" style="stop-color:rgb(247,238,95)"/>
				</linearGradient>
			</defs>
			<path style="fill:url(#AIgd2)"
				d="M48.261 46.645 L49.715 47.143 L51.133 47.261 L52.55 47.032 L53.967 46.458 L55.346
					45.692 L56.726 44.698 L58.031 43.552 L59.332 42.326 L60.56 41.066 L61.709
					39.799 L62.82 38.575 L63.855 37.427 L64.813 36.47 L65.694 35.707 L66.461 35.206
					L67.15 34.978 L66.574 35.014 L65.963 35.052 L65.274 35.129 L64.586 35.203
					L63.896 35.281 L63.207 35.357 L62.518 35.395 L61.906 35.471 L60.949 36.351
					L60.028 37.193 L59.223 38.035 L58.494 38.879 L57.767 39.68 L57.079 40.485
					L56.427 41.249 L55.736 41.978 L55.048 42.705 L54.319 43.355 L53.552 44.005
					L52.67 44.615 L51.751 45.191 L50.717 45.726 L49.568 46.222 L48.266 46.643
					z"/>
			<defs>
				<linearGradient id="AIgd3" gradientUnits="userSpaceOnUse" x1="-3817.43"
					y1="-3498.72" x2="-3818.31" y2="-3475.52"
					gradientTransform="matrix(0.5318 0.0004 -0.0004 0.5318 2070.83 1900.09)">
					<stop offset="0" style="stop-color:rgb(79,12,129)"/>
					<stop offset="0.0701" style="stop-color:rgb(105,12,115)"/>
					<stop offset="0.209" style="stop-color:rgb(154,10,91)"/>
					<stop offset="0.3368" style="stop-color:rgb(194,7,72)"/>
					<stop offset="0.4512" style="stop-color:rgb(224,5,58)"/>
					<stop offset="0.5481" style="stop-color:rgb(242,0,50)"/>
					<stop offset="0.6158" style="stop-color:rgb(250,0,47)"/>
					<stop offset="1" style="stop-color:rgb(247,238,95)"/>
				</linearGradient>
			</defs>
			<path style="fill:url(#AIgd3)"
				d="M43.511 46.45 L45.199 46.721 L46.768 46.759 L48.223 46.609 L49.6 46.264 L50.865 45.73
					L52.016 45.078 L53.164 44.312 L54.198 43.433 L55.233 42.515 L56.19 41.52
					L57.149 40.448 L58.07 39.416 L59.026 38.383 L59.986 37.35 L60.944 36.395
					L61.939 35.514 L61.558 35.551 L61.135 35.551 L60.751 35.59 L60.332 35.627
					L59.908 35.664 L59.487 35.742 L59.067 35.777 L58.647 35.818 L58.226 35.855
					L57.765 35.892 L57.343 35.97 L56.884 36.007 L56.425 36.044 L55.965 36.081 L55.505
					36.081 L55.046 36.12 L54.699 36.655 L54.279 37.306 L53.742 38.071 L53.167
					38.876 L52.477 39.757 L51.748 40.636 L50.982 41.554 L50.177 42.433 L49.333
					43.277 L48.493 44.082 L47.608 44.808 L46.766 45.42 L45.922 45.916 L45.079
					46.262 L44.275 46.451 L43.507 46.451 z"/>
			<defs>
				<linearGradient id="AIgd4" gradientUnits="userSpaceOnUse" x1="-3806.91"
					y1="-3505.31" x2="-3807.84" y2="-3480.56"
					gradientTransform="matrix(0.5318 0.0004 -0.0004 0.5318 2070.83 1900.09)">
					<stop offset="0" style="stop-color:rgb(79,12,129)"/>
					<stop offset="0.0701" style="stop-color:rgb(105,12,115)"/>
					<stop offset="0.209" style="stop-color:rgb(154,10,91)"/>
					<stop offset="0.3368" style="stop-color:rgb(194,7,72)"/>
					<stop offset="0.4512" style="stop-color:rgb(224,5,58)"/>
					<stop offset="0.5481" style="stop-color:rgb(242,0,50)"/>
					<stop offset="0.6158" style="stop-color:rgb(250,0,47)"/>
					<stop offset="1" style="stop-color:rgb(247,238,95)"/>
				</linearGradient>
			</defs>
			<path style="fill:url(#AIgd4)"
				d="M40.371 46.487 L41.329 46.602 L42.248 46.678 L43.129 46.641 L44.01 46.489 L44.892
					46.299 L45.735 45.955 L46.576 45.534 L47.459 44.96 L48.341 44.31 L49.223 43.546
					L50.105 42.625 L51.024 41.632 L51.982 40.444 L52.979 39.144 L54.013 37.728
					L55.087 36.121 L54.436 36.119 L53.823 36.158 L53.209 36.234 L52.597 36.31
					L51.986 36.388 L51.373 36.46 L50.685 36.46 L49.958 36.46 L49.342 37.072
					L48.769 37.722 L48.193 38.336 L47.619 39.024 L47.044 39.674 L46.509 40.363
					L45.933 41.011 L45.394 41.702 L44.822 42.352 L44.248 43.002 L43.636 43.652
					L43.059 44.265 L42.409 44.837 L41.757 45.411 L41.107 45.984 L40.378 46.483
					z"/>
			<path style="fill:url(#AIgd3)"
				d="M37.041 46.329 L37.769 46.716 L38.571 46.869 L39.378 46.753 L40.22 46.411 L41.064
					45.911 L41.945 45.222 L42.825 44.458 L43.709 43.541 L44.55 42.583 L45.434
					41.59 L46.238 40.593 L47.043 39.636 L47.811 38.679 L48.54 37.839 L49.229 37.11
					L49.843 36.497 L45.744 36.879 L45.282 37.491 L44.784 38.101 L44.326 38.717
					L43.867 39.325 L43.407 39.939 L42.907 40.551 L42.446 41.163 L41.949 41.775
					L41.412 42.348 L40.875 42.959 L40.339 43.537 L39.726 44.107 L39.114 44.681
					L38.461 45.257 L37.773 45.793 L37.045 46.325 z"/>
			<defs>
				<linearGradient id="AIgd6" gradientUnits="userSpaceOnUse" x1="-3825.44"
					y1="-3503.89" x2="-3826.33" y2="-3480.15"
					gradientTransform="matrix(0.5318 0.0004 -0.0004 0.5318 2070.83 1900.09)">
					<stop offset="0" style="stop-color:rgb(79,12,129)"/>
					<stop offset="0.0701" style="stop-color:rgb(105,12,115)"/>
					<stop offset="0.209" style="stop-color:rgb(154,10,91)"/>
					<stop offset="0.3368" style="stop-color:rgb(194,7,72)"/>
					<stop offset="0.4512" style="stop-color:rgb(224,5,58)"/>
					<stop offset="0.5481" style="stop-color:rgb(242,0,50)"/>
					<stop offset="0.6158" style="stop-color:rgb(250,0,47)"/>
					<stop offset="1" style="stop-color:rgb(247,238,95)"/>
				</linearGradient>
			</defs>
			<path style="fill:url(#AIgd6)"
				d="M30.262 45.444 L31.45 46.211 L32.559 46.711 L33.669 46.942 L34.743 46.942 L35.776
					46.751 L36.771 46.408 L37.726 45.87 L38.686 45.183 L39.605 44.342 L40.528
					43.461 L41.368 42.424 L42.252 41.393 L43.095 40.284 L43.939 39.138 L44.744
					37.99 L45.549 36.879 L44.861 36.994 L44.325 37.031 L43.941 37.068 L43.596 37.107
					L43.253 37.146 L42.907 37.145 L42.408 37.182 L41.757 37.219 L41.028 38.253
					L40.301 39.208 L39.572 40.129 L38.767 40.933 L38 41.66 L37.233 42.349
					L36.429 42.96 L35.661 43.496 L34.895 43.954 L34.127 44.375 L33.4 44.681 L32.711
					44.95 L32.022 45.179 L31.408 45.331 L30.796 45.406 L30.259 45.444 z"/>
			<path style="fill:url(#AIgd3)"
				d="M26.7 45.21 L27.928 45.363 L29.114 45.443 L30.263 45.365 L31.372 45.214 L32.408 44.987
					L33.441 44.642 L34.399 44.22 L35.319 43.685 L36.239 43.113 L37.083 42.462
					L37.926 41.735 L38.729 40.931 L39.495 40.089 L40.225 39.171 L40.954 38.212
					L41.643 37.218 L40.876 37.257 L40.032 37.331 L39.23 37.407 L38.424 37.445
					L37.734 37.522 L37.16 37.557 L36.739 37.596 L36.548 37.633 L36.472 37.711
					L36.281 37.901 L35.973 38.207 L35.591 38.592 L35.169 39.051 L34.633 39.587
					L34.056 40.16 L33.408 40.774 L32.677 41.382 L31.913 42.032 L31.145 42.647
					L30.302 43.258 L29.422 43.83 L28.541 44.365 L27.62 44.825 z"/>
			<defs>
				<linearGradient id="AIgd8" gradientUnits="userSpaceOnUse" x1="-3841.66"
					y1="-3502.43" x2="-3842.42" y2="-3482.3"
					gradientTransform="matrix(0.5318 0.0004 -0.0004 0.5318 2070.83 1900.09)">
					<stop offset="0" style="stop-color:rgb(79,12,129)"/>
					<stop offset="0.0701" style="stop-color:rgb(105,12,115)"/>
					<stop offset="0.209" style="stop-color:rgb(154,10,91)"/>
					<stop offset="0.3368" style="stop-color:rgb(194,7,72)"/>
					<stop offset="0.4512" style="stop-color:rgb(224,5,58)"/>
					<stop offset="0.5481" style="stop-color:rgb(242,0,50)"/>
					<stop offset="0.6158" style="stop-color:rgb(250,0,47)"/>
					<stop offset="1" style="stop-color:rgb(247,238,95)"/>
				</linearGradient>
			</defs>
			<path style="fill:url(#AIgd8)"
				d="M21.991 45.476 L23.024 45.668 L24.022 45.744 L25.055 45.631 L26.089 45.44 L27.123
					45.098 L28.117 44.675 L29.113 44.178 L30.111 43.567 L31.03 42.919 L31.948
					42.229 L32.829 41.503 L33.674 40.737 L34.48 39.933 L35.246 39.168 L35.936 38.4
					L36.587 37.634 L36.126 37.634 L35.552 37.674 L34.941 37.71 L34.29 37.71
					L33.677 37.783 L33.064 37.824 L32.568 37.863 L32.145 37.938 L32.145 38.015
					L31.991 38.204 L31.61 38.551 L31.073 38.971 L30.421 39.506 L29.657 40.119
					L28.812 40.771 L27.93 41.418 L27.01 42.105 L26.092 42.796 L25.211 43.446 L24.365
					44.02 L23.6 44.559 L22.91 44.98 L22.373 45.285 z"/>
			<path style="fill:url(#AIgd3)"
				d="M16.782 45.434 L17.394 46.046 L18.2 46.313 L19.196 46.314 L20.306 46.048 L21.533
					45.588 L22.795 44.942 L24.136 44.174 L25.441 43.333 L26.743 42.414 L27.97 41.498
					L29.117 40.619 L30.116 39.775 L30.997 39.087 L31.647 38.513 L32.07 38.132
					L32.262 37.978 L31.764 38.016 L31.226 38.052 L30.652 38.089 L30.08 38.13
					L29.466 38.202 L28.852 38.241 L28.241 38.281 L27.589 38.319 L26.901 38.738
					L26.213 39.16 L25.52 39.616 L24.871 40.041 L24.182 40.497 L23.529 40.995
					L22.841 41.454 L22.188 41.913 L21.498 42.409 L20.848 42.87 L20.16 43.329 L19.509
					43.787 L18.821 44.208 L18.13 44.63 L17.479 45.049 L16.789 45.433 z"/>
			<defs>
				<linearGradient id="AIgd10" gradientUnits="userSpaceOnUse" x1="-3872.15"
					y1="-3503.97" x2="-3872.38" y2="-3493.16"
					gradientTransform="matrix(0.5318 0.0004 -0.0004 0.5318 2070.83 1900.09)">
					<stop offset="0" style="stop-color:rgb(247,238,95)"/>
					<stop offset="0.186" style="stop-color:rgb(245,214,93)"/>
					<stop offset="0.3825" style="stop-color:rgb(244,195,91)"/>
					<stop offset="0.5198" style="stop-color:rgb(244,188,90)"/>
					<stop offset="0.7809" style="stop-color:rgb(245,218,93)"/>
					<stop offset="1" style="stop-color:rgb(247,238,95)"/>
				</linearGradient>
			</defs>
			<path style="fill:url(#AIgd10)"
				d="M12.953 45.507 L13.605 45.736 L14.254 45.851 L14.904 45.888 L15.557 45.778 L16.207
					45.584 L16.896 45.319 L17.623 44.936 L18.391 44.476 L19.234 43.941 L20.115
					43.329 L21.074 42.641 L22.146 41.913 L23.333 41.11 L24.598 40.229 L25.977
					39.311 L27.511 38.354 L26.858 38.393 L26.131 38.432 L25.481 38.431 L24.831
					38.469 L24.257 38.506 L23.798 38.544 L23.491 38.583 L23.375 38.619 L23.298
					38.734 L23.069 38.964 L22.723 39.271 L22.265 39.691 L21.69 40.19 L21.037 40.767
					L20.348 41.338 L19.543 41.951 L18.738 42.562 L17.895 43.174 L17.052 43.708
					L16.17 44.245 L15.328 44.702 L14.486 45.085 L13.681 45.352 L12.952 45.506
					z"/>
			<defs>
				<linearGradient id="AIgd11" gradientUnits="userSpaceOnUse" x1="-3878.07"
					y1="-3508.42" x2="-3874.54" y2="-3484.95"
					gradientTransform="matrix(0.5318 0.0004 -0.0004 0.5318 2070.83 1900.09)">
					<stop offset="0" style="stop-color:rgb(247,238,95)"/>
					<stop offset="0.186" style="stop-color:rgb(245,214,93)"/>
					<stop offset="0.3825" style="stop-color:rgb(244,195,91)"/>
					<stop offset="0.5198" style="stop-color:rgb(244,188,90)"/>
					<stop offset="0.7809" style="stop-color:rgb(245,218,93)"/>
					<stop offset="1" style="stop-color:rgb(247,238,95)"/>
				</linearGradient>
			</defs>
			<path style="fill:url(#AIgd11)"
				d="M10.158 45.084 L11.037 45.428 L11.995 45.58 L12.993 45.508 L14.026 45.24 L15.098
					44.857 L16.131 44.359 L17.205 43.751 L18.201 43.061 L19.159 42.373 L20.079
					41.645 L20.922 40.957 L21.65 40.266 L22.303 39.694 L22.798 39.195 L23.181 38.854
					L23.413 38.622 L22.8 38.66 L22.223 38.7 L21.652 38.737 L21.077 38.811
					L20.542 38.852 L19.965 38.889 L19.355 38.963 L18.742 39.001 L18.283 39.422
					L17.782 39.842 L17.324 40.263 L16.825 40.723 L16.327 41.221 L15.83 41.68 L15.294
					42.139 L14.756 42.597 L14.22 43.02 L13.686 43.441 L13.109 43.822 L12.575
					44.165 L11.961 44.474 L11.387 44.74 L10.774 44.933 L10.161 45.085 z"/>
			<path style="fill:url(#AIgd10)"
				d="M6.791 44.01 L7.556 44.545 L8.319 44.89 L9.086 45.044 L9.853 45.083 L10.621 44.932
					L11.387 44.7 L12.153 44.357 L12.918 43.899 L13.647 43.401 L14.413 42.79 L15.142
					42.177 L15.871 41.527 L16.598 40.879 L17.288 40.189 L17.977 39.54 L18.667
					38.925 L18.245 38.966 L17.785 39.042 L17.288 39.079 L16.753 39.118 L16.178
					39.192 L15.566 39.231 L14.914 39.305 L14.302 39.342 L14.11 39.803 L13.84
					40.26 L13.569 40.682 L13.223 41.104 L12.842 41.487 L12.418 41.87 L11.998
					42.251 L11.502 42.557 L11.002 42.865 L10.465 43.133 L9.892 43.401 L9.316
					43.59 L8.704 43.744 L8.094 43.894 L7.44 43.971 z"/>
			<path style="fill:url(#AIgd11)"
				d="M3.763 43.434 L4.415 43.7 L5.105 43.893 L5.831 44.008 L6.637 44.009 L7.404 43.971
					L8.246 43.856 L9.051 43.627 L9.854 43.398 L10.622 43.054 L11.351 42.67 L12.001
					42.249 L12.615 41.754 L13.151 41.216 L13.611 40.644 L13.956 39.993 L14.186
					39.341 L13.726 39.381 L13.266 39.418 L12.769 39.494 L12.269 39.532 L11.774
					39.57 L11.237 39.607 L10.663 39.646 L10.011 39.682 L9.74 40.067 L9.433
					40.451 L9.127 40.796 L8.821 41.102 L8.514 41.408 L8.166 41.637 L7.823 41.907
					L7.476 42.136 L7.095 42.327 L6.673 42.517 L6.252 42.707 L5.796 42.86 L5.334
					43.012 L4.839 43.164 L4.302 43.28 z"/>
			<path style="fill:url(#AIgd10)"
				d="M2.193 42.896 L2.423 43.125 L2.77 43.277 L3.19 43.355 L3.65 43.355 L4.186 43.317
					L4.759 43.205 L5.372 43.012 L5.984 42.823 L6.597 42.553 L7.211 42.246 L7.823
					41.904 L8.36 41.519 L8.897 41.099 L9.355 40.64 L9.7 40.18 L10.007 39.682
					L9.664 39.723 L9.356 39.76 L8.973 39.798 L8.63 39.836 L8.286 39.875 L7.979
					39.911 L7.711 39.912 L7.442 39.911 L7.442 40.064 L7.1 40.37 L6.524 40.792 L5.757
					41.29 L4.84 41.786 L3.918 42.285 L2.999 42.666 z"/>
			<path style="fill:url(#AIgd10)"
				d="M1.084 41.822 L1.162 42.358 L1.354 42.702 L1.659 42.857 L2.079 42.933 L2.578 42.858
					L3.152 42.666 L3.725 42.437 L4.339 42.131 L4.952 41.785 L5.526 41.404 L6.101
					41.023 L6.562 40.676 L6.982 40.369 L7.289 40.14 L7.48 39.988 L7.518 39.912
					L4.532 40.253 L4.303 40.405 L3.917 40.597 L3.459 40.827 L2.959 41.056
					L2.424 41.325 L1.927 41.514 L1.466 41.706 L1.082 41.82 z"/>
			<defs>
				<linearGradient id="AIgd16" gradientUnits="userSpaceOnUse" x1="-3892.56"
					y1="-3497.04" x2="-3892.71" y2="-3490.08"
					gradientTransform="matrix(0.5318 0.0004 -0.0004 0.5318 2070.83 1900.09)">
					<stop offset="0" style="stop-color:rgb(247,238,95)"/>
					<stop offset="0.186" style="stop-color:rgb(245,214,93)"/>
					<stop offset="0.3825" style="stop-color:rgb(244,195,91)"/>
					<stop offset="0.5198" style="stop-color:rgb(244,188,90)"/>
					<stop offset="0.7809" style="stop-color:rgb(245,218,93)"/>
					<stop offset="1" style="stop-color:rgb(247,238,95)"/>
				</linearGradient>
			</defs>
			<path style="fill:url(#AIgd16)"
				d="M4.533 40.253 L3.882 40.292 L3.308 40.331 L2.772 40.367 L2.274 40.404 L1.814 40.444
					L1.317 40.48 L0.819 40.557 L0.242 40.671 L0.359 41.4 L0.702 41.745 L1.239
					41.746 L1.928 41.556 L2.617 41.209 L3.346 40.827 L3.997 40.482 z"/>
			<path style="fill:url(#AIgd10)"
				d="M4.419 39.874 L3.766 39.986 L3.193 40.062 L2.696 40.176 L2.196 40.251 L1.738 40.365
					L1.279 40.48 L0.742 40.596 L0.167 40.75 L0.129 39.906 L0.474 39.37 L1.011
					39.178 L1.738 39.144 L2.504 39.295 L3.27 39.488 L3.921 39.718 L4.42 39.872
					z"/>
			<defs>
				<linearGradient id="AIgd18" gradientUnits="userSpaceOnUse" x1="-3716.79"
					y1="-3522.17" x2="-3726.81" y2="-3555.19"
					gradientTransform="matrix(0.5318 0.0004 -0.0004 0.5318 2070.83 1900.09)">
					<stop offset="0" style="stop-color:rgb(79,12,129)"/>
					<stop offset="0.0701" style="stop-color:rgb(105,12,115)"/>
					<stop offset="0.209" style="stop-color:rgb(154,10,91)"/>
					<stop offset="0.3368" style="stop-color:rgb(194,7,72)"/>
					<stop offset="0.4512" style="stop-color:rgb(224,5,58)"/>
					<stop offset="0.5481" style="stop-color:rgb(242,0,50)"/>
					<stop offset="0.6158" style="stop-color:rgb(250,0,47)"/>
					<stop offset="1" style="stop-color:rgb(247,238,95)"/>
				</linearGradient>
			</defs>
			<path style="fill:url(#AIgd18)"
				d="M44.258 24.317 L45.942 23.666 L47.553 23.247 L49.044 23.134 L50.461 23.21 L51.84
					23.519 L53.102 23.978 L54.329 24.63 L55.516 25.359 L56.665 26.204 L57.775 27.123
					L58.881 28.082 L59.955 29.078 L61.026 30.035 L62.096 30.956 L63.169 31.838
					L64.278 32.645 L63.894 32.718 L63.473 32.756 L63.052 32.795 L62.669 32.871
					L62.246 32.91 L61.825 32.948 L61.366 32.984 L60.945 33.023 L60.523 33.058
					L60.062 33.099 L59.604 33.175 L59.182 33.212 L58.721 33.252 L58.264 33.326
					L57.766 33.363 L57.305 33.44 L56.923 32.906 L56.428 32.253 L55.852 31.487
					L55.164 30.719 L54.437 29.876 L53.632 29.033 L52.753 28.189 L51.872 27.383
					L50.913 26.617 L49.96 25.929 L49.003 25.314 L48.006 24.817 L47.049 24.432
					L46.091 24.202 L45.135 24.163 L44.255 24.315 z"/>
			<defs>
				<linearGradient id="AIgd19" gradientUnits="userSpaceOnUse" x1="-3818.31"
					y1="-3506.16" x2="-3836.26" y2="-3532.43"
					gradientTransform="matrix(0.5318 0.0004 -0.0004 0.5318 2070.83 1900.09)">
					<stop offset="0" style="stop-color:rgb(79,12,129)"/>
					<stop offset="0.0701" style="stop-color:rgb(105,12,115)"/>
					<stop offset="0.209" style="stop-color:rgb(154,10,91)"/>
					<stop offset="0.3368" style="stop-color:rgb(194,7,72)"/>
					<stop offset="0.4512" style="stop-color:rgb(224,5,58)"/>
					<stop offset="0.5481" style="stop-color:rgb(242,0,50)"/>
					<stop offset="0.6158" style="stop-color:rgb(250,0,47)"/>
					<stop offset="1" style="stop-color:rgb(247,238,95)"/>
				</linearGradient>
			</defs>
			<path style="fill:url(#AIgd19)"
				d="M41.383 24.964 L42.343 24.619 L43.263 24.392 L44.141 24.24 L45.064 24.163 L45.942
					24.24 L46.861 24.432 L47.741 24.7 L48.66 25.123 L49.616 25.66 L50.575 26.351
					L51.57 27.154 L52.603 28.114 L53.711 29.224 L54.821 30.49 L56.007 31.908
					L57.271 33.478 L56.581 33.517 L55.97 33.589 L55.394 33.628 L54.86 33.704 L54.323
					33.78 L53.75 33.856 L53.097 33.969 L52.332 34.086 L51.643 33.512 L50.993
					32.899 L50.304 32.246 L49.692 31.593 L49.043 30.944 L48.394 30.294 L47.781
					29.641 L47.13 28.99 L46.479 28.378 L45.791 27.804 L45.14 27.228 L44.452
					26.654 L43.725 26.156 L42.958 25.733 L42.192 25.312 L41.387 24.965 z"/>
			<path style="fill:url(#AIgd18)"
				d="M38.167 25.805 L38.894 25.194 L39.702 24.887 L40.582 24.813 L41.461 25.004 L42.419
					25.387 L43.375 25.925 L44.37 26.613 L45.366 27.418 L46.362 28.299 L47.355
					29.22 L48.311 30.141 L49.231 31.099 L50.072 31.979 L50.912 32.784 L51.641
					33.475 L52.331 34.049 L48.155 34.545 L47.619 33.932 L47.083 33.317 L46.585
					32.704 L46.052 32.093 L45.515 31.48 L44.981 30.829 L44.408 30.215 L43.873 29.639
					L43.26 29.065 L42.648 28.492 L41.996 27.954 L41.308 27.456 L40.58 26.959
					L39.814 26.536 L39.01 26.153 L38.167 25.807 z"/>
			<path style="fill:url(#AIgd19)"
				d="M31.886 28.481 L33.034 27.37 L34.145 26.568 L35.218 26.034 L36.29 25.727 L37.362
					25.69 L38.396 25.844 L39.429 26.229 L40.425 26.727 L41.419 27.416 L42.374 28.22
					L43.37 29.141 L44.289 30.137 L45.246 31.172 L46.163 32.283 L47.081 33.394
					L48 34.504 L47.271 34.544 L46.66 34.579 L46.162 34.618 L45.701 34.694 L45.243
					34.77 L44.744 34.845 L44.173 34.923 L43.481 35.035 L42.678 34.001 L41.912
					33.082 L41.109 32.238 L40.343 31.51 L39.541 30.898 L38.775 30.36 L38.047
					29.899 L37.279 29.517 L36.551 29.208 L35.863 28.979 L35.135 28.787 L34.446
					28.635 L33.798 28.555 L33.145 28.481 L32.496 28.481 L31.884 28.479 z"/>
			<path style="fill:url(#AIgd18)"
				d="M27.402 29.512 L28.669 29.051 L29.856 28.707 L31.043 28.518 L32.152 28.441 L33.263
					28.442 L34.334 28.597 L35.369 28.828 L36.365 29.175 L37.36 29.594 L38.279
					30.131 L39.236 30.744 L40.114 31.433 L40.996 32.201 L41.836 33.043 L42.642
					33.965 L43.445 34.961 L42.642 35.076 L41.723 35.187 L40.802 35.302 L39.881
					35.417 L39.039 35.53 L38.39 35.61 L37.891 35.647 L37.7 35.645 L37.625 35.57
					L37.433 35.417 L37.164 35.149 L36.821 34.803 L36.398 34.383 L35.903 33.959
					L35.328 33.463 L34.678 32.925 L33.95 32.426 L33.185 31.89 L32.341 31.39 L31.423
					30.895 L30.503 30.471 L29.51 30.088 L28.476 29.74 L27.403 29.511 z"/>
			<path style="fill:url(#AIgd19)"
				d="M21.735 30.196 L22.769 29.778 L23.804 29.471 L24.912 29.356 L25.985 29.357 L27.096
					29.475 L28.204 29.704 L29.276 30.05 L30.387 30.472 L31.42 30.97 L32.453 31.507
					L33.448 32.158 L34.442 32.809 L35.324 33.502 L36.205 34.229 L37.007 34.957
					L37.733 35.686 L37.238 35.723 L36.626 35.799 L35.937 35.874 L35.209 35.951
					L34.48 36.026 L33.828 36.102 L33.255 36.139 L32.833 36.139 L32.832 36.062
					L32.641 35.871 L32.261 35.603 L31.687 35.218 L30.998 34.798 L30.193 34.298
					L29.274 33.761 L28.318 33.228 L27.363 32.688 L26.367 32.15 L25.369 31.654
					L24.453 31.197 L23.607 30.81 L22.845 30.503 L22.229 30.31 L21.734 30.195 z"/>
			<path style="fill:url(#AIgd18)"
				d="M16.373 31.303 L16.91 30.461 L17.715 29.963 L18.711 29.775 L19.858 29.775 L21.122
					30.043 L22.501 30.465 L23.956 31.041 L25.371 31.692 L26.826 32.421 L28.165
					33.187 L29.43 33.917 L30.579 34.644 L31.533 35.259 L32.262 35.718 L32.758
					36.06 L32.988 36.177 L32.451 36.293 L31.841 36.37 L31.188 36.443 L30.499 36.481
					L29.772 36.559 L29.043 36.633 L28.355 36.748 L27.666 36.863 L26.937 36.517
					L26.249 36.169 L25.52 35.788 L24.832 35.403 L24.142 35.057 L23.454 34.674
					L22.726 34.29 L22.038 33.908 L21.349 33.558 L20.661 33.176 L19.932 32.833
					L19.244 32.526 L18.555 32.178 L17.828 31.873 L17.101 31.562 L16.372 31.296
					z"/>
			<path style="fill:url(#AIgd10)"
				d="M9.518 33.135 L10.362 32.524 L11.318 32.178 L12.314 32.029 L13.384 32.03 L14.497
					32.219 L15.645 32.567 L16.755 32.988 L17.863 33.488 L18.898 34.062 L19.93 34.637
					L20.849 35.251 L21.653 35.787 L22.38 36.286 L22.954 36.746 L23.374 37.052
					L23.603 37.245 L22.991 37.319 L22.417 37.396 L21.922 37.472 L21.421 37.509
					L20.885 37.546 L20.389 37.622 L19.813 37.7 L19.203 37.774 L18.666 37.432
					L18.13 37.084 L17.556 36.664 L16.982 36.281 L16.37 35.86 L15.757 35.439
					L15.145 35.016 L14.533 34.633 L13.919 34.249 L13.272 33.941 L12.62 33.636 L12.007
					33.404 L11.359 33.215 L10.744 33.098 L10.13 33.098 z"/>
			<path style="fill:url(#AIgd11)"
				d="M12.044 32.029 L12.697 31.606 L13.385 31.301 L14.037 31.147 L14.725 31.073 L15.414
					31.11 L16.142 31.262 L16.949 31.532 L17.787 31.84 L18.708 32.263 L19.667
					32.722 L20.737 33.298 L21.884 33.912 L23.149 34.562 L24.527 35.254 L26.017
					36.019 L27.665 36.787 L27.052 36.827 L26.363 36.9 L25.675 36.978 L24.984 37.09
					L24.371 37.168 L23.914 37.246 L23.568 37.281 L23.415 37.246 L23.34 37.167
					L23.07 36.977 L22.725 36.668 L22.266 36.324 L21.693 35.902 L21.004 35.443
					L20.275 34.943 L19.472 34.444 L18.593 33.946 L17.711 33.449 L16.756 33.024
					L15.799 32.64 L14.84 32.336 L13.883 32.14 L12.963 32.029 L12.044 32.028 z"/>
			<path style="fill:url(#AIgd11)"
				d="M6.451 35.086 L7.142 34.32 L7.868 33.746 L8.597 33.364 L9.363 33.135 L10.13 33.098
					L10.934 33.174 L11.778 33.366 L12.582 33.637 L13.422 34.059 L14.227 34.479
					L15.069 35.015 L15.912 35.554 L16.755 36.09 L17.558 36.664 L18.363 37.242
					L19.166 37.738 L18.707 37.814 L18.209 37.852 L17.635 37.968 L17.022 38.04
					L16.373 38.119 L15.683 38.192 L15.033 38.27 L14.38 38.345 L14.151 37.848 L13.882
					37.426 L13.577 37.004 L13.193 36.621 L12.81 36.277 L12.391 36.007 L11.891
					35.736 L11.394 35.507 L10.858 35.316 L10.286 35.162 L9.706 35.05 L9.094
					34.971 L8.444 34.934 L7.792 34.935 L7.142 35.008 L6.453 35.086 z"/>
			<path style="fill:url(#AIgd11)"
				d="M1.738 37.609 L1.931 37.303 L2.237 37.035 L2.659 36.807 L3.118 36.653 L3.654 36.539
					L4.266 36.503 L4.879 36.504 L5.568 36.541 L6.218 36.655 L6.907 36.81 L7.559
					37.039 L8.169 37.308 L8.745 37.616 L9.279 37.999 L9.701 38.421 L10.082
					38.882 L9.739 38.958 L9.32 39.034 L8.9 39.11 L8.477 39.184 L8.095 39.221 L7.787
					39.262 L7.56 39.262 L7.482 39.262 L7.329 39.184 L6.948 38.954 L6.296 38.647
					L5.53 38.304 L4.649 37.995 L3.654 37.726 L2.697 37.572 L1.738 37.608 z"/>
			<path style="fill:url(#AIgd10)"
				d="M0.818 39.178 L0.782 38.569 L0.934 38.108 L1.205 37.801 L1.625 37.61 L2.122 37.532
					L2.697 37.573 L3.31 37.649 L3.998 37.803 L4.648 38.032 L5.298 38.263 L5.911
					38.493 L6.446 38.723 L6.906 38.953 L7.289 39.107 L7.48 39.259 L7.558 39.295
					L4.493 39.828 L4.223 39.716 L3.803 39.599 L3.344 39.446 L2.81 39.294 L2.274
					39.179 L1.739 39.105 L1.24 39.104 z"/>
			<path style="fill:url(#AIgd10)"
				d="M3.349 36.616 L3.961 36.118 L4.612 35.735 L5.341 35.393 L6.146 35.162 L6.952 35.009
					L7.755 34.899 L8.599 34.9 L9.44 34.972 L10.244 35.128 L11.048 35.398 L11.777
					35.705 L12.466 36.088 L13.115 36.549 L13.651 37.084 L14.072 37.697 L14.416
					38.386 L13.917 38.425 L13.46 38.502 L12.96 38.538 L12.424 38.614 L11.889
					38.692 L11.315 38.729 L10.7 38.844 L10.05 38.916 L9.819 38.575 L9.551 38.267
					L9.244 38 L8.901 37.73 L8.519 37.5 L8.098 37.27 L7.675 37.078 L7.216 36.927
					L6.757 36.773 L6.26 36.657 L5.8 36.581 L5.301 36.541 L4.804 36.504 L4.308
					36.503 L3.809 36.541 z"/>
			<defs>
				<linearGradient id="AIgd31" gradientUnits="userSpaceOnUse" x1="-3644.51"
					y1="-3531.55" x2="-3636.63" y2="-3508.35"
					gradientTransform="matrix(0.5318 0.0004 -0.0004 0.5318 2070.83 1900.09)">
					<stop offset="0" style="stop-color:rgb(104,16,131)"/>
					<stop offset="0.0006" style="stop-color:rgb(104,16,131)"/>
					<stop offset="0.072" style="stop-color:rgb(141,15,109)"/>
					<stop offset="0.1459" style="stop-color:rgb(173,13,90)"/>
					<stop offset="0.2229" style="stop-color:rgb(200,10,74)"/>
					<stop offset="0.3041" style="stop-color:rgb(222,8,62)"/>
					<stop offset="0.3913" style="stop-color:rgb(237,3,53)"/>
					<stop offset="0.4884" style="stop-color:rgb(246,0,48)"/>
					<stop offset="0.6158" style="stop-color:rgb(250,0,47)"/>
					<stop offset="1" style="stop-color:rgb(247,238,95)"/>
				</linearGradient>
			</defs>
			<path style="fill:url(#AIgd31)"
				d="M139.689 18.299 L139.766 18.416 L139.958 18.723 L140.225 19.22 L140.569 19.833 L140.955
					20.56 L141.337 21.366 L141.683 22.286 L141.986 23.204 L142.214 24.163
					L142.293 25.083 L142.251 26 L142.059 26.842 L141.637 27.61 L140.986 28.297
					L140.067 28.832 L138.878 29.216 L139.071 28.638 L139.188 28.027 L139.301
					27.416 L139.377 26.727 L139.416 26.038 L139.416 25.31 L139.379 24.62 L139.342
					23.891 L139.266 23.162 L139.192 22.437 L139.076 21.747 L138.924 21.096 L138.811
					20.445 L138.657 19.87 L138.469 19.296 L138.314 18.798 L138.505 18.723
					L138.659 18.683 L138.849 18.607 L139.005 18.571 L139.158 18.494 L139.308
					18.455 L139.499 18.377 L139.689 18.301 z"/>
			<path style="fill:url(#AIgd31)"
				d="M138.389 18.835 L138.923 20.943 L139.305 22.857 L139.494 24.503 L139.531 25.958 L139.454
					27.222 L139.224 28.294 L138.917 29.214 L138.57 29.978 L138.11 30.591
					L137.613 31.087 L137.115 31.434 L136.62 31.701 L136.08 31.892 L135.621 31.968
					L135.201 32.005 L134.817 32.005 L135.046 31.392 L135.275 30.78 L135.467
					30.092 L135.621 29.403 L135.773 28.636 L135.891 27.872 L136.007 27.105 L136.082
					26.302 L136.123 25.496 L136.124 24.653 L136.083 23.849 L136.01 23.006
					L135.896 22.202 L135.741 21.359 L135.553 20.593 L135.324 19.788 L135.781
					19.634 L136.244 19.482 L136.666 19.33 L137.084 19.215 L137.432 19.102 L137.813
					18.987 L138.119 18.911 L138.389 18.834 z"/>
			<path style="fill:url(#AIgd31)"
				d="M135.285 19.792 L135.516 20.557 L135.743 21.516 L135.898 22.589 L135.97 23.775 L136.011
					25.078 L136.009 26.379 L135.893 27.68 L135.701 28.947 L135.43 30.134
					L135.085 31.243 L134.586 32.2 L134.014 32.966 L133.283 33.54 L132.443 33.844
					L131.483 33.884 L130.375 33.577 L130.797 32.886 L131.218 32.159 L131.565
					31.393 L131.872 30.666 L132.101 29.863 L132.332 29.095 L132.484 28.29 L132.638
					27.485 L132.715 26.681 L132.753 25.84 L132.753 25.035 L132.68 24.193 L132.604
					23.351 L132.452 22.545 L132.3 21.7 L132.071 20.897 L132.454 20.745
					L132.912 20.593 L133.373 20.44 L133.833 20.287 L134.293 20.136 L134.675 19.983
					L135.021 19.866 L135.288 19.792 z"/>
			<path style="fill:url(#AIgd31)"
				d="M125.546 35.674 L126.582 35.754 L127.579 35.6 L128.458 35.219 L129.263 34.684 L130.029
					33.954 L130.681 33.075 L131.217 32.081 L131.716 30.972 L132.1 29.784
					L132.409 28.518 L132.601 27.218 L132.679 25.916 L132.68 24.615 L132.566 23.312
					L132.337 22.047 L131.994 20.859 L131.572 21.011 L131.147 21.165 L130.691
					21.279 L130.228 21.431 L129.77 21.585 L129.273 21.738 L128.813 21.89 L128.316
					22.042 L128.316 22.846 L128.315 23.725 L128.275 24.724 L128.236 25.757
					L128.197 26.79 L128.159 27.862 L128.043 28.972 L127.93 30.004 L127.774 31.039
					L127.62 32 L127.387 32.919 L127.119 33.725 L126.811 34.412 L126.427 34.989
					L126.006 35.408 L125.545 35.675 z"/>
			<defs>
				<linearGradient id="AIgd35" gradientUnits="userSpaceOnUse" x1="-3738.23"
					y1="-3453.36" x2="-3733.07" y2="-3424.07"
					gradientTransform="matrix(0.5318 0.0004 -0.0004 0.5318 2110.53 1859.37)">
					<stop offset="0" style="stop-color:rgb(104,16,131)"/>
					<stop offset="0.0752" style="stop-color:rgb(111,17,130)"/>
					<stop offset="0.1935" style="stop-color:rgb(131,19,128)"/>
					<stop offset="0.3399" style="stop-color:rgb(163,21,123)"/>
					<stop offset="0.5088" style="stop-color:rgb(209,25,117)"/>
					<stop offset="0.6158" style="stop-color:rgb(242,27,113)"/>
					<stop offset="1" style="stop-color:rgb(247,238,95)"/>
				</linearGradient>
			</defs>
			<path style="fill:url(#AIgd35)"
				d="M128.277 22.083 L127.893 22.236 L127.51 22.35 L127.167 22.465 L126.781 22.542 L126.399
					22.656 L126.052 22.769 L125.668 22.885 L125.288 23.038 L125.211 23.804
					L125.17 24.644 L125.131 25.564 L125.093 26.522 L125.092 27.48 L125.091 28.511
					L125.051 29.548 L125.012 30.542 L124.936 31.539 L124.821 32.533 L124.628
					33.452 L124.437 34.296 L124.132 35.098 L123.786 35.825 L123.364 36.441 L122.828
					36.937 L123.936 36.669 L124.855 36.286 L125.622 35.753 L126.273 35.139
					L126.81 34.41 L127.233 33.571 L127.539 32.652 L127.771 31.693 L127.927
					30.621 L128.039 29.511 L128.078 28.361 L128.12 27.136 L128.157 25.911 L128.196
					24.647 L128.197 23.383 L128.275 22.08 z"/>
			<defs>
				<linearGradient id="AIgd36" gradientUnits="userSpaceOnUse" x1="-3716.31"
					y1="-3509.66" x2="-3713.68" y2="-3491.72"
					gradientTransform="matrix(0.5318 0.0004 -0.0004 0.5318 2070.83 1900.09)">
					<stop offset="0" style="stop-color:rgb(104,16,131)"/>
					<stop offset="0.0006" style="stop-color:rgb(104,16,131)"/>
					<stop offset="0.072" style="stop-color:rgb(141,15,109)"/>
					<stop offset="0.1459" style="stop-color:rgb(173,13,90)"/>
					<stop offset="0.2229" style="stop-color:rgb(200,10,74)"/>
					<stop offset="0.3041" style="stop-color:rgb(222,8,62)"/>
					<stop offset="0.3913" style="stop-color:rgb(237,3,53)"/>
					<stop offset="0.4884" style="stop-color:rgb(246,0,48)"/>
					<stop offset="0.6158" style="stop-color:rgb(250,0,47)"/>
					<stop offset="1" style="stop-color:rgb(247,238,95)"/>
				</linearGradient>
			</defs>
			<path style="fill:url(#AIgd36)"
				d="M118.116 38.426 L119.647 38.352 L120.951 38.047 L122.021 37.55 L122.903 36.899 L123.592
					36.057 L124.094 35.099 L124.513 34.028 L124.783 32.84 L124.937 31.614
					L125.051 30.353 L125.092 29.048 L125.093 27.786 L125.094 26.481 L125.095
					25.258 L125.171 24.108 L125.249 23.037 L124.828 23.151 L124.445 23.264 L124.102
					23.381 L123.715 23.494 L123.333 23.607 L122.99 23.722 L122.606 23.799
					L122.183 23.913 L122.222 24.026 L122.297 24.295 L122.375 24.718 L122.489 25.255
					L122.563 25.943 L122.641 26.711 L122.68 27.592 L122.64 28.588 L122.526
					29.623 L122.331 30.768 L121.984 31.957 L121.564 33.182 L120.95 34.447 L120.184
					35.786 L119.263 37.086 L118.113 38.425 z"/>
			<path style="fill:url(#AIgd36)"
				d="M112.905 40.07 L113.94 40.261 L114.975 40.188 L115.97 39.842 L116.966 39.305 L117.922
					38.58 L118.842 37.699 L119.686 36.629 L120.455 35.441 L121.104 34.176
					L121.68 32.798 L122.142 31.342 L122.451 29.853 L122.643 28.357 L122.684 26.826
					L122.532 25.372 L122.224 23.916 L118.586 25.062 L118.623 25.675 L118.66
					26.404 L118.622 27.205 L118.542 28.125 L118.43 29.083 L118.238 30.117 L118.046
					31.189 L117.738 32.298 L117.391 33.407 L116.97 34.48 L116.509 35.551 L115.934
					36.586 L115.322 37.581 L114.593 38.5 L113.788 39.341 L112.905 40.068 z"/>
			<defs>
				<linearGradient id="AIgd38" gradientUnits="userSpaceOnUse" x1="-3716.5"
					y1="-3512.96" x2="-3712.37" y2="-3473.33"
					gradientTransform="matrix(0.5318 0.0004 -0.0004 0.5318 2070.83 1900.09)">
					<stop offset="0" style="stop-color:rgb(104,16,131)"/>
					<stop offset="0.0006" style="stop-color:rgb(104,16,131)"/>
					<stop offset="0.072" style="stop-color:rgb(141,15,109)"/>
					<stop offset="0.1459" style="stop-color:rgb(173,13,90)"/>
					<stop offset="0.2229" style="stop-color:rgb(200,10,74)"/>
					<stop offset="0.3041" style="stop-color:rgb(222,8,62)"/>
					<stop offset="0.3913" style="stop-color:rgb(237,3,53)"/>
					<stop offset="0.4884" style="stop-color:rgb(246,0,48)"/>
					<stop offset="0.6158" style="stop-color:rgb(250,0,47)"/>
					<stop offset="1" style="stop-color:rgb(247,238,95)"/>
				</linearGradient>
			</defs>
			<path style="fill:url(#AIgd38)"
				d="M118.662 24.987 L118.089 25.176 L117.36 25.367 L116.553 25.635 L115.713 25.864 L114.907
					26.134 L114.103 26.361 L113.414 26.552 L112.877 26.667 L112.801 27.548
					L112.759 28.503 L112.684 29.462 L112.646 30.457 L112.529 31.452 L112.452
					32.489 L112.337 33.483 L112.184 34.479 L111.994 35.435 L111.762 36.356 L111.453
					37.272 L111.109 38.114 L110.687 38.921 L110.189 39.609 L109.653 40.259
					L109.003 40.835 L109.769 40.949 L110.572 40.911 L111.376 40.721 L112.181
					40.378 L112.985 39.878 L113.792 39.266 L114.56 38.503 L115.326 37.545 L116.015
					36.511 L116.626 35.284 L117.204 33.945 L117.699 32.417 L118.087 30.767
					L118.394 29.009 L118.588 27.054 L118.665 24.988 z"/>
			<path style="fill:url(#AIgd36)"
				d="M103.98 41.593 L105.705 41.674 L107.16 41.52 L108.425 41.102 L109.423 40.449 L110.264
					39.647 L110.955 38.689 L111.452 37.617 L111.838 36.393 L112.146 35.168
					L112.336 33.825 L112.452 32.525 L112.569 31.223 L112.607 29.92 L112.685 28.732
					L112.76 27.622 L112.877 26.627 L112.342 26.741 L111.879 26.856 L111.46
					27.009 L111.042 27.121 L110.579 27.238 L110.157 27.349 L109.661 27.503 L109.085
					27.654 L108.969 28.692 L108.857 29.684 L108.741 30.68 L108.585 31.635
					L108.469 32.596 L108.316 33.514 L108.127 34.393 L107.933 35.274 L107.664 36.118
					L107.356 36.959 L106.974 37.764 L106.552 38.57 L106.016 39.371 L105.44
					40.138 L104.751 40.866 L103.981 41.592 z"/>
			<path style="fill:url(#AIgd38)"
				d="M99.349 42.433 L100.881 42.511 L102.221 42.319 L103.409 41.901 L104.445 41.251 L105.325
					40.446 L106.091 39.489 L106.706 38.382 L107.243 37.194 L107.701 35.967
					L108.048 34.667 L108.317 33.401 L108.511 32.102 L108.701 30.876 L108.817
					29.726 L108.933 28.653 L109.012 27.734 L108.473 27.851 L108.014 27.963 L107.594
					28.078 L107.171 28.155 L106.791 28.268 L106.366 28.342 L105.871 28.494
					L105.295 28.609 L105.103 30.105 L104.874 31.522 L104.604 32.823 L104.335
					34.049 L104.025 35.158 L103.68 36.229 L103.297 37.148 L102.913 38.031 L102.53
					38.834 L102.105 39.561 L101.646 40.174 L101.224 40.747 L100.765 41.283 L100.304
					41.703 L99.806 42.086 L99.347 42.431 z"/>
			<defs>
				<linearGradient id="AIgd41" gradientUnits="userSpaceOnUse" x1="-3711.18"
					y1="-3514.04" x2="-3709.74" y2="-3493.47"
					gradientTransform="matrix(0.5318 0.0004 -0.0004 0.5318 2070.83 1900.09)">
					<stop offset="0" style="stop-color:rgb(104,16,131)"/>
					<stop offset="0.0006" style="stop-color:rgb(104,16,131)"/>
					<stop offset="0.072" style="stop-color:rgb(141,15,109)"/>
					<stop offset="0.1459" style="stop-color:rgb(173,13,90)"/>
					<stop offset="0.2229" style="stop-color:rgb(200,10,74)"/>
					<stop offset="0.3041" style="stop-color:rgb(222,8,62)"/>
					<stop offset="0.3913" style="stop-color:rgb(237,3,53)"/>
					<stop offset="0.4884" style="stop-color:rgb(246,0,48)"/>
					<stop offset="0.6158" style="stop-color:rgb(250,0,47)"/>
					<stop offset="1" style="stop-color:rgb(247,238,95)"/>
				</linearGradient>
			</defs>
			<path style="fill:url(#AIgd41)"
				d="M94.98 43.004 L96.437 43.082 L97.739 42.893 L98.89 42.469 L99.961 41.858 L100.842
					41.056 L101.647 40.137 L102.337 39.065 L102.951 37.919 L103.486 36.73 L103.908
					35.467 L104.255 34.203 L104.563 32.941 L104.834 31.753 L105.026 30.604
					L105.178 29.573 L105.333 28.651 L104.874 28.727 L104.414 28.843 L103.952 28.957
					L103.493 29.072 L103.031 29.187 L102.573 29.299 L102.113 29.413 L101.616
					29.53 L101.578 30.255 L101.462 31.06 L101.309 31.903 L101.04 32.821 L100.77
					33.816 L100.388 34.773 L100.003 35.806 L99.581 36.804 L99.082 37.8 L98.545
					38.757 L98.011 39.636 L97.434 40.476 L96.86 41.282 L96.246 41.972 L95.597
					42.544 L94.98 43.003 z"/>
			<defs>
				<linearGradient id="AIgd42" gradientUnits="userSpaceOnUse" x1="-3718.5"
					y1="-3510.1" x2="-3716.74" y2="-3482.96"
					gradientTransform="matrix(0.5318 0.0004 -0.0004 0.5318 2070.83 1900.09)">
					<stop offset="0" style="stop-color:rgb(104,16,131)"/>
					<stop offset="0.0006" style="stop-color:rgb(104,16,131)"/>
					<stop offset="0.072" style="stop-color:rgb(141,15,109)"/>
					<stop offset="0.1459" style="stop-color:rgb(173,13,90)"/>
					<stop offset="0.2229" style="stop-color:rgb(200,10,74)"/>
					<stop offset="0.3041" style="stop-color:rgb(222,8,62)"/>
					<stop offset="0.3913" style="stop-color:rgb(237,3,53)"/>
					<stop offset="0.4884" style="stop-color:rgb(246,0,48)"/>
					<stop offset="0.6158" style="stop-color:rgb(250,0,47)"/>
					<stop offset="1" style="stop-color:rgb(247,238,95)"/>
				</linearGradient>
			</defs>
			<path style="fill:url(#AIgd42)"
				d="M90.197 43.881 L91.687 44.074 L93.067 43.883 L94.331 43.387 L95.481 42.621 L96.554
					41.666 L97.475 40.518 L98.315 39.217 L99.085 37.876 L99.698 36.461 L100.235
					35.08 L100.695 33.778 L101.079 32.516 L101.309 31.442 L101.501 30.562 L101.615
					29.912 L101.616 29.531 L101.043 29.642 L100.506 29.757 L99.971 29.909
					L99.435 30.024 L98.899 30.176 L98.399 30.289 L97.902 30.404 L97.403 30.482
					L97.212 31.133 L97.022 31.898 L96.793 32.777 L96.522 33.773 L96.214 34.808
					L95.871 35.879 L95.487 36.948 L95.063 38.062 L94.602 39.132 L94.105 40.127
					L93.568 41.086 L92.994 41.928 L92.341 42.653 L91.691 43.227 L90.963 43.649
					L90.198 43.878 z"/>
			<path style="fill:url(#AIgd42)"
				d="M86.712 43.688 L88.089 43.995 L89.312 43.996 L90.425 43.729 L91.459 43.194 L92.341
					42.465 L93.146 41.584 L93.873 40.516 L94.525 39.366 L95.064 38.14 L95.562
					36.879 L95.946 35.614 L96.331 34.387 L96.638 33.24 L96.869 32.205 L97.099
					31.287 L97.288 30.56 L96.869 30.636 L96.446 30.674 L96.066 30.749 L95.719 30.825
					L95.335 30.901 L94.989 30.979 L94.684 31.053 L94.339 31.094 L94.221 31.973
					L94.032 32.892 L93.8 33.809 L93.572 34.692 L93.263 35.61 L92.916 36.491
					L92.534 37.335 L92.073 38.177 L91.613 39.019 L91.076 39.823 L90.461 40.588
					L89.851 41.276 L89.122 41.966 L88.395 42.577 L87.589 43.151 L86.71 43.686
					z"/>
			<path style="fill:url(#AIgd38)"
				d="M82.345 44.374 L83.492 44.376 L84.604 44.261 L85.674 43.993 L86.711 43.609 L87.667
					43.076 L88.626 42.426 L89.468 41.663 L90.309 40.821 L91.039 39.861 L91.729
					38.829 L92.343 37.679 L92.916 36.493 L93.377 35.229 L93.762 33.889 L94.109
					32.51 L94.339 31.096 L93.841 31.209 L93.342 31.285 L92.806 31.4 L92.31 31.474
					L91.813 31.552 L91.354 31.664 L90.854 31.741 L90.395 31.856 L90.164 32.661
					L89.973 33.503 L89.742 34.308 L89.548 35.111 L89.318 35.915 L89.09 36.719
					L88.783 37.485 L88.437 38.289 L88.017 39.056 L87.554 39.859 L86.978 40.625
					L86.29 41.391 L85.522 42.12 L84.604 42.885 L83.531 43.651 L82.343 44.377 z"/>
			<path style="fill:url(#AIgd38)"
				d="M76.14 45.095 L77.635 45.213 L79.089 45.137 L80.429 44.908 L81.695 44.526 L82.882
					44.029 L83.994 43.38 L85.027 42.612 L85.945 41.695 L86.789 40.74 L87.556 39.667
					L88.249 38.519 L88.822 37.297 L89.318 35.993 L89.743 34.653 L90.05 33.276
					L90.283 31.895 L89.86 31.971 L89.4 32.088 L88.944 32.162 L88.483 32.237
					L88.024 32.315 L87.524 32.429 L87.027 32.505 L86.527 32.62 L86.375 33.575
					L86.145 34.532 L85.835 35.492 L85.452 36.409 L84.995 37.327 L84.493 38.245
					L83.919 39.127 L83.271 39.97 L82.58 40.814 L81.813 41.576 L81.005 42.303 L80.126
					42.992 L79.205 43.603 L78.21 44.178 L77.213 44.675 L76.141 45.094 z"/>
			<path style="fill:url(#AIgd36)"
				d="M72.732 45.475 L73.996 45.4 L75.222 45.211 L76.45 44.905 L77.636 44.447 L78.748 43.911
					L79.857 43.263 L80.891 42.534 L81.849 41.692 L82.73 40.775 L83.573 39.782
					L84.303 38.706 L84.953 37.597 L85.489 36.413 L85.949 35.187 L86.297 33.92
					L86.526 32.621 L86.107 32.695 L85.722 32.732 L85.376 32.771 L85.033 32.81
					L84.687 32.847 L84.305 32.924 L83.849 33 L83.31 33.075 L82.773 34.187 L82.314
					35.218 L81.854 36.215 L81.432 37.134 L80.972 38.015 L80.548 38.82 L80.087
					39.584 L79.589 40.311 L79.052 41.04 L78.439 41.689 L77.751 42.379 L76.986
					42.99 L76.102 43.64 L75.106 44.251 L73.998 44.863 L72.733 45.473 z"/>
			<path style="fill:url(#AIgd38)"
				d="M66.604 45.855 L68.481 45.932 L70.244 45.859 L71.814 45.592 L73.269 45.17 L74.609
					44.598 L75.796 43.907 L76.909 43.106 L77.902 42.186 L78.823 41.193 L79.667
					40.121 L80.396 39.012 L81.084 37.823 L81.736 36.639 L82.313 35.452 L82.851
					34.225 L83.347 33.038 L83.004 33.074 L82.543 33.152 L81.97 33.228 L81.395
					33.304 L80.782 33.419 L80.245 33.495 L79.789 33.571 L79.442 33.606 L78.982
					34.68 L78.483 35.754 L77.906 36.748 L77.333 37.703 L76.681 38.584 L75.993 39.463
					L75.264 40.267 L74.46 41.074 L73.656 41.801 L72.771 42.489 L71.854 43.177
					L70.894 43.79 L69.899 44.362 L68.827 44.897 L67.755 45.393 L66.606 45.853
					z"/>
			<path style="fill:url(#AIgd36)"
				d="M62.966 46.387 L64 46.35 L65.071 46.198 L66.221 45.929 L67.407 45.51 L68.595 45.015
					L69.784 44.402 L70.972 43.676 L72.159 42.873 L73.308 41.955 L74.419 40.998
					L75.454 39.928 L76.453 38.778 L77.332 37.59 L78.136 36.328 L78.827 34.988
					L79.403 33.608 L78.828 33.687 L78.253 33.761 L77.642 33.798 L77.03 33.875
					L76.494 33.912 L76.033 33.989 L75.651 34.065 L75.459 34.18 L74.769 34.715
					L74.08 35.29 L73.351 35.978 L72.622 36.666 L71.895 37.432 L71.128 38.234 L70.361
					39.078 L69.593 39.923 L68.827 40.802 L68.023 41.644 L67.218 42.486 L66.373
					43.326 L65.531 44.169 L64.686 44.932 L63.848 45.7 L62.966 46.388 z"/>
			<path style="fill:url(#AIgd38)"
				d="M57.375 46.383 L58.372 47.037 L59.404 47.305 L60.438 47.306 L61.511 47.038 L62.582
					46.502 L63.655 45.773 L64.766 44.857 L65.876 43.824 L66.988 42.636 L68.136
					41.411 L69.325 40.11 L70.513 38.811 L71.701 37.547 L72.927 36.283 L74.155
					35.135 L75.381 34.104 L74.956 34.104 L74.462 34.178 L73.886 34.216 L73.313
					34.332 L72.7 34.411 L72.088 34.524 L71.516 34.639 L71.016 34.714 L70.06 35.594
					L69.103 36.474 L68.18 37.393 L67.261 38.312 L66.38 39.228 L65.497 40.149
					L64.617 41.069 L63.772 41.909 L62.928 42.749 L62.086 43.517 L61.281 44.205
					L60.477 44.818 L59.672 45.353 L58.905 45.812 L58.139 46.155 L57.372 46.384
					z"/>
			<path style="fill:url(#AIgd36)"
				d="M53.046 46.879 L54.618 46.88 L56.11 46.729 L57.452 46.344 L58.756 45.85 L59.943 45.236
					L61.052 44.471 L62.127 43.631 L63.122 42.711 L64.119 41.717 L65.075 40.684
					L65.996 39.649 L66.955 38.579 L67.914 37.509 L68.908 36.475 L69.943 35.518
					L71.015 34.6 L70.633 34.64 L70.175 34.677 L69.598 34.751 L69.026 34.792
					L68.449 34.865 L67.99 34.903 L67.608 34.944 L67.379 34.943 L66.728 35.094
					L66.076 35.4 L65.427 35.823 L64.735 36.396 L64.046 37.083 L63.317 37.888
					L62.551 38.732 L61.782 39.647 L60.902 40.605 L60.019 41.56 L59.022 42.556 L57.99
					43.515 L56.879 44.47 L55.691 45.35 L54.427 46.152 L53.046 46.881 z"/>
			<path style="fill:url(#AIgd18)"
				d="M138.274 15.35 L138.274 15.197 L138.314 14.777 L138.352 14.128 L138.392 13.321 L138.431
					12.364 L138.394 11.331 L138.356 10.259 L138.245 9.148 L138.016 8.115
					L137.707 7.119 L137.327 6.237 L136.755 5.509 L136.101 4.972 L135.258 4.665
					L134.224 4.626 L133.038 4.932 L133.423 5.316 L133.766 5.775 L134.111 6.349
					L134.417 6.962 L134.722 7.651 L134.992 8.34 L135.256 9.107 L135.527 9.911
					L135.755 10.678 L135.945 11.484 L136.139 12.287 L136.327 13.053 L136.482 13.821
					L136.634 14.548 L136.748 15.198 L136.861 15.811 L137.051 15.774 L137.205
					15.737 L137.394 15.659 L137.549 15.622 L137.7 15.543 L137.855 15.468 L138.047
					15.431 L138.273 15.353 z"/>
			<defs>
				<linearGradient id="AIgd52" gradientUnits="userSpaceOnUse" x1="-3690.92"
					y1="-3526.3" x2="-3702.74" y2="-3558.26"
					gradientTransform="matrix(0.5318 0.0004 -0.0004 0.5318 2070.83 1900.09)">
					<stop offset="0" style="stop-color:rgb(79,12,129)"/>
					<stop offset="0.0701" style="stop-color:rgb(105,12,115)"/>
					<stop offset="0.209" style="stop-color:rgb(154,10,91)"/>
					<stop offset="0.3368" style="stop-color:rgb(194,7,72)"/>
					<stop offset="0.4512" style="stop-color:rgb(224,5,58)"/>
					<stop offset="0.5481" style="stop-color:rgb(242,0,50)"/>
					<stop offset="0.6158" style="stop-color:rgb(250,0,47)"/>
					<stop offset="1" style="stop-color:rgb(247,238,95)"/>
				</linearGradient>
			</defs>
			<path style="fill:url(#AIgd52)"
				d="M136.86 15.925 L136.363 13.436 L135.828 11.328 L135.293 9.527 L134.761 8.035 L134.222
					6.847 L133.688 5.889 L133.155 5.2 L132.656 4.703 L132.12 4.356 L131.662
					4.203 L131.16 4.164 L130.74 4.242 L130.321 4.394 L129.939 4.585 L129.591
					4.814 L129.285 5.044 L129.821 5.541 L130.354 6.114 L130.816 6.652 L131.31 7.263
					L131.734 7.878 L132.156 8.526 L132.538 9.178 L132.882 9.869 L133.226 10.596
					L133.532 11.362 L133.839 12.13 L134.107 12.935 L134.334 13.777 L134.564
					14.619 L134.791 15.501 L134.985 16.42 L135.442 16.343 L135.787 16.307 L136.019
					16.23 L136.172 16.153 L136.323 16.116 L136.479 16.04 L136.632 16 L136.861
					15.925 z"/>
			<path style="fill:url(#AIgd18)"
				d="M134.944 16.651 L134.831 15.733 L134.637 14.698 L134.332 13.548 L133.953 12.322 L133.453
					11.058 L132.882 9.831 L132.271 8.644 L131.583 7.533 L130.854 6.537
					L130.089 5.694 L129.286 5.044 L128.444 4.619 L127.563 4.467 L126.681 4.619
					L125.839 5.118 L124.957 5.996 L125.645 6.494 L126.295 7.07 L126.908 7.644 L127.482
					8.22 L128.056 8.831 L128.552 9.52 L129.011 10.211 L129.431 10.899 L129.854
					11.668 L130.197 12.435 L130.542 13.24 L130.809 14.082 L131.076 14.961
					L131.269 15.881 L131.458 16.84 L131.613 17.834 L132.029 17.72 L132.49 17.568
					L132.989 17.415 L133.487 17.224 L133.948 17.035 L134.369 16.881 L134.713
					16.73 L134.943 16.653 z"/>
			<path style="fill:url(#AIgd52)"
				d="M120.017 6.607 L120.936 5.995 L121.856 5.651 L122.813 5.536 L123.732 5.651 L124.69
					5.958 L125.609 6.458 L126.491 7.147 L127.334 7.952 L128.096 8.871 L128.862
					9.944 L129.512 11.132 L130.084 12.358 L130.58 13.663 L130.964 15.039 L131.27
					16.419 L131.421 17.835 L130.961 17.95 L130.502 18.066 L130.042 18.216 L129.582
					18.37 L129.085 18.561 L128.586 18.674 L128.129 18.828 L127.631 18.903
					L127.285 18.023 L126.98 17.064 L126.597 16.107 L126.249 15.15 L125.87 14.154
					L125.451 13.156 L125.028 12.2 L124.607 11.282 L124.151 10.398 L123.652
					9.593 L123.119 8.827 L122.58 8.176 L121.971 7.601 L121.356 7.142 L120.708
					6.796 L120.018 6.606 z"/>
			<path style="fill:url(#AIgd18)"
				d="M115.804 7.75 L117.259 7.102 L118.561 6.758 L119.71 6.72 L120.744 6.913 L121.663
					7.334 L122.469 7.984 L123.193 8.791 L123.843 9.748 L124.418 10.82 L124.913
					12.008 L125.413 13.237 L125.87 14.462 L126.327 15.726 L126.748 16.99 L127.207
					18.178 L127.704 19.289 L127.283 19.326 L126.899 19.441 L126.516 19.554 L126.131
					19.706 L125.75 19.824 L125.366 19.975 L124.945 20.089 L124.523 20.163
					L124.485 20.012 L124.447 19.629 L124.333 19.131 L124.219 18.442 L124.03
					17.639 L123.76 16.719 L123.454 15.723 L123.034 14.689 L122.54 13.655 L121.966
					12.62 L121.238 11.585 L120.435 10.627 L119.475 9.709 L118.405 8.942 L117.177
					8.251 L115.802 7.751 z"/>
			<path style="fill:url(#AIgd52)"
				d="M110.366 8.552 L111.248 7.901 L112.245 7.481 L113.314 7.328 L114.386 7.368 L115.535
					7.597 L116.683 8.058 L117.791 8.673 L118.902 9.441 L119.972 10.397 L120.969
					11.472 L121.847 12.697 L122.652 14.039 L123.339 15.455 L123.876 16.988
					L124.218 18.558 L124.408 20.245 L120.463 21.274 L120.235 20.625 L119.928 19.855
					L119.622 19.052 L119.24 18.171 L118.779 17.251 L118.322 16.295 L117.785
					15.334 L117.212 14.378 L116.56 13.421 L115.835 12.501 L115.069 11.659 L114.266
					10.851 L113.388 10.123 L112.429 9.51 L111.433 8.973 L110.363 8.552 z"/>
			<path style="fill:url(#AIgd18)"
				d="M120.502 21.387 L119.93 21.502 L119.203 21.654 L118.474 21.884 L117.666 22.113 L116.902
					22.38 L116.173 22.571 L115.524 22.76 L114.988 22.912 L114.606 21.955
					L114.185 20.96 L113.763 19.964 L113.343 18.928 L112.922 17.896 L112.464 16.899
					L111.966 15.904 L111.469 14.907 L110.936 13.989 L110.363 13.144 L109.749
					12.34 L109.098 11.613 L108.448 10.961 L107.72 10.424 L106.916 10.001 L106.112
					9.695 L106.804 9.236 L107.568 8.892 L108.374 8.662 L109.254 8.587 L110.172
					8.663 L111.131 8.894 L112.088 9.277 L113.08 9.853 L114.079 10.581 L115.072
					11.501 L116.067 12.65 L117.021 13.954 L117.94 15.486 L118.857 17.209
					L119.7 19.201 L120.502 21.385 z"/>
			<path style="fill:url(#AIgd18)"
				d="M101.288 11.34 L102.859 10.499 L104.274 10.001 L105.578 9.887 L106.765 10.08 L107.797
					10.538 L108.793 11.229 L109.634 12.112 L110.439 13.185 L111.127 14.373
					L111.776 15.638 L112.349 16.979 L112.883 18.319 L113.419 19.621 L113.917 20.886
					L114.375 22.034 L114.831 23.069 L114.297 23.145 L113.838 23.257 L113.416
					23.336 L112.994 23.45 L112.573 23.564 L112.114 23.679 L111.616 23.755 L111.044
					23.867 L110.544 22.834 L110.086 21.798 L109.626 20.804 L109.168 19.846
					L108.709 18.888 L108.214 18.008 L107.714 17.127 L107.219 16.321 L106.644
					15.514 L106.034 14.787 L105.422 14.099 L104.734 13.447 L103.965 12.832 L103.164
					12.296 L102.244 11.798 L101.288 11.338 z"/>
			<path style="fill:url(#AIgd52)"
				d="M96.537 12.715 L97.956 11.95 L99.295 11.567 L100.56 11.492 L101.785 11.683 L102.896
					12.144 L103.965 12.833 L104.961 13.677 L105.882 14.675 L106.723 15.824 L107.525
					17.011 L108.251 18.238 L108.903 19.502 L109.514 20.768 L110.051 21.916
					L110.506 23.027 L110.929 23.984 L110.355 24.097 L109.855 24.212 L109.395
					24.325 L108.974 24.401 L108.516 24.516 L108.055 24.631 L107.519 24.707 L106.906
					24.822 L106.218 23.289 L105.53 21.872 L104.884 20.57 L104.233 19.382
					L103.619 18.311 L103.046 17.35 L102.436 16.51 L101.862 15.703 L101.25 15.052
					L100.637 14.477 L100.026 13.979 L99.376 13.558 L98.723 13.25 L98.038 12.981
					L97.307 12.826 L96.542 12.713 z"/>
			<path style="fill:url(#AIgd18)"
				d="M92.937 13.747 L94.315 13.097 L95.622 12.789 L96.844 12.79 L98.034 13.023 L99.104
					13.481 L100.137 14.135 L101.093 14.979 L102.013 15.936 L102.815 17.008 L103.581
					18.156 L104.307 19.344 L104.92 20.532 L105.529 21.721 L106.029 22.871
					L106.485 23.904 L106.906 24.863 L106.447 24.976 L106.027 25.089 L105.603 25.165
					L105.22 25.281 L104.799 25.358 L104.379 25.433 L103.917 25.546 L103.421
					25.623 L103.19 24.858 L102.848 24.013 L102.428 23.171 L101.931 22.252 L101.396
					21.333 L100.745 20.412 L100.096 19.492 L99.368 18.572 L98.603 17.731
					L97.798 16.885 L96.995 16.119 L96.191 15.467 L95.348 14.854 L94.543 14.356
					L93.741 13.973 L92.935 13.743 z"/>
			<path style="fill:url(#AIgd52)"
				d="M88.608 14.852 L90.025 14.09 L91.405 13.745 L92.784 13.784 L94.085 14.169 L95.349
					14.781 L96.575 15.66 L97.724 16.698 L98.793 17.845 L99.788 19.074 L100.669
					20.338 L101.469 21.565 L102.119 22.752 L102.655 23.788 L103.077 24.667 L103.307
					25.319 L103.42 25.702 L102.846 25.817 L102.348 25.93 L101.85 26.045 L101.35
					26.16 L100.854 26.275 L100.395 26.349 L99.896 26.426 L99.399 26.502
					L99.055 25.851 L98.671 25.047 L98.213 24.165 L97.676 23.244 L97.105 22.211
					L96.491 21.177 L95.845 20.18 L95.154 19.146 L94.427 18.187 L93.66 17.306 L92.858
					16.502 L92.055 15.85 L91.211 15.313 L90.367 14.968 L89.489 14.816 L88.607
					14.851 z"/>
			<path style="fill:url(#AIgd18)"
				d="M85.468 16.077 L86.734 15.235 L87.958 14.776 L89.107 14.663 L90.256 14.853 L91.327
					15.314 L92.36 16.006 L93.318 16.848 L94.233 17.883 L95.077 18.996 L95.882
					20.18 L96.609 21.409 L97.296 22.634 L97.87 23.784 L98.405 24.857 L98.826 25.775
					L99.209 26.541 L98.749 26.618 L98.367 26.732 L98.023 26.847 L97.715 26.96
					L97.368 27.074 L97.063 27.189 L96.755 27.267 L96.412 27.34 L96.068 26.385
					L95.647 25.427 L95.225 24.506 L94.765 23.588 L94.228 22.669 L93.697 21.825
					L93.084 20.981 L92.434 20.176 L91.745 19.409 L90.981 18.721 L90.216 18.107
					L89.372 17.533 L88.453 17.033 L87.534 16.612 L86.538 16.304 L85.467 16.075
					z"/>
			<path style="fill:url(#AIgd52)"
				d="M81.483 16.993 L82.596 16.571 L83.705 16.305 L84.853 16.228 L85.927 16.306 L87.036
					16.537 L88.068 16.882 L89.102 17.418 L90.136 18.07 L91.092 18.838 L92.01
					19.758 L92.891 20.754 L93.733 21.866 L94.535 23.092 L95.224 24.432 L95.912
					25.85 L96.483 27.341 L95.985 27.418 L95.49 27.494 L94.989 27.609 L94.492 27.762
					L93.996 27.877 L93.498 28.03 L93.001 28.145 L92.501 28.219 L92.158 27.377
					L91.815 26.495 L91.468 25.652 L91.126 24.769 L90.704 23.927 L90.285 23.122
					L89.784 22.28 L89.25 21.513 L88.601 20.784 L87.913 20.056 L87.108 19.404
					L86.228 18.791 L85.232 18.254 L84.122 17.756 L82.861 17.332 L81.48 16.988
					z"/>
			<path style="fill:url(#AIgd18)"
				d="M75.815 18.329 L77.27 17.72 L78.727 17.335 L80.067 17.146 L81.407 17.109 L82.672
					17.3 L83.898 17.646 L85.045 18.144 L86.156 18.796 L87.148 19.601 L88.142 20.52
					L89.026 21.556 L89.866 22.706 L90.63 23.97 L91.282 25.31 L91.893 26.691
					L92.428 28.182 L91.969 28.259 L91.509 28.335 L90.973 28.413 L90.472 28.487
					L89.939 28.565 L89.401 28.639 L88.866 28.715 L88.331 28.791 L88.062 27.719
					L87.679 26.725 L87.259 25.729 L86.726 24.77 L86.151 23.889 L85.5 23.046 L84.812
					22.241 L84.046 21.512 L83.204 20.823 L82.288 20.249 L81.329 19.71 L80.334
					19.251 L79.263 18.905 L78.151 18.598 L77.005 18.407 L75.817 18.329 z"/>
			<path style="fill:url(#AIgd52)"
				d="M73.021 18.632 L74.323 18.442 L75.585 18.329 L76.848 18.368 L78.076 18.522 L79.3
					18.829 L80.45 19.214 L81.559 19.712 L82.632 20.325 L83.627 21.054 L84.581 21.898
					L85.425 22.817 L86.228 23.851 L86.916 25 L87.527 26.226 L88.026 27.567
					L88.406 28.986 L87.946 29.021 L87.563 29.059 L87.181 29.136 L86.797 29.213
					L86.413 29.287 L86.031 29.365 L85.571 29.479 L85.075 29.555 L84.424 28.444
					L83.811 27.371 L83.279 26.413 L82.779 25.457 L82.244 24.613 L81.746 23.809
					L81.249 23.042 L80.677 22.352 L80.065 21.701 L79.377 21.126 L78.609 20.591
					L77.767 20.093 L76.772 19.668 L75.7 19.286 L74.436 18.94 z"/>
			<path style="fill:url(#AIgd18)"
				d="M66.933 19.432 L68.847 18.975 L70.647 18.707 L72.293 18.632 L73.824 18.786 L75.241
					19.093 L76.543 19.554 L77.73 20.127 L78.804 20.897 L79.834 21.739 L80.751
					22.699 L81.595 23.733 L82.397 24.845 L83.125 25.992 L83.813 27.219 L84.425
					28.445 L85.036 29.71 L84.729 29.747 L84.309 29.784 L83.85 29.899 L83.349 29.975
					L82.853 30.09 L82.391 30.204 L81.972 30.24 L81.626 30.279 L81.055 29.131
					L80.442 28.096 L79.753 27.1 L79.027 26.182 L78.261 25.299 L77.456 24.493
					L76.577 23.767 L75.658 23.077 L74.702 22.461 L73.706 21.888 L72.672 21.39
					L71.602 20.892 L70.491 20.469 L69.344 20.086 L68.155 19.74 L66.933 19.431
					z"/>
			<path style="fill:url(#AIgd18)"
				d="M63.295 19.811 L64.363 19.622 L65.476 19.585 L66.701 19.623 L67.964 19.815 L69.231
					20.086 L70.531 20.47 L71.834 20.967 L73.136 21.581 L74.436 22.31 L75.66 23.155
					L76.846 24.075 L77.993 25.11 L79.028 26.259 L79.984 27.484 L80.825 28.826
					L81.553 30.281 L81.016 30.32 L80.483 30.396 L79.945 30.511 L79.409 30.624
					L78.95 30.737 L78.565 30.854 L78.259 30.89 L78.069 30.853 L77.3 30.393
					L76.537 29.856 L75.733 29.243 L74.89 28.554 L74.047 27.825 L73.169 27.057 L72.249
					26.289 L71.333 25.487 L70.374 24.681 L69.418 23.874 L68.423 23.071 L67.427
					22.342 L66.394 21.613 L65.399 20.961 L64.328 20.348 L63.297 19.811 z"/>
			<path style="fill:url(#AIgd18)"
				d="M58.197 21.262 L59.155 20.307 L60.189 19.735 L61.263 19.505 L62.372 19.582 L63.52
					19.89 L64.745 20.465 L65.972 21.234 L67.272 22.113 L68.573 23.187 L69.914
					24.297 L71.254 25.487 L72.594 26.675 L73.971 27.863 L75.348 28.975 L76.724
					30.01 L78.105 30.93 L77.684 31.004 L77.185 31.041 L76.573 31.082 L75.96 31.119
					L75.312 31.156 L74.659 31.156 L74.085 31.156 L73.588 31.154 L72.554 30.388
					L71.561 29.584 L70.565 28.776 L69.647 27.934 L68.728 27.129 L67.845 26.322
					L66.967 25.517 L66.087 24.75 L65.168 24.062 L64.289 23.411 L63.369 22.836
					L62.413 22.336 L61.417 21.914 L60.383 21.569 L59.31 21.377 L58.2 21.26 z"/>
			<defs>
				<linearGradient id="AIgd69" gradientUnits="userSpaceOnUse" x1="-3772.38"
					y1="-3509.72" x2="-3797.29" y2="-3537.68"
					gradientTransform="matrix(0.5318 0.0004 -0.0004 0.5318 2070.83 1900.09)">
					<stop offset="0" style="stop-color:rgb(79,12,129)"/>
					<stop offset="0.0701" style="stop-color:rgb(105,12,115)"/>
					<stop offset="0.209" style="stop-color:rgb(154,10,91)"/>
					<stop offset="0.3368" style="stop-color:rgb(194,7,72)"/>
					<stop offset="0.4512" style="stop-color:rgb(224,5,58)"/>
					<stop offset="0.5481" style="stop-color:rgb(242,0,50)"/>
					<stop offset="0.6158" style="stop-color:rgb(250,0,47)"/>
					<stop offset="1" style="stop-color:rgb(247,238,95)"/>
				</linearGradient>
			</defs>
			<path style="fill:url(#AIgd69)"
				d="M54.368 21.719 L55.978 21.338 L57.471 21.186 L58.886 21.262 L60.229 21.533 L61.491
					21.994 L62.717 22.569 L63.903 23.298 L65.051 24.103 L66.161 25.022 L67.27
					25.944 L68.341 26.939 L69.452 27.935 L70.561 28.893 L71.668 29.852 L72.856
					30.695 L74.041 31.502 L73.661 31.539 L73.163 31.614 L72.587 31.692 L72.011
					31.728 L71.439 31.807 L70.939 31.879 L70.559 31.92 L70.328 31.957 L69.64 31.955
					L68.95 31.766 L68.223 31.418 L67.457 30.922 L66.691 30.308 L65.848 29.58
					L64.969 28.773 L64.05 27.929 L63.091 27.048 L62.06 26.13 L60.951 25.248
					L59.803 24.404 L58.541 23.596 L57.239 22.868 L55.86 22.217 L54.366 21.717
					z"/>
			<path style="fill:url(#AIgd69)"
				d="M49.543 23.057 L50.96 22.252 L52.455 21.91 L53.91 21.91 L55.4 22.219 L56.895 22.795
					L58.389 23.599 L59.843 24.559 L61.258 25.593 L62.597 26.742 L63.899 27.892
					L65.162 28.967 L66.31 29.96 L67.343 30.804 L68.299 31.454 L69.142 31.839
					L69.868 31.955 L69.258 32.032 L68.605 32.145 L67.878 32.258 L67.113 32.375
					L66.346 32.449 L65.579 32.564 L64.851 32.602 L64.2 32.642 L63.13 31.836 L62.172
					31.07 L61.293 30.303 L60.453 29.575 L59.686 28.845 L58.96 28.12 L58.193
					27.429 L57.467 26.778 L56.738 26.166 L55.934 25.59 L55.093 25.053 L54.174
					24.557 L53.178 24.096 L52.107 23.713 L50.881 23.365 L49.541 23.058 z"/>
			<defs>
				<linearGradient id="AIgd71" gradientUnits="userSpaceOnUse" x1="-3498.52"
					y1="4158.04" x2="-3482.36" y2="4209.6"
					gradientTransform="matrix(0.5318 0.0004 -0.0004 0.5318 -1982.9 3021.38)">
					<stop offset="0" style="stop-color:rgb(216,231,235)"/>
					<stop offset="0.0849" style="stop-color:rgb(201,217,222)"/>
					<stop offset="0.2184" style="stop-color:rgb(165,184,194)"/>
					<stop offset="0.3836" style="stop-color:rgb(114,136,150)"/>
					<stop offset="0.5537" style="stop-color:rgb(64,87,102)"/>
					<stop offset="0.6417" style="stop-color:rgb(102,125,139)"/>
					<stop offset="0.742" style="stop-color:rgb(146,167,177)"/>
					<stop offset="0.8374" style="stop-color:rgb(183,200,208)"/>
					<stop offset="0.9257" style="stop-color:rgb(207,223,228)"/>
					<stop offset="1" style="stop-color:rgb(216,231,235)"/>
				</linearGradient>
			</defs>
			<g style="fill:url(#AIgd71)">
				<defs>
					<linearGradient id="AIgd72" gradientUnits="userSpaceOnUse" x1="-3704.95"
						y1="-3493.91" x2="-3688.79" y2="-3442.35"
						gradientTransform="matrix(0.5318 0.0004 -0.0004 0.5318 2110.53 1859.37)">
						<stop offset="0" style="stop-color:rgb(216,231,235)"/>
						<stop offset="0.0849" style="stop-color:rgb(201,217,222)"/>
						<stop offset="0.2184" style="stop-color:rgb(165,184,194)"/>
						<stop offset="0.3836" style="stop-color:rgb(114,136,150)"/>
						<stop offset="0.5537" style="stop-color:rgb(64,87,102)"/>
						<stop offset="0.6417" style="stop-color:rgb(102,125,139)"/>
						<stop offset="0.742" style="stop-color:rgb(146,167,177)"/>
						<stop offset="0.8374" style="stop-color:rgb(183,200,208)"/>
						<stop offset="0.9257" style="stop-color:rgb(207,223,228)"/>
						<stop offset="1" style="stop-color:rgb(216,231,235)"/>
					</linearGradient>
				</defs>
				<path style="fill:url(#AIgd72)"
					d="M142.305 7.35 L142.496 6.967 L142.649 6.547 L142.801 6.124 L142.914 5.703 L143.031
						5.244 L143.146 4.748 L143.223 4.289 L143.265 3.789 L143.301 3.33 L143.336
						2.832 L143.337 2.333 L143.302 1.873 L143.266 1.414 L143.186 0.957 L143.074
						0.496 L142.96 0.076 L143.571 0.88 L144.03 1.762 L144.375 2.604 L144.564
						3.484 L144.64 4.403 L144.64 5.323 L144.524 6.241 L144.33 7.161 L144.102 8.079
						L143.792 8.962 L143.449 9.841 L143.106 10.721 L142.721 11.564 L142.374
						12.406 L142.028 13.171 L141.685 13.938 L141.759 13.786 L141.796 13.517 L141.838
						13.251 L141.838 12.906 L141.875 12.482 L141.875 12.06 L141.875 11.6
						L141.876 11.104 L141.914 10.605 L141.914 10.107 L141.953 9.573 L141.993
						9.075 L142.031 8.614 L142.109 8.153 L142.184 7.733 L142.3 7.35 z"/>
				<path style="fill:url(#AIgd72)"
					d="M153.974 23.252 L153.245 22.83 L152.516 22.368 L151.829 21.947 L151.141 21.525 L150.491
						21.142 L149.84 20.72 L149.224 20.335 L148.615 19.915 L147.962 19.531
						L147.355 19.147 L146.741 18.725 L146.089 18.343 L145.478 17.957 L144.824
						17.615 L144.138 17.229 L143.449 16.847 L144.059 17.457 L144.672 18.073 L145.285
						18.684 L145.897 19.26 L146.547 19.871 L147.198 20.407 L147.848 20.946
						L148.536 21.443 L149.187 21.904 L149.876 22.287 L150.527 22.633 L151.215
						22.902 L151.903 23.131 L152.591 23.246 L153.282 23.283 L153.973 23.248 z"/>
				<path style="fill:url(#AIgd72)"
					d="M148.277 7.928 L147.741 8.236 L147.241 8.581 L146.746 8.926 L146.285 9.27 L145.825
						9.613 L145.406 9.996 L144.982 10.417 L144.559 10.8 L144.175 11.222 L143.791
						11.644 L143.409 12.065 L143.064 12.522 L142.681 12.944 L142.335 13.403
						L141.991 13.862 L141.645 14.321 L141.798 13.825 L141.99 13.326 L142.181 12.789
						L142.41 12.255 L142.641 11.719 L142.906 11.22 L143.216 10.722 L143.562
						10.227 L143.944 9.767 L144.405 9.386 L144.903 9.001 L145.44 8.657 L146.052
						8.388 L146.704 8.159 L147.469 8.007 L148.274 7.931 z"/>
				<path style="fill:url(#AIgd72)"
					d="M142.574 3.329 L142.421 4.096 L142.307 4.863 L142.153 5.629 L142.037 6.318 L141.961
						7.045 L141.847 7.734 L141.768 8.423 L141.653 9.112 L141.576 9.8 L141.459
						10.489 L141.385 11.14 L141.267 11.829 L141.151 12.518 L141.036 13.207 L140.886
						13.896 L140.729 14.623 L140.653 13.781 L140.54 12.976 L140.463 12.133
						L140.387 11.292 L140.35 10.485 L140.312 9.68 L140.351 8.875 L140.39 8.111
						L140.466 7.344 L140.582 6.656 L140.776 5.967 L141.005 5.316 L141.274 4.743
						L141.658 4.206 L142.08 3.746 L142.577 3.325 z"/>
				<path style="fill:url(#AIgd72)"
					d="M146.674 2.071 L147.366 2.719 L147.782 3.448 L147.971 4.214 L148.011 5.019 L147.858
						5.823 L147.551 6.666 L147.127 7.51 L146.629 8.351 L146.054 9.155 L145.443
						9.96 L144.79 10.724 L144.14 11.413 L143.526 12.102 L142.992 12.674 L142.529
						13.213 L142.146 13.631 L142.223 12.484 L142.377 11.489 L142.568 10.645
						L142.875 9.881 L143.181 9.231 L143.567 8.657 L143.949 8.122 L144.373 7.621
						L144.756 7.125 L145.18 6.63 L145.562 6.092 L145.869 5.479 L146.176 4.791
						L146.406 4.025 L146.6 3.106 L146.675 2.074 z"/>
				<path style="fill:url(#AIgd72)"
					d="M141.763 14.319 L141.763 13.514 L141.724 12.749 L141.69 11.984 L141.65 11.216 L141.614
						10.487 L141.537 9.76 L141.461 9.033 L141.388 8.342 L141.271 7.654 L141.157
						6.926 L140.968 6.237 L140.816 5.548 L140.62 4.86 L140.352 4.171 L140.123
						3.482 L139.817 2.793 L140.928 3.866 L141.846 4.9 L142.495 5.859 L142.952
						6.779 L143.261 7.658 L143.412 8.463 L143.449 9.269 L143.372 9.996 L143.177
						10.685 L142.99 11.336 L142.72 11.949 L142.449 12.482 L142.219 13.019
						L141.99 13.478 L141.838 13.937 L141.76 14.32 z"/>
				<path style="fill:url(#AIgd72)"
					d="M152.982 16.97 L152.369 17.084 L151.755 17.2 L151.144 17.275 L150.531 17.35 L149.922
						17.388 L149.306 17.425 L148.693 17.425 L148.118 17.425 L147.506 17.386
						L146.932 17.386 L146.319 17.309 L145.746 17.271 L145.133 17.231 L144.558
						17.156 L143.946 17.077 L143.372 17.002 L143.87 17.231 L144.368 17.423 L144.903
						17.654 L145.44 17.844 L146.014 18.037 L146.59 18.188 L147.2 18.344 L147.81
						18.42 L148.422 18.459 L149.073 18.459 L149.724 18.42 L150.378 18.27
						L151.029 18.079 L151.68 17.809 L152.328 17.428 L152.982 16.968 z"/>
				<path style="fill:url(#AIgd72)"
					d="M149.417 20.07 L149.878 20.148 L150.297 20.223 L150.758 20.338 L151.215 20.453 L151.678
						20.647 L152.134 20.798 L152.555 20.989 L153.015 21.219 L153.436 21.449
						L153.857 21.716 L154.24 21.987 L154.626 22.255 L154.969 22.562 L155.277
						22.869 L155.581 23.176 L155.851 23.52 L155.582 22.603 L155.16 21.795 L154.666
						21.107 L154.051 20.456 L153.363 19.92 L152.595 19.42 L151.754 19 L150.872
						18.653 L149.953 18.347 L149.034 18.04 L148.079 17.809 L147.121 17.579
						L146.164 17.386 L145.245 17.197 L144.402 17.043 L143.56 16.851 L143.98 17.004
						L144.554 17.31 L145.244 17.773 L146.085 18.27 L146.928 18.805 L147.807
						19.304 L148.649 19.764 L149.417 20.072 z"/>
				<path style="fill:url(#AIgd72)"
					d="M151.174 26.926 L151.519 26.045 L151.636 25.201 L151.52 24.359 L151.213 23.593 L150.756
						22.864 L150.144 22.137 L149.416 21.447 L148.612 20.833 L147.769 20.22
						L146.89 19.684 L145.971 19.146 L145.087 18.687 L144.286 18.267 L143.519
						17.88 L142.868 17.536 L142.372 17.227 L142.904 18.34 L143.442 19.259 L144.015
						19.987 L144.551 20.639 L145.125 21.137 L145.699 21.596 L146.273 21.942
						L146.847 22.288 L147.418 22.634 L147.995 23.016 L148.567 23.4 L149.103 23.86
						L149.64 24.433 L150.175 25.124 L150.672 25.93 L151.17 26.925 z"/>
				<path style="fill:url(#AIgd72)"
					d="M141.529 17.497 L141.951 18.149 L142.371 18.801 L142.792 19.451 L143.172 20.064 L143.518
						20.677 L143.863 21.326 L144.209 21.94 L144.514 22.553 L144.818 23.205
						L145.086 23.855 L145.357 24.468 L145.586 25.118 L145.776 25.807 L145.968
						26.457 L146.12 27.146 L146.272 27.876 L146.656 26.421 L146.847 25.156 L146.888
						24.007 L146.773 23.013 L146.544 22.169 L146.198 21.403 L145.778 20.751
						L145.32 20.214 L144.782 19.715 L144.247 19.294 L143.674 18.948 L143.137
						18.642 L142.641 18.336 L142.181 18.068 L141.839 17.761 L141.529 17.49 z"/>
			</g>
		</g>
	</g>
	<ellipse id="egg" cx="220.824" cy="280.532" rx="23.1765" ry="31"
		transform="matrix(0.713278 -0.179023 0 0.695623 -108.841 -128.358) translate(31.3383 9.75637) translate(0 1.69125) translate(-1.40198 -0.360808) translate(-1.40198 -0.360808) translate(-1.40198 -0.360808) translate(-1.40198 -0.360808) translate(-1.40198 -0.360808) translate(-1.40198 -0.360808) translate(-1.40198 -0.360808) translate(-1.40198 -0.360808) translate(-1.40198 -0.360808) translate(-1.40198 -0.360808) translate(-1.40198 -0.360808) translate(-1.40198 -0.360808) translate(-1.40198 -0.360808) translate(-1.40198 -0.360808) translate(-1.40198 -0.360808) translate(-1.40198 -0.360808) translate(-1.40198 -0.360808) translate(-1.40198 -0.360808) translate(-1.40198 -0.360808) translate(-1.40198 -0.360808) translate(-1.40198 -0.360808) translate(-1.40198 -0.360808) translate(-1.40198 -0.360808) translate(-1.40198 -0.360808) translate(-1.40198 -0.360808) translate(-1.40198 -0.360808) translate(-1.40198 -0.360808) translate(-1.40198 -0.360808) translate(-1.40198 -0.360808) translate(-1.40198 -0.360808) translate(-1.40198 -0.360808) translate(-1.40198 -0.360808) translate(-1.40198 -0.360808) translate(-1.40198 -0.360808) translate(-1.40198 -0.360808) translate(-1.40198 -0.360808) translate(-1.40198 -0.360808) translate(-1.40198 -0.360808) translate(-1.40198 -0.360808) translate(-1.40198 -0.360808) translate(1.40198 0.360808) translate(1.40198 0.360808) translate(-1.40198 -0.360808) translate(-1.40198 -0.360808) translate(-1.40198 -0.360808) translate(-1.40198 -0.360808) translate(180.385 228.832) scale(0.945604 0.945604) translate(-180.385 -228.832)"
		
		 style="fill:url(#black-white_1);stroke:rgb(0,0,0);stroke-width:2"/>
	<g id="apache_text" style="font-family:Tahoma;font-size:26;font-weight:bold"
		transform="translate(38.8235 40) translate(-9.41176 249.412) translate(41.1765 -10.5882) translate(-37.6471 30.5882) translate(-101.176 -295.294) translate(62.3529 -2.35294) translate(14.1176 2.35294) translate(49.4118 16.4706) translate(-57.6471 -18.8235) translate(149.94 7.8) scale(1.14911 1.14911) translate(-149.94 -7.8) translate(0 5.11905) translate(-3.48095 5.22143) translate(13.0536 0.870239) translate(-27.8476 -4.35119) translate(-0.870239 2.61072) translate(-29.5881 -22.6262) translate(-0.870239 0) translate(-0.870239 0) translate(-0.870239 0) translate(-0.870239 0) translate(-0.870239 0) translate(-0.870239 0) translate(-0.870239 0) translate(-0.870239 0) translate(-0.870239 0) translate(-0.870239 0) translate(-0.870239 0) translate(-0.870239 0) translate(-0.870239 0) translate(-0.870239 0) translate(-0.870239 0) translate(-0.870239 0) translate(-0.870239 0) translate(-0.870239 0) translate(-0.870239 0) translate(-0.870239 0) translate(-0.870239 0) translate(-0.870239 0) translate(-0.870239 0) translate(-0.870239 0) translate(-0.870239 0) translate(-0.870239 0) translate(-0.870239 0) translate(-0.870239 0) translate(-0.870239 0) translate(-0.870239 0) translate(-0.870239 0) translate(-0.870239 0) translate(-0.870239 0) translate(-0.870239 0) translate(-0.870239 0) translate(-0.870239 0) translate(-0.870239 0) translate(-0.870239 0) translate(-0.870239 0) translate(-0.870239 0) translate(-0.870239 0) translate(0.870239 0) translate(0.870239 0) translate(-0.870239 0) translate(-0.870239 0) translate(-0.870239 0) translate(-0.870239 0) translate(105.764 4.69752) scale(0.945604 0.945604) translate(-105.764 -4.69752)"
		>
		<text x="150" y="23" style="font-size:20;text-anchor:start">Apache</text>
	</g>
	<g id="incubator_text"
		transform="translate(-1 0) translate(-1 0) translate(-1 0) translate(-1 0) translate(-1 0) translate(-1 0) translate(-1 0) translate(-1 0) translate(-1 0) translate(-1 0) translate(-1 0) translate(-1 0) translate(-1 0) translate(-1 0) translate(-1 0) translate(-1 0) translate(-1 0) translate(-1 0) translate(-1 0) translate(-1 0) translate(-1 0) translate(-1 0) translate(-1 0) translate(-1 0) translate(-1 0) translate(-1 0) translate(-1 0) translate(-1 0) translate(-1 0) translate(-1 0) translate(-1 0) translate(-1 0) translate(-1 0) translate(-1 0) translate(-1 0) translate(-1 0) translate(-1 0) translate(-1 0) translate(-1 0) translate(-1 0) translate(1 0) translate(1 0) translate(-1 0) translate(-1 0) translate(-1 0) translate(-1 0) translate(42.1768 0.882371) scale(0.945604 0.945604) translate(-42.1768 -0.882371)"
		>
		<g
			transform="translate(63.5294 2.35294) translate(15.2941 4.70588) translate(-3.52941 -2.35294) translate(44.7059 63.5294) translate(-49.4118 -63.5294) translate(83.4904 40.1873) scale(1.10418 1.10418) translate(-83.4904 -40.1873) translate(0 5.32735) translate(-15.396 -4.52825) translate(-6.33955 2.71695) translate(0 0.905649) translate(-30.7921 -23.5469) translate(-0.905649 0)"
			>
			<path
				transform="translate(22.3529 103.529) translate(0 1.17647) translate(-101.176 -295.294) translate(32.9412 92.9412) translate(-30.5882 -94.1176)"
				
				d="M166.732 239.981 L166.732 258 L159.961 258 L159.961 239.981 zM163.384 231.952 C164.301
					231.952 165.094 232.274 165.764 232.919 C166.434 233.564 166.769 234.327
					166.769 235.207 C166.769 236.148 166.452 236.92 165.819 237.523 C165.185
					238.126 164.373 238.427 163.384 238.427 C162.394 238.427 161.582 238.126
					160.948 237.523 C160.315 236.92 159.998 236.148 159.998 235.207 C159.998 234.327
					160.333 233.564 161.003 232.919 C161.673 232.274 162.466 231.952 163.384
					231.952 z"/>
			<path
				transform="translate(22.3529 103.529) translate(0 1.17647) translate(-101.176 -295.294) translate(32.9412 92.9412) translate(-30.5882 -94.1176)"
				
				d="M186.749 258 L179.978 258 L179.978 247.824 C179.978 246.789 179.556 246.271 178.711
					246.271 C177.878 246.271 177.462 246.789 177.462 247.824 L177.462 258 L170.691
					258 L170.691 247.951 C170.691 245.604 171.468 243.628 173.021 242.021
					C174.575 240.414 176.477 239.611 178.729 239.611 C181.306 239.611 183.371
					240.544 184.924 242.409 C186.141 243.866 186.749 245.894 186.749 248.493 z"/>
			<path
				transform="translate(22.3529 103.529) translate(0 1.17647) translate(-101.176 -295.294) translate(32.9412 92.9412) translate(-30.5882 -94.1176)"
				
				d="M201.773 249.704 L208.476 249.451 C208.283 252.051 207.313 254.187 205.568 255.86
					C203.822 257.533 201.696 258.37 199.192 258.37 C196.543 258.37 194.306 257.449
					192.482 255.608 C190.658 253.766 189.746 251.509 189.746 248.837 C189.746
					246.297 190.667 244.125 192.509 242.319 C194.352 240.514 196.561 239.611
					199.138 239.611 C201.39 239.611 203.377 240.321 205.098 241.741 C206.82 243.161
					207.892 244.972 208.313 247.174 L201.466 247.427 C200.876 246.656 200.13
					246.271 199.227 246.271 C198.457 246.271 197.825 246.524 197.331 247.03
					C196.838 247.536 196.591 248.174 196.591 248.945 C196.591 249.728 196.853
					250.385 197.376 250.915 C197.9 251.445 198.553 251.71 199.335 251.71 C200.479
					251.71 201.291 251.041 201.773 249.704 z"/>
			<path
				transform="translate(22.3529 103.529) translate(0 1.17647) translate(-101.176 -295.294) translate(32.9412 92.9412) translate(-30.5882 -94.1176)"
				
				d="M211.428 240.24 L218.199 240.24 L218.199 250.412 C218.199 251.45 218.621 251.969
					219.466 251.969 C220.299 251.969 220.715 251.45 220.715 250.412 L220.715 240.24
					L227.486 240.24 L227.486 250.286 C227.486 252.626 226.709 254.602 225.156
					256.213 C223.602 257.824 221.7 258.629 219.448 258.629 C216.883 258.629
					214.818 257.694 213.253 255.824 C212.036 254.364 211.428 252.338 211.428 249.744
					z"/>
			<path
				transform="translate(22.3529 103.529) translate(0 1.17647) translate(-101.176 -295.294) translate(32.9412 92.9412) translate(-30.5882 -94.1176)"
				
				d="M237.809 233.321 L237.809 248.096 C237.809 250.505 238.669 251.71 240.39 251.71 C241.125
					251.71 241.747 251.459 242.259 250.958 C242.77 250.457 243.026 249.851
					243.026 249.138 C243.026 248.401 242.786 247.783 242.305 247.282 C241.824
					246.781 241.236 246.53 240.539 246.53 C240.046 246.53 239.482 246.745 238.845
					247.174 L238.845 239.727 C239.64 239.65 240.243 239.611 240.653 239.611
					C243.195 239.611 245.374 240.528 247.187 242.361 C249.001 244.194 249.908
					246.4 249.908 248.981 C249.908 251.623 248.985 253.848 247.14 255.657 C245.295
					257.466 243.027 258.37 240.337 258.37 C238.986 258.37 237.669 258.075
					236.384 257.484 C235.1 256.893 234.041 256.097 233.209 255.096 C231.762 253.359
					231.038 251.11 231.038 248.349 L231.038 233.321 z"/>
			<path
				transform="translate(22.3529 103.529) translate(0 1.17647) translate(-101.176 -295.294) translate(32.9412 92.9412) translate(-30.5882 -94.1176)"
				
				d="M262.895 251.24 L262.895 258.235 C262.342 258.325 261.836 258.37 261.379 258.37 C258.673
					258.37 256.417 257.478 254.613 255.695 C252.808 253.912 251.906 251.677
					251.906 248.991 C251.906 246.376 252.818 244.159 254.641 242.34 C256.465
					240.521 258.683 239.611 261.295 239.611 C264.208 239.611 266.504 240.464
					268.183 242.171 C269.862 243.877 270.702 246.208 270.702 249.162 L270.702
					258 L263.931 258 L263.931 249.65 C263.931 248.7 263.701 247.943 263.241 247.378
					C262.781 246.813 262.163 246.53 261.386 246.53 C260.682 246.53 260.072
					246.789 259.559 247.306 C259.045 247.824 258.788 248.437 258.788 249.147 C258.788
					249.893 259.021 250.507 259.488 250.988 C259.954 251.469 260.546 251.71
					261.263 251.71 C261.849 251.71 262.393 251.553 262.895 251.24 z"/>
			<path
				transform="translate(22.3529 103.529) translate(0 1.17647) translate(-101.176 -295.294) translate(32.9412 92.9412) translate(-30.5882 -94.1176)"
				
				d="M280.655 233.321 L280.655 240.24 L283.689 240.24 L283.689 247.381 L280.655 247.381
					C280.655 248.814 280.88 249.801 281.329 250.343 C281.778 250.885 282.602
					251.156 283.8 251.156 L283.8 258.253 C283.451 258.257 283.192 258.259 283.024
					258.259 C281.494 258.259 280.052 257.904 278.697 257.195 C277.343 256.485
					276.256 255.523 275.437 254.309 C274.402 252.757 273.884 250.701 273.884
					248.14 L273.884 233.321 z"/>
			<path
				transform="translate(22.3529 103.529) translate(0 1.17647) translate(-101.176 -295.294) translate(32.9412 92.9412) translate(-30.5882 -94.1176)"
				
				d="M295.534 239.611 C298.092 239.611 300.284 240.53 302.112 242.367 C303.939 244.204
					304.853 246.406 304.853 248.973 C304.853 251.575 303.927 253.792 302.075 255.623
					C300.224 257.454 297.989 258.37 295.372 258.37 C292.754 258.37 290.516
					257.451 288.659 255.614 C286.801 253.777 285.872 251.563 285.872 248.973
					C285.872 246.334 286.801 244.114 288.659 242.313 C290.516 240.512 292.808
					239.611 295.534 239.611 zM295.353 246.271 C294.631 246.271 294.018 246.534
					293.512 247.06 C293.007 247.585 292.754 248.229 292.754 248.991 C292.754 249.74
					293.01 250.38 293.521 250.912 C294.033 251.444 294.643 251.71 295.353
					251.71 C296.076 251.71 296.692 251.444 297.204 250.912 C297.715 250.38 297.971
					249.74 297.971 248.991 C297.971 248.229 297.718 247.585 297.213 247.06
					C296.707 246.534 296.087 246.271 295.353 246.271 z"/>
			<path
				transform="translate(22.3529 103.529) translate(0 1.17647) translate(-101.176 -295.294) translate(32.9412 92.9412) translate(-30.5882 -94.1176)"
				
				d="M317.544 239.799 L317.544 247.03 C317.077 246.771 316.652 246.641 316.269 246.641
					C315.047 246.641 314.436 247.578 314.436 249.451 L314.436 258 L307.665 258
					L307.665 248.15 C307.665 245.55 308.375 243.477 309.796 241.931 C311.217 240.384
					313.113 239.611 315.485 239.611 C316.015 239.611 316.701 239.674 317.544
					239.799 z"/>
		</g>
	</g>
</svg>
