<svg xmlns="http://www.w3.org/2000/svg" width="1440" height="620" viewBox="0 0 1440 620" role="img" aria-labelledby="title desc">
  <title id="title">Apache Doris data lineage collection architecture</title>
  <desc id="desc">Supported DML is analyzed by Nereids and, after successful execution, produces a LineageInfo event. The event enters a bounded FE queue, is processed by one worker, and is sent by a lineage plugin to an external governance system.</desc>
  <defs>
    <marker id="arrow" markerWidth="10" markerHeight="10" refX="9" refY="5" orient="auto"><path d="M0,0 L10,5 L0,10 z" fill="#4b6472"/></marker>
    <style>
      .title { font: 700 28px Arial, sans-serif; fill: #173b4d; }
      .label { font: 700 18px Arial, sans-serif; fill: #173b4d; }
      .body { font: 16px Arial, sans-serif; fill: #3b5360; }
      .small { font: 14px Arial, sans-serif; fill: #526b77; }
      .edge { fill: none; stroke: #4b6472; stroke-width: 3; marker-end: url(#arrow); }
      .edge-label { font: 14px Arial, sans-serif; fill: #526b77; }
    </style>
  </defs>
  <rect width="1440" height="620" fill="#f7faf9"/>
  <text x="72" y="70" class="title">Data Lineage Collection and Delivery</text>
  <text x="72" y="102" class="body">Collection occurs after a supported DML statement succeeds. Delivery is asynchronous and best effort.</text>

  <rect x="72" y="186" width="230" height="174" rx="8" fill="#e7f4f1" stroke="#2f8f83" stroke-width="2"/>
  <text x="96" y="226" class="label">Supported DML</text>
  <text x="96" y="262" class="body">INSERT INTO SELECT</text>
  <text x="96" y="290" class="body">INSERT OVERWRITE TABLE</text>
  <text x="96" y="318" class="body">CREATE TABLE AS SELECT</text>

  <rect x="378" y="148" width="258" height="126" rx="8" fill="#edf5fb" stroke="#4d86b7" stroke-width="2"/>
  <text x="402" y="190" class="label">Nereids analysis</text>
  <text x="402" y="222" class="body">Analyzed logical plan</text>
  <text x="402" y="248" class="small">Stored by the planner hook</text>

  <rect x="378" y="338" width="258" height="102" rx="8" fill="#fff4df" stroke="#bf8329" stroke-width="2"/>
  <text x="402" y="378" class="label">DML execution</text>
  <text x="402" y="410" class="body">Only successful writes continue</text>

  <rect x="712" y="210" width="218" height="126" rx="8" fill="#eef3f5" stroke="#647d89" stroke-width="2"/>
  <text x="736" y="250" class="label">Extractor</text>
  <text x="736" y="282" class="body">LineageInfo</text>
  <text x="736" y="308" class="small">Tables, columns, context</text>

  <rect x="1006" y="148" width="190" height="126" rx="8" fill="#f3edf8" stroke="#8263a4" stroke-width="2"/>
  <text x="1030" y="190" class="label">FE queue</text>
  <text x="1030" y="222" class="body">Bounded capacity</text>
  <text x="1030" y="248" class="small">Full queue drops new events</text>

  <rect x="1006" y="338" width="190" height="102" rx="8" fill="#eef3f5" stroke="#647d89" stroke-width="2"/>
  <text x="1030" y="378" class="label">Worker</text>
  <text x="1030" y="410" class="body">One daemon thread</text>

  <rect x="1272" y="210" width="112" height="126" rx="8" fill="#e7f4f1" stroke="#2f8f83" stroke-width="2"/>
  <text x="1296" y="250" class="label">Plugin</text>
  <text x="1296" y="282" class="small">LineagePlugin</text>
  <text x="1296" y="308" class="small">exec()</text>

  <path d="M302 246 H378" class="edge"/>
  <path d="M302 310 C334 310 334 389 378 389" class="edge"/>
  <path d="M636 211 C678 211 678 250 712 250" class="edge"/>
  <path d="M636 389 C676 389 676 298 712 298" class="edge"/>
  <text x="648" y="184" class="edge-label">analyzed plan</text>
  <text x="648" y="374" class="edge-label">success only</text>
  <path d="M930 273 H1006" class="edge"/>
  <path d="M1101 274 V338" class="edge"/>
  <path d="M1196 389 C1230 389 1230 273 1272 273" class="edge"/>
  <rect x="1196" y="490" width="188" height="62" rx="8" fill="#173b4d"/>
  <text x="1218" y="527" style="font:700 16px Arial,sans-serif;fill:#fff">Governance system</text>
  <path d="M1328 336 V490" class="edge"/>
</svg>
