<svg width="21" height="20" viewBox="0 0 21 20" fill="#7F7F83" xmlns="http://www.w3.org/2000/svg">
    <path fill-rule="evenodd" clip-rule="evenodd"
        d="M3.33983 6.44003C3.06163 6.62549 2.89453 6.93773 2.89453 7.27208V16.2106C2.89453 16.6466 3.24799 17.0001 3.684 17.0001H16.3156C16.7516 17.0001 17.1051 16.6466 17.1051 16.2106V7.27208C17.1051 6.93773 16.938 6.62549 16.6598 6.44003L10.5545 2.36985C10.2186 2.14592 9.78099 2.14592 9.44509 2.36985L3.33983 6.44003ZM10.6001 10.6001C10.6001 10.2687 10.3315 10.0001 10.0001 10.0001C9.66873 10.0001 9.4001 10.2687 9.4001 10.6001L9.4001 13.9001C9.4001 14.2314 9.66873 14.5001 10.0001 14.5001C10.3315 14.5001 10.6001 14.2314 10.6001 13.9001V10.6001Z"
    />
</svg>