<svg width="21" height="20" viewBox="0 0 21 20" fill="#7F7F83" xmlns="http://www.w3.org/2000/svg">
    <path fill-rule="evenodd" clip-rule="evenodd"
        d="M3.83544 6.44003C3.55724 6.62549 3.39014 6.93773 3.39014 7.27208V16.2106C3.39014 16.6466 3.74359 17.0001 4.17961 17.0001H16.8112C17.2472 17.0001 17.6007 16.6466 17.6007 16.2106V7.27208C17.6007 6.93773 17.4336 6.62549 17.1554 6.44003L11.0501 2.36985C10.7142 2.14592 10.2766 2.14592 9.9407 2.36985L3.83544 6.44003ZM11.0957 10.6001C11.0957 10.2687 10.8271 10.0001 10.4957 10.0001C10.1643 10.0001 9.8957 10.2687 9.8957 10.6001L9.8957 13.9001C9.8957 14.2314 10.1643 14.5001 10.4957 14.5001C10.8271 14.5001 11.0957 14.2314 11.0957 13.9001V10.6001Z"
    />
</svg>