<svg viewBox="0 -0.03275892849836737 114.62 62.03275892849837" xmlns="http://www.w3.org/2000/svg" width="2500" height="1354"><g fill-rule="evenodd" fill="#000000"><path d="M48.87 62l13.51-26.33H68L66.88 62h-5.64l.25-3.53H56.2L54.46 62zm9.67-9h3.29l1-9.3zM0 62l13.48-26.33h5.64L18 62h-5.66l.26-3.53H7.29L5.57 62zm9.65-9h3.29l1-9.3z"/><path d="M25.91 35.66h4.98l2.09 14.11 3.93-14.11h5.72L35.29 62h-5.58l-1.93-13.1L24.13 62h-5.58zM43.92 35.66h15.92l-1.59 5.65h-5.03L47.44 62h-5.56l5.76-20.69h-5.3z"/></g><path d="M114.62 46.46A99.07 99.07 0 0 0 67.53 10.6a149.32 149.32 0 0 1 33 4.84l-7.42-6.3A139.27 139.27 0 0 0 43.22 0a138.88 138.88 0 0 0-30.59 3.36L0 12.05c1.6 0 4-.1 5.61-.1A120.13 120.13 0 0 1 103.31 62z" fill="#000000"/></svg>