<svg xmlns="http://www.w3.org/2000/svg" width="2500" height="2500" viewBox="0 0 192.756 192.756"><g fill-rule="evenodd" clip-rule="evenodd" fill="#000000"><path d="M131.264 87.353h-15.733l-17.09 25.418L78.07 87.353H64.747l34.06 48.26 32.457-48.26zM139.309 87.353h44.943v8.045H154.4v5.484h29.262v8.84H154.4v6.097h29.852v8.84h-44.943V87.353z"/><path d="M54.446 65.471c-.486-.436.461-1.307 2.101-.896 1.025.256 2.152-.026 3.229.538 1.383.717 2.767.871 4.202 1.588 1.691.845 3.408.769 5.586 1.768 1.871.871 2.87 1.409 5.176 2.818 7.533 4.612 10.941 10.019 13.248 15.271.102.179.077.691.358.461.615-1.23.948-2.716 1.922-3.664 1.024-.999 1.845-1.922 2.332-3.382.641-1.921 4.151-4.561 7.251-6.918 1.256-.948 2.332-2.972 3.613-3.869 3.305-2.357 6.432-3.536 9.967-6.226.385-.308 1.127-.59 1.615-.743 2.203-.743 3.869-2.204 6.072-3.152 2.973-1.281 6.432-1.666 10.018-1.921.18 0 .359.436.309.614-.23 1-.896 2.076-1.691 2.409-.742.333-.512.948-1.307 1.281-2.051.819-2.717.717-3.459 1.87-.154.23-.256.563-.514.717-1.383.846-2.766 1.717-3.381 3.049a6.776 6.776 0 0 1-1.18 1.64c-1.998 2.024-4.125 3.126-5.994 4.125-2.051 1.102-3.613 2.947-5.125 5.688-.258.436-.898.077-1.281 1.358-.334 1.076-1.076 1.717-1.768 2.332-.463.41-.641 1.076-1.154 1.384-.461.256-1.051.103-1.408.461-.23.23-.488.512-.77.717-.947.666-2.383-.077-3.023 1.614-.564 1.486-1.486 2.511-2.587 3.562-1.153 1.486-2.229 2.844-3.357 4.715-1.102 1.844-2.28 2.716-3.459 4.869-1.588 2.818-3.356 2.126-3.971.896-.384-.743-.794.538-1.512-1.999-.153-.563-.64-1.102-.896-1.64-.538-1.204-.846-2.306-1.538-3.305-.615-.923-1.435-1.589-2.126-2.742-.871-1.512-1.435-2.947-2.485-4.305-1.409-1.794-2.076-1.102-2.973-1.896-1.204-1.051-2.024-2.639-3.1-3.818-.769-.846-1.691-1.538-2.485-2.357-.41-.436-.846-.897-1.051-1.435-1.076-3.203-1.666-1.743-2.459-2.587-.538-.539-.82-1.538-1.717-1.871-.487-.179-.82-.743-1.153-.948-.82-.563-1.307-.486-2.178-.999-1.281-.717-1.64-1.512-1.999-2.05-.333-.461-.564-.436-1.46-.692-1.567-.434-1.439-1.407-2.438-2.33z"/><path d="M78.019 92.298c0-1.05 1.589-.846 2.255-.846.051 0 .103.026.154.052.564.743 1.153 1.307 1.64 1.999.692.999 1 2.101 1.538 3.305.256.538.743 1.076.896 1.64.718 2.537 1.128 1.256 1.512 1.999.615 1.229 2.383 1.922 3.971-.896 1.179-2.152 2.357-3.024 3.459-4.869 1.025-1.691 1.973-2.947 2.998-4.254.077-.051.154-.077.257-.128.768-.384 1.409-.307 1.768-.487 3.459-1.793.896 2.588-1 4.766-.82.923-1.23 1.999-1.511 2.357-.615.82-1.281 4.433-2.665 6.021-.41.487-.41 1.051-.538 1.281-1.538 2.665-1.076 4.125-3.613 3.767-.461-.077-1.357.205-2.05.205-2.229 0-3.664-2.818-3.843-5.048-.077-.846-1.845-5.022-2.204-5.637l-1.717-2.947c-.102-.153-.308-.896-.486-1.076-.616-.615-.565-.717-.821-1.204z"/><path d="M28.054 119.355l-3.844 5.304H8.504l27.083-37.307h13.76l-.077.18 26.956 37.127H60.519l-3.869-5.304H28.054zm14.273-19.677l-7.995 11.043h16.041l-8.046-11.043z"/></g></svg>
