<?xml version="1.0" encoding="UTF-8"?>
<svg xmlns="http://www.w3.org/2000/svg" xmlns:xlink="http://www.w3.org/1999/xlink" version="1.1" x="0px" y="0px" width="237.5px" height="82.167px" viewBox="0 0 237.5 82.167" xml:space="preserve">
<g fill="#000000">
<path d="M81.979,24.568l15.797-0.269c0.477-0.008,0.687-0.607,0.317-0.911L73.122,2.805  c-0.387-0.319-0.956,0.05-0.822,0.534l4.924,17.821c0.16-0.018,0.318-0.049,0.484-0.049C79.808,21.111,81.559,22.593,81.979,24.568"/>
<path d="M26.078,23.878c1.205,0.056,2.276,0.594,3.033,1.433L67.452,2.22c0.469-0.282,0.231-1.004-0.313-0.952  l-43.146,4.06c-0.292,0.028-0.502,0.294-0.461,0.584L26.078,23.878z"/>
<path d="M62.295,41.584l11.94-13.48c-0.554-0.732-0.896-1.635-0.896-2.624c0-1.653,0.93-3.075,2.283-3.817  L70.496,3.105c-0.091-0.328-0.469-0.479-0.761-0.304L29.974,26.749c0.167,0.464,0.273,0.957,0.273,1.478  c0,0.415-0.076,0.808-0.184,1.188l26.411,13.483c0.784-1.163,2.114-1.927,3.623-1.927C60.903,40.971,61.647,41.204,62.295,41.584"/>
<path d="M55.729,45.34c0-0.306,0.031-0.603,0.092-0.891l-26.52-13.538c-0.219,0.279-0.469,0.529-0.748,0.747  l27.559,47.796c0.255,0.442,0.929,0.282,0.959-0.228l1.712-29.741C57.017,48.925,55.729,47.291,55.729,45.34"/>
<path d="M84.548,57.219c0.398,0.203,0.849-0.164,0.729-0.595l-7.401-26.793c-0.057,0.002-0.11,0.017-0.168,0.017  c-0.814,0-1.568-0.238-2.222-0.626L63.552,42.694c0.565,0.736,0.914,1.646,0.914,2.645c0,0.525-0.106,1.021-0.276,1.487  L84.548,57.219z"/>
<path d="M21.589,27.439c0.283-1.546,1.38-2.795,2.83-3.312L22.014,7.144c-0.061-0.424-0.58-0.593-0.878-0.286  l-19.352,20c-0.318,0.329-0.08,0.878,0.377,0.871L21.589,27.439z"/>
<path d="M63.32,48.267c-0.723,0.796-1.731,1.313-2.868,1.406l-1.759,30.539c-0.025,0.441,0.48,0.707,0.828,0.436  l26.007-20.222c0.297-0.231,0.253-0.693-0.082-0.864L63.32,48.267z"/>
<path d="M82,26.245c-0.254,1.433-1.202,2.619-2.489,3.205l7.462,27.015c0.133,0.481,0.804,0.51,0.978,0.042  l11.065-29.851c0.126-0.339-0.129-0.699-0.491-0.693L82,26.245z"/>
<path d="M22.92,31.424c-0.654-0.606-1.132-1.401-1.318-2.308L1.338,29.418c-0.347,0.005-0.589,0.347-0.479,0.676  l7.7,23.146c0.138,0.415,0.697,0.479,0.926,0.107L22.92,31.424z"/>
<path d="M27.055,32.416c-0.376,0.106-0.767,0.18-1.176,0.18c-0.541,0-1.054-0.111-1.531-0.29L10.513,54.879  c-0.194,0.315-0.001,0.726,0.366,0.777l31.16,4.411c0.425,0.06,0.731-0.395,0.518-0.766L27.055,32.416z"/>
<polygon points="132.079,9.737 135.511,9.737 135.511,30.63 132.079,30.63 132.079,21.586 123.125,21.586 123.125,30.63   119.693,30.63 119.693,9.737 123.125,9.737 123.125,18.304 132.079,18.304 "/>
<path d="M140.942,28.75c-1.522-1.522-2.299-3.373-2.299-5.582c0-2.208,0.776-4.059,2.299-5.581s3.402-2.268,5.581-2.268  c2.208,0,4.06,0.746,5.581,2.268c1.523,1.522,2.298,3.373,2.298,5.581c0,2.209-0.774,4.06-2.298,5.582  c-1.521,1.522-3.373,2.268-5.581,2.268C144.345,31.019,142.465,30.272,140.942,28.75 M146.523,27.884  c1.313,0,2.418-0.448,3.313-1.343c0.895-0.895,1.343-2.03,1.343-3.373c0-1.343-0.448-2.477-1.343-3.372  c-0.896-0.896-2-1.344-3.313-1.344c-1.313,0-2.418,0.448-3.313,1.344c-0.896,0.895-1.343,2.029-1.343,3.372  c0,1.343,0.447,2.478,1.343,3.373C144.105,27.437,145.211,27.884,146.523,27.884"/>
<path d="M160.55,18.214c0.807-1.851,2.358-2.776,4.597-2.776v3.492c-1.224-0.089-2.298,0.209-3.224,0.896  c-0.925,0.656-1.373,1.761-1.373,3.283v7.521h-3.224V15.707h3.224V18.214z"/>
<path d="M167.683,12.872c-0.806-0.836-0.806-2.09,0-2.896c0.806-0.835,2.119-0.835,2.925,0c0.806,0.806,0.806,2.06-0.029,2.896  C169.772,13.677,168.518,13.677,167.683,12.872 M167.533,15.707h3.224V30.63h-3.224V15.707z"/>
<polygon points="178.337,27.586 185.59,27.586 185.59,30.63 173.95,30.63 173.95,28.481 180.933,18.751 174.248,18.751   174.248,15.707 185.291,15.707 185.291,17.856 "/>
<path d="M189.171,28.75c-1.523-1.522-2.3-3.373-2.3-5.582c0-2.208,0.776-4.059,2.3-5.581c1.521-1.522,3.401-2.268,5.58-2.268  c2.208,0,4.06,0.746,5.581,2.268c1.523,1.522,2.299,3.373,2.299,5.581c0,2.209-0.775,4.06-2.299,5.582  c-1.521,1.522-3.373,2.268-5.581,2.268C192.572,31.019,190.692,30.272,189.171,28.75 M194.751,27.884  c1.313,0,2.418-0.448,3.313-1.343c0.895-0.895,1.343-2.03,1.343-3.373c0-1.343-0.448-2.477-1.343-3.372  c-0.896-0.896-2-1.344-3.313-1.344c-1.313,0-2.418,0.448-3.313,1.344c-0.895,0.895-1.343,2.029-1.343,3.372  c0,1.343,0.448,2.478,1.343,3.373S193.438,27.884,194.751,27.884"/>
<path d="M219.135,21.467v9.163h-3.224v-8.835c0-2.238-1.283-3.462-3.343-3.462c-2.268,0-3.791,1.403-3.791,4.298v7.999h-3.223  V15.708h3.223v1.91c0.985-1.522,2.508-2.298,4.626-2.298C216.837,15.319,219.135,17.647,219.135,21.467"/>
<path d="M131.602,60.081l-4.417-7.611h-4.06v7.611h-3.433V39.188h8.357c1.881,0,3.463,0.657,4.745,1.97  c1.314,1.284,1.971,2.866,1.971,4.746c0,2.656-1.673,5.074-4.149,6.059l4.746,8.118H131.602z M123.125,42.412v6.984h4.925  c1.82,0,3.283-1.552,3.283-3.492s-1.463-3.492-3.283-3.492H123.125z"/>
<path d="M138.466,58.201c-1.523-1.522-2.299-3.373-2.299-5.582c0-2.208,0.775-4.059,2.299-5.581  c1.521-1.522,3.402-2.268,5.581-2.268c2.208,0,4.059,0.746,5.581,2.268s2.298,3.373,2.298,5.581c0,2.209-0.775,4.06-2.298,5.582  s-3.373,2.268-5.581,2.268C141.868,60.469,139.987,59.723,138.466,58.201 M144.047,57.335c1.313,0,2.418-0.448,3.313-1.343  c0.896-0.895,1.344-2.03,1.344-3.373s-0.448-2.477-1.344-3.372c-0.895-0.896-2-1.344-3.313-1.344c-1.313,0-2.418,0.448-3.313,1.344  c-0.895,0.895-1.343,2.029-1.343,3.372s0.448,2.478,1.343,3.373C141.629,56.887,142.733,57.335,144.047,57.335"/>
<path d="M168.549,47.038c1.463,1.523,2.179,3.373,2.179,5.582c0,2.179-0.716,4.059-2.179,5.581  c-1.462,1.522-3.192,2.268-5.253,2.268c-2.268,0-3.999-0.835-5.223-2.536v2.148h-3.224V39.189h3.224v8.088  c1.224-1.671,2.955-2.507,5.223-2.507C165.356,44.77,167.087,45.516,168.549,47.038 M162.789,57.395  c1.343,0,2.477-0.448,3.373-1.343c0.895-0.925,1.343-2.059,1.343-3.432c0-1.373-0.448-2.508-1.343-3.403  c-0.896-0.925-2.03-1.373-3.373-1.373s-2.478,0.448-3.373,1.373c-0.895,0.895-1.343,2.03-1.343,3.403  c0,1.373,0.448,2.507,1.343,3.432C160.312,56.947,161.446,57.395,162.789,57.395"/>
<path d="M175.114,58.201c-1.522-1.522-2.299-3.373-2.299-5.582c0-2.208,0.776-4.059,2.299-5.581s3.402-2.268,5.581-2.268  c2.208,0,4.06,0.746,5.581,2.268c1.523,1.522,2.298,3.373,2.298,5.581c0,2.209-0.774,4.06-2.298,5.582  c-1.521,1.522-3.373,2.268-5.581,2.268C178.517,60.469,176.637,59.723,175.114,58.201 M180.695,57.335  c1.313,0,2.418-0.448,3.313-1.343c0.895-0.895,1.343-2.03,1.343-3.373s-0.448-2.477-1.343-3.372c-0.896-0.896-2-1.344-3.313-1.344  c-1.313,0-2.418,0.448-3.313,1.344c-0.896,0.895-1.343,2.029-1.343,3.372s0.447,2.478,1.343,3.373  C178.277,56.887,179.383,57.335,180.695,57.335"/>
<path d="M199.527,48.262h-3.701v7.163c0,1.91,1.254,1.881,3.701,1.761v2.895c-4.925,0.597-6.924-0.746-6.924-4.656v-7.163h-2.746  v-3.104h2.746v-4.179h3.223v4.179h3.701V48.262z"/>
<path d="M202.601,42.322c-0.806-0.835-0.806-2.089,0-2.895c0.807-0.835,2.119-0.835,2.926,0c0.806,0.806,0.806,2.06-0.03,2.895  C204.69,43.128,203.436,43.128,202.601,42.322 M202.452,45.158h3.224v14.923h-3.224V45.158z"/>
<path d="M210.808,58.201c-1.492-1.522-2.239-3.373-2.239-5.581c0-2.239,0.747-4.089,2.239-5.582  c1.522-1.522,3.402-2.268,5.641-2.268c2.896,0,5.463,1.492,6.656,3.85l-2.775,1.612c-0.688-1.433-2.119-2.298-3.91-2.298  c-1.313,0-2.417,0.448-3.313,1.343c-0.865,0.895-1.313,2-1.313,3.343c0,1.343,0.447,2.447,1.313,3.342  c0.896,0.896,2,1.344,3.313,1.344c1.761,0,3.253-0.896,3.97-2.299l2.776,1.582c-1.284,2.388-3.821,3.88-6.717,3.88  C214.21,60.469,212.33,59.723,210.808,58.201"/>
<path d="M231.103,51.216c2.298,0.507,5.283,1.462,5.223,4.656c0,1.433-0.567,2.567-1.671,3.373  c-1.105,0.806-2.478,1.224-4.149,1.224c-2.955,0-5.134-1.314-6.089-3.492l2.776-1.612c0.508,1.432,1.612,2.149,3.313,2.149  c1.701,0,2.537-0.567,2.537-1.672c0-0.955-1.254-1.522-2.835-1.91c-2.239-0.567-5.253-1.462-5.193-4.596  c0-1.373,0.508-2.478,1.552-3.313c1.045-0.836,2.357-1.254,3.91-1.254c2.478,0,4.477,1.164,5.521,3.104l-2.716,1.523  c-0.508-1.135-1.463-1.702-2.806-1.702c-1.225,0-2.18,0.537-2.18,1.702C228.296,50.262,229.55,50.769,231.103,51.216"/>
</g>
</svg>
