<svg xmlns="http://www.w3.org/2000/svg" viewBox="0 0 479.77 88.8">
<g fill="#000000">
<path transform="translate(-10.08 -205.44)" d="M144.93,284.32h3.83c7.46,0,11-4,11-11.38V230.87h11.66v41.88c0,14-9.05,21.37-22.86,21.37h-3.64Z"/>
<path transform="translate(-10.08 -205.44)" fill-rule="evenodd" d="M186.72,230.87h26.77c21.83,0,33.39,13.34,33.39,31.06S235.32,293,213.49,293H186.72Zm26.77,52.24c13.9,0,21.27-8.3,21.27-21.18s-7.37-21.17-21.27-21.17h-15v42.35Z"/>
<path transform="translate(-10.08 -205.44)" d="M263.39,280.68a6.44,6.44,0,1,1-6.44,6.44,6.45,6.45,0,0,1,6.44-6.44"/>
<path transform="translate(-10.08 -205.44)" d="M336.23,285.07c-5.87,5.78-13.15,9.05-22.66,9.05-20.24,0-33.77-13.16-33.77-32.19,0-18.84,13.53-32.18,33.39-32.18a32,32,0,0,1,22.95,9.14l-7,7.19a21.81,21.81,0,0,0-15.67-6.44c-13.15,0-22.29,9.42-22.29,22.29,0,13.06,9.42,22.3,22.67,22.3a20.3,20.3,0,0,0,15.29-6.35Z"/>
<path transform="translate(-10.08 -205.44)" fill-rule="evenodd" d="M343,261.93c0-17.25,12.59-32.18,33.57-32.18s33.58,14.93,33.58,32.18-12.59,32.18-33.58,32.18S343,279.19,343,261.93M376.43,284a22.11,22.11,0,1,0-22.11-22.11A21.86,21.86,0,0,0,376.43,284"/>
<polygon points="479.77 25.43 479.77 87.55 468.48 87.55 468.48 44.65 445.91 86.53 423.15 44.65 423.15 87.55 411.86 87.55 411.86 25.43 423.62 25.43 445.91 66.1 468.02 25.43 479.77 25.43"/>
</g>
</svg>
