<svg xmlns="http://www.w3.org/2000/svg" viewBox="0 0 678 195.87">
<g fill="#000000">
<path fill="#000000" d="M131.08,13.06a39.51,39.51,0,0,0-27,10.59A46.22,46.22,0,1,0,99,76.09a39.68,39.68,0,1,0,32.07-63ZM63.78,73.83A27.63,27.63,0,1,1,91.41,46.21,27.63,27.63,0,0,1,63.78,73.83Zm67.3,0a21.1,21.1,0,1,1,21.1-21.1A21.1,21.1,0,0,1,131.08,73.83Z"/>
<path fill="#000000" fill-rule="evenodd" d="M136.61,100.45H86.38a34.17,34.17,0,0,0-32.53,23.74L24.06,109.11A16.57,16.57,0,0,0,0,123.9v48.64a16.58,16.58,0,0,0,24,14.82l29.93-15a34.16,34.16,0,0,0,32.45,23.51h50.23a34.15,34.15,0,0,0,34.15-34.15V134.6A34.15,34.15,0,0,0,136.61,100.45ZM24.07,167.7a4.53,4.53,0,0,1-6-2,4.59,4.59,0,0,1-.49-2.06V133.05a4.52,4.52,0,0,1,6.55-4l28.1,14.11v10.13L24.15,167.66Zm129.11-6.48v.28a17.07,17.07,0,0,1-17.07,16.79H86.6a17.07,17.07,0,0,1-16.79-17.07v-26.4A17.08,17.08,0,0,1,86.89,118h49.5a17.07,17.07,0,0,1,16.79,17.07Z"/>
<polygon fill="#000000" points="281.65 104.95 329.89 59.18 299.07 59.18 246.34 110.15 246.34 17.87 223.5 17.87 223.5 183.61 246.34 183.61 246.34 137.91 265.25 120.24 305.05 183.61 331.71 183.61 281.65 104.95"/>
<path fill="#000000" d="M492.25,59.18,474.77,115l0,.13c-3.63,11.86-7.37,24.06-10.81,36.19-3.6-12.19-7.35-24.43-11-36.32L435.69,59.18H413l-17.23,55.75c-3.77,11.87-7.34,23.92-10.86,36.65-3.79-13.16-7.23-24.79-11-36.64L356.46,59.18H332l41.47,124.43h22.63L414,126.45c3.16-10,6.55-21.13,10.3-33.8,3,10.67,6.43,22,10.16,33.81l18.17,57.15h22.63L516.74,59.18Z"/>
<rect fill="#000000" x="652.73" y="58.97" width="22.32" height="124.75"/>
<circle fill="#000000" cx="663.89" cy="31.98" r="14.11" transform="translate(480.24 670.76) rotate(-76.72)"/>
<path fill="#000000" d="M607.15,61.13V75.3c-9.45-10.13-22.57-15.49-37.81-15.49-31.29,0-53.86,28.1-53.86,62.76s22.57,63.79,53.86,63.79c15.24,0,28.36-5.53,37.81-15.89v13.26h22.32V61.13Zm-33.42,104c-22,0-35.52-17.56-35.52-42.73,0-23.21,14.56-41.34,35.52-41.34,13.73,0,26.34,6.17,33.42,18V146.2C600.07,158.44,587.46,165.12,573.73,165.12Z"/>
</g>
</svg>
