<?xml version="1.0" encoding="UTF-8"?>
<svg xmlns="http://www.w3.org/2000/svg" version="1.1" viewBox="0 0 1000 266.67">
<g fill="#000000" fill-rule="evenodd" stroke-linecap="round" stroke-width="2.1802">
<path d="m289.12 0c-15.075 0-27.211 12.136-27.211 27.211s12.136 27.211 27.211 27.211 27.211-12.136 27.211-27.211-12.136-27.211-27.211-27.211zm-229.42 78.571c-33.07 0-59.694 26.623-59.694 59.694v103.06c0 13.662 10.998 24.66 24.66 24.66 13.662 0 24.66-10.998 24.66-24.66v-93.707c0-10.741 8.6469-19.388 19.388-19.388s19.388 8.6469 19.388 19.388v93.707c0 13.659 10.994 24.66 24.653 24.66 13.658 0 24.653-11.001 24.653-24.66v-93.707c0-10.741 8.6469-19.388 19.388-19.388 10.741 0 19.385 8.6469 19.388 19.388l0.0146 50.34c0.0111 38.064 30.644 68.707 68.707 68.707 38.064 0 68.707-30.644 68.707-68.707v-85.884c0-13.662-10.998-24.66-24.66-24.66-13.662 0-24.66 10.998-24.66 24.66v84.864c0 10.741-8.6469 19.388-19.388 19.388-10.741 0-19.385-8.6469-19.388-19.388l-0.0146-58.673c-8e-3 -33.07-26.623-59.694-59.694-59.694-18.702 0-35.555 8.4286-46.474 21.894-1.3709 1.6908-3.3562 3.2758-6.5802 3.2758-3.224 0-5.2092-1.5851-6.5802-3.2758-10.918-13.466-27.772-21.894-46.474-21.894z"/>
<path d="m377.38 14.966c-13.662 0-24.66 10.998-24.66 24.66v201.7c0 13.662 10.998 24.66 24.66 24.66 13.662 0 24.66-10.998 24.66-24.66v-66.156c0-6.2184 5.0061-11.224 11.224-11.224h26.531c6.2184 0 11.224 5.0061 11.224 11.224v66.156c0 13.662 10.998 24.66 24.66 24.66 13.662 0 24.66-10.998 24.66-24.66v-201.7c0-13.662-10.998-24.66-24.66-24.66-13.662 0-24.66 10.998-24.66 24.66v61.054c0 6.2184-5.0061 11.224-11.224 11.224h-26.531c-6.2184 0-11.224-5.0061-11.224-11.224v-61.054c0-13.662-10.998-24.66-24.66-24.66z"/>
<path d="m701.7 14.966c-7.8231 0-15.471 9.864-8.4688 19.58l48.605 87.903v118.88c0 13.662 11.002 24.66 24.663 24.66 13.662 0 24.663-10.998 24.663-24.66v-118.88l48.605-87.903c7.0026-9.7158-0.65238-19.58-8.4689-19.58h-25.25c-3.3988 0-7.4803 2.255-9.1106 5.2373l-27.073 49.525c-0.6864 1.2556-1.8853 1.7007-3.1994 1.7007s-2.6079-0.4477-3.299-1.7007l-27.32-49.525c-1.6417-2.976-5.6985-5.2373-9.0973-5.2373z"/>
<path d="m544.39 64.966c-1.3606 0-2.2109 6.4626-2.2109 15.306s1.7007 17.347 3.4014 17.347 1.7007-1.0204 9.864-8.1633c8.1633-7.1429 9.5238-7.1429 9.5238-9.1837s-3.0612-3.7415-10.204-8.8435c-7.1429-5.102-9.0136-6.4626-10.374-6.4626zm143.2 0c-1.3606 0-3.2313 1.3605-10.374 6.4626-7.1429 5.102-10.204 6.8027-10.204 8.8435s1.3606 2.0408 9.5238 9.1837c8.1633 7.1429 8.1633 8.1633 9.864 8.1633s3.4014-8.5034 3.4014-17.347-0.85034-15.306-2.2109-15.306zm-71.599 14.286c-45.076 0-81.633 41.897-81.633 93.537 0 51.659 36.548 93.537 81.633 93.537 45.084 0 81.633-41.878 81.633-93.537 0-51.64-36.556-93.537-81.633-93.537zm0 46.599c22.517 0 40.816 21.072 40.816 46.939 0 25.924-18.274 46.939-40.816 46.939-22.542 0-40.816-21.015-40.816-46.939-1e-4 -25.866 18.299-46.939 40.816-46.939z"/>
<path d="m977.89 70.408c-13.921 0-20.748 6.1224-24.83 9.1837-4.0816 3.0612-7.483 6.1224-11.224 6.1224-9.5238 0-16.327-6.4626-35.374-6.4626-45.084 0-81.633 41.878-81.633 93.537s36.548 93.537 81.633 93.537c45.084 0 81.633-41.878 81.633-93.537-2.4e-4 -18.842-4.9665-37.244-14.249-52.797-1.5618-4.0052-2.078-8.0869-2.0727-16.08 7e-3 -11.054 5.3298-19.193 11.219-23.299 5.8894-4.1059 10.884-5.102 17.007-5.7823-6.4626-3.0612-13.946-4.4218-22.109-4.4218zm-71.429 55.442c22.517-0.0404 40.816 21.015 40.816 46.939s-18.274 46.939-40.816 46.939c-22.542 0-40.816-21.015-40.816-46.939-1e-4 -25.866 18.299-46.898 40.816-46.939z"/>
</g>
</svg>
