<svg xmlns="http://www.w3.org/2000/svg" viewBox="0 0 144 24" fill="#000000" fill-rule="evenodd">
<title>MiniMax</title>
<g>
<path d="M16.278 2c1.156 0 2.093.927 2.093 2.07v12.501a.74.74 0 00.744.709.74.74 0 00.743-.709V9.099a2.06 2.06 0 012.071-2.049A2.06 2.06 0 0124 9.1v6.561a.649.649 0 01-.652.645.649.649 0 01-.653-.645V9.1a.762.762 0 00-.766-.758.762.762 0 00-.766.758v7.472a2.037 2.037 0 01-2.048 2.026 2.037 2.037 0 01-2.048-2.026v-12.5a.785.785 0 00-.788-.753.785.785 0 00-.789.752l-.001 15.904A2.037 2.037 0 0113.441 22a2.037 2.037 0 01-2.048-2.026V18.04c0-.356.292-.645.652-.645.36 0 .652.289.652.645v1.934c0 .263.142.506.372.638.23.131.514.131.744 0a.734.734 0 00.372-.638V4.07c0-1.143.937-2.07 2.093-2.07zm-5.674 0c1.156 0 2.093.927 2.093 2.07v11.523a.648.648 0 01-.652.645.648.648 0 01-.652-.645V4.07a.785.785 0 00-.789-.78.785.785 0 00-.789.78v14.013a2.06 2.06 0 01-2.07 2.048 2.06 2.06 0 01-2.071-2.048V9.1a.762.762 0 00-.766-.758.762.762 0 00-.766.758v3.8a2.06 2.06 0 01-2.071 2.049A2.06 2.06 0 010 12.9v-1.378c0-.357.292-.646.652-.646.36 0 .653.29.653.646V12.9c0 .418.343.757.766.757s.766-.339.766-.757V9.099a2.06 2.06 0 012.07-2.048 2.06 2.06 0 012.071 2.048v8.984c0 .419.343.758.767.758.423 0 .766-.339.766-.758V4.07c0-1.143.937-2.07 2.093-2.07z"/>
<path transform="translate(30 0)" d="M2 22V2h4.23l4.41 6.828L14.93 2h3.988v20l-3.987-.06V9.25l-3.263 4.714H9.674L6.23 9.25V22H2zM26.471 2h-3.867v20h3.867V2zm3.565 0h4.049l7.492 12.387V2h3.988v20h-3.988L34.085 9.734V21.94h-4.049V2zm23.082 0h-4.109v20h4.109V2zm3.504 0v20h4.23V9.25l3.444 4.714h1.994l3.263-4.713V21.94l3.988.06V2h-3.988l-4.29 6.828L60.852 2h-4.23zm19.457 20l6.344-20h5.076l6.404 20h-4.471l-.89-3.021h-7.139L80.49 22h-4.411zm6.369-6.405h5.078l-2.505-8.338-2.573 8.338zM111.97 2h-4.774l-3.619 6.082L99.885 2h-4.592l5.961 9.985L95.294 22h4.591l3.698-6.113 3.613 6.053h4.774l-6.025-9.956L111.97 2z"/>
</g>
</svg>
