<svg height="2500" viewBox="0 0 264.583 310.913" width="2127" xmlns="http://www.w3.org/2000/svg"><defs><mask id="miniso-cutout"><rect width="264.583" height="310.913" fill="#ffffff"/><path fill="#000000" transform="scale(2.74466)" d="m64.72 74.08c0 1.76-1.44 3.2-3.2 3.2s-3.12-1.44-3.12-3.2 1.36-3.2 3.12-3.2 3.2 1.44 3.2 3.2zm20.64 1.52h-12.88v-4.08h12.88zm.32 7.28c-.08-.08-.08-.16-.08-.24v-.16h-3.84v.32c.08.16.08.32.08.48 0 5.68-4.4 10.24-9.84 10.24-5.36 0-9.76-4.56-9.76-10.24v-.64l.08-.16h-3.92v.8c0 7.84 6.08 14.32 13.6 14.32s13.68-6.48 13.68-14.32zm-42.48-23.52h4.8v-26.8h-4.8zm31.44 0v-26.8h-4.72v18.16l-11.28-18.16h-4.72v26.8h4.72v-18.16l11.2 18.16zm5.92 0h4.72v-26.8h-4.72zm-59.28 22.16c-4.16-1.28-5.44-2.08-5.44-3.6 0-1.76 1.68-2.8 4.24-2.8h.16c1.84 0 4.08.8 4.64 2.56l4-1.52c-.88-3.68-5.04-5.52-8.64-5.52-6.32 0-9.12 3.76-9.12 7.44 0 3.76 2.4 6.08 8.4 7.84 4.4 1.36 5.84 2.08 5.84 3.92 0 1.92-2 3.2-5.04 3.2-2.88 0-5.12-1.28-5.76-3.2l-4.16 1.52c.88 3.6 5.28 6.24 10.4 6.24 6.96 0 9.36-4.08 9.36-8 0-4.88-4-6.56-8.88-8.08zm27.12 6.48c0 .72-.16 1.44-.48 2.08-.24.64-.64 1.2-1.12 1.68s-1.04.88-1.76 1.12c-.64.32-1.28.4-2 .4s-1.44-.08-2.08-.4c-.64-.24-1.28-.64-1.76-1.12s-.8-1.04-1.12-1.68a6.01 6.01 0 0 1 -.4-2.08v-7.84c0-.72.16-1.36.4-2 .32-.64.64-1.2 1.12-1.68.48-.56 1.12-.88 1.76-1.2a5.96 5.96 0 0 1 4.08 0c.72.32 1.28.64 1.76 1.2.48.48.88 1.04 1.12 1.68.32.64.48 1.28.48 2zm3.92 3.36c.56-1.2.8-2.48.8-3.92v-6.72c0-1.36-.24-2.64-.8-3.92-.56-1.2-1.28-2.32-2.16-3.2-.96-.88-2-1.6-3.2-2.16-1.28-.56-2.56-.8-3.92-.8s-2.72.24-3.92.8c-1.28.56-2.32 1.28-3.2 2.16-.96.88-1.68 2-2.24 3.2-.48 1.28-.8 2.56-.8 3.92v6.8c0 1.36.32 2.72.8 3.92.56 1.2 1.28 2.32 2.24 3.2.88.88 1.92 1.6 3.2 2.16 1.2.56 2.56.8 3.92.8s2.64-.32 3.92-.8c1.2-.56 2.24-1.28 3.2-2.16.88-.96 1.6-2 2.16-3.28zm-15.04-32v-26.8h-4.4l-8.72 15.04-8.56-15.04h-4.56v26.8h4.8v-16.88l6.96 12.16h2.8l6.96-12.16v16.88z"/></mask></defs><path fill="#000000" mask="url(#miniso-cutout)" d="m97.929 0-18.883 18.005v28.325h-79.046v264.583h264.583v-264.584h-79.265v-28.324l-18.005-18.005zm0 18.005h69.384v28.325h-69.383z"/></svg>