<svg height="453" viewBox="-109.59802083 -18.35 392.48102083 89.61032074" width="2500" xmlns="http://www.w3.org/2000/svg"><path d="m133.966 47.92h-5.909v-28.333h2.513c.878 0 1.757.029 2.632-.013.494-.024.76.14 1.005.576 2.646 4.694 5.315 9.375 7.98 14.059.122.213.259.418.505.598v-.673c0-4.601.008-9.203-.013-13.804-.003-.574.132-.778.742-.762 1.684.042 3.37.014 5.166.014v28.338c-.114.008-.298.034-.483.034-1.776.003-3.553-.012-5.328.012-.421.005-.64-.129-.844-.5-2.445-4.438-4.91-8.865-7.37-13.295-.174-.311-.355-.618-.596-1.037v14.785z" fill="#000000"/><path d="m81.854 22.183c-.859-.253-1.608-.17-2.4.036-1.801.47-3.405-.095-4.86-1.159-.141-.102-.186-.328-.297-.48-.345-.475-.633-1.02-1.068-1.393-.558-.479-.773-1.025-.812-1.725-.105-1.854-.33-3.706-.343-5.56-.012-1.57.123-3.154.364-4.705.1-.643.565-1.283 1.001-1.81.852-1.028 2.537-.625 2.962.705.43 1.351.281 2.693.19 4.063-.091 1.353-.19 2.748.035 4.07.524 3.098 2.339 4.002 5.3 3.844.904-.048 1.8-.322 2.692-.532 2.038-.482 4.056-.377 6.103.012.833.159 1.764.11 2.594-.086 1.26-.296 2.507-.503 3.802-.457 2.014.072 3.703-1.537 3.674-3.57-.012-.839-.227-1.676-.363-2.511-.085-.525-.265-1.045-.279-1.57-.037-1.388-.712-2.573-1.567-3.474-.906-.955-2.23-1.454-3.645-1.495-2.03-.06-4.06-.151-6.089-.255-1.194-.061-2.39-.289-3.576-.228-.98.05-1.982.313-2.904.665-1.112.423-2.195.823-3.408.754-1.156-.066-2.007-.57-2.185-1.334-.257-1.101.194-2.084 1.327-2.63.564-.271 1.203-.412 1.823-.536 1.505-.299 3.008-.682 4.529-.789 1.544-.108 3.109.077 4.664.133 1.297.046 2.599.18 3.89.115 1.723-.089 3.364.058 4.918.868.287.15.658.185.991.192 1.661.033 3.064.876 3.83 2.13.752 1.235 1.77 2.515 1.582 4.215-.068.615.27 1.279.44 1.915.125.472.391.934.397 1.403.021 1.9.09 3.813-.097 5.697-.164 1.658-1.317 2.783-2.712 3.612-1.44.855-2.986 1.17-4.676.99-.831-.088-1.703.06-2.54.203a5.507 5.507 0 0 1 -2.208-.052 4.333 4.333 0 0 0 -1.996.056c-.758.202-1.449.29-2.184-.017-.248-.104-.538-.114-.81-.157-.553-.085-.852.12-1.004.696-.286 1.087-.97 1.921-1.82 2.651-.478.41-.844.948-1.284 1.406-.26.271-.55.525-.859.739-.33.229-.782.329-1.04.613-1.328 1.467-3.26 1.926-4.857 2.94-.567.36-1.398.303-2.11.436-.25.048-.532.037-.748.15-1.323.69-2.737 1.053-4.208 1.18-.774.066-1.581.133-2.333-.011-1.143-.22-1.76-1.188-1.695-2.35.061-1.087.835-1.598 1.717-1.82a6.484 6.484 0 0 1 2.4-.112c1.43.194 2.748.13 3.98-.736.382-.27.915-.32 1.374-.485.536-.192 1.09-.354 1.597-.608a62.67 62.67 0 0 0 2.91-1.572c.888-.504 1.432-1.309 1.89-2.27" fill="#000000"/><path d="m216.426 41.272v6.408h-18.234v-28.352h17.662v5.798h-11.316v4.727h11.015v5.857h-10.993v5.562z" fill="#000000"/><path d="m90.412 26.312c-.257-.407-.513-.686-.625-1.015-.399-1.174.08-2.208 1.299-2.485.981-.223 2.024-.23 3.04-.23.563 0 1.123.248 1.693.309.584.061 1.179.022 1.769.042.421.014.843.042 1.263.085.21.022.429.16.623.127 1.114-.188 1.865.55 2.763.972 1.606.757 2.965 1.755 4.213 3.032.89.91 1.742 1.738 2.168 2.98.334.975 1.042 1.816 1.04 2.923-.001.175.116.373.228.522.345.46.338.908.153 1.444-.123.36-.032.791-.047 1.19-.023.627-.02 1.257-.095 1.878-.069.568-.283 1.12-.334 1.687-.18 1.961-1.25 3.357-2.753 4.498-.169.127-.394.23-.486.401-.95 1.772-2.7 2.621-4.229 3.737-1.642 1.2-3.609 1.608-5.42 2.394-1.669.726-3.17.334-4.722-.133-.295-.089-.56-.377-.766-.632a6.688 6.688 0 0 1 -.806-1.22c-.515-1.044-1.102-2.073-1.44-3.176-.376-1.23.563-2.001 1.788-1.568.396.14.808.335 1.112.615.87.8 1.924.983 2.991.798 1.382-.24 2.828-.46 4.074-1.053 1.69-.805 3.27-1.848 4.435-3.446.91-1.25 1.878-2.43 2.29-3.959.716-2.664.062-4.66-2.07-6.702a1.255 1.255 0 0 0 -.865-.312c-.85.069-1.71.166-2.532.377-.642.165-.85-.103-1.016-.618-.248-.772-.53-1.534-.791-2.302-.147-.43-.453-.582-.887-.703-1.232-.342-2.418.154-3.629.115-.098-.003-.211.116-.3.196-1.372 1.238-2.736 2.483-4.111 3.716-.522.468-1.07.908-1.604 1.363-.244.208-.47.44-.727.63-1.544 1.14-3.097 2.267-4.643 3.404-.205.151-.393.326-.582.497-.206.186-.374.444-.612.561-2.308 1.133-4.27 2.937-6.812 3.602-1.201.315-2.36.642-3.419 1.341-.783.517-1.743.558-2.674.447-1.145-.136-2.09-1.058-2.246-2.153-.12-.846.652-2.01 1.69-2.414.51-.198 1.078-.241 1.613-.378 1.067-.274 2.132-.554 3.193-.848.7-.194 1.4-.39 2.084-.63a14.86 14.86 0 0 0 3.783-1.971c1.817-1.301 3.802-2.365 5.678-3.587 1.268-.825 2.471-1.75 3.705-2.63.225-.16.456-.311.686-.466z" fill="#000000"/><path d="m160.984 38.163v4.69h11.02v4.989h-17.357v-22.838h16.793v4.528h-10.442v4.067h10.012v4.564zm110.966-.421v4.527h10.915v5.067h-16.835v-22.796h16.853v4.485h-10.988v4.117h10v4.6zm-28.057 2.165c1.835-.055 3.585-.117 5.336-.145.142-.003.359.2.42.355.238.594.43 1.206.634 1.814.184.55.548.967 1.114 1.039 1.05.132 2.115.271 3.165.225.9-.04 1.543-.622 1.717-1.558.177-.952-.045-1.82-.862-2.39-.5-.348-1.084-.607-1.665-.8-1.276-.424-2.584-.754-3.861-1.176-.788-.26-1.587-.542-2.305-.949-2.781-1.576-3.846-4.747-2.763-7.946.56-1.655 1.54-2.827 3.233-3.466 3.12-1.177 6.243-1.52 9.358-.15 2.644 1.162 3.872 3.408 4.366 6.187-.173.042-.29.095-.407.096-1.69.006-3.381.018-5.07-.01-.204-.003-.47-.18-.59-.357-.4-.58-.746-1.198-1.112-1.801-.504-.832-1.596-1.26-2.622-1.028-1.012.228-1.786 1.04-1.784 2.072 0 .404.253.956.573 1.177.546.378 1.216.622 1.868.791a29.559 29.559 0 0 1 6.899 2.717c1.555.855 2.503 2.083 2.764 3.844.289 1.942.234 3.839-.679 5.633-.943 1.854-2.446 3.056-4.465 3.434-2.295.43-4.639.623-6.953.152-3.177-.647-6.14-2.936-6.307-6.987-.01-.233-.002-.466-.002-.773m-50.357-15.029c0 1.75 0 3.458-.002 5.167 0 .08-.026.161-.05.302h-6.354v17.413h-6.42v-17.4h-6.4v-5.482z" fill="#000000"/><g fill="#000000"><path d="m72.16 51.3c-1.13.017-1.918-.016-2.572-.57-1.5-1.272-1.353-3.044.316-4.176.802-.543 1.738-.532 2.619-.763 1.084-.284 2.133-.701 3.2-1.05.688-.226 1.398-.391 2.07-.656 1.547-.61 3.01-1.322 4.358-2.375 1.81-1.414 3.833-2.552 5.754-3.825 1.159-.767 2.328-1.523 3.437-2.358 1.375-1.036 2.697-2.143 4.034-3.23.868-.706 1.813-.89 2.54-.468.58.338.835.9.589 1.524-.152.385-.386.78-.687 1.056-1.145 1.05-2.336 2.05-3.503 3.078-1.022.9-1.96 1.917-3.072 2.684-.996.687-1.691 1.418-1.758 2.666-.007.144-.323.389-.494.387-1.4-.014-2.574.349-3.469 1.542-.32.427-.957.615-1.447.914-.545.333-1.126.62-1.624 1.013-1.829 1.443-3.92 2.3-6.145 2.901-.502.136-.986.397-1.427.68-.936.603-1.907 1.057-2.72 1.026m7.679-39.958c-.009-1.634 1.131-2.488 2.743-2.209a6.82 6.82 0 0 0 2.46-.046c1.7-.344 3.365-.413 5.084-.091.875.163 1.819.043 2.722-.043 1.06-.1 2.064-.154 2.766.853.51.731.55 1.6.098 2.286-.416.632-1.214.998-2.036.733-1.47-.475-2.889-.362-4.342.05-.45.128-.998.134-1.444.001-1.588-.472-3.123-.223-4.68.135a5.619 5.619 0 0 1 -1.828.124c-.996-.107-1.538-.803-1.543-1.793m-79.838 33.906c.376-1.594.78-3.419 1.254-5.225.108-.412.473-.753.702-1.136.335-.562.655-1.134.983-1.701.222-.384.403-.803.682-1.141.357-.433.88-.548 1.4-.353.53.198.893.609.933 1.196.026.378-.052.763-.078 1.144-.057.85-.25 1.72-.133 2.544.16 1.127-.173 2.035-.703 2.974a18.085 18.085 0 0 0 -1.248 2.708c-.494 1.362-1.692 1.964-2.868 1.339-.62-.33-.93-1.039-.924-2.349m12.608-5.378c.056.528.034 1.08.181 1.583.431 1.47-.237 2.816-.39 4.218-.08.75-.453 1.323-1.057 1.75-.573.406-.989.332-1.438-.207-.849-1.02-1.014-2.25-1.208-3.507-.294-1.9.007-3.748.285-5.604.099-.665.939-1.412 1.53-1.434.894-.033 1.821.603 1.982 1.417.115.582.15 1.18.22 1.771l-.105.012m31.008-.307c.005.913-.378 1.538-1.262 1.77-.648.17-1.342.173-2.017.227-.867.07-1.734.136-2.602.165-.695.023-1.404.063-2.085-.04-.6-.09-.93-.59-1.01-1.185a2.1 2.1 0 0 1 1.647-2.334c.98-.2 1.974-.326 2.96-.503.397-.071.79-.172 1.178-.29 1.551-.47 3.182.644 3.19 2.19m-26.645-5.041c.737-.006 1.33.25 1.717.91.926 1.586 1.104 3.324 1.023 5.108-.011.241-.137.493-.26.711-.583 1.034-1.11 1.09-2.037.376-1.702-1.313-2.136-3.172-2.268-5.146-.07-1.04.855-1.953 1.826-1.959"/><path d="m50.842 43.603a13.5 13.5 0 0 1 -.29-1.445c-.273-2.096-.341-4.234-1.08-6.239-.525-1.423-.624-2.845-.507-4.345.096-1.224-.064-2.467-.09-3.701-.015-.74.012-1.481.014-2.222 0-.529-.027-1.058-.011-1.586.017-.563.057-1.127.11-1.688.066-.699.19-1.393.225-2.093.051-1.002.025-2.008.072-3.011.023-.51.255-1.032.185-1.519-.202-1.428.131-2.684.961-3.835.073-.102.12-.226.164-.346.655-1.792-.08-3.852-1.687-4.887-.454-.292-.808-.736-1.226-1.09-.321-.272-.64-.665-1.014-.737-1.117-.22-2.223-.49-3.326-.73-1.444-.317-3.01-.074-4.522-.078-.635-.002-1.287.064-1.902-.054-.83-.16-1.605-.118-2.387.183-.273.105-.573.145-.864.197-.413.074-.829.14-1.245.194-.561.072-1.123.15-1.687.187-.8.054-1.603.088-2.406.105-.783.017-1.597.137-2.343-.031-1.15-.26-1.979-.125-2.635.862-.459.689-.827 1.447-1.159 2.207-1.047 2.402-.96 4.863.22 7.124.786 1.507 1.168 3.006 1.19 4.648.023 1.668.048 3.337.01 5.004-.04 1.736-.083 3.478-.265 5.203-.093.874-.559 1.702-.746 2.574-.307 1.433-.423 2.912-.805 4.322-.51 1.886-1.11 3.757-2.385 5.323-.326.4-.543.917-.712 1.413-.538 1.577.388 3.086 2.02 3.326.242.035.52.012.75-.071.938-.34 1.778-.906 2.136-1.83.592-1.528 1.073-3.107 1.495-4.693.299-1.126.43-2.297.623-3.45.26-1.552.51-3.105.773-4.712.356.14.697.334 1.062.407.797.16 1.207.59 1.213 1.404.002.277-.014.56-.063.831-.251 1.372-.13 2.73.156 4.076.313 1.47 1.225 2.3 2.709 2.526.584.089 1.108-.235 1.487-.897.305-.533.356-.99-.112-1.509-.279-.31-.452-.785-.512-1.209-.16-1.122-.21-2.248.149-3.364.14-.439.115-.928.207-1.386.04-.197.142-.47.294-.541 1.185-.562 2.324-1.305 3.742-1.068.182.031.386-.008.57-.055 1.09-.276 2.158-.196 3.227.124.857.257 1.728.304 2.587-.005 1.24-.447 1.62-1.863.766-2.874-.586-.692-1.356-1.01-2.255-1.045a274.358 274.358 0 0 1 -3.204-.136c-.555-.028-1.438-.85-1.416-1.287.031-.616.11-1.236.062-1.846-.044-.562.177-.852.675-.981 1.454-.378 2.92-.585 4.435-.453 1.355.118 2.098 1.136 3.018 1.904.061.051.115.144.121.221.087 1.146.237 2.294.23 3.44-.015 2.046-.159 4.092-.184 6.138-.017 1.405.08 2.812.115 4.218.018.682-.027 1.367.023 2.045.102 1.386.208 2.775.395 4.151.093.681.256 1.402.589 1.99.785 1.39 2.99 1.415 3.68.045.52-1.03.873-2.143.58-3.343m-19.012-15.723c-1.256.132-2.573-.178-3.772.434-.413.21-.82.43-1.346.708.01-.235-.004-.42.03-.595.173-.898.34-1.797.544-2.689.193-.851 1.174-1.602 2.018-1.713a8.422 8.422 0 0 0 1.906-.48c1.059-.407 2.306.36 2.32 1.474.005.318.032.64.09.952.223 1.184-.414 1.764-1.79 1.909m14.097-14.053c-.087 1.492-.165 2.984-.265 4.475-.037.548-.605 1.114-1.149 1.097-1.11-.034-2.224-.08-3.324-.224-.23-.03-.587-.508-.572-.76.064-1.065.291-2.065.99-2.98.967-1.262 1.247-2.754.766-4.315-.42-1.36-1.325-1.645-2.504-.857-.862.577-1.19 1.365-1.41 2.38-.28 1.307-.422 2.557-.346 3.9.042.732-.526 1.542-.943 2.242-.298.502-.845.697-1.494.687-.557-.009-1.118.196-1.677.31-.125.026-.246.09-.37.096-1.165.056-2.33.106-3.494.151-.444.018-.889.02-1.333.029-.127.002-.29.056-.374-.003-1.202-.849-2.495-1.616-2.543-3.363a25.758 25.758 0 0 0 -.274-3.059c-.13-.88.17-1.63.466-2.414.72-1.906 2.374-2.293 4.096-2.606.56-.102 1.15-.17 1.663-.395 1.567-.688 3.162-.865 4.824-.473.996.235 1.983.252 2.983-.011.36-.095.773-.121 1.137-.05 2.53.487 5.472 2.778 5.147 6.143m-29.064 1.62c.48-.343 1.036-.602 1.592-.808.788-.293 1.182-.867 1.212-1.644.031-.79-.064-1.584-.122-2.375-.01-.14-.1-.283-.177-.41-.638-1.051-1.543-1.69-2.793-1.802-.275-.024-.547-.09-.818-.146-.899-.185-1.61.36-2.393.62-.065.022-.116.125-.15.2-.267.6-.358.985.397 1.433.911.541.957.934.42 1.76-.17.265-.256.584-.407.865-.17.315-.36.621-.561.918-.19.277-.418.528-.607.805-.552.81-1.522.978-2.27 1.486-.041.028-.125.003-.188-.01-1.408-.269-2.573-.923-3.354-2.157-.133-.21-.294-.486-.26-.703.194-1.236.467-2.445 1.176-3.524.543-.825.978-1.72 1.495-2.564.248-.405.502-.953.883-1.099.667-.256 1.275-.822 2.093-.62.12.03.275-.098.418-.137.343-.093.684-.228 1.033-.254 1.006-.072 1.784-.805 1.768-1.719-.023-1.378-1.504-2.654-3.029-2.645a7.215 7.215 0 0 1 -1.453-.147c-.976-.197-1.902.151-2.56.682-.817.658-1.388 1.637-2.01 2.516-.57.81-1.105 1.651-1.59 2.515a83.978 83.978 0 0 0 -1.996 3.795c-.184.372-.142.864-.35 1.216-.63 1.07-.688 2.071.128 3.063a.773.773 0 0 1 .174.336c.193 1.126 1.065 1.72 1.924 2.197 1.431.795 1.906 2.28 1.094 3.725-.285.507-.387 1.115-.608 1.663-.13.325-.26.704-.51.921-1.553 1.346-2.456 2.922-1.988 5.056.054.247.006.515.05.766.401 2.29 1.625 4.031 4.14 4.095.761.02 1.518.332 2.27.537.404.11.792.277 1.051.37.757-.116 1.343-.251 1.936-.288 1.34-.082 2.448-.552 3.395-1.554.8-.847 1.676-1.684 2.668-2.276 1.29-.77 1.669-2.543 1.374-3.639-.194-.718-.31-1.458-.449-2.19-.218-1.155-.387-2.32-1.307-3.198-.206-.197-.293-.516-.444-.774-.107-.182-.19-.43-.353-.517-.737-.389-.897-1.011-1.001-1.788-.15-1.108.197-1.938 1.057-2.552m-1.376 9.812c-.07.95-.301 1.89-.47 2.833a.617.617 0 0 1 -.149.278c-.819.93-1.816 1.468-3.09 1.384-.044-.005-.09-.023-.128-.01-1.141.382-2.196-.177-3.29-.3-1.113-.126-2.18-1.185-2.2-2.296-.005-.34.214-.743.447-1.016.429-.5.73-1.014.877-1.672.09-.398.384-.823.71-1.079.687-.54 1.288-1.117 1.621-1.94.055-.136.126-.324.238-.369.683-.276 1.365-.663 2.076-.732.738-.072 1.408.276 1.86 1.005.756 1.218 1.611 2.397 1.498 3.914"/></g><path d="m242.546 47.182c-2.522-7.358-5.05-14.714-7.562-22.074-.134-.392-.359-.452-.714-.45-1.948.014-3.896.024-5.843 0-.462-.006-.669.136-.815.58-2.393 7.22-4.803 14.433-7.208 21.648-.077.23-.13.468-.212.768 2.113 0 4.124.01 6.133-.021.151-.003.383-.288.432-.479.235-.91.447-1.827.61-2.752.073-.405.24-.526.63-.523 2.268.012 4.537.012 6.806 0 .391-.002.562.107.605.531.1.995.262 1.983.404 3.007h6.736c0-.11.017-.178-.002-.235m-13.26-8.387 1.741-7.407.13.012 2.194 7.395z" fill="#000000"/><path d="m29.873 13.247c-.011-.875.587-1.836 1.101-1.983.787-.226 1.886.074 2.199.775.4.897.639 1.87.915 2.818.1.344.168.717.148 1.072-.028.52-.054 1.073-.247 1.543-.415 1.005-1 1.042-1.887.424-1.721-1.2-2.042-2.987-2.229-4.649" fill="#000000"/></svg>