<?xml version="1.0" encoding="UTF-8"?>
<svg xmlns="http://www.w3.org/2000/svg" version="1.1" viewBox="0 0 144 28">
  <rect fill="#000000" x="138.06364" y="5.95997" width="5.93637" height="16.03085"/>
  <polygon fill="#000000" points="128.43102 21.99082 122.26057 16.12233 122.26057 21.99082 116.31824 21.99082 116.31824 5.95997 122.26057 5.95997 122.26057 11.65301 128.89495 5.95997 136.67496 5.95997 127.53718 13.76804 136.39792 21.99082 128.43102 21.99082"/>
  <path fill="#000000" d="M105.0573,22.60581c-8.16994,0-9.15016-3.41103-9.17666-5.97666-.01442-1.42581-.03136-4.05855-.03136-4.8569v-5.81564h5.68442v9.26336c0,2.35523,1.08684,3.40538,3.5236,3.40538,2.43723,0,3.52407-1.05015,3.52407-3.40538V5.9566h5.68473v5.81564c0,.78424-.01709,3.41698-.03167,4.8569-.0265,2.56564-1.00688,5.97666-9.17713,5.97666Z"/>
  <polygon fill="#000000" points="75.20953 21.99082 75.20953 18.67261 84.61007 9.89199 75.52169 9.89199 75.52169 5.95997 93.86465 5.95997 93.86465 9.28084 84.33491 18.04107 93.83439 18.04107 93.83439 21.99082 75.20953 21.99082"/>
  <path fill="#000000" d="M64.32688,22.60581c-8.17103,0-9.15079-3.41103-9.17697-5.97666-.01442-1.4186-.0312-4.05134-.0312-4.8569v-5.81564h5.68426v9.26336c0,2.35523,1.08684,3.40538,3.52391,3.40538s3.52391-1.05015,3.52391-3.40538V5.9566h5.6841v5.81564c0,.80556-.01678,3.43831-.0312,4.8569-.02618,2.56564-1.00594,5.97666-9.17681,5.97666Z"/>
  <path fill="#000000" d="M44.1849,22.37948c-8.50075,0-9.99006-2.60452-10.27259-5.44641h7.19144c.65238,1.89805,2.57316,1.89805,3.20909,1.89805.76919,0,2.54024-.13295,2.54024-1.36654,0-1.08025-1.20552-1.19659-3.03035-1.37219-.23831-.02289-.4887-.04704-.74991-.07463-5.84841-.61334-8.81777-1.59231-8.81777-5.24197,0-1.59012.87267-5.28885,8.9559-5.28885l.07322.00016c6.18221.0174,9.75127,1.9479,9.81446,5.30123h-6.60914c-.44653-1.58918-2.20911-1.82906-3.22962-1.82906-.39447,0-1.72668.04798-2.30616.66728-.19927.21291-.29021.47161-.27045.76919.05346.87298,1.711,1.06112,3.80942,1.29944.43147.04892.88208.10003,1.3413.15961,5.25608.6723,7.8109,2.3891,7.8109,5.24855,0,1.23139-.67308,5.25137-9.33517,5.27615h-.1248Z"/>
  <path fill="#000000" d="M10.79075,6.13983l5.87702,3.94919c1.21775.8183,2.46441,1.61765,4.61253,1.61765,3.34385,0,6.32211-2.43131,6.32211-2.43131L13.79921,0s-1.50625,1.65691-6.23338,4.60268C2.6025,7.69576,0,8.59394,0,8.59394l17.81493,11.98074-1.17115.76751-5.7152-3.84043c-1.21178-.81428-2.46323-1.61685-4.61157-1.61685C2.9733,15.88491.00127,18.32277.00127,18.32277l13.80398,9.27589s1.50647-1.65698,6.2336-4.60274c4.96319-3.09301,7.56591-3.99126,7.56591-3.99126L9.62103,6.90833l1.16972-.7685Z"/>
</svg>
