<svg xmlns="http://www.w3.org/2000/svg" width="64" height="24" viewBox="0 0 64 24" fill="none">
    <path d="M22.2453 9.64287C21.8368 9.32372 21.3708 9.0652 20.8569 8.87371C20.241 8.64391 19.5388 8.52902 18.7664 8.52902C17.726 8.52902 16.7494 8.79711 15.8654 9.32691C14.9813 9.85671 14.2664 10.6035 13.7398 11.5482C13.2132 12.4929 12.9451 13.6004 12.9451 14.8419C12.9451 16.0834 13.2132 17.1909 13.7398 18.1356C14.2664 19.0803 14.9813 19.8271 15.8654 20.3569C16.7494 20.8867 17.726 21.1548 18.7664 21.1548C19.5388 21.1548 20.241 21.0399 20.8569 20.8101C21.3739 20.6186 21.8399 20.3601 22.2453 20.041V20.8101H26.2379V8.88647H22.2453V9.65564V9.64287ZM21.8718 13.3323C22.1207 13.7568 22.2485 14.2642 22.2485 14.8387C22.2485 15.4132 22.1207 15.9239 21.8718 16.3579C21.6229 16.792 21.2878 17.1271 20.8793 17.3632C20.4708 17.5962 20.0176 17.7143 19.5325 17.7143C18.7729 17.7143 18.1313 17.4494 17.627 16.9228C17.1228 16.3962 16.8643 15.6941 16.8643 14.8387C16.8643 13.9834 17.1196 13.2812 17.627 12.7546C18.1313 12.228 18.7729 11.9631 19.5325 11.9631C20.0144 11.9631 20.4676 12.0844 20.8761 12.327C21.2878 12.5695 21.6197 12.9078 21.8718 13.3323Z" fill="#000000"/>
    <path d="M31.7145 3.79922H27.7219V20.7815H31.7145V3.79922Z" fill="#000000"/>
    <path d="M46.1498 8.57379H41.2923L37.4944 12.8218H37.1848V3.79922H33.1954V20.7815H37.1848V16.5814H37.6571L41.4359 20.7815H46.5743L40.8072 14.5388L46.1498 8.57379Z" fill="#000000"/>
    <path d="M48.6457 3.33325C47.9914 3.33325 47.4424 3.55985 47.0147 4.00348C46.5871 4.4471 46.3732 4.9769 46.3732 5.58649C46.3732 6.19608 46.5903 6.73864 47.0179 7.15993C47.4456 7.57802 47.9946 7.79186 48.6457 7.79186C49.2967 7.79186 49.8712 7.57802 50.2989 7.15993C50.7265 6.73864 50.9436 6.21204 50.9436 5.58649C50.9436 4.96095 50.7265 4.4471 50.302 4.00348C49.8744 3.55985 49.3159 3.33325 48.6457 3.33325Z" fill="#000000"/>
    <path d="M50.6404 8.57379H46.6477V20.8007H50.6404V8.57379Z" fill="#000000"/>
    <path d="M64.0002 14.8387C63.9842 13.5493 63.6938 12.4227 63.1321 11.4844C62.5736 10.5461 61.8267 9.81202 60.9108 9.30137C59.998 8.79072 58.9671 8.52902 57.8501 8.52902C56.733 8.52902 55.6383 8.79711 54.6841 9.32372C53.7298 9.85032 52.9607 10.5971 52.3926 11.5418C51.8245 12.4866 51.5372 13.5972 51.5372 14.8387C51.5372 16.0802 51.8245 17.1909 52.3926 18.1356C52.9607 19.0803 53.7298 19.8271 54.6841 20.3537C55.6351 20.8804 56.6948 21.1484 57.8246 21.1484C59.1746 21.1484 60.381 20.8389 61.4119 20.2229C62.4459 19.6069 63.2279 18.6622 63.7321 17.4175L63.7959 17.2611L60.2341 16.5334L60.1863 16.626C59.8959 17.1654 59.5352 17.5133 59.1139 17.6633C58.6735 17.8196 58.2427 17.8994 57.8278 17.8994C57.2469 17.8994 56.7394 17.7079 56.3213 17.3313C55.9351 16.9835 55.6575 16.5143 55.5011 15.927H64.0002V14.8355V14.8387ZM57.8532 11.8227C58.3639 11.8227 58.8235 11.9631 59.2224 12.2376C59.5767 12.4834 59.8416 12.8663 60.0075 13.3738H55.5873C55.7565 12.9078 56.0437 12.5376 56.4362 12.2727C56.883 11.9727 57.3586 11.8195 57.8532 11.8195V11.8227Z" fill="#000000"/>
    <path d="M7.75239 11.8036H12.0195V6.75779H7.75239V3.7673H4.90556L0.00012207 9.33976V11.8005H2.56613C2.56613 12.3717 2.56613 12.943 2.56613 13.5143V14.3026C2.56613 14.7048 2.56614 15.1069 2.56933 15.5059C2.56295 16.5208 2.697 17.5548 3.21403 18.4453C5.00448 21.5858 7.85135 21.2443 10.8833 20.5006C10.9918 20.4719 12.0195 20.2485 12.0195 20.1879V15.1803C12.0195 15.1803 10.7301 15.9559 9.7471 16.058C7.53537 16.2846 7.75239 14.4048 7.75239 13.0898V11.8036ZM4.86083 10.0004C4.36615 10.0004 3.96726 9.60147 3.96726 9.10678C3.96726 8.61209 4.36615 8.21314 4.86083 8.21314C5.35552 8.21314 5.75448 8.61209 5.75448 9.10678C5.75448 9.60147 5.35552 10.0004 4.86083 10.0004ZM7.51622 9.10678C7.51622 8.61209 7.91518 8.21314 8.40987 8.21314C8.90456 8.21314 9.30351 8.61209 9.30351 9.10678C9.30351 9.60147 8.90456 10.0004 8.40987 10.0004C7.91518 10.0004 7.51622 9.60147 7.51622 9.10678Z" fill="#000000"/>
</svg>
