<?xml version="1.0" encoding="UTF-8" standalone="no"?>
<svg xmlns="http://www.w3.org/2000/svg" width="156.03374mm" height="61.135216mm" viewBox="0 0 156.03374 61.135216" version="1.1">
<g transform="translate(-28.953472,-101.57222)">
<g transform="matrix(0.58827218,0,0,0.58827218,36.508843,85.143976)">
<g transform="matrix(19.785471,0,0,19.785471,-4400.5443,-87.62767)">
<g transform="matrix(0.35277776,0,0,-0.35277778,225.83202,7.2367779)"><path fill="#000000" d="m 0,0 h -11.532 l 2.006,3.958 H 1.927 Z"/></g>
<g transform="matrix(0.35277776,0,0,-0.35277778,230.47757,7.2367779)"><path fill="#000000" d="M 0,0 H 7.811 L 5.806,3.958 h -7.733 z"/></g>
<g transform="matrix(0.35277776,0,0,-0.35277778,231.44563,9.1649907)"><path fill="#000000" d="M 0,0 H 7.812 L 5.806,3.958 h -7.733 z"/></g>
<g transform="matrix(0.35277776,0,0,-0.35277778,232.41372,11.092851)"><path fill="#000000" d="M 0,0 H 7.812 L 5.806,3.958 h -7.732 z"/></g>
<g transform="matrix(0.35277776,0,0,-0.35277778,223.86782,11.092851)"><path fill="#000000" d="m 0,0 h -5.594 l 4.855,9.447 h 5.674 z"/></g>
<g transform="matrix(0.35277776,0,0,-0.35277778,226.43717,11.092851)"><path fill="#000000" d="M 0,0 H -5.752 L 1.847,14.889 4.935,9.447 Z"/></g>
<g transform="matrix(0.35277776,0,0,-0.35277778,229.92808,11.092851)"><path fill="#000000" d="m 0,0 h 5.753 l -7.6,14.889 -3.087,-5.442 z"/></g>
</g>
</g>
</g>
</svg>
