<svg xmlns="http://www.w3.org/2000/svg" version="1.2" viewBox="0 0 1592 585" width="1592" height="585">
<g fill="#000000">
<path d="m228.1 0.1q211.3 0 422.6 0c-4.7 9.3-9.4 18.7-14 27.9q-4.7 9.5-9.5 19-8 16.1-16.1 32.2-4.7 9.5-9.4 18.9c-5.4 10.6-10.6 21.2-15.8 31.7-2.2 3.5-5.6 6-8.3 8.9-105.3 105.3-210.6 210.6-315.8 315.9 118.8 0.1 237.5-0.1 356.3 0.1-4.8 10.6-10.2 20.9-15.3 31.2-3.3 6.5-6.5 13-9.7 19.4q-8 15.9-15.9 31.8c-3.2 6.3-6.3 12.7-9.5 18.9-5.1 9.5-9.6 19.3-14.7 28.8q-276.2 0-552.3 0c21.4-43 42.6-86.1 64.2-128.9 1.2-2.1 3.1-3.7 4.7-5.4 32.5-32.2 64.5-65 97.3-96.9 74.3-74.1 148.2-148.6 222.8-222.4-75.3-0.1-150.6 0-225.9-0.1 21.1-43.8 42.9-87.3 64.3-131z"/>
<path d="m650.7 0.1c183.9 0.1 367.8 0 551.7 0.1-4.5 9.3-9.2 18.6-13.9 27.9-183.9 0-367.9 0-551.8-0.1 4.6-9.2 9.3-18.6 14-27.9zm688.1 1.9c32.6-3 65.6-2.5 97.9 3.1 23.4 4.1 46.5 11.4 67.4 22.9-89.5 0.1-179.1 0.2-268.6 0 32.7-14.3 67.9-22.5 103.3-26zm-727.7 77.2q8.1-16.1 16.1-32.2c184 0 368-0.1 552 0-2.9 6-5.9 11.9-8.8 17.8 9.1-6.2 18.1-13.2 28.1-17.7 111-0.3 222-0.1 333-0.1 10.9 9.4 20.7 20.1 28.6 32.2-316.3 0-632.6 0-949 0zm-25.2 50.6c5.2-10.5 10.4-21.1 15.8-31.7 323.1-0.1 646.3 0 969.5 0 5.2 10.1 9.1 20.8 12.3 31.8-332.5 0-665.1 0-997.6-0.1zm185.2 19c65 0 130-0.1 194.9 0-5.3 10.8-10.7 21.5-16 32.2-65 0-129.9 0-194.9 0 5.2-10.8 10.7-21.5 16-32.2zm316.3 0c61.6-0.1 123.2 0 184.9 0-14.3 8.3-26.4 19.8-37.2 32.2-56.1 0-112.1 0-168.2 0 6.3-11.1 13.2-21.8 20.5-32.2zm314.3 0c62.1 0 124.2 0 186.2-0.1 1.9 10.7 2.9 21.5 3.7 32.3q-83.3 0-166.7 0c-3.3-13.3-12.4-24.2-23.2-32.2zm-656.1 51.1q97.4 0 194.9 0c-5.3 10.6-10.6 21.2-15.8 31.8-65.1 0-130.2 0-195.2 0 5.4-10.6 10.8-21.1 16.1-31.8zm311.1 0c54.6 0 109.2 0 163.8 0-6.8 10.1-12.8 20.8-18.2 31.8-53.4 0-106.7-0.1-160.1 0q6.6-16.2 14.5-31.8zm371.6 0c54.4 0 108.9 0 163.3 0-0.1 10.6-1 21.3-2.3 31.8-53.4 0-106.8 0-160.1 0 1-10.6-0.2-21.2-0.9-31.8zm-393.5 50.7c53 0 106-0.1 159 0-4.1 10.6-7.8 21.3-11.1 32.2q-79.1 0-158.1 0c3-10.9 6.6-21.5 10.2-32.2zm-314.8 0c65 0 130.1-0.1 195.1 0.1-5.3 10.7-10.7 21.4-16 32.1-65.1 0-130.1 0.1-195.1-0.1 5.3-10.7 10.7-21.4 16-32.1zm707.7 0c52.9 0 105.9 0 158.8 0-1.7 10.8-4.1 21.5-6.6 32.2-52.7 0-105.4 0-158.2 0 2.2-10.7 4.5-21.4 6-32.2zm-733.3 51.1c65.1 0 130.1 0 195.2 0-5.2 10.6-10.6 21.2-15.9 31.8-65 0-130.1 0-195.1 0 5.3-10.6 10.5-21.2 15.8-31.8zm325 0c52.8 0 105.5 0 158.3 0-2.6 10.5-4.7 21.1-6.3 31.8q-79.3 0-158.7 0c1.8-10.7 4.2-21.3 6.7-31.8zm397.2 0c52.7 0 105.5 0.1 158.2 0-2.9 10.7-6.5 21.3-10.2 31.8-52.9 0-105.8 0-158.7 0 3.9-10.5 7.6-21 10.7-31.8zm-763.4 82.5c5.3-10.6 10.6-21.2 15.9-31.8 65.1 0 130.1 0 195.2 0-5.3 10.6-10.6 21.2-15.9 31.8q-97.6 0-195.2 0zm356.6-31.8c53.2 0 106.4 0 159.6 0 0 10.6-0.2 21.3 1.2 31.8-54.4 0-108.7 0-163.1 0 0.1-10.7 1.2-21.2 2.3-31.8zm370.1 31.8c6.6-10.2 12.5-20.8 17.8-31.8 53.2 0 106.5 0 159.7 0-4.4 10.8-9.1 21.4-14.4 31.8-54.4 0-108.7 0-163.1 0zm-736.6 19.3c65.2 0 130.3 0 195.4 0q-7.9 15.9-15.8 31.8c-65.2 0-130.2 0-195.3 0 5.1-10.7 10.5-21.2 15.7-31.8zm364.1 0.1c55.7-0.1 111.4 0 167.1-0.1 3.5 12 9.7 23.4 19.2 31.8q-91.4 0-182.7 0c-2-10.5-2.8-21.1-3.6-31.7zm358.4-0.1c55.6 0.1 111.2 0 166.8 0-6.4 10.9-13.1 21.5-20.3 31.8q-91.8 0-183.6 0c14.1-8.4 26.4-19.4 37.1-31.8zm-747.7 51.2l0.2-0.6c65.1 0.2 130.1 0 195.1 0.1-5.3 10.6-10.6 21.2-15.9 31.8-64.9-0.1-129.8 0.1-194.7-0.1 5.1-10.3 10.5-20.6 15.3-31.2zm397.1-0.4c160.9-0.1 321.8 0 482.7-0.1-9 11.2-18.6 21.9-29 31.8-147.2 0-294.4-0.1-441.7 0.1-5-10.2-8.9-20.9-12-31.8zm-438 82.8q7.9-15.9 15.9-31.8 97.3 0 194.7 0.1-7.9 15.8-15.8 31.7c-64.9 0-129.9 0.1-194.8 0zm461-31.7c136.5-0.1 273 0 409.6-0.1-14.1 11.7-28.9 22.6-44.9 31.6-112.2 0.4-224.4 0.3-336.5 0.1-11-8.8-20.3-19.9-28.2-31.6zm-470.5 50.6c64.9 0 129.9 0 194.8 0.1-4.4 9.7-9.5 19.1-14.2 28.7q-97.7 0-195.3 0c5.1-9.5 9.6-19.3 14.7-28.8zm525.3 0.1c91-0.1 181.9 0 272.9-0.1-34.9 15.8-72.8 24.4-110.8 27.6-33.2 2.4-66.9 1.8-99.6-4.7-21.8-4.5-43.3-11.4-62.5-22.8z"/>
</g>
</svg>
