<?xml version="1.0" encoding="UTF-8"?>
<svg id="_图层_1" data-name="图层_1" xmlns="http://www.w3.org/2000/svg" version="1.1" viewBox="0 0 317.94 192.81">
  <!-- Generator: Adobe Illustrator 30.4.0, SVG Export Plug-In . SVG Version: 2.1.4 Build 226)  -->
  <defs>
    <style>
      .st0 {
        fill: #0dbe85;
      }

      .st1 {
        fill: #fff;
      }
    </style>
  </defs>
  <g>
    <path class="st0" d="M163.74,59.78l-6.46-6.46c-1.71-1.71-4.05-2.65-6.31-2.65-2.1,0-4.2.78-5.84,2.34-1.63,1.63-2.57,3.74-2.57,6.07s.86,4.44,2.49,6.07l11.75,11.75c.47.47,1.32.47,1.87,0l5.06-5.06c.31-.39,5.68-6.46,0-12.07Z"/>
    <path class="st0" d="M174.4,70.14c-1.25-1.17-2.49-2.41-3.66-3.81l-.08-.08c0,.08-.08.23-.08.39-.47,2.8-1.79,5.29-3.97,7.47-6.85,6.77-13.78,13.78-20.47,20.47l-.86.86c-1.56,1.56-2.41,3.19-2.65,4.83-.31,2.49.54,5.29,2.41,7.32,1.63,1.79,3.81,2.72,6.15,2.65,2.65.08,3.97-.31,5.92-2.18,7.78-7.63,15.57-15.34,21.49-21.17,2.8-2.8,3.43-7.32,1.48-10.43-1.63-2.41-3.66-4.36-5.68-6.31Z"/>
    <path class="st0" d="M136.72,66.09v28.72c0,.78.54,1.25,1.01,1.48.47.23,1.17.23,1.71-.31l14.48-14.48c.54-.54.54-1.48,0-2.1l-14.48-14.48c-.31-.31-.78-.47-1.09-.47-.23,0-.47.08-.62.16-.47.23-1.01.7-1.01,1.48Z"/>
  </g>
  <g>
    <g>
      <path class="st1" d="M171.91,141.83v-18.76h5.57c6.11,0,9.89,3.6,9.89,9.35s-3.78,9.35-9.89,9.35h-5.57v.06ZM174.9,139.14h2.7c4.13,0,6.77-2.64,6.77-6.65s-2.64-6.65-6.77-6.65h-2.7v13.3Z"/>
      <path class="st1" d="M200.73,142.13c-5.39,0-9.77-4.37-9.77-9.71s4.37-9.65,9.77-9.65,9.77,4.25,9.77,9.65c.06,5.45-4.25,9.71-9.77,9.71ZM200.73,125.53c-3.72,0-6.77,3.06-6.77,6.89s3.06,6.95,6.77,6.95,6.83-3.18,6.83-6.95-3.06-6.89-6.83-6.89Z"/>
      <path class="st1" d="M238.12,123.08h-3.06v18.76h3.06v-18.76Z"/>
      <path class="st1" d="M249.45,142.13c-2.64,0-4.79-.78-5.75-1.26v-2.76c1.32.6,3.42,1.32,5.75,1.32s4.01-1.08,4.01-2.7c0-1.8-1.98-2.58-4.01-3.3-3.24-1.2-5.69-2.34-5.69-5.45,0-3.84,3.48-5.21,6.47-5.21,2.28,0,4.07.6,4.91.9v2.7c-1.2-.48-3-1.02-4.97-1.02-2.28,0-3.36,1.2-3.36,2.4,0,1.62,1.74,2.22,3.77,2.94,3.54,1.26,6.23,2.52,6.23,5.87-.06,3.3-3.06,5.57-7.37,5.57Z"/>
      <path class="st1" d="M224.34,134.22l1.14-.48c1.56-.66,3.36-2.4,3.36-5.09,0-3.36-2.46-5.57-6.17-5.57h-7.13v18.76h3v-16.12h3.78c2.28,0,3.48,1.68,3.48,3.3s-1.2,3.3-3.48,3.3h-1.62c-.72.12-.36.72-.36.72l6.05,8.75h3.36l-5.39-7.55Z"/>
    </g>
    <g>
      <path class="st1" d="M69.11,123.06h1.87l8.34,18.71h-2.73l-2.48-5.51h-7.94l-2.33,5.51h-2.74l7.99-18.71ZM73.02,133.89l-3-6.74-2.78,6.74h5.79Z"/>
      <path class="st1" d="M81.6,141.77v-18.63h5.9c1.78,0,3.19.48,4.25,1.44,1.06.96,1.59,2.25,1.59,3.86,0,1.08-.27,2.04-.81,2.88-.54.83-1.28,1.44-2.22,1.82-.94.38-2.29.57-4.05.57h-1.97v8.07h-2.68ZM87.03,125.51h-2.76v5.82h2.92c1.08,0,1.92-.26,2.5-.77.59-.51.88-1.24.88-2.19,0-1.91-1.18-2.86-3.54-2.86Z"/>
      <path class="st1" d="M100.42,123.06h1.87l8.34,18.71h-2.73l-2.48-5.51h-7.94l-2.33,5.51h-2.74l7.99-18.71ZM104.33,133.89l-3-6.74-2.78,6.74h5.79Z"/>
      <path class="st1" d="M127.82,137.46v2.93c-1.95,1.07-4.21,1.6-6.77,1.6-2.08,0-3.84-.42-5.29-1.25-1.45-.83-2.59-1.98-3.44-3.45s-1.27-3.05-1.27-4.76c0-2.71.97-4.99,2.9-6.83s4.31-2.77,7.15-2.77c1.95,0,4.12.51,6.51,1.53v2.86c-2.18-1.24-4.3-1.86-6.38-1.86s-3.9.67-5.31,2.02c-1.41,1.35-2.11,3.03-2.11,5.06s.69,3.72,2.08,5.04,3.16,1.97,5.31,1.97,4.46-.69,6.61-2.08Z"/>
      <path class="st1" d="M144.61,123.16h2.66v18.61h-2.66v-8.1h-10.46v8.1h-2.66v-18.61h2.66v8.05h10.46v-8.05Z"/>
      <path class="st1" d="M151.79,123.16h10.55v2.37h-7.89v5.67h7.62v2.38h-7.62v5.78h8.14v2.37h-10.8v-18.58Z"/>
    </g>
  </g>
</svg>