<svg width="21" height="20" viewBox="0 0 21 20" fill="#7F7F83" xmlns="http://www.w3.org/2000/svg">
    <path
        d="M15.9444 3H5.05552C4.19998 3 3.5 3.70001 3.5 4.55559V15.4445C3.5 16.3 4.19998 17 5.05552 17H15.9444C16.8 17 17.5 16.3 17.5 15.4445V4.55559C17.5 3.70005 16.8 3 15.9444 3ZM10.1528 8.99791C9.97401 9.57345 9.76864 10.4635 9.46656 11.1952C9.31081 11.5909 9.31836 11.522 9.20126 11.7719L9.30237 11.7391C10.3415 11.4483 11.0691 11.3762 11.7457 11.2517C11.6099 11.1445 11.4919 11.0616 11.3985 10.9761C10.9336 10.4614 10.7714 10.3648 10.1528 8.99791ZM15.2525 12.2945C15.1202 12.4423 14.8869 12.5278 14.5447 12.5278C13.9536 12.5278 13.4163 12.3646 12.6385 11.9679C11.3007 12.1157 9.87798 12.2724 9.07683 12.529C9.03794 12.5445 8.99136 12.5601 8.93683 12.5835C7.97239 14.2323 7.25625 14.9314 6.62686 14.9036C6.42728 14.8948 6.1371 14.779 6.04374 14.7246L5.92841 14.6151L5.88782 14.5381C5.83343 14.398 5.81789 14.2658 5.84896 14.118C5.93453 13.7058 6.37786 13.0525 7.31123 12.4692C7.45902 12.3602 7.79633 12.188 8.1074 12.0402C8.34281 11.6657 8.45153 11.4258 8.75008 10.7624C9.0879 9.96083 9.39566 9.00289 9.59009 8.31852V8.31074C9.3024 7.36958 9.13126 6.73134 9.41902 5.69682C9.48902 5.40128 9.74559 5.09795 10.0335 5.09795H10.2201C10.399 5.09795 10.5701 5.16021 10.6946 5.28457C11.208 5.79797 10.9668 7.12065 10.7102 8.15516C10.6946 8.20177 10.6868 8.24063 10.679 8.26399C10.9901 9.14286 11.4819 10.0108 11.9719 10.4153C12.1742 10.5707 12.3723 10.7495 12.6211 10.8895C12.9711 10.8505 13.2846 10.8167 13.6035 10.8167C14.568 10.8167 15.1513 10.9879 15.3769 11.3534C15.4547 11.4778 15.4935 11.6256 15.4702 11.7811C15.4625 11.9756 15.3925 12.1545 15.2525 12.2945ZM14.7609 11.6447C14.6832 11.5669 14.4598 11.3451 13.3709 11.3451C13.3165 11.3451 13.183 11.3313 13.1131 11.409C13.6809 11.6579 14.2242 11.8468 14.582 11.8468C14.6365 11.8468 14.6832 11.839 14.7298 11.8313H14.7609C14.7998 11.8158 14.8231 11.8079 14.8309 11.7302C14.8154 11.7068 14.7998 11.6757 14.7609 11.6447ZM7.91481 12.7595C7.75145 12.8528 7.61927 12.9383 7.54144 13.0006C6.98922 13.5062 6.63922 14.0195 6.60032 14.3152C6.95029 14.1985 7.40916 13.685 7.91481 12.7595ZM10.1355 7.4927L10.1744 7.46155C10.2289 7.21269 10.2669 6.94535 10.3136 6.77417L10.3369 6.64974C10.4147 6.20638 10.385 5.94731 10.2527 5.7607L10.1361 5.72177C10.1163 5.75189 10.0981 5.78304 10.0816 5.81509C9.9494 6.14178 9.95664 6.79272 10.1355 7.4927Z"
    />
</svg>