<svg width="17" height="16" viewBox="0 0 17 16" fill="none" xmlns="http://www.w3.org/2000/svg">
<g clip-path="url(#clip0_5637_3921)">
<path d="M8.15021 0.400055C9.17446 0.401036 10.1867 0.620536 11.1194 1.0439C12.052 1.46726 12.8836 2.08474 13.5586 2.8551C14.2336 3.62546 14.7365 4.53097 15.0336 5.51116C15.3308 6.49135 15.4154 7.52366 15.2818 8.53916C15.1482 9.55465 14.7995 10.53 14.2589 11.3999C13.7184 12.2699 12.9984 13.0146 12.1471 13.5841C11.2959 14.1537 10.3329 14.5351 9.32246 14.7028C8.31204 14.8706 7.27746 14.8208 6.28781 14.5569L3.55821 15.4609C3.43668 15.5011 3.30727 15.5115 3.18086 15.4914C3.05444 15.4712 2.93471 15.421 2.83172 15.345C2.72872 15.269 2.64548 15.1693 2.58898 15.0545C2.53248 14.9396 2.50437 14.8128 2.50701 14.6849L2.51421 14.5921L2.81261 12.4321C1.87738 11.3989 1.26206 10.1166 1.0413 8.74065C0.820539 7.3647 1.00382 5.95424 1.56892 4.68041C2.13402 3.40657 3.05664 2.3241 4.22485 1.56431C5.39306 0.804529 6.75666 0.400088 8.15021 0.400055ZM11.835 5.98245C11.9361 6.09961 11.9913 6.24942 11.9904 6.40415C11.9895 6.55888 11.9326 6.70805 11.8302 6.82405L11.7686 6.88485L8.06941 10.0689C7.95393 10.1682 7.80677 10.2232 7.6544 10.2238C7.50204 10.2243 7.35446 10.1706 7.23821 10.0721L7.17101 10.0065L5.27021 7.84165C5.16249 7.71989 5.10514 7.56168 5.10982 7.39917C5.1145 7.23666 5.18085 7.08202 5.29541 6.96665C5.40996 6.85128 5.56413 6.78383 5.7266 6.778C5.88908 6.77217 6.04769 6.82839 6.17021 6.93525L6.23181 6.99685L7.71421 8.68485L10.9334 5.91525C11.062 5.80454 11.2293 5.74942 11.3985 5.76202C11.5677 5.77462 11.7242 5.85391 11.835 5.98245Z" fill="#52CAA3"/>
<path d="M12.0311 6.6439C12.032 6.48917 11.9768 6.33936 11.8757 6.2222C11.765 6.09366 11.6085 6.01437 11.4392 6.00177C11.27 5.98917 11.1027 6.04429 10.9741 6.155L7.75493 8.9246L6.27253 7.2366L6.21093 7.175C6.0884 7.06814 5.92979 7.01192 5.76732 7.01775C5.60484 7.02358 5.45067 7.09103 5.33612 7.2064C5.22157 7.32176 5.15521 7.47641 5.15053 7.63892C5.14585 7.80143 5.2032 7.95964 5.31093 8.0814L7.21173 10.2462L7.27893 10.3118C7.39518 10.4103 7.54275 10.4641 7.69512 10.4635C7.84748 10.4629 7.99464 10.408 8.11013 10.3086L11.8093 7.1246L11.8709 7.0638C11.9733 6.9478 12.0302 6.79863 12.0311 6.6439Z" fill="white"/>
</g>
<defs>
<clipPath id="clip0_5637_3921">
<rect width="16" height="16" fill="white" transform="translate(0.150269)"/>
</clipPath>
</defs>
</svg>
