<svg width="18" height="18" viewBox="0 0 18 18" fill="none" xmlns="http://www.w3.org/2000/svg">
<path d="M8.99999 0.28125C4.02749 0.28125 1.31358e-06 4.28167 1.31358e-06 9.22073C-0.00101948 11.0974 0.592933 12.9267 1.69759 14.4492C2.80225 15.9716 4.36152 17.1099 6.15419 17.7025C6.60419 17.7803 6.77249 17.5121 6.77249 17.277C6.77249 17.0651 6.76079 16.3616 6.76079 15.6125C4.49999 16.0264 3.91499 15.0654 3.73499 14.5621C3.63329 14.3046 3.195 13.5117 2.8125 13.2989C2.4975 13.1318 2.0475 12.7179 2.8008 12.7071C3.51 12.6955 4.01579 13.3552 4.18499 13.6234C4.99499 14.9751 6.28919 14.5952 6.80579 14.3609C6.88499 13.7799 7.12079 13.3892 7.37999 13.1657C5.37749 12.9422 3.285 12.1708 3.285 8.75141C3.285 7.7788 3.63329 6.97514 4.20749 6.34848C4.11749 6.12499 3.8025 5.20869 4.29749 3.97951C4.29749 3.97951 5.05079 3.7453 6.77249 4.89671C7.50514 4.69473 8.26214 4.59307 9.02248 4.59455C9.78748 4.59455 10.5525 4.69467 11.2725 4.89581C12.9933 3.73368 13.7475 3.98041 13.7475 3.98041C14.2425 5.20959 13.9275 6.12588 13.8375 6.34937C14.4108 6.97514 14.76 7.76807 14.76 8.75141C14.76 12.1824 12.6567 12.9422 10.6542 13.1657C10.98 13.4446 11.2617 13.981 11.2617 14.8195C11.2617 16.0147 11.25 16.9757 11.25 17.2779C11.25 17.5121 11.4192 17.791 11.8692 17.7016C13.6557 17.1025 15.2081 15.962 16.3079 14.4406C17.4077 12.9193 17.9995 11.0937 18 9.22073C18 4.28167 13.9725 0.28125 8.99999 0.28125Z" fill="#F8F9FE"/>
</svg>
