<svg width="24" height="24" viewBox="0 0 24 24" fill="none" xmlns="http://www.w3.org/2000/svg">
<path d="M23.489 19.6716L14.0814 3.3787C12.9308 1.3867 11.0502 1.3867 9.89986 3.3787L0.49225 19.6716C-0.658125 21.6657 0.283004 23.2923 2.58215 23.2923H21.399C23.6983 23.2923 24.6384 21.6655 23.489 19.6716ZM10.6985 8.00165C11.0366 7.63615 11.4664 7.45337 11.9905 7.45337C12.515 7.45337 12.9444 7.63422 13.2828 7.99434C13.619 8.35527 13.787 8.80665 13.787 9.34943C13.787 9.81644 13.0853 13.2505 12.8512 15.7488H11.1609C10.9556 13.2505 10.1941 9.81644 10.1941 9.34943C10.1941 8.81489 10.3624 8.36537 10.6985 8.00165ZM13.2591 19.881C12.9035 20.2273 12.4804 20.3999 11.9906 20.3999C11.501 20.3999 11.0778 20.2273 10.7222 19.881C10.3677 19.5355 10.1915 19.117 10.1915 18.6255C10.1915 18.1366 10.3677 17.7136 10.7222 17.359C11.0778 17.0043 11.501 16.827 11.9906 16.827C12.4804 16.827 12.9035 17.0043 13.2591 17.359C13.6134 17.7136 13.7901 18.1366 13.7901 18.6255C13.7901 19.117 13.6134 19.5355 13.2591 19.881Z" fill="white"/>
</svg>
