<svg width="22" height="22" viewBox="0 0 22 22" fill="none" xmlns="http://www.w3.org/2000/svg">
<path d="M10.0004 4.40039C6.90761 4.40039 4.40039 6.90761 4.40039 10.0004C4.40039 13.0932 6.90761 15.6004 10.0004 15.6004C11.3306 15.6004 12.5526 15.1366 13.5133 14.3618L16.0757 16.9242C16.31 17.1585 16.6899 17.1585 16.9242 16.9242C17.1585 16.6898 17.1585 16.3099 16.9242 16.0756L14.3618 13.5133C15.1366 12.5526 15.6004 11.3306 15.6004 10.0004C15.6004 6.90761 13.0932 4.40039 10.0004 4.40039ZM5.60039 10.0004C5.60039 7.57035 7.57035 5.60039 10.0004 5.60039C12.4304 5.60039 14.4004 7.57035 14.4004 10.0004C14.4004 12.4304 12.4304 14.4004 10.0004 14.4004C7.57035 14.4004 5.60039 12.4304 5.60039 10.0004Z" fill="#4C576C"/>
</svg>
