<svg width="20" height="20" viewBox="0 0 20 20" fill="#7F7F83" xmlns="http://www.w3.org/2000/svg">
    <g clip-path="url(#clip0_8016_3647)">
        <path
            d="M3.04395 4.7041C3.04395 4.28989 3.37973 3.9541 3.79395 3.9541H16.2575C16.6717 3.9541 17.0075 4.28989 17.0075 4.7041V13.1767C17.0075 13.591 16.6717 13.9267 16.2575 13.9267H10.0218C9.86403 13.9267 9.71031 13.9765 9.58246 14.0689L5.67114 16.8957L6.09631 13.9267H3.79395C3.37973 13.9267 3.04395 13.591 3.04395 13.1767V4.7041Z"
        />
        <path
            d="M6.5 9.93701C7.05228 9.93701 7.5 9.4893 7.5 8.93701C7.5 8.38473 7.05228 7.93701 6.5 7.93701C5.94772 7.93701 5.5 8.38473 5.5 8.93701C5.5 9.4893 5.94772 9.93701 6.5 9.93701Z"
            fill="white" />
        <path
            d="M10 9.93701C10.5523 9.93701 11 9.4893 11 8.93701C11 8.38473 10.5523 7.93701 10 7.93701C9.44772 7.93701 9 8.38473 9 8.93701C9 9.4893 9.44772 9.93701 10 9.93701Z"
            fill="white" />
        <path
            d="M13.5 9.93701C14.0523 9.93701 14.5 9.4893 14.5 8.93701C14.5 8.38473 14.0523 7.93701 13.5 7.93701C12.9477 7.93701 12.5 8.38473 12.5 8.93701C12.5 9.4893 12.9477 9.93701 13.5 9.93701Z"
            fill="white" />
    </g>
    <defs>
        <clipPath id="clip0_8016_3647">
            <rect width="20" height="20" />
        </clipPath>
    </defs>
</svg>