<svg width="21" height="20" viewBox="0 0 21 20" fill="#7F7F83" xmlns="http://www.w3.org/2000/svg">
    <g clip-path="url(#clip0_8019_4529)">
        <path
            d="M11.0061 3C14.9792 2.99839 18.1973 6.21483 18.1973 10.1848C18.1973 13.3241 16.1842 15.9927 13.3806 16.9727C13.0031 17.0675 13.0609 16.7992 13.0609 16.616V15.3709C15.2411 15.6263 15.3295 14.1836 15.4757 13.9426C15.7713 13.4381 16.4702 13.3096 16.2613 13.0686C15.7649 12.8132 15.2588 13.1329 14.6724 13.9989C14.2482 14.627 13.4208 14.521 13.0015 14.4166C12.9099 14.039 12.7139 13.7016 12.444 13.4398C14.7029 13.0349 15.6444 11.6564 15.6444 10.0177C15.6444 9.2224 15.3825 8.49139 14.8684 7.90177C15.1961 6.92977 14.8378 6.09754 14.7896 5.97384C13.8562 5.89029 12.8858 6.64219 12.8103 6.70163C12.2801 6.55864 11.6744 6.48313 10.9964 6.48313C10.3152 6.48313 9.70794 6.56185 9.17294 6.70645C8.99139 6.56828 8.09169 5.92242 7.22412 6.00115C7.17753 6.12486 6.82728 6.9378 7.13575 7.89695C6.61521 8.48818 6.35012 9.22562 6.35012 10.0225C6.35012 11.6644 7.29802 13.0445 9.56334 13.443C9.18579 13.8157 8.95122 14.333 8.95122 14.905V16.7124C8.93837 16.857 8.95122 17 8.71023 17C5.86493 16.0409 3.8165 13.353 3.8165 10.1864C3.8165 6.21483 7.03614 3 11.0061 3Z"
        />
    </g>
    <defs>
        <clipPath id="clip0_8019_4529">
            <rect width="21" height="20" fill="white" />
        </clipPath>
    </defs>
</svg>