<svg width="21" height="20" viewBox="0 0 21 20" fill="#7F7F83" xmlns="http://www.w3.org/2000/svg">
    <path
        d="M15.1754 4H4.28648C3.43093 4 2.73096 4.70001 2.73096 5.55559V16.4445C2.73096 17.3 3.43093 18 4.28648 18H15.1754C16.031 18 16.731 17.3 16.731 16.4445V5.55559C16.7309 4.70005 16.0309 4 15.1754 4ZM9.38379 9.99791C9.20496 10.5735 8.9996 11.4635 8.69752 12.1952C8.54177 12.5909 8.54931 12.522 8.43222 12.7719L8.53333 12.7391C9.57248 12.4483 10.3 12.3762 10.9767 12.2517C10.8409 12.1445 10.7229 12.0616 10.6295 11.9761C10.1646 11.4614 10.0023 11.3648 9.38379 9.99791ZM14.4834 13.2945C14.3512 13.4423 14.1179 13.5278 13.7757 13.5278C13.1845 13.5278 12.6473 13.3646 11.8694 12.9679C10.5316 13.1157 9.10894 13.2724 8.30779 13.529C8.26889 13.5445 8.22232 13.5601 8.16779 13.5835C7.20334 15.2323 6.48721 15.9314 5.85782 15.9036C5.65823 15.8948 5.36806 15.779 5.2747 15.7246L5.15937 15.6151L5.11878 15.5381C5.06438 15.398 5.04885 15.2658 5.07992 15.118C5.16549 14.7058 5.60882 14.0525 6.54219 13.4692C6.68998 13.3602 7.02728 13.188 7.33836 13.0402C7.57376 12.6657 7.68248 12.4258 7.98104 11.7624C8.31886 10.9608 8.62662 10.0029 8.82105 9.31852V9.31074C8.53336 8.36958 8.36222 7.73134 8.64997 6.69682C8.71997 6.40128 8.97655 6.09795 9.26448 6.09795H9.45109C9.62999 6.09795 9.8011 6.16021 9.92556 6.28457C10.4389 6.79797 10.1977 8.12065 9.94113 9.15516C9.92556 9.20177 9.91774 9.24063 9.90999 9.26399C10.2211 10.1429 10.7129 11.0108 11.2029 11.4153C11.4051 11.5707 11.6032 11.7495 11.8521 11.8895C12.2021 11.8505 12.5156 11.8167 12.8344 11.8167C13.7989 11.8167 14.3823 11.9879 14.6078 12.3534C14.6856 12.4778 14.7245 12.6256 14.7012 12.7811C14.6934 12.9756 14.6235 13.1545 14.4834 13.2945ZM13.9919 12.6447C13.9141 12.5669 13.6908 12.3451 12.6018 12.3451C12.5475 12.3451 12.414 12.3313 12.3441 12.409C12.9118 12.6579 13.4552 12.8468 13.8129 12.8468C13.8675 12.8468 13.9141 12.839 13.9607 12.8313H13.9918C14.0307 12.8158 14.0541 12.8079 14.0619 12.7302C14.0464 12.7068 14.0308 12.6757 13.9919 12.6447ZM7.14576 13.7595C6.9824 13.8528 6.85022 13.9383 6.7724 14.0006C6.22018 14.5062 5.87017 15.0195 5.83128 15.3152C6.18125 15.1985 6.64012 14.685 7.14576 13.7595ZM9.36649 8.4927L9.40535 8.46155C9.45981 8.21269 9.49787 7.94535 9.54455 7.77417L9.56788 7.64974C9.64563 7.20638 9.61594 6.94731 9.48369 6.7607L9.36701 6.72177C9.34721 6.75189 9.32903 6.78304 9.31254 6.81509C9.18036 7.14178 9.18759 7.79272 9.36649 8.4927Z"
    />
</svg>