<svg width="376" height="75" viewBox="0 0 376 75" fill="none" xmlns="http://www.w3.org/2000/svg">
<path d="M45.0339 50.3356V60.1956H25.8239C22.2194 60.3006 18.6165 59.941 15.1039 59.1256C12.4778 58.3741 10.0546 57.0411 8.01387 55.2256C2.68054 50.6456 0.013871 43.1356 0.013871 32.6956C-0.133188 27.3328 0.890579 22.0024 3.01387 17.0756C4.74643 13.0479 7.80139 9.73185 11.6739 7.67558C15.2672 5.84225 20.1272 4.92892 26.2539 4.93558H44.9739V14.7956H27.7239C22.3905 14.7956 18.5239 16.2056 16.1239 19.0256C14.0839 21.3456 13.0639 25.5423 13.0639 31.6156C13.0639 39.7823 14.6372 45.1389 17.7839 47.6856C19.9972 49.4589 23.4472 50.3422 28.1339 50.3356H45.0339Z" fill="#0087C7"/>
<path d="M186.439 21.3349L183.535 17.5L179.701 20.4034L182.604 24.2383L186.439 21.3349Z" fill="#0087C7"/>
<path d="M57.2238 9.63574H49.6938V60.1757H57.2238V9.63574Z" fill="#0087C7"/>
<path d="M81.0138 21.925C78.4397 21.8859 75.8856 22.3822 73.5135 23.3824C71.1413 24.3825 69.0029 25.8648 67.2338 27.735C63.629 31.4643 61.614 36.4482 61.614 41.635C61.614 46.8218 63.629 51.8057 67.2338 55.535C69.0332 57.3682 71.1799 58.8244 73.5485 59.8184C75.9171 60.8125 78.4601 61.3244 81.0288 61.3244C83.5976 61.3244 86.1405 60.8125 88.5091 59.8184C90.8777 58.8244 93.0244 57.3682 94.8238 55.535C98.409 51.7919 100.405 46.8059 100.394 41.6229C100.383 36.4399 98.3651 31.4625 94.7638 27.735C93.0008 25.8651 90.8678 24.3828 88.5005 23.3825C86.1332 22.3822 83.5835 21.8858 81.0138 21.925ZM92.7638 41.815C92.7987 43.4101 92.511 44.9957 91.9182 46.477C91.3254 47.9582 90.4396 49.3044 89.3138 50.435C88.2298 51.5518 86.9326 52.4396 85.4992 53.0459C84.0657 53.6521 82.5252 53.9645 80.9688 53.9645C79.4125 53.9645 77.8719 53.6521 76.4385 53.0459C75.005 52.4396 73.7079 51.5518 72.6238 50.435C71.52 49.2908 70.6546 47.9387 70.0778 46.4572C69.501 44.9757 69.2243 43.3943 69.2638 41.805C69.2351 40.1818 69.5288 38.5691 70.1279 37.0602C70.727 35.5514 71.6195 34.1764 72.7538 33.015C73.7938 31.8589 75.0653 30.9344 76.4857 30.3016C77.9061 29.6688 79.4438 29.3417 80.9988 29.3417C82.5539 29.3417 84.0915 29.6688 85.5119 30.3016C86.9324 30.9344 88.2039 31.8589 89.2438 33.015C90.3898 34.1715 91.2918 35.5463 91.8965 37.0579C92.5011 38.5696 92.7961 40.1872 92.7638 41.815Z" fill="#0087C7"/>
<path d="M130.304 36.9952C130.42 40.0072 130.226 43.0231 129.724 45.9952C129.341 47.4526 128.66 48.8147 127.724 49.9952C126.784 51.2061 125.594 52.1989 124.234 52.9052C122.969 53.5572 121.567 53.8999 120.144 53.9052C118.935 53.938 117.732 53.7307 116.604 53.2952C115.706 52.9128 114.928 52.2942 114.354 51.5052C113.685 50.5513 113.203 49.4789 112.934 48.3452C112.498 45.8334 112.327 43.2827 112.424 40.7352V22.8252H104.894V41.9952C104.894 46.9952 105.424 50.5852 106.534 52.9952C107.596 55.4215 109.358 57.4758 111.594 58.8952C113.831 60.3172 116.433 61.0605 119.084 61.0352C123.271 61.0443 127.3 59.4315 130.324 56.5352V60.1352H137.914V22.8252H130.324L130.304 36.9952Z" fill="#0087C7"/>
<path d="M174.334 9.625V26.485C171.143 23.5022 166.922 21.8683 162.554 21.925C159.973 21.8817 157.411 22.3728 155.029 23.3675C152.648 24.3622 150.497 25.839 148.714 27.705C146.884 29.5204 145.439 31.6861 144.465 34.0726C143.49 36.4591 143.007 39.0176 143.044 41.595C143.009 44.1689 143.487 46.7241 144.448 49.112C145.409 51.4999 146.836 53.673 148.644 55.505C150.378 57.3694 152.483 58.8504 154.823 59.8527C157.164 60.855 159.688 61.3566 162.234 61.325C166.72 61.3158 171.039 59.6203 174.334 56.575V60.165H181.824V9.625H174.334ZM174.594 41.815C174.626 45.0249 173.39 48.1178 171.154 50.4211C168.918 52.7244 165.863 54.0519 162.654 54.115C161.061 54.1371 159.481 53.8173 158.022 53.1773C156.562 52.5374 155.257 51.592 154.194 50.405C151.932 48.077 150.66 44.9638 150.643 41.7181C150.626 38.4725 151.867 35.3463 154.104 32.995C155.208 31.8453 156.53 30.9282 157.994 30.2978C159.458 29.6673 161.033 29.3363 162.627 29.3242C164.22 29.3121 165.8 29.6191 167.273 30.2272C168.746 30.8354 170.083 31.7322 171.204 32.865C172.334 34.0579 173.215 35.4633 173.797 36.9998C174.379 38.5362 174.65 40.173 174.594 41.815Z" fill="#0087C7"/>
<path d="M270.714 26.4855C267.519 23.5089 263.3 21.8761 258.934 21.9255C256.353 21.8821 253.791 22.3733 251.409 23.368C249.027 24.3627 246.877 25.8395 245.094 27.7055C243.267 29.5148 241.823 31.6737 240.849 34.0533C239.875 36.4329 239.39 38.9844 239.424 41.5555C239.391 44.1333 239.872 46.692 240.838 49.082C241.805 51.4719 243.238 53.6454 245.054 55.4755C246.786 57.3444 248.89 58.8303 251.23 59.8377C253.571 60.8452 256.096 61.352 258.644 61.3255C263.121 61.3127 267.429 59.6172 270.714 56.5755V60.1655H278.174V22.8255H270.714V26.4855ZM267.494 32.8755C268.643 34.044 269.544 35.4333 270.142 36.9594C270.74 38.4856 271.023 40.1171 270.974 41.7555C271.023 43.3917 270.734 45.0205 270.125 46.54C269.516 48.0594 268.6 49.4366 267.434 50.5855C266.351 51.7216 265.045 52.6216 263.598 53.229C262.15 53.8365 260.593 54.1383 259.024 54.1155C257.433 54.1368 255.857 53.8197 254.398 53.1852C252.939 52.5508 251.632 51.6135 250.564 50.4355C248.296 48.102 247.024 44.9792 247.014 41.7256C247.005 38.472 248.26 35.3419 250.514 32.9955C251.581 31.8111 252.891 30.8703 254.354 30.2371C255.817 29.6038 257.4 29.2929 258.994 29.3255C260.58 29.2896 262.156 29.587 263.62 30.1985C265.085 30.8101 266.404 31.722 267.494 32.8755Z" fill="#0087C7"/>
<path d="M311.264 24.065C309.041 22.6523 306.458 21.9094 303.824 21.925C299.636 21.916 295.608 23.5287 292.584 26.425V22.825H284.994V60.165H292.584V45.995C292.463 42.983 292.658 39.9667 293.164 36.995C293.547 35.538 294.228 34.1761 295.164 32.995C296.098 31.7787 297.29 30.7848 298.654 30.085C299.917 29.4268 301.32 29.0837 302.744 29.085C303.953 29.0484 305.157 29.2559 306.284 29.695C307.181 30.075 307.956 30.6943 308.524 31.485C309.196 32.4383 309.682 33.5107 309.954 34.645C310.389 37.1536 310.56 39.7009 310.464 42.245V60.115H317.994V40.995C317.994 35.995 317.454 32.405 316.354 29.995C315.289 27.5536 313.516 25.4879 311.264 24.065Z" fill="#0087C7"/>
<path d="M353.954 26.4853C350.762 23.5025 346.542 21.8687 342.174 21.9253C339.593 21.8832 337.032 22.3749 334.65 23.3695C332.268 24.3642 330.118 25.8403 328.334 27.7053C326.507 29.5147 325.063 31.6736 324.089 34.0532C323.115 36.4328 322.63 38.9843 322.664 41.5553C322.633 44.1329 323.115 46.6909 324.081 49.0805C325.048 51.4702 326.48 53.6439 328.294 55.4753C330.027 57.3427 332.131 58.8277 334.471 59.835C336.811 60.8424 339.336 61.35 341.884 61.3253C346.361 61.3125 350.669 59.617 353.954 56.5753V60.1653H361.424V22.8253H353.954V26.4853ZM350.734 32.8753C351.883 34.0439 352.784 35.4331 353.382 36.9593C353.98 38.4855 354.263 40.1169 354.214 41.7554C354.265 43.3909 353.978 45.0195 353.371 46.539C352.763 48.0584 351.849 49.436 350.684 50.5853C349.6 51.72 348.293 52.619 346.846 53.2264C345.399 53.8337 343.843 54.1364 342.274 54.1153C340.683 54.1386 339.106 53.8224 337.647 53.1878C336.188 52.5532 334.881 51.6149 333.814 50.4354C331.547 48.102 330.275 44.9803 330.263 41.7275C330.252 38.4746 331.503 35.3442 333.754 32.9953C334.823 31.8107 336.135 30.8699 337.599 30.2367C339.064 29.6035 340.648 29.2927 342.244 29.3253C343.829 29.2884 345.404 29.5853 346.867 30.197C348.329 30.8086 349.647 31.7211 350.734 32.8753Z" fill="#0087C7"/>
<path d="M375.074 9.63574H367.544V60.1757H375.074V9.63574Z" fill="#0087C7"/>
<path d="M235.674 50.3356V60.1956H216.454C212.846 60.2999 209.24 59.9403 205.724 59.1256C203.098 58.3741 200.675 57.0411 198.634 55.2256C193.334 50.6456 190.684 43.1356 190.684 32.6956C190.537 27.3328 191.561 22.0024 193.684 17.0756C195.42 13.0501 198.474 9.73506 202.344 7.67558C205.93 5.84225 210.79 4.92892 216.924 4.93558H235.654V14.7956H218.354C213.054 14.7956 209.187 16.2056 206.754 19.0256C204.714 21.3456 203.694 25.5423 203.694 31.6156C203.694 39.7823 205.267 45.1389 208.414 47.6856C210.627 49.4589 214.077 50.3422 218.764 50.3356H235.674Z" fill="#0087C7"/>
<path d="M13.819 44.6865L13.2261 44.4736L13.0132 45.0666L13.6061 45.2795L13.819 44.6865Z" fill="white"/>
<path d="M18.591 52.9053L17.998 52.6924L17.7852 53.2853L18.3781 53.4982L18.591 52.9053Z" fill="white"/>
<path d="M11.7914 52.7842L11.1985 52.5713L10.9856 53.1642L11.5785 53.3771L11.7914 52.7842Z" fill="white"/>
<path d="M37.6144 45.6765L33.3184 47.4297L35.0715 51.7257L39.3676 49.9725L37.6144 45.6765Z" fill="white"/>
<path d="M45.4838 47.3555H34.3337V65.1355H45.4838V47.3555Z" fill="white"/>
<path d="M44.1239 56.2451H32.9739V74.0251H44.1239V56.2451Z" fill="white"/>
<path d="M40.2692 54.4963L37.7786 55.5127L38.795 58.0033L41.2855 56.9869L40.2692 54.4963Z" fill="white"/>
<path d="M40.4393 51.2952L38.6523 52.0244L39.3816 53.8113L41.1685 53.0821L40.4393 51.2952Z" fill="white"/>
<path d="M45.9128 48.0596L43.5547 46.5498L42.0449 48.9079L44.403 50.4177L45.9128 48.0596Z" fill="#0087C7"/>
<path d="M43.584 57.103L40.2827 54.9893L38.169 58.2906L41.4703 60.4043L43.584 57.103Z" fill="#0087C7"/>
<path d="M40.7217 51.1404L38.6848 51.9717L39.5161 54.0086L41.553 53.1773L40.7217 51.1404Z" fill="#0087C7"/>
<path d="M47.4555 56.6653L45.353 55.8926L44.5803 57.9951L46.6828 58.7678L47.4555 56.6653Z" fill="#0087C7"/>
<path d="M46.3481 61.0397L44.8745 60.498L44.3329 61.9717L45.8065 62.5133L46.3481 61.0397Z" fill="#007CC3"/>
<path d="M38.5254 61.2112L37.0254 61.6396L37.4538 63.1397L38.9538 62.7112L38.5254 61.2112Z" fill="#007CC3"/>
<path d="M45.7666 52.6499L44.7788 52.4941L44.6231 53.4819L45.6109 53.6377L45.7666 52.6499Z" fill="#0087C7"/>
<path d="M29.6088 53.6079L26.7273 52.5488L25.6682 55.4304L28.5498 56.4894L29.6088 53.6079Z" fill="white"/>
<path d="M24.6875 50.0791L21.3555 48.8545L20.1308 52.1866L23.4629 53.4112L24.6875 50.0791Z" fill="white"/>
<path d="M194.174 24.5286L188.617 22.4863L186.575 28.0429L192.131 30.0851L194.174 24.5286Z" fill="white"/>
<path d="M200.404 21.6399L197.657 18.293L194.31 21.0402L197.057 24.3871L200.404 21.6399Z" fill="white"/>
<path d="M201.388 10.6379L198.641 7.29102L195.294 10.0382L198.041 13.3851L201.388 10.6379Z" fill="white"/>
<path d="M203.39 24.4871L202.178 23.0107L200.702 24.2226L201.914 25.6989L203.39 24.4871Z" fill="white"/>
<path d="M198.989 15.6789L198.253 14.7822L197.357 15.5182L198.093 16.4148L198.989 15.6789Z" fill="white"/>
<path d="M193.122 32.435L191.827 31.959L191.351 33.2543L192.646 33.7303L193.122 32.435Z" fill="white"/>
<path d="M199.341 26.0806L198.046 25.6045L197.57 26.8998L198.865 27.3758L199.341 26.0806Z" fill="white"/>
<path d="M201.108 32.0141L199.812 31.5381L199.336 32.8334L200.631 33.3094L201.108 32.0141Z" fill="white"/>
<path d="M196.39 34.2943L193.712 35.001L194.419 37.6793L197.097 36.9727L196.39 34.2943Z" fill="white"/>
<path d="M201.632 34.4926L198.78 35.2451L199.532 38.0975L202.385 37.3449L201.632 34.4926Z" fill="white"/>
<path d="M203.036 49.4781L201.151 49.9756L201.648 51.8611L203.534 51.3636L203.036 49.4781Z" fill="white"/>
<path d="M203.561 44.2331L200.825 44.9551L201.547 47.6914L204.283 46.9695L203.561 44.2331Z" fill="white"/>
<path d="M196.805 49.3969L195.369 52.4238L198.396 53.8592L199.832 50.8322L196.805 49.3969Z" fill="white"/>
<path d="M203.327 53.2106L202.269 55.4424L204.5 56.5007L205.559 54.2689L203.327 53.2106Z" fill="white"/>
<path d="M208.102 53.1728L207.592 54.248L208.668 54.7579L209.177 53.6827L208.102 53.1728Z" fill="white"/>
<path d="M190.245 53.3373L188.81 56.3643L191.836 57.7996L193.272 54.7727L190.245 53.3373Z" fill="#0087C7"/>
<path d="M198.529 56.5297L197.873 57.9121L199.256 58.5677L199.911 57.1852L198.529 56.5297Z" fill="#0087C7"/>
<path d="M199.119 45.4795L197.871 45.8086L198.2 47.0559L199.448 46.7268L199.119 45.4795Z" fill="white"/>
<path d="M201.637 41.4617L200.97 41.6377L201.146 42.3049L201.813 42.1288L201.637 41.4617Z" fill="white"/>
<path d="M207.949 48.2454L207.279 48.4248L207.459 49.0941L208.128 48.9147L207.949 48.2454Z" fill="white"/>
<path d="M197.836 27.4085L194.336 28.332L195.259 31.8322L198.76 30.9088L197.836 27.4085Z" fill="white"/>
<path d="M204.813 13.2482L201.342 14.1641L202.258 17.6353L205.729 16.7194L204.813 13.2482Z" fill="white"/>
<path d="M207.556 6.8822L205.937 7.31641L206.371 8.9363L207.991 8.5021L207.556 6.8822Z" fill="white"/>
<path d="M210.263 10.8393L209.157 11.1357L209.453 12.2415L210.559 11.9451L210.263 10.8393Z" fill="white"/>
<path d="M196.522 39.367L193.296 41.8486L195.778 45.0746L199.004 42.593L196.522 39.367Z" fill="white"/>
<path d="M193.102 44.6397L189.329 47.542L192.232 51.3148L196.004 48.4125L193.102 44.6397Z" fill="white"/>
<path d="M190.978 35.7879L187.752 38.2695L190.234 41.4954L193.46 39.0138L190.978 35.7879Z" fill="white"/>
<path d="M17.13 48.9113L14.7834 48.0488L13.921 50.3954L16.2676 51.2578L17.13 48.9113Z" fill="white"/>
<path d="M23.4123 56.9722L23.1499 55.7705L21.9482 56.033L22.2107 57.2346L23.4123 56.9722Z" fill="white"/>
<path d="M31.718 58.1411L31.4556 56.9395L30.2539 57.2019L30.5163 58.4036L31.718 58.1411Z" fill="white"/>
<path d="M26.4485 59.4714L26.1113 57.9277L24.5677 58.2649L24.9048 59.8085L26.4485 59.4714Z" fill="white"/>
<path d="M22.3635 61.026L22.0264 59.4824L20.4828 59.8195L20.8199 61.3632L22.3635 61.026Z" fill="white"/>
<path d="M20.6928 56.9558L20.2329 54.8096L18.0867 55.2695L18.5466 57.4157L20.6928 56.9558Z" fill="white"/>
<path d="M31.0638 50.6466L29.5996 50.1084L29.0615 51.5726L30.5257 52.1108L31.0638 50.6466Z" fill="white"/>
<path d="M16.0879 53.6478L14.9709 53.2373L14.5604 54.3542L15.6774 54.7648L16.0879 53.6478Z" fill="white"/>
<path d="M18.0773 56.3275L16.6104 55.7969L16.0797 57.2639L17.5467 57.7945L18.0773 56.3275Z" fill="white"/>
<path d="M34.2354 48.2283L35.4575 50.6807L37.9099 49.4585L36.6877 47.0062L34.2354 48.2283Z" fill="#0087C7"/>
<path d="M36.4234 49.6947L32.5811 51.2627L34.1491 55.1051L37.9915 53.537L36.4234 49.6947Z" fill="#0087C7" stroke="white" stroke-width="0.5" stroke-miterlimit="10"/>
<path d="M37.0139 57.3252H33.9138V60.4252H37.0139V57.3252Z" fill="#007CC3"/>
<path d="M13.8298 0.212887L13.2368 0L13.0239 0.592938L13.6169 0.805825L13.8298 0.212887Z" fill="white"/>
<path d="M18.5981 8.4414L18.0051 8.22852L17.7922 8.82146L18.3852 9.03435L18.5981 8.4414Z" fill="white"/>
<path d="M11.7985 8.32031L11.2056 8.10742L10.9927 8.70036L11.5856 8.91325L11.7985 8.32031Z" fill="white"/>
<path d="M37.612 1.20287L33.3159 2.95605L35.0691 7.2521L39.3651 5.49892L37.612 1.20287Z" fill="white"/>
<path d="M45.4838 2.88574H34.3337V20.6658H45.4838V2.88574Z" fill="white"/>
<path d="M40.2765 10.0227L37.7859 11.0391L38.8023 13.5297L41.2929 12.5133L40.2765 10.0227Z" fill="white"/>
<path d="M40.4366 6.82155L38.6497 7.55078L39.3789 9.33771L41.1658 8.60848L40.4366 6.82155Z" fill="white"/>
<path d="M45.9128 5.08108L43.5547 3.57129L42.0449 5.92937L44.403 7.43916L45.9128 5.08108Z" fill="#0087C7"/>
<path d="M43.5882 12.6332L40.2869 10.5195L38.1732 13.8208L41.4745 15.9345L43.5882 12.6332Z" fill="#0087C7"/>
<path d="M40.7291 6.67754L38.6921 7.50879L39.5234 9.5457L41.5603 8.71445L40.7291 6.67754Z" fill="#0087C7"/>
<path d="M47.4499 12.1858L45.3474 11.4131L44.5747 13.5156L46.6772 14.2883L47.4499 12.1858Z" fill="#0087C7"/>
<path d="M50.2473 7.42433L49.2336 7.05176L48.8611 8.06546L49.8748 8.43803L50.2473 7.42433Z" fill="#0087C7"/>
<path d="M46.3525 16.5602L44.8789 16.0186L44.3373 17.4922L45.8109 18.0338L46.3525 16.5602Z" fill="#0087C7"/>
<path d="M38.5227 16.7415L37.0227 17.1699L37.4511 18.6699L38.9511 18.2415L38.5227 16.7415Z" fill="#0087C7"/>
<path d="M45.7725 8.18211L44.7847 8.02637L44.6289 9.01416L45.6167 9.16991L45.7725 8.18211Z" fill="#0087C7"/>
<path d="M29.6096 9.13719L26.728 8.07812L25.669 10.9597L28.5505 12.0187L29.6096 9.13719Z" fill="white"/>
<path d="M24.6883 5.60844L21.3562 4.38379L20.1316 7.71587L23.4636 8.94052L24.6883 5.60844Z" fill="white"/>
<path d="M17.1307 4.44055L14.7842 3.57812L13.9218 5.92466L16.2683 6.78709L17.1307 4.44055Z" fill="white"/>
<path d="M23.4182 12.5044L23.1558 11.3027L21.9541 11.5652L22.2165 12.7669L23.4182 12.5044Z" fill="white"/>
<path d="M31.7139 13.6724L31.4514 12.4707L30.2497 12.7332L30.5122 13.9348L31.7139 13.6724Z" fill="white"/>
<path d="M26.4445 15.0026L26.1074 13.459L24.5638 13.7961L24.9009 15.3397L26.4445 15.0026Z" fill="white"/>
<path d="M22.3596 16.5573L22.0225 15.0137L20.4789 15.3508L20.816 16.8944L22.3596 16.5573Z" fill="white"/>
<path d="M21.4468 12.4999L20.9795 10.3604L18.8399 10.8276L19.3072 12.9672L21.4468 12.4999Z" fill="white"/>
<path d="M31.0648 6.17683L29.6006 5.63867L29.0624 7.10291L30.5267 7.64106L31.0648 6.17683Z" fill="white"/>
<path d="M16.0789 9.17711L14.9619 8.7666L14.5514 9.88355L15.6683 10.2941L16.0789 9.17711Z" fill="white"/>
<path d="M17.8571 11.7962L16.3901 11.2656L15.8595 12.7326L17.3265 13.2632L17.8571 11.7962Z" fill="white"/>
<path d="M34.2344 3.75373L35.4565 6.20605L37.9089 4.9839L36.6867 2.53158L34.2344 3.75373Z" fill="#0087C7"/>
<path d="M36.4207 5.23079L32.5784 6.79883L34.1464 10.6412L37.9888 9.07316L36.4207 5.23079Z" fill="#0087C7" stroke="white" stroke-width="0.5" stroke-miterlimit="10"/>
<path d="M37.0139 12.8555H33.9138V15.9555H37.0139V12.8555Z" fill="#0087C7"/>
<path d="M189.651 45.5581L185.737 47.5693L187.749 51.4828L191.662 49.4715L189.651 45.5581Z" fill="#0087C7"/>
<path d="M189.412 34.2449L187.362 32.1943L185.311 34.2449L187.362 36.2956L189.412 34.2449Z" fill="#0087C7"/>
<path d="M191.447 39.3772L190.927 37.4355L188.986 37.9554L189.506 39.897L191.447 39.3772Z" fill="#0087C7"/>
<path d="M189.864 19.6829L190.247 18.6094L189.174 18.2258L188.79 19.2994L189.864 19.6829Z" fill="#0087C7"/>
<path d="M190.613 27.9987L191.597 24.7441L188.343 23.7603L187.359 27.0148L190.613 27.9987Z" fill="#0087C7"/>
<path d="M187.716 14.3329L187.046 11.8311L184.544 12.501L185.214 15.0028L187.716 14.3329Z" fill="#0087C7"/>
<path d="M192.73 15.7709L192.945 14.3672L191.541 14.1524L191.326 15.5561L192.73 15.7709Z" fill="#0087C7"/>
<path d="M196.398 11.0168L195.748 8.5918L193.323 9.2418L193.973 11.6668L196.398 11.0168Z" fill="#0087C7"/>
<path d="M192.37 51.0925L191.804 52.2852L192.997 52.8507L193.562 51.658L192.37 51.0925Z" fill="#0087C7"/>
<path d="M182.932 39.6205L180.711 41.8408L182.932 44.0611L185.152 41.8408L182.932 39.6205Z" fill="#0087C7"/>
</svg>
