<svg width="32" height="32" viewBox="0 0 32 32" fill="none" xmlns="http://www.w3.org/2000/svg">
<g id="Group 8310">
<rect id="Rectangle 2811" width="32" height="32" rx="5.33333" fill="#E4EDFC"/>
<g id="Group 8305">
<path id="Fill 15" fillRule="evenodd" clipRule="evenodd" d="M25.1575 16.3851C24.9809 16.5619 24.7461 16.6593 24.4964 16.6593C24.2467 16.6593 24.0117 16.5619 23.8352 16.3851C23.4706 16.02 23.4706 15.426 23.8351 15.0609C24.0117 14.8841 24.2467 14.7866 24.4964 14.7866C24.7461 14.7866 24.981 14.8841 25.1576 15.0608C25.3341 15.2377 25.4314 15.4729 25.4314 15.7229C25.4314 15.9731 25.3341 16.2082 25.1575 16.3851ZM20.7031 20.2782C20.5669 20.4146 20.408 20.4349 20.3253 20.4349C20.2428 20.4349 20.0837 20.4146 19.9476 20.2782C19.7392 20.0696 19.7392 19.7301 19.9476 19.5215C20.0837 19.3852 20.2428 19.3648 20.3253 19.3648C20.408 19.3648 20.5669 19.3852 20.7031 19.5215C20.8393 19.6579 20.8597 19.8171 20.8597 19.8998C20.8597 19.9826 20.8393 20.1419 20.7031 20.2782ZM19.9476 11.9244C19.7392 11.7158 19.7392 11.3765 19.9476 11.1678C20.0837 11.0315 20.2428 11.0111 20.3254 11.0111C20.4081 11.0111 20.567 11.0315 20.7031 11.1677C20.8393 11.3041 20.8597 11.4634 20.8597 11.5461C20.8597 11.6289 20.8393 11.7881 20.7031 11.9245C20.567 12.0608 20.4081 12.0812 20.3254 12.0812C20.2428 12.0812 20.0838 12.0608 19.9476 11.9244ZM25.9132 14.3042C25.5219 13.9124 25.0092 13.7166 24.4964 13.7166C24.137 13.7166 23.7786 13.8149 23.461 14.0074L21.7461 12.29C22.0624 11.6846 21.9668 10.9197 21.4588 10.4111C21.1459 10.0977 20.7357 9.94092 20.3254 9.94092C19.9152 9.94092 19.5049 10.0977 19.1919 10.4111C18.566 11.038 18.566 12.0544 19.1919 12.6812C19.5049 12.9946 19.9152 13.1512 20.3254 13.1512C20.5809 13.1512 20.8365 13.0904 21.0686 12.9687L22.7834 14.6859C22.4086 15.3057 22.3988 16.083 22.7543 16.711L21.0151 18.4525C20.7974 18.3485 20.5617 18.2947 20.3253 18.2947C20.089 18.2947 19.8532 18.3485 19.6356 18.4525L16.5322 15.3448L15.7766 16.1013L18.88 19.209C18.5958 19.8056 18.6986 20.5408 19.1919 21.0348C19.5049 21.3483 19.9152 21.505 20.3253 21.505C20.7356 21.505 21.1459 21.3483 21.4588 21.0348C21.9521 20.5408 22.0549 19.8057 21.7707 19.2091L23.5099 17.4675C23.8152 17.6408 24.1554 17.7294 24.4964 17.7294C25.0092 17.7294 25.5219 17.5336 25.9132 17.1417C26.6956 16.3582 26.6956 15.0877 25.9132 14.3042Z" fill="#04D3FE"/>
<g id="&#231;&#188;&#150;&#231;&#187;&#132;">
<mask id="mask0_548_3985" style="mask-type:luminance" maskUnits="userSpaceOnUse" x="5" y="5" width="14" height="22">
<path id="Clip 18" fillRule="evenodd" clipRule="evenodd" d="M5.5 5.49316H18.0107V26.3975H5.5V5.49316Z" fill="white"/>
</mask>
<g mask="url(#mask0_548_3985)">
<path id="Fill 17" fillRule="evenodd" clipRule="evenodd" d="M15.0419 22.5782L13.2498 20.7911C13.4209 20.388 13.4209 19.9305 13.2498 19.5275L15.0419 17.7404C15.8071 18.1387 16.7735 18.0176 17.416 17.3767C18.2088 16.5862 18.2088 15.3045 17.416 14.5139C16.6233 13.7235 15.338 13.7235 14.5454 14.5139C13.9027 15.1549 13.7814 16.1185 14.1807 16.8817L12.3887 18.6688C11.9846 18.4982 11.526 18.4982 11.1218 18.6688L9.32966 16.8816C9.63577 16.2966 9.63577 15.5941 9.32966 15.0092L11.1218 13.2219C11.713 13.4715 12.4216 13.3571 12.9034 12.8766C13.3852 12.3961 13.5 11.6891 13.2498 11.0997L15.0417 9.31247C15.807 9.71083 16.7734 9.5898 17.416 8.94889C18.2088 8.15831 18.2088 6.87669 17.416 6.0862V6.0861C16.6233 5.29552 15.338 5.29552 14.5454 6.0861V6.0862C13.9027 6.72701 13.7814 7.69059 14.1807 8.45363L12.3887 10.241C11.7975 9.99138 11.0887 10.1059 10.607 10.5862C10.1252 11.0667 10.0104 11.7738 10.2607 12.3632L8.46856 14.1504C7.70343 13.7521 6.73711 13.8731 6.09444 14.5139C5.30169 15.3045 5.30169 16.5862 6.09444 17.3767C6.73711 18.0176 7.70343 18.1388 8.46867 17.7404L10.2607 19.5275C10.0104 20.117 10.1252 20.8239 10.607 21.3044C11.0888 21.7849 11.7976 21.8994 12.3888 21.6498L14.1807 23.4369C13.7814 24.2001 13.9027 25.1638 14.5454 25.8047C15.338 26.5951 16.6233 26.5951 17.416 25.8047C18.2088 25.0141 18.2088 23.7324 17.416 22.9419C16.7735 22.301 15.8071 22.1799 15.0419 22.5782Z" fill="#0196FF"/>
</g>
</g>
</g>
</g>
</svg>
