<svg width="74" height="32" viewBox="0 0 74 32" fill="none" xmlns="http://www.w3.org/2000/svg">
<path d="M14.5129 4.89337L11.0415 1.42201C10.1214 0.501891 8.86667 7.62939e-06 7.65379 7.62939e-06C6.52455 7.62939e-06 5.39531 0.418244 4.51702 1.25472C3.63872 2.13301 3.13684 3.26225 3.13684 4.51696C3.13684 5.77166 3.5969 6.9009 4.47519 7.7792L10.7906 14.0946C11.0415 14.3455 11.5016 14.3455 11.7943 14.0946L14.5129 11.376C14.6802 11.1669 17.566 7.90467 14.5129 4.89337Z" fill="#0DBE85"/>
<path d="M20.2426 10.4559C19.5734 9.82857 18.9042 9.15939 18.2769 8.40657C18.2769 8.40657 18.2769 8.40657 18.235 8.36475C18.235 8.40657 18.1932 8.49022 18.1932 8.57386C17.9423 10.0795 17.2313 11.4179 16.0602 12.5889C12.3797 16.2276 8.65743 19.9917 5.0606 23.5885L4.60054 24.0486C3.76407 24.8851 3.30401 25.7634 3.17853 26.6417C3.01124 27.98 3.4713 29.4857 4.47507 30.5731C5.35336 31.535 6.52442 32.0369 7.77913 31.9951C9.20113 32.0369 9.91214 31.8278 10.9577 30.824C15.1401 26.7253 19.3224 22.5848 22.501 19.448C24.0067 17.9423 24.3413 15.5166 23.2957 13.8436C22.4174 12.5471 21.33 11.5015 20.2426 10.4559Z" fill="#0DBE85"/>
<path d="M0 8.28109V23.714C0 24.1322 0.292763 24.3832 0.543705 24.5086C0.794646 24.6341 1.17106 24.6341 1.46383 24.3414L9.24301 16.5622C9.53578 16.2694 9.53578 15.7675 9.24301 15.4329L1.46383 7.65374C1.29653 7.48644 1.04559 7.40279 0.878295 7.40279C0.752824 7.40279 0.627352 7.44462 0.543705 7.48644C0.292763 7.61191 0 7.86286 0 8.28109Z" fill="#0DBE85"/>
<path d="M69.6189 22.8304C68.8738 22.8304 68.2055 22.7062 67.6142 22.4578C67.0228 22.1976 66.5556 21.8428 66.2126 21.3933C65.8696 20.932 65.6804 20.4057 65.6449 19.8144H67.3126C67.3599 20.2993 67.5846 20.6955 67.9867 21.003C68.4007 21.3105 68.9388 21.4643 69.6012 21.4643C70.2162 21.4643 70.7011 21.3283 71.056 21.0562C71.4108 20.7842 71.5882 20.4412 71.5882 20.0273C71.5882 19.6015 71.3989 19.288 71.0205 19.087C70.642 18.8741 70.0565 18.6671 69.2641 18.466C68.5426 18.2768 67.9513 18.0875 67.49 17.8983C67.0405 17.6972 66.6502 17.4075 66.3191 17.029C65.9997 16.6387 65.8401 16.1301 65.8401 15.5033C65.8401 15.0065 65.9879 14.5511 66.2836 14.1372C66.5793 13.7232 66.9991 13.398 67.5432 13.1614C68.0873 12.913 68.7082 12.7889 69.406 12.7889C70.4823 12.7889 71.3516 13.0609 72.014 13.6049C72.6763 14.149 73.0311 14.8941 73.0784 15.8403H71.464C71.4285 15.3318 71.2215 14.9237 70.8431 14.6162C70.4764 14.3087 69.9797 14.1549 69.3528 14.1549C68.7733 14.1549 68.312 14.2791 67.969 14.5275C67.626 14.7759 67.4545 15.1011 67.4545 15.5033C67.4545 15.8226 67.555 16.0887 67.7561 16.3016C67.969 16.5027 68.2292 16.6683 68.5367 16.7984C68.856 16.9166 69.2937 17.0526 69.8496 17.2064C70.5474 17.3956 71.1151 17.5849 71.5527 17.7741C71.9903 17.9515 72.3629 18.2236 72.6704 18.5902C72.9897 18.9569 73.1553 19.4359 73.1672 20.0273C73.1672 20.5595 73.0193 21.0385 72.7236 21.4643C72.4279 21.8901 72.0081 22.2272 71.464 22.4755C70.9318 22.7121 70.3167 22.8304 69.6189 22.8304Z" fill="#18201D"/>
<path d="M67.4535 19.6591L67.4671 19.7993C67.5101 20.2395 67.7117 20.5972 68.0811 20.8797C68.4613 21.1615 68.9637 21.3091 69.6012 21.3091V21.4642L69.4784 21.4625C68.872 21.4444 68.3748 21.2913 67.9867 21.003C67.5846 20.6955 67.3599 20.2993 67.3126 19.8144H65.6449C65.6804 20.4057 65.8696 20.9321 66.2126 21.3934C66.5556 21.8428 67.0228 22.1976 67.6141 22.4578C68.1685 22.6907 68.7905 22.8143 69.4801 22.8289L69.6189 22.8304C70.3167 22.8304 70.9317 22.7121 71.464 22.4755C72.008 22.2271 72.4279 21.89 72.7236 21.4642C73.0193 21.0385 73.1671 20.5595 73.1671 20.0272C73.1553 19.4359 72.9897 18.9569 72.6704 18.5902C72.3629 18.2236 71.9904 17.9515 71.5528 17.7741C71.1698 17.6085 70.6873 17.443 70.1051 17.2774L69.8496 17.2064C69.2937 17.0526 68.8561 16.9166 68.5367 16.7983C68.2292 16.6682 67.969 16.5027 67.7561 16.3016C67.5551 16.0887 67.4545 15.8225 67.4545 15.5032C67.4545 15.1262 67.6053 14.8168 67.9067 14.5749L67.969 14.5275C68.312 14.2792 68.7733 14.1549 69.3528 14.1549L69.4688 14.1568C70.0412 14.1748 70.4993 14.3279 70.843 14.6162C71.2097 14.9141 71.4154 15.3064 71.4602 15.793L71.464 15.8404H73.0785C73.0326 14.9237 72.6982 14.1957 72.0751 13.6565L72.014 13.605C71.3517 13.0609 70.4823 12.7889 69.406 12.7889C68.7082 12.7889 68.0872 12.913 67.5431 13.1614C66.9991 13.3979 66.5793 13.7232 66.2836 14.1372L66.2299 14.2153C65.97 14.6082 65.8401 15.0375 65.8401 15.5032L65.842 15.6194C65.8607 16.1932 66.0198 16.6631 66.3191 17.029C66.6503 17.4075 67.0405 17.6972 67.49 17.8983C67.9512 18.0875 68.5427 18.2768 69.2642 18.466C70.0566 18.6671 70.6421 18.8741 71.0205 19.0869C71.399 19.288 71.5881 19.6015 71.5881 20.0272C71.5881 20.4412 71.4107 20.7842 71.0559 21.0562C70.7011 21.3282 70.2162 21.4642 69.6012 21.4642V21.3091C70.1947 21.3091 70.6424 21.1777 70.9615 20.933C71.2816 20.6877 71.433 20.3886 71.433 20.0272C71.433 19.838 71.3911 19.6819 71.3134 19.5531C71.2356 19.4243 71.1164 19.3137 70.9476 19.224L70.9444 19.2222C70.5841 19.0196 70.0145 18.8166 69.2259 18.6165L69.2247 18.6162C68.4995 18.426 67.901 18.2347 67.4311 18.0419L67.4288 18.0411L67.4265 18.04C66.9562 17.8296 66.5479 17.5262 66.2023 17.1312L66.2005 17.1293L66.1989 17.1273C65.8518 16.7031 65.6848 16.1569 65.6848 15.5032C65.6848 14.9733 65.8433 14.4866 66.1573 14.047C66.4714 13.6072 66.9144 13.266 67.4787 13.0202C68.0461 12.7611 68.6896 12.6336 69.406 12.6336C70.5088 12.6336 71.4159 12.9127 72.1125 13.4849C72.8124 14.0599 73.1842 14.8478 73.2335 15.8325L73.2417 15.9955H71.3192L71.3092 15.8511C71.2765 15.3832 71.0886 15.0157 70.7451 14.7366L70.7434 14.7351C70.4123 14.4575 69.9547 14.3101 69.3528 14.3101C68.7942 14.3101 68.3684 14.43 68.0601 14.6532C67.7549 14.8742 67.6097 15.1539 67.6097 15.5032C67.6097 15.7856 67.697 16.0116 67.8668 16.1926C68.0633 16.3771 68.3052 16.5314 68.595 16.6543C68.9078 16.77 69.3389 16.9041 69.8901 17.0566C70.5901 17.2464 71.1645 17.4374 71.611 17.6302C72.0715 17.8169 72.4642 18.1036 72.7874 18.4883H72.7875C73.1356 18.888 73.31 19.4046 73.3224 20.0242V20.0272C73.3224 20.5902 73.1654 21.1003 72.8512 21.5528C72.5373 22.0048 72.094 22.3586 71.5285 22.6168L71.5271 22.6174C70.9715 22.8643 70.3342 22.9856 69.6189 22.9856C68.8564 22.9856 68.1672 22.8585 67.554 22.601L67.5529 22.6005L67.5516 22.5998C66.9397 22.3306 66.4503 21.9606 66.0892 21.4875L66.0886 21.4867L66.0881 21.486C65.7265 20.9997 65.5271 20.4442 65.4899 19.8237L65.48 19.6591H67.4535Z" fill="#18201D"/>
<path d="M62.645 11.3695C62.3375 11.3695 62.0773 11.2631 61.8644 11.0502C61.6515 10.8373 61.545 10.5771 61.545 10.2696C61.545 9.96207 61.6515 9.70187 61.8644 9.48898C62.0773 9.27608 62.3375 9.16964 62.645 9.16964C62.9407 9.16964 63.1891 9.27608 63.3901 9.48898C63.603 9.70187 63.7095 9.96207 63.7095 10.2696C63.7095 10.5771 63.603 10.8373 63.3901 11.0502C63.1891 11.2631 62.9407 11.3695 62.645 11.3695ZM63.4256 12.9485V22.6707H61.8112V12.9485H63.4256Z" fill="#18201D"/>
<path d="M63.4256 12.9484H61.8112V22.6706H63.4256V12.9484ZM63.7095 10.2696C63.7095 9.96208 63.603 9.70189 63.3901 9.489C63.2016 9.2894 62.9715 9.18336 62.6998 9.1709L62.645 9.16963C62.3375 9.16963 62.0773 9.2761 61.8644 9.489L61.8258 9.52942C61.6386 9.73456 61.545 9.98129 61.545 10.2696L61.5463 10.3267C61.5588 10.6094 61.6648 10.8506 61.8644 11.0502C62.064 11.2498 62.3052 11.3558 62.5879 11.3683L62.645 11.3696C62.9407 11.3696 63.189 11.2631 63.3901 11.0502C63.5897 10.8506 63.6957 10.6094 63.7082 10.3267L63.7095 10.2696ZM63.5809 22.8259H61.656V12.7933H63.5809V22.8259ZM63.8647 10.2696C63.8647 10.6158 63.7435 10.9146 63.5029 11.1567C63.2722 11.401 62.9829 11.5248 62.645 11.5248C62.2973 11.5248 61.9973 11.4027 61.7546 11.16C61.5119 10.9173 61.3898 10.6173 61.3898 10.2696C61.3898 9.9219 61.5119 9.62191 61.7546 9.37922C61.9973 9.13652 62.2973 9.01437 62.645 9.01437C62.9829 9.01438 63.2723 9.13809 63.503 9.38238H63.5029C63.7436 9.62452 63.8647 9.92338 63.8647 10.2696Z" fill="#18201D"/>
<path d="M56.8073 14.5275C57.0912 13.9716 57.4933 13.5399 58.0137 13.2324C58.5459 12.9248 59.1905 12.7711 59.9475 12.7711V14.4388H59.5217C57.7121 14.4388 56.8073 15.4204 56.8073 17.3838V22.6707H55.1929V12.9485H56.8073V14.5275Z" fill="#18201D"/>
<path d="M56.8074 17.3838C56.8074 15.4511 57.6841 14.4697 59.4376 14.4395L59.5217 14.4388H59.9474V12.7711C59.1905 12.7711 58.5459 12.9248 58.0137 13.2323C57.4933 13.5398 57.0912 13.9716 56.8074 14.5275V12.9485H55.1929V22.6706H56.8074V17.3838ZM56.9625 13.9786C57.2242 13.6207 57.5484 13.3269 57.9347 13.0987L57.936 13.0979C58.4967 12.7739 59.1695 12.6158 59.9474 12.6158H60.1027V14.594H59.5217C58.6442 14.594 58.0138 14.8315 57.6001 15.2803C57.1842 15.7315 56.9625 16.4231 56.9625 17.3838V22.8259H55.0376V12.7933H56.9625V13.9786Z" fill="#18201D"/>
<path d="M48.0849 22.8304C47.1742 22.8304 46.3463 22.6234 45.6011 22.2094C44.8678 21.7955 44.2883 21.21 43.8625 20.453C43.4485 19.6843 43.2416 18.7972 43.2416 17.7919C43.2416 16.7984 43.4545 15.9231 43.8802 15.1662C44.3179 14.3974 44.9092 13.8119 45.6544 13.4098C46.3995 12.9958 47.2333 12.7889 48.1559 12.7889C49.0784 12.7889 49.9122 12.9958 50.6574 13.4098C51.4025 13.8119 51.988 14.3915 52.4137 15.1484C52.8514 15.9054 53.0702 16.7865 53.0702 17.7919C53.0702 18.7972 52.8454 19.6843 52.396 20.453C51.9584 21.21 51.3611 21.7955 50.6041 22.2094C49.8472 22.6234 49.0074 22.8304 48.0849 22.8304ZM48.0849 21.4111C48.6644 21.4111 49.2085 21.275 49.7171 21.003C50.2257 20.731 50.6337 20.3229 50.9412 19.7789C51.2606 19.2348 51.4202 18.5725 51.4202 17.7919C51.4202 17.0113 51.2665 16.3489 50.959 15.8049C50.6515 15.2608 50.2493 14.8587 49.7526 14.5985C49.2558 14.3264 48.7177 14.1904 48.1381 14.1904C47.5468 14.1904 47.0027 14.3264 46.5059 14.5985C46.021 14.8587 45.6307 15.2608 45.335 15.8049C45.0393 16.3489 44.8915 17.0113 44.8915 17.7919C44.8915 18.5843 45.0334 19.2526 45.3173 19.7966C45.613 20.3407 46.0033 20.7487 46.4882 21.0208C46.9731 21.281 47.5054 21.4111 48.0849 21.4111Z" fill="#18201D"/>
<path d="M53.0702 17.7918C53.0702 16.7865 52.8514 15.9054 52.4138 15.1485C52.0013 14.4152 51.4389 13.8484 50.7268 13.448L50.6574 13.4098C49.9123 12.9958 49.0784 12.7889 48.1558 12.7889C47.2333 12.7889 46.3995 12.9958 45.6544 13.4098C44.9092 13.8119 44.3179 14.3974 43.8803 15.1661C43.4545 15.9231 43.2416 16.7983 43.2416 17.7918C43.2416 18.7971 43.4485 19.6843 43.8625 20.4531C44.2883 21.21 44.8679 21.7955 45.6012 22.2095C46.323 22.6105 47.1226 22.8172 47.9998 22.8298L48.085 22.8304C48.9787 22.8304 49.7947 22.6361 50.533 22.2476L50.6041 22.2095C51.3611 21.7955 51.9584 21.21 52.396 20.4531C52.8314 19.7083 53.0559 18.8525 53.0695 17.8858L53.0702 17.7918ZM51.265 17.7918C51.2649 17.0314 51.1152 16.3968 50.8238 15.8812C50.5293 15.3601 50.1478 14.9808 49.6805 14.736L49.6793 14.7354L49.678 14.7346C49.2047 14.4754 48.6922 14.3456 48.1381 14.3456C47.5716 14.3456 47.0534 14.4756 46.5805 14.7346L46.5793 14.7352C46.1243 14.9794 45.7545 15.3581 45.4714 15.879C45.1909 16.3951 45.0467 17.0305 45.0467 17.7918C45.0467 18.5661 45.1854 19.2081 45.4546 19.7244C45.7378 20.2447 46.108 20.6293 46.5638 20.8851C47.0244 21.1318 47.5305 21.2558 48.085 21.2558V21.4111L47.9768 21.4095C47.439 21.3943 46.9428 21.2646 46.4881 21.0207C46.0033 20.7487 45.613 20.3407 45.3173 19.7967C45.0334 19.2526 44.8914 18.5842 44.8914 17.7918C44.8915 17.0356 45.0302 16.3904 45.3077 15.8562L45.335 15.8049C45.6214 15.2778 45.9967 14.884 46.4607 14.6233L46.506 14.5984C47.0027 14.3264 47.5468 14.1904 48.1381 14.1904L48.2463 14.192C48.7847 14.2079 49.2868 14.3434 49.7525 14.5984C50.2493 14.8586 50.6515 15.2608 50.959 15.8049C51.2665 16.3489 51.4202 17.0112 51.4202 17.7918C51.4202 18.5724 51.2605 19.2348 50.9412 19.7789C50.6337 20.3229 50.2257 20.731 49.7172 21.003L49.6213 21.0524C49.1403 21.2915 48.6283 21.411 48.085 21.4111V21.2558C48.6391 21.2558 49.158 21.1261 49.6439 20.8662C50.1243 20.6092 50.5118 20.2231 50.8061 19.7024L50.8068 19.7014L50.8074 19.7003C51.1098 19.1851 51.265 18.5513 51.265 17.7918ZM53.2254 17.7918C53.2254 18.8208 52.9951 19.7353 52.5303 20.5307C52.0786 21.3119 51.4609 21.9179 50.6787 22.3457C49.8973 22.773 49.0317 22.9856 48.085 22.9856C47.1497 22.9856 46.2955 22.7728 45.5258 22.3451L45.5249 22.3446C44.7661 21.9163 44.1664 21.31 43.7272 20.5291L43.7265 20.5279L43.7258 20.5266C43.2979 19.732 43.0863 18.8189 43.0863 17.7918C43.0863 16.7756 43.3044 15.8734 43.745 15.0901L43.7454 15.0893C44.1967 14.2965 44.8087 13.6898 45.5806 13.2732C46.3502 12.846 47.2098 12.6336 48.1558 12.6336C49.1018 12.6336 49.9614 12.846 50.7311 13.2732L50.803 13.3127C51.54 13.7271 52.1221 14.3141 52.5481 15.0708L52.5899 15.1445C53.0151 15.9115 53.2254 16.7955 53.2254 17.7918Z" fill="#18201D"/>
<path d="M35.1511 10.3051C36.4994 10.3051 37.6644 10.5594 38.6461 11.068C39.6396 11.5647 40.3965 12.2803 40.9169 13.2146C41.4492 14.149 41.7153 15.249 41.7153 16.5145C41.7153 17.78 41.4492 18.88 40.9169 19.8144C40.3965 20.7369 39.6396 21.4465 38.6461 21.9433C37.6644 22.4282 36.4994 22.6707 35.1511 22.6707H31.3012V10.3051H35.1511ZM35.1511 21.3401C36.7478 21.3401 37.966 20.9202 38.8057 20.0805C39.6455 19.2289 40.0654 18.0402 40.0654 16.5145C40.0654 14.9769 39.6396 13.7765 38.788 12.913C37.9482 12.0496 36.7359 11.6179 35.1511 11.6179H32.9157V21.3401H35.1511Z" fill="#18201D"/>
<path d="M41.7153 16.5145C41.7153 15.249 41.4491 14.149 40.9169 13.2146C40.3965 12.2803 39.6396 11.5648 38.6461 11.068C37.6644 10.5594 36.4994 10.3051 35.151 10.3051V10.1498C36.5179 10.1498 37.7078 10.4076 38.7155 10.9292L38.8105 10.9776C39.7839 11.4853 40.5324 12.2058 41.0518 13.1378C41.5996 14.0994 41.8706 15.2268 41.8706 16.5145C41.8706 17.8019 41.5996 18.929 41.0521 19.8904L41.0522 19.8906C40.5158 20.8414 39.7352 21.5723 38.7155 22.0822L38.7148 22.0825C37.7074 22.5802 36.5178 22.8259 35.151 22.8259H31.146V10.1498H35.151V10.3051H31.3012V22.6707H35.151L35.277 22.67C36.5303 22.6558 37.6224 22.4284 38.5535 21.988L38.6461 21.9433C39.6396 21.4466 40.3965 20.7369 40.9169 19.8144C41.4325 18.9092 41.6984 17.8486 41.7145 16.6326L41.7153 16.5145ZM39.9102 16.5145C39.9102 15.0063 39.4932 13.8492 38.6774 13.0221L38.6005 12.9452C37.8013 12.1705 36.6592 11.7732 35.151 11.7732H33.0709V21.1848H35.151V21.3401H32.9157V11.6179H35.151C36.7359 11.6179 37.9482 12.0497 38.788 12.9131C39.6395 13.7765 40.0654 14.9769 40.0654 16.5145L40.0642 16.6565C40.0387 18.1142 39.6193 19.2555 38.8058 20.0804C37.966 20.9202 36.7477 21.3401 35.151 21.3401V21.1848C36.7212 21.1848 37.8943 20.7724 38.696 19.9707C39.4993 19.1556 39.9102 18.0107 39.9102 16.5145Z" fill="#18201D"/>
</svg>
