<svg width="236" height="36" viewBox="0 0 236 36" fill="none" xmlns="http://www.w3.org/2000/svg">
<path d="M16.3268 5.50503L12.4216 1.59975C11.3864 0.564619 9.97487 0 8.61037 0C7.33998 0 6.06959 0.470515 5.08151 1.41155C4.09342 2.39963 3.52881 3.67002 3.52881 5.08157C3.52881 6.49311 4.04637 7.7635 5.03446 8.75159L12.1392 15.8564C12.4215 16.1387 12.9391 16.1387 13.2685 15.8564L16.3268 12.798C16.515 12.5628 19.7616 8.89274 16.3268 5.50503Z" fill="#0DBE85"/>
<path d="M22.773 11.7629C22.0202 11.0571 21.2674 10.3043 20.5616 9.45739C20.5616 9.45739 20.5616 9.45739 20.5146 9.41034C20.5146 9.45739 20.4675 9.55149 20.4675 9.6456C20.1852 11.3395 19.3853 12.8451 18.0679 14.1625C13.9274 18.256 9.73977 22.4907 5.69333 26.5371L5.17577 27.0547C4.23474 27.9957 3.71717 28.9838 3.57601 29.9719C3.38781 31.4775 3.90537 33.1714 5.03461 34.3947C6.02269 35.4769 7.34014 36.0415 8.75168 35.9945C10.3514 36.0415 11.1513 35.8063 12.3276 34.677C17.0328 30.066 21.7379 25.4079 25.3138 21.879C27.0077 20.1851 27.3841 17.4562 26.2078 15.5741C25.2197 14.1155 23.9964 12.9392 22.773 11.7629Z" fill="#0DBE85"/>
<path d="M0 9.3162V26.6782C0 27.1487 0.329359 27.431 0.611668 27.5722C0.893977 27.7134 1.31744 27.7134 1.6468 27.384L10.3984 18.6324C10.7278 18.303 10.7278 17.7384 10.3984 17.362L1.6468 8.61043C1.4586 8.42222 1.17629 8.32812 0.988082 8.32812C0.846927 8.32812 0.705771 8.37517 0.611668 8.42222C0.329359 8.56338 0 8.84569 0 9.3162Z" fill="#0DBE85"/>
<path d="M78.3215 25.6841C77.4832 25.6841 76.7314 25.5444 76.0661 25.265C75.4008 24.9723 74.8752 24.5731 74.4894 24.0675C74.1035 23.5485 73.8906 22.9564 73.8507 22.2911H75.7268C75.78 22.8367 76.0329 23.2824 76.4853 23.6284C76.951 23.9743 77.5564 24.1473 78.3015 24.1473C78.9934 24.1473 79.539 23.9943 79.9381 23.6883C80.3373 23.3822 80.5369 22.9963 80.5369 22.5306C80.5369 22.0516 80.324 21.699 79.8982 21.4728C79.4724 21.2333 78.8138 21.0005 77.9223 20.7743C77.1106 20.5614 76.4453 20.3485 75.9264 20.1356C75.4208 19.9094 74.9817 19.5834 74.6091 19.1576C74.2499 18.7185 74.0702 18.1464 74.0702 17.4411C74.0702 16.8823 74.2366 16.37 74.5692 15.9043C74.9019 15.4386 75.3742 15.0727 75.9863 14.8066C76.5984 14.5272 77.2969 14.3874 78.082 14.3874C79.2928 14.3874 80.2708 14.6935 81.0159 15.3055C81.761 15.9176 82.1602 16.7559 82.2134 17.8204H80.3972C80.3573 17.2482 80.1244 16.7892 79.6986 16.4432C79.2861 16.0972 78.7273 15.9243 78.0221 15.9243C77.3701 15.9243 76.8512 16.064 76.4653 16.3434C76.0794 16.6228 75.8865 16.9887 75.8865 17.4411C75.8865 17.8004 75.9996 18.0998 76.2258 18.3393C76.4653 18.5655 76.758 18.7518 77.104 18.8981C77.4632 19.0312 77.9556 19.1842 78.5809 19.3572C79.366 19.5701 80.0047 19.783 80.497 19.9959C80.9893 20.1955 81.4084 20.5015 81.7544 20.914C82.1136 21.3265 82.2999 21.8653 82.3132 22.5306C82.3132 23.1294 82.1469 23.6683 81.8143 24.1473C81.4816 24.6263 81.0093 25.0055 80.3972 25.285C79.7984 25.5511 79.1065 25.6841 78.3215 25.6841Z" fill="#18201D"/>
<path d="M75.8851 22.1165L75.9005 22.2742C75.9488 22.7694 76.1756 23.1718 76.5912 23.4896C77.0189 23.8066 77.5841 23.9727 78.3013 23.9727V24.1472L78.1632 24.1452C77.481 24.125 76.9216 23.9527 76.485 23.6284C76.0326 23.2824 75.7799 22.8366 75.7266 22.2911H73.8505C73.8904 22.9564 74.1033 23.5486 74.4892 24.0675C74.8751 24.5731 75.4006 24.9723 76.0659 25.265C76.6896 25.527 77.3893 25.6661 78.165 25.6824L78.3212 25.6841C79.1063 25.6841 79.7982 25.551 80.3969 25.2849C81.009 25.0055 81.4814 24.6263 81.814 24.1472C82.1467 23.6682 82.313 23.1294 82.313 22.5306C82.2997 21.8653 82.1134 21.3264 81.7542 20.914C81.4082 20.5015 80.9891 20.1954 80.4968 19.9959C80.0661 19.8096 79.5232 19.6233 78.8683 19.437L78.5807 19.3572C77.9554 19.1842 77.4631 19.0312 77.1038 18.8981C76.7579 18.7517 76.4651 18.5655 76.2256 18.3393C75.9994 18.0998 75.8863 17.8003 75.8863 17.4411C75.8863 17.0169 76.0559 16.6688 76.395 16.3968L76.4651 16.3435C76.851 16.064 77.3699 15.9242 78.0219 15.9242L78.1524 15.9263C78.7964 15.9466 79.3117 16.1189 79.6984 16.4432C80.1109 16.7784 80.3423 17.2196 80.3927 17.7671L80.3969 17.8204H82.2132C82.1617 16.7892 81.7854 15.9702 81.0845 15.3635L81.0157 15.3055C80.2706 14.6935 79.2926 14.3874 78.0818 14.3874C77.2967 14.3874 76.5981 14.5271 75.986 14.8065C75.374 15.0727 74.9017 15.4386 74.5691 15.9043L74.5087 15.9921C74.2163 16.4342 74.0701 16.9171 74.0701 17.4411L74.0722 17.5718C74.0933 18.2173 74.2722 18.746 74.609 19.1576C74.9815 19.5834 75.4206 19.9094 75.9262 20.1356C76.4451 20.3485 77.1105 20.5614 77.9221 20.7743C78.8136 21.0005 79.4723 21.2333 79.8981 21.4728C80.3238 21.699 80.5366 22.0516 80.5366 22.5306C80.5366 22.9963 80.337 23.3821 79.9379 23.6882C79.5387 23.9942 78.9932 24.1472 78.3013 24.1472V23.9727C78.969 23.9727 79.4726 23.8249 79.8317 23.5496C80.1917 23.2736 80.3621 22.9371 80.3621 22.5306C80.3621 22.3177 80.315 22.1421 80.2275 21.9972C80.14 21.8523 80.0059 21.7278 79.8161 21.627L79.8124 21.625C79.407 21.397 78.7663 21.1686 77.8791 20.9435L77.8778 20.9432C77.062 20.7292 76.3886 20.514 75.86 20.2972L75.8574 20.2962L75.8548 20.295C75.3257 20.0583 74.8663 19.7169 74.4775 19.2726L74.4755 19.2705L74.4737 19.2682C74.0832 18.7909 73.8954 18.1765 73.8954 17.4411C73.8954 16.8449 74.0737 16.2974 74.4269 15.8028C74.7803 15.3081 75.2787 14.9242 75.9135 14.6477C76.5519 14.3562 77.2758 14.2128 78.0818 14.2128C79.3224 14.2128 80.3429 14.5268 81.1266 15.1705C81.914 15.8173 82.3322 16.7037 82.3876 17.8116L82.3969 17.9949H80.234L80.2228 17.8325C80.1861 17.3061 79.9746 16.8926 79.5882 16.5787L79.5863 16.577C79.2139 16.2646 78.699 16.0989 78.0219 16.0989C77.3934 16.0989 76.9145 16.2337 76.5676 16.4849C76.2243 16.7335 76.0609 17.0481 76.0609 17.4411C76.0609 17.7588 76.1591 18.0131 76.3501 18.2166C76.5711 18.4242 76.8433 18.5978 77.1693 18.7361C77.5213 18.8662 78.0063 19.0171 78.6264 19.1886C79.4139 19.4022 80.0601 19.6171 80.5624 19.834C81.0805 20.044 81.5222 20.3665 81.8858 20.7993H81.8859C82.2776 21.2489 82.4737 21.8302 82.4877 22.5272V22.5306C82.4877 23.1639 82.3111 23.7378 81.9576 24.2469C81.6044 24.7554 81.1057 25.1534 80.4695 25.4438L80.468 25.4445C79.8429 25.7223 79.126 25.8588 78.3212 25.8588C77.4635 25.8588 76.6881 25.7158 75.9982 25.4261L75.997 25.4255L75.9955 25.4248C75.3072 25.1219 74.7565 24.7056 74.3503 24.1734L74.3496 24.1725L74.3491 24.1717C73.9423 23.6246 73.718 22.9997 73.6761 22.3016L73.665 22.1165H75.8851Z" fill="#18201D"/>
<path d="M70.4755 12.7907C70.1296 12.7907 69.8368 12.671 69.5973 12.4315C69.3578 12.192 69.2381 11.8992 69.2381 11.5533C69.2381 11.2073 69.3578 10.9146 69.5973 10.6751C69.8368 10.4356 70.1296 10.3158 70.4755 10.3158C70.8082 10.3158 71.0876 10.4356 71.3138 10.6751C71.5533 10.9146 71.6731 11.2073 71.6731 11.5533C71.6731 11.8992 71.5533 12.192 71.3138 12.4315C71.0876 12.671 70.8082 12.7907 70.4755 12.7907ZM71.3537 14.5671V25.5045H69.5375V14.5671H71.3537Z" fill="#18201D"/>
<path d="M71.3537 14.567H69.5375V25.5044H71.3537V14.567ZM71.673 11.5533C71.673 11.2073 71.5533 10.9146 71.3138 10.6751C71.1017 10.4506 70.8428 10.3313 70.5372 10.3172L70.4755 10.3158C70.1296 10.3158 69.8369 10.4356 69.5974 10.6751L69.5539 10.7206C69.3433 10.9514 69.2381 11.2289 69.2381 11.5533L69.2395 11.6175C69.2535 11.9356 69.3728 12.2069 69.5974 12.4315C69.8219 12.656 70.0932 12.7753 70.4113 12.7893L70.4755 12.7907C70.8082 12.7907 71.0876 12.671 71.3138 12.4315C71.5383 12.2069 71.6576 11.9356 71.6716 11.6175L71.673 11.5533ZM71.5284 25.6791H69.3629V14.3925H71.5284V25.6791ZM71.8477 11.5533C71.8477 11.9427 71.7114 12.2789 71.4407 12.5513C71.1811 12.8261 70.8557 12.9654 70.4755 12.9654C70.0844 12.9654 69.7469 12.828 69.4738 12.555C69.2008 12.2819 69.0634 11.9444 69.0634 11.5533C69.0634 11.1621 69.2008 10.8246 69.4738 10.5516C69.7469 10.2786 70.0844 10.1412 70.4755 10.1412C70.8557 10.1412 71.1813 10.2803 71.4408 10.5552H71.4407C71.7114 10.8276 71.8477 11.1638 71.8477 11.5533Z" fill="#18201D"/>
<path d="M63.9083 16.3434C64.2276 15.718 64.68 15.2323 65.2655 14.8864C65.8642 14.5404 66.5894 14.3675 67.441 14.3675V16.2436H66.962C64.9262 16.2436 63.9083 17.348 63.9083 19.5568V25.5045H62.092V14.5671H63.9083V16.3434Z" fill="#18201D"/>
<path d="M63.9083 19.5568C63.9083 17.3825 64.8946 16.2784 66.8673 16.2445L66.962 16.2436H67.4409V14.3674C66.5894 14.3675 65.8642 14.5404 65.2655 14.8863C64.68 15.2323 64.2277 15.718 63.9083 16.3434V14.567H62.092V25.5044H63.9083V19.5568ZM64.0829 15.7259C64.3773 15.3233 64.742 14.9928 65.1766 14.736L65.1781 14.7351C65.8089 14.3706 66.5657 14.1928 67.4409 14.1928H67.6156V16.4183H66.962C65.9748 16.4183 65.2655 16.6854 64.8001 17.1903C64.3323 17.6979 64.0829 18.4759 64.0829 19.5568V25.6791H61.9173V14.3925H64.0829V15.7259Z" fill="#18201D"/>
<path d="M54.0957 25.6841C53.0712 25.6841 52.1398 25.4513 51.3015 24.9856C50.4765 24.5199 49.8245 23.8612 49.3455 23.0097C48.8798 22.1448 48.647 21.1468 48.647 20.0158C48.647 18.8981 48.8865 17.9135 49.3655 17.0619C49.8578 16.197 50.5231 15.5384 51.3614 15.086C52.1996 14.6203 53.1377 14.3874 54.1755 14.3874C55.2134 14.3874 56.1515 14.6203 56.9897 15.086C57.828 15.5384 58.4867 16.1904 58.9657 17.042C59.458 17.8935 59.7041 18.8848 59.7041 20.0158C59.7041 21.1468 59.4513 22.1448 58.9457 23.0097C58.4534 23.8612 57.7814 24.5199 56.9299 24.9856C56.0783 25.4513 55.1336 25.6841 54.0957 25.6841ZM54.0957 24.0874C54.7477 24.0874 55.3598 23.9344 55.9319 23.6284C56.5041 23.3223 56.9631 22.8633 57.3091 22.2512C57.6683 21.6391 57.848 20.894 57.848 20.0158C57.848 19.1376 57.675 18.3925 57.329 17.7804C56.9831 17.1684 56.5307 16.716 55.9718 16.4232C55.413 16.1172 54.8076 15.9642 54.1556 15.9642C53.4903 15.9642 52.8782 16.1172 52.3194 16.4232C51.7738 16.716 51.3347 17.1684 51.0021 17.7804C50.6695 18.3925 50.5031 19.1376 50.5031 20.0158C50.5031 20.9073 50.6628 21.6591 50.9821 22.2712C51.3148 22.8832 51.7539 23.3423 52.2994 23.6483C52.845 23.9411 53.4437 24.0874 54.0957 24.0874Z" fill="#18201D"/>
<path d="M59.7042 20.0157C59.7042 18.8848 59.458 17.8935 58.9657 17.042C58.5017 16.217 57.869 15.5794 57.0678 15.129L56.9898 15.086C56.1515 14.6203 55.2134 14.3874 54.1755 14.3874C53.1377 14.3874 52.1996 14.6203 51.3613 15.086C50.5231 15.5384 49.8578 16.197 49.3655 17.0619C48.8865 17.9134 48.647 18.8981 48.6469 20.0157C48.6469 21.1467 48.8798 22.1448 49.3455 23.0097C49.8245 23.8613 50.4765 24.5199 51.3015 24.9856C52.1136 25.4368 53.0131 25.6693 54 25.6834L54.0958 25.6841C55.1012 25.6841 56.0192 25.4656 56.8498 25.0285L56.9298 24.9856C57.7814 24.5199 58.4534 23.8612 58.9457 23.0097C59.4355 22.1718 59.688 21.2091 59.7033 20.1215L59.7042 20.0157ZM57.6733 20.0157C57.6733 19.1603 57.5048 18.4464 57.177 17.8663C56.8456 17.2801 56.4165 16.8533 55.8908 16.578L55.8893 16.5772L55.8879 16.5764C55.3554 16.2848 54.779 16.1388 54.1556 16.1388C53.5183 16.1388 52.9352 16.2851 52.4032 16.5764L52.402 16.5771C51.8901 16.8518 51.474 17.2778 51.1555 17.8639C50.84 18.4445 50.6777 19.1593 50.6777 20.0157C50.6777 20.8868 50.8337 21.6091 51.1366 22.1899C51.4552 22.7752 51.8716 23.208 52.3845 23.4958C52.9026 23.7732 53.472 23.9127 54.0958 23.9127V24.0874L53.9741 24.0857C53.3691 24.0686 52.8108 23.9227 52.2993 23.6482C51.7539 23.3422 51.3148 22.8832 50.9822 22.2712C50.6628 21.6592 50.5031 20.9072 50.5031 20.0157C50.5031 19.165 50.6592 18.4391 50.9713 17.8382L51.002 17.7805C51.3243 17.1875 51.7465 16.7444 52.2685 16.4512L52.3194 16.4232C52.8782 16.1172 53.4903 15.9641 54.1556 15.9641L54.2773 15.966C54.883 15.9839 55.4479 16.1363 55.9718 16.4232C56.5306 16.7159 56.9831 17.1684 57.329 17.7805C57.675 18.3925 57.8479 19.1376 57.8479 20.0157C57.8479 20.8939 57.6683 21.6391 57.309 22.2512C56.9631 22.8632 56.5041 23.3223 55.932 23.6284L55.8241 23.6839C55.2831 23.9529 54.707 24.0874 54.0958 24.0874V23.9127C54.7191 23.9127 55.3029 23.7668 55.8495 23.4744C56.3901 23.1853 56.826 22.7509 57.1571 22.1652L57.1578 22.1641L57.1585 22.1628C57.4987 21.5832 57.6733 20.8702 57.6733 20.0157ZM59.8787 20.0157C59.8787 21.1733 59.6197 22.2022 59.0968 23.097C58.5887 23.9758 57.8937 24.6576 57.0137 25.1388C56.1346 25.6195 55.1608 25.8588 54.0958 25.8588C53.0436 25.8588 52.0826 25.6194 51.2167 25.1383L51.2157 25.1377C50.362 24.6558 49.6874 23.9737 49.1933 23.0953L49.1925 23.0938L49.1917 23.0924C48.7104 22.1985 48.4723 21.1712 48.4723 20.0157C48.4723 18.8725 48.7176 17.8576 49.2133 16.9763L49.2137 16.9755C49.7215 16.0835 50.41 15.401 51.2783 14.9323C52.1442 14.4517 53.1112 14.2128 54.1755 14.2128C55.2398 14.2128 56.2068 14.4517 57.0727 14.9323L57.1535 14.9768C57.9827 15.4429 58.6376 16.1034 59.1168 16.9546L59.1638 17.0376C59.6422 17.9004 59.8787 18.8949 59.8787 20.0157Z" fill="#18201D"/>
<path d="M39.545 11.5932C41.0619 11.5932 42.3725 11.8793 43.4769 12.4514C44.5946 13.0103 45.4462 13.8153 46.0316 14.8665C46.6304 15.9176 46.9298 17.1551 46.9298 18.5788C46.9298 20.0025 46.6304 21.24 46.0316 22.2911C45.4462 23.329 44.5946 24.1273 43.4769 24.6862C42.3725 25.2317 41.0619 25.5045 39.545 25.5045H35.214V11.5932H39.545ZM39.545 24.0076C41.3413 24.0076 42.7118 23.5352 43.6566 22.5905C44.6013 21.6325 45.0736 20.2953 45.0736 18.5788C45.0736 16.849 44.5946 15.4985 43.6366 14.5272C42.6919 13.5558 41.328 13.0702 39.545 13.0702H37.0302V24.0076H39.545Z" fill="#18201D"/>
<path d="M46.9298 18.5788C46.9298 17.1551 46.6303 15.9176 46.0316 14.8664C45.4461 13.8153 44.5946 13.0103 43.4769 12.4515C42.3726 11.8793 41.0619 11.5932 39.545 11.5932V11.4185C41.0827 11.4185 42.4214 11.7085 43.555 12.2953L43.6618 12.3497C44.757 12.9209 45.599 13.7315 46.1834 14.78C46.7996 15.8618 47.1045 17.1301 47.1045 18.5788C47.1045 20.0271 46.7996 21.2951 46.1837 22.3767L46.1838 22.3769C45.5804 23.4465 44.7022 24.2688 43.555 24.8424L43.5543 24.8428C42.4209 25.4027 41.0826 25.6791 39.545 25.6791H35.0393V11.4185H39.545V11.5932H35.214V25.5045H39.545L39.6867 25.5037C41.0966 25.4877 42.3253 25.232 43.3728 24.7365L43.4769 24.6862C44.5946 24.1274 45.4461 23.329 46.0316 22.2912C46.6116 21.2728 46.9108 20.0796 46.9289 18.7117L46.9298 18.5788ZM44.899 18.5788C44.899 16.882 44.4299 15.5803 43.5122 14.6498L43.4256 14.5633C42.5266 13.6918 41.2416 13.2448 39.545 13.2448H37.2048V23.8329H39.545V24.0076H37.0303V13.0701H39.545C41.328 13.0701 42.6918 13.5558 43.6365 14.5272C44.5946 15.4985 45.0737 16.849 45.0737 18.5788L45.0723 18.7385C45.0437 20.3784 44.5718 21.6624 43.6566 22.5905C42.7119 23.5352 41.3413 24.0076 39.545 24.0076V23.8329C41.3114 23.8329 42.6311 23.3689 43.5331 22.467C44.4367 21.55 44.899 20.262 44.899 18.5788Z" fill="#18201D"/>
<path d="M231.309 14.724C232.509 14.724 233.481 15.09 234.225 15.822C234.969 16.542 235.341 17.586 235.341 18.954V24.768H233.721V19.188C233.721 18.204 233.475 17.454 232.983 16.938C232.491 16.41 231.819 16.146 230.967 16.146C230.103 16.146 229.413 16.416 228.897 16.956C228.393 17.496 228.141 18.282 228.141 19.314V24.768H226.503V14.904H228.141V16.308C228.465 15.804 228.903 15.414 229.455 15.138C230.019 14.862 230.637 14.724 231.309 14.724Z" fill="#252C2A"/>
<path d="M219.363 24.93C218.439 24.93 217.599 24.72 216.843 24.3C216.099 23.88 215.511 23.286 215.079 22.518C214.659 21.738 214.449 20.838 214.449 19.818C214.449 18.81 214.665 17.922 215.097 17.154C215.541 16.374 216.141 15.78 216.897 15.372C217.653 14.952 218.499 14.742 219.435 14.742C220.371 14.742 221.217 14.952 221.973 15.372C222.729 15.78 223.323 16.368 223.755 17.136C224.199 17.904 224.421 18.798 224.421 19.818C224.421 20.838 224.193 21.738 223.737 22.518C223.293 23.286 222.687 23.88 221.919 24.3C221.151 24.72 220.299 24.93 219.363 24.93ZM219.363 23.49C219.951 23.49 220.503 23.352 221.019 23.076C221.535 22.8 221.949 22.386 222.261 21.834C222.585 21.282 222.747 20.61 222.747 19.818C222.747 19.026 222.591 18.354 222.279 17.802C221.967 17.25 221.559 16.842 221.055 16.578C220.551 16.302 220.005 16.164 219.417 16.164C218.817 16.164 218.265 16.302 217.761 16.578C217.269 16.842 216.873 17.25 216.573 17.802C216.273 18.354 216.123 19.026 216.123 19.818C216.123 20.622 216.267 21.3 216.555 21.852C216.855 22.404 217.251 22.818 217.743 23.094C218.235 23.358 218.775 23.49 219.363 23.49Z" fill="#252C2A"/>
<path d="M211.549 13.302C211.237 13.302 210.973 13.194 210.757 12.978C210.541 12.762 210.433 12.498 210.433 12.186C210.433 11.874 210.541 11.61 210.757 11.394C210.973 11.178 211.237 11.07 211.549 11.07C211.849 11.07 212.101 11.178 212.305 11.394C212.521 11.61 212.629 11.874 212.629 12.186C212.629 12.498 212.521 12.762 212.305 12.978C212.101 13.194 211.849 13.302 211.549 13.302ZM212.341 14.904V24.768H210.703V14.904H212.341Z" fill="#252C2A"/>
<path d="M206.217 16.254V22.068C206.217 22.548 206.319 22.89 206.523 23.094C206.727 23.286 207.081 23.382 207.585 23.382H208.791V24.768H207.315C206.403 24.768 205.719 24.558 205.263 24.138C204.807 23.718 204.579 23.028 204.579 22.068V16.254H203.301V14.904H204.579V12.42H206.217V14.904H208.791V16.254H206.217Z" fill="#252C2A"/>
<path d="M191.514 19.8C191.514 18.792 191.718 17.91 192.126 17.154C192.534 16.386 193.092 15.792 193.8 15.372C194.52 14.952 195.318 14.742 196.194 14.742C197.058 14.742 197.808 14.928 198.444 15.3C199.08 15.672 199.554 16.14 199.866 16.704V14.904H201.522V24.768H199.866V22.932C199.542 23.508 199.056 23.988 198.408 24.372C197.772 24.744 197.028 24.93 196.176 24.93C195.3 24.93 194.508 24.714 193.8 24.282C193.092 23.85 192.534 23.244 192.126 22.464C191.718 21.684 191.514 20.796 191.514 19.8ZM199.866 19.818C199.866 19.074 199.716 18.426 199.416 17.874C199.116 17.322 198.708 16.902 198.192 16.614C197.688 16.314 197.13 16.164 196.518 16.164C195.906 16.164 195.348 16.308 194.844 16.596C194.34 16.884 193.938 17.304 193.638 17.856C193.338 18.408 193.188 19.056 193.188 19.8C193.188 20.556 193.338 21.216 193.638 21.78C193.938 22.332 194.34 22.758 194.844 23.058C195.348 23.346 195.906 23.49 196.518 23.49C197.13 23.49 197.688 23.346 198.192 23.058C198.708 22.758 199.116 22.332 199.416 21.78C199.716 21.216 199.866 20.562 199.866 19.818Z" fill="#252C2A"/>
<path d="M187.64 16.254V22.068C187.64 22.548 187.742 22.89 187.946 23.094C188.15 23.286 188.504 23.382 189.008 23.382H190.214V24.768H188.738C187.826 24.768 187.142 24.558 186.686 24.138C186.23 23.718 186.002 23.028 186.002 22.068V16.254H184.724V14.904H186.002V12.42H187.64V14.904H190.214V16.254H187.64Z" fill="#252C2A"/>
<path d="M179.007 14.724C180.207 14.724 181.179 15.09 181.923 15.822C182.667 16.542 183.039 17.586 183.039 18.954V24.768H181.419V19.188C181.419 18.204 181.173 17.454 180.681 16.938C180.189 16.41 179.517 16.146 178.665 16.146C177.801 16.146 177.111 16.416 176.595 16.956C176.091 17.496 175.839 18.282 175.839 19.314V24.768H174.201V14.904H175.839V16.308C176.163 15.804 176.601 15.414 177.153 15.138C177.717 14.862 178.335 14.724 179.007 14.724Z" fill="#252C2A"/>
<path d="M172.11 19.458C172.11 19.77 172.092 20.1 172.056 20.448H164.172C164.232 21.42 164.562 22.182 165.162 22.734C165.774 23.274 166.512 23.544 167.376 23.544C168.084 23.544 168.672 23.382 169.14 23.058C169.62 22.722 169.956 22.278 170.148 21.726H171.912C171.648 22.674 171.12 23.448 170.328 24.048C169.536 24.636 168.552 24.93 167.376 24.93C166.44 24.93 165.6 24.72 164.856 24.3C164.124 23.88 163.548 23.286 163.128 22.518C162.708 21.738 162.498 20.838 162.498 19.818C162.498 18.798 162.702 17.904 163.11 17.136C163.518 16.368 164.088 15.78 164.82 15.372C165.564 14.952 166.416 14.742 167.376 14.742C168.312 14.742 169.14 14.946 169.86 15.354C170.58 15.762 171.132 16.326 171.516 17.046C171.912 17.754 172.11 18.558 172.11 19.458ZM170.418 19.116C170.418 18.492 170.28 17.958 170.004 17.514C169.728 17.058 169.35 16.716 168.87 16.488C168.402 16.248 167.88 16.128 167.304 16.128C166.476 16.128 165.768 16.392 165.18 16.92C164.604 17.448 164.274 18.18 164.19 19.116H170.418Z" fill="#252C2A"/>
<path d="M156.499 14.724C157.267 14.724 157.951 14.886 158.551 15.21C159.151 15.522 159.625 15.996 159.973 16.632C160.321 17.268 160.495 18.042 160.495 18.954V24.768H158.875V19.188C158.875 18.204 158.629 17.454 158.137 16.938C157.657 16.41 157.003 16.146 156.175 16.146C155.323 16.146 154.645 16.422 154.141 16.974C153.637 17.514 153.385 18.3 153.385 19.332V24.768H151.765V19.188C151.765 18.204 151.519 17.454 151.027 16.938C150.547 16.41 149.893 16.146 149.065 16.146C148.213 16.146 147.535 16.422 147.031 16.974C146.527 17.514 146.275 18.3 146.275 19.332V24.768H144.637V14.904H146.275V16.326C146.599 15.81 147.031 15.414 147.571 15.138C148.123 14.862 148.729 14.724 149.389 14.724C150.217 14.724 150.949 14.91 151.585 15.282C152.221 15.654 152.695 16.2 153.007 16.92C153.283 16.224 153.739 15.684 154.375 15.3C155.011 14.916 155.719 14.724 156.499 14.724Z" fill="#252C2A"/>
<path d="M141.944 14.904V24.768H140.306V23.31C139.994 23.814 139.556 24.21 138.992 24.498C138.44 24.774 137.828 24.912 137.156 24.912C136.388 24.912 135.698 24.756 135.086 24.444C134.474 24.12 133.988 23.64 133.628 23.004C133.28 22.368 133.106 21.594 133.106 20.682V14.904H134.726V20.466C134.726 21.438 134.972 22.188 135.464 22.716C135.956 23.232 136.628 23.49 137.48 23.49C138.356 23.49 139.046 23.22 139.55 22.68C140.054 22.14 140.306 21.354 140.306 20.322V14.904H141.944Z" fill="#252C2A"/>
<path d="M121.722 19.818C121.722 18.798 121.926 17.91 122.334 17.154C122.742 16.386 123.306 15.792 124.026 15.372C124.758 14.952 125.592 14.742 126.528 14.742C127.74 14.742 128.736 15.036 129.516 15.624C130.308 16.212 130.83 17.028 131.082 18.072H129.318C129.15 17.472 128.82 16.998 128.328 16.65C127.848 16.302 127.248 16.128 126.528 16.128C125.592 16.128 124.836 16.452 124.26 17.1C123.684 17.736 123.396 18.642 123.396 19.818C123.396 21.006 123.684 21.924 124.26 22.572C124.836 23.22 125.592 23.544 126.528 23.544C127.248 23.544 127.848 23.376 128.328 23.04C128.808 22.704 129.138 22.224 129.318 21.6H131.082C130.818 22.608 130.29 23.418 129.498 24.03C128.706 24.63 127.716 24.93 126.528 24.93C125.592 24.93 124.758 24.72 124.026 24.3C123.306 23.88 122.742 23.286 122.334 22.518C121.926 21.75 121.722 20.85 121.722 19.818Z" fill="#252C2A"/>
<path d="M115.194 24.93C114.27 24.93 113.43 24.72 112.674 24.3C111.93 23.88 111.342 23.286 110.91 22.518C110.49 21.738 110.28 20.838 110.28 19.818C110.28 18.81 110.496 17.922 110.928 17.154C111.372 16.374 111.972 15.78 112.728 15.372C113.484 14.952 114.33 14.742 115.266 14.742C116.202 14.742 117.048 14.952 117.804 15.372C118.56 15.78 119.154 16.368 119.586 17.136C120.03 17.904 120.252 18.798 120.252 19.818C120.252 20.838 120.024 21.738 119.568 22.518C119.124 23.286 118.518 23.88 117.75 24.3C116.982 24.72 116.13 24.93 115.194 24.93ZM115.194 23.49C115.782 23.49 116.334 23.352 116.85 23.076C117.366 22.8 117.78 22.386 118.092 21.834C118.416 21.282 118.578 20.61 118.578 19.818C118.578 19.026 118.422 18.354 118.11 17.802C117.798 17.25 117.39 16.842 116.886 16.578C116.382 16.302 115.836 16.164 115.248 16.164C114.648 16.164 114.096 16.302 113.592 16.578C113.1 16.842 112.704 17.25 112.404 17.802C112.104 18.354 111.954 19.026 111.954 19.818C111.954 20.622 112.098 21.3 112.386 21.852C112.686 22.404 113.082 22.818 113.574 23.094C114.066 23.358 114.606 23.49 115.194 23.49Z" fill="#252C2A"/>
<path d="M102.144 12.222C103.512 12.222 104.694 12.48 105.69 12.996C106.698 13.5 107.466 14.226 107.994 15.174C108.534 16.122 108.804 17.238 108.804 18.522C108.804 19.806 108.534 20.922 107.994 21.87C107.466 22.806 106.698 23.526 105.69 24.03C104.694 24.522 103.512 24.768 102.144 24.768H98.2378V12.222H102.144ZM102.144 23.418C103.764 23.418 105 22.992 105.852 22.14C106.704 21.276 107.13 20.07 107.13 18.522C107.13 16.962 106.698 15.744 105.834 14.868C104.982 13.992 103.752 13.554 102.144 13.554H99.8758V23.418H102.144Z" fill="#252C2A"/>
</svg>
