<svg width="159" height="30" viewBox="0 0 159 30" fill="none" xmlns="http://www.w3.org/2000/svg">
<g clip-path="url(#clip0_1609_6655)">
<path d="M13.6055 4.59429L10.3322 1.32107C9.91508 0.90283 9.4196 0.57089 8.87411 0.344218C8.32862 0.117546 7.74381 0.000586913 7.15309 1.93118e-05C6.06361 -0.00328922 5.01583 0.418635 4.23267 1.17603C3.82369 1.57082 3.49737 2.04305 3.27269 2.56521C3.04802 3.08736 2.9295 3.649 2.92403 4.21741C2.91855 4.78583 3.02624 5.34965 3.24082 5.87603C3.4554 6.40241 3.77257 6.88084 4.17387 7.28343L10.1127 13.2223C10.2387 13.3417 10.4056 13.4082 10.5792 13.4082C10.7528 13.4082 10.9197 13.3417 11.0457 13.2223L13.6016 10.6664C13.7623 10.4743 16.4357 7.42063 13.6055 4.59429Z" fill="#15A9CA"/>
<path d="M18.9692 9.82317C18.3459 9.21949 17.6991 8.5962 17.115 7.92196V7.89844C17.0942 7.95976 17.0784 8.02269 17.068 8.0866C16.8227 9.5194 16.1199 10.8342 15.0648 11.8342C11.6191 15.2563 8.13421 18.753 4.76298 22.136L4.30826 22.5868C3.61334 23.226 3.14433 24.0733 2.97152 25.0015C2.89854 25.6633 2.9678 26.333 3.17468 26.9658C3.38155 27.5986 3.72126 28.1798 4.17105 28.6707C4.55505 29.1062 5.03102 29.451 5.56455 29.6802C6.09808 29.9093 6.67586 30.0171 7.25612 29.9957C8.60069 30.0153 9.25533 29.8389 10.2353 28.8863C14.1554 25.0486 18.0754 21.1795 21.0429 18.2395C22.4423 16.8479 22.7638 14.5429 21.772 12.9906C20.9654 11.8283 20.0246 10.7652 18.9692 9.82317Z" fill="#52CAA3"/>
<path d="M-0.00390618 7.7743V22.2314C-0.00397307 22.3904 0.0431223 22.5458 0.131419 22.678C0.219716 22.8102 0.345246 22.9133 0.492127 22.9741C0.639009 23.035 0.800637 23.0509 0.956566 23.0199C1.1125 22.9888 1.25572 22.9122 1.3681 22.7998L8.64368 15.5242C8.78109 15.3855 8.85817 15.1981 8.85817 15.0028C8.85817 14.8076 8.78109 14.6202 8.64368 14.4815L1.3681 7.2059C1.29503 7.13135 1.20781 7.07215 1.11155 7.03176C1.01529 6.99137 0.911933 6.97061 0.807543 6.9707C0.593686 6.97069 0.388466 7.05511 0.236514 7.20559C0.0845616 7.35607 -0.00183992 7.56046 -0.00390618 7.7743Z" fill="#5268AD"/>
<path d="M31.748 21.1408V8.875H35.3858C39.3725 8.875 41.8539 11.227 41.8539 15.002C41.8539 18.777 39.3725 21.1408 35.3858 21.1408H31.748ZM33.7081 19.3846H35.4682C38.1612 19.3846 39.8978 17.6676 39.8978 15.0138C39.8978 12.3599 38.1612 10.6429 35.4682 10.6429H33.7081V19.3846Z" fill="#1D2434"/>
<path d="M50.6121 21.3296C49.7812 21.3296 48.9585 21.166 48.1909 20.848C47.4232 20.5301 46.7258 20.064 46.1383 19.4765C45.5508 18.889 45.0847 18.1915 44.7668 17.4239C44.4488 16.6563 44.2852 15.8336 44.2852 15.0027C44.2852 14.1718 44.4488 13.3491 44.7668 12.5815C45.0847 11.8139 45.5508 11.1164 46.1383 10.5289C46.7258 9.94139 47.4232 9.47535 48.1909 9.15739C48.9585 8.83944 49.7812 8.67578 50.6121 8.67578C51.4429 8.67578 52.2657 8.83944 53.0333 9.15739C53.8009 9.47535 54.4984 9.94139 55.0859 10.5289C55.6734 11.1164 56.1394 11.8139 56.4574 12.5815C56.7754 13.3491 56.939 14.1718 56.939 15.0027C56.939 15.8336 56.7754 16.6563 56.4574 17.4239C56.1394 18.1915 55.6734 18.889 55.0859 19.4765C54.4984 20.064 53.8009 20.5301 53.0333 20.848C52.2657 21.166 51.4429 21.3296 50.6121 21.3296ZM50.6121 10.4947C49.449 10.5432 48.3497 11.0394 47.5439 11.8795C46.7381 12.7196 46.2882 13.8386 46.2882 15.0027C46.2882 16.1668 46.7381 17.2858 47.5439 18.126C48.3497 18.9661 49.449 19.4622 50.6121 19.5107C51.7977 19.4832 52.9258 18.9944 53.7566 18.1482C54.5875 17.302 55.0555 16.1651 55.0613 14.9792C55.0645 13.795 54.5978 12.6578 53.7638 11.8172C52.9297 10.9765 51.7963 10.5009 50.6121 10.4947Z" fill="#1D2434"/>
<path d="M75.0559 8.875H73.041V21.129H75.0559V8.875Z" fill="#1D2434"/>
<path d="M82.4742 21.3296C81.1795 21.3193 79.9005 21.0459 78.7148 20.526V18.7228C79.8924 19.2753 81.1736 19.5719 82.4742 19.5931C84.0422 19.5931 85.0888 18.8757 85.0888 17.8134C85.0888 16.6178 83.8109 16.1434 82.4585 15.6417C80.3377 14.8577 78.7148 14.1011 78.7148 12.0941C78.7148 9.57348 80.9963 8.67578 82.9524 8.67578C84.052 8.6765 85.1419 8.88119 86.1668 9.27947V11.0435C85.1273 10.6289 84.0205 10.4084 82.9014 10.3928C81.3961 10.3928 80.7219 11.1768 80.7219 11.9608C80.7219 12.9996 81.8509 13.4151 83.1758 13.8933C85.4887 14.7283 87.2527 15.5437 87.2527 17.735C87.2448 19.8596 85.2848 21.3296 82.4742 21.3296Z" fill="#1D2434"/>
<path d="M66.026 16.1741L66.7904 15.8448C67.4416 15.565 67.9968 15.1008 68.3875 14.5095C68.7782 13.9181 68.9875 13.2255 68.9896 12.5167C68.9896 10.3058 67.398 8.87891 64.9363 8.87891H60.291V21.1408H62.251V10.6116H64.7285C65.0223 10.5938 65.3166 10.6367 65.5931 10.7374C65.8697 10.8381 66.1226 10.9946 66.3361 11.1971C66.5497 11.3997 66.7193 11.6439 66.8346 11.9147C66.9498 12.1856 67.0082 12.4772 67.006 12.7715C67.0048 13.0648 66.9441 13.3549 66.8277 13.6241C66.7113 13.8934 66.5416 14.1362 66.3288 14.3381C66.1159 14.5399 65.8644 14.6966 65.5894 14.7986C65.3143 14.9005 65.0215 14.9457 64.7285 14.9314H63.6858C63.2271 14.9981 63.4662 15.3901 63.4662 15.3901L67.4216 21.1408H69.6364L66.026 16.1741Z" fill="#1D2434"/>
</g>
<rect x="103.244" y="3" width="1" height="24" fill="#DFE5F0"/>
<path d="M121.702 21V9.16H126.054C127.217 9.16 128.209 9.40533 129.03 9.896C129.862 10.376 130.492 11.064 130.918 11.96C131.345 12.8453 131.558 13.8853 131.558 15.08C131.558 16.2747 131.334 17.32 130.886 18.216C130.438 19.1013 129.782 19.7893 128.918 20.28C128.054 20.76 127.014 21 125.798 21H121.702ZM125.798 19.512C127.132 19.512 128.15 19.128 128.854 18.36C129.569 17.592 129.926 16.4987 129.926 15.08C129.926 13.6613 129.58 12.568 128.886 11.8C128.204 11.032 127.217 10.648 125.926 10.648H123.27V19.512H125.798ZM137.079 21.224C136.279 21.224 135.581 21.0427 134.983 20.68C134.397 20.3067 133.943 19.784 133.623 19.112C133.303 18.4293 133.143 17.6347 133.143 16.728C133.143 15.8107 133.303 15.016 133.623 14.344C133.943 13.6613 134.397 13.1387 134.983 12.776C135.581 12.4027 136.279 12.216 137.079 12.216C137.869 12.216 138.562 12.4027 139.159 12.776C139.757 13.1387 140.215 13.6613 140.535 14.344C140.866 15.016 141.031 15.8107 141.031 16.728C141.031 17.6347 140.866 18.4293 140.535 19.112C140.215 19.784 139.757 20.3067 139.159 20.68C138.562 21.0427 137.869 21.224 137.079 21.224ZM137.079 19.8C137.815 19.8 138.397 19.5227 138.823 18.968C139.261 18.4133 139.479 17.6667 139.479 16.728C139.479 15.7787 139.261 15.0267 138.823 14.472C138.397 13.9173 137.815 13.64 137.079 13.64C136.354 13.64 135.773 13.9173 135.335 14.472C134.909 15.0267 134.695 15.7787 134.695 16.728C134.695 17.6667 134.909 18.4133 135.335 18.968C135.773 19.5227 136.354 19.8 137.079 19.8ZM146.504 21.224C145.683 21.224 144.963 21.0373 144.344 20.664C143.736 20.2907 143.267 19.7627 142.936 19.08C142.606 18.3973 142.44 17.608 142.44 16.712C142.44 15.816 142.606 15.032 142.936 14.36C143.267 13.6773 143.736 13.1547 144.344 12.792C144.963 12.4187 145.683 12.232 146.504 12.232C147.134 12.232 147.736 12.3973 148.312 12.728C148.888 13.0587 149.347 13.5013 149.688 14.056L148.504 14.888C148.259 14.504 147.955 14.2053 147.592 13.992C147.23 13.768 146.835 13.656 146.408 13.656C145.683 13.656 145.096 13.9387 144.648 14.504C144.211 15.0587 143.992 15.7947 143.992 16.712C143.992 17.64 144.211 18.3867 144.648 18.952C145.086 19.5173 145.667 19.8 146.392 19.8C146.819 19.8 147.214 19.6933 147.576 19.48C147.95 19.256 148.259 18.952 148.504 18.568L149.688 19.4C149.347 19.9547 148.888 20.3973 148.312 20.728C147.736 21.0587 147.134 21.224 146.504 21.224ZM154.266 21.224C153.445 21.224 152.736 21.0533 152.138 20.712C151.552 20.36 151.104 19.9013 150.794 19.336L151.978 18.504C152.533 19.4213 153.312 19.88 154.314 19.88C154.826 19.88 155.226 19.7787 155.514 19.576C155.802 19.3733 155.946 19.1013 155.946 18.76C155.946 18.4293 155.797 18.152 155.498 17.928C155.2 17.704 154.714 17.5173 154.042 17.368C153.05 17.144 152.298 16.8187 151.786 16.392C151.285 15.9547 151.034 15.4 151.034 14.728C151.034 13.96 151.317 13.352 151.882 12.904C152.458 12.4453 153.232 12.216 154.202 12.216C154.938 12.216 155.578 12.376 156.122 12.696C156.666 13.0053 157.12 13.4427 157.482 14.008L156.314 14.84C156.048 14.424 155.733 14.1093 155.37 13.896C155.008 13.6827 154.618 13.576 154.202 13.576C153.701 13.576 153.306 13.672 153.018 13.864C152.73 14.056 152.586 14.3227 152.586 14.664C152.586 15.2827 153.248 15.7413 154.57 16.04C155.52 16.2533 156.245 16.5733 156.746 17C157.248 17.4267 157.498 17.9493 157.498 18.568C157.498 19.3787 157.205 20.024 156.618 20.504C156.032 20.984 155.248 21.224 154.266 21.224Z" fill="#1D1D1D"/>
<defs>
<clipPath id="clip0_1609_6655">
<rect width="87.2442" height="30" fill="white"/>
</clipPath>
</defs>
</svg>
