<?xml version="1.0" encoding="UTF-8"?>
<svg id="_图层_1" data-name="图层_1" xmlns="http://www.w3.org/2000/svg" version="1.1" viewBox="0 0 317.94 192.81">
  <!-- Generator: Adobe Illustrator 30.4.0, SVG Export Plug-In . SVG Version: 2.1.4 Build 226)  -->
  <defs>
    <style>
      .st0 {
        fill: #fff;
      }
    </style>
  </defs>
  <g>
    <path class="st0" d="M59.77,84.94l-3.58-3.58c-.95-.95-2.24-1.47-3.5-1.47-1.17,0-2.33.43-3.24,1.29-.91.91-1.42,2.07-1.42,3.37s.47,2.46,1.38,3.37l6.52,6.52c.26.26.73.26,1.04,0l2.81-2.81c.17-.22,3.15-3.58,0-6.69Z"/>
    <path class="st0" d="M65.68,90.68c-.69-.65-1.38-1.34-2.03-2.11l-.04-.04s-.04.13-.04.22c-.26,1.55-.99,2.93-2.2,4.14-3.8,3.75-7.64,7.64-11.35,11.35l-.47.47c-.86.86-1.34,1.77-1.47,2.68-.17,1.38.3,2.93,1.34,4.06.91.99,2.11,1.51,3.41,1.47,1.47.04,2.2-.17,3.28-1.21,4.32-4.23,8.63-8.5,11.91-11.74,1.55-1.55,1.9-4.06.82-5.78-.91-1.34-2.03-2.42-3.15-3.5Z"/>
    <path class="st0" d="M44.79,88.44v15.93c0,.43.3.69.56.82.26.13.65.13.95-.17l8.03-8.03c.3-.3.3-.82,0-1.17l-8.03-8.03c-.17-.17-.43-.26-.6-.26-.13,0-.26.04-.35.09-.26.13-.56.39-.56.82Z"/>
  </g>
  <g>
    <g>
      <path class="st0" d="M188.23,105.88v-18.76h5.57c6.11,0,9.89,3.6,9.89,9.35s-3.78,9.35-9.89,9.35h-5.57v.06ZM191.23,103.18h2.7c4.13,0,6.77-2.64,6.77-6.65s-2.64-6.65-6.77-6.65h-2.7v13.3Z"/>
      <path class="st0" d="M217.05,106.18c-5.39,0-9.77-4.37-9.77-9.71s4.37-9.65,9.77-9.65,9.77,4.25,9.77,9.65c.06,5.45-4.25,9.71-9.77,9.71ZM217.05,89.58c-3.72,0-6.77,3.06-6.77,6.89s3.06,6.95,6.77,6.95,6.83-3.18,6.83-6.95-3.06-6.89-6.83-6.89Z"/>
      <path class="st0" d="M254.45,87.12h-3.06v18.76h3.06v-18.76Z"/>
      <path class="st0" d="M265.77,106.18c-2.64,0-4.79-.78-5.75-1.26v-2.76c1.32.6,3.42,1.32,5.75,1.32s4.01-1.08,4.01-2.7c0-1.8-1.98-2.58-4.01-3.3-3.24-1.2-5.69-2.34-5.69-5.45,0-3.84,3.48-5.21,6.47-5.21,2.28,0,4.07.6,4.91.9v2.7c-1.2-.48-3-1.02-4.97-1.02-2.28,0-3.36,1.2-3.36,2.4,0,1.62,1.74,2.22,3.77,2.94,3.54,1.26,6.23,2.52,6.23,5.87-.06,3.3-3.06,5.57-7.37,5.57Z"/>
      <path class="st0" d="M240.66,98.27l1.14-.48c1.56-.66,3.36-2.4,3.36-5.09,0-3.36-2.46-5.57-6.17-5.57h-7.13v18.76h3v-16.12h3.78c2.28,0,3.48,1.68,3.48,3.3s-1.2,3.3-3.48,3.3h-1.62c-.72.12-.36.72-.36.72l6.05,8.75h3.36l-5.39-7.55Z"/>
    </g>
    <g>
      <path class="st0" d="M85.43,87.1h1.87l8.34,18.71h-2.73l-2.48-5.51h-7.94l-2.33,5.51h-2.74l7.99-18.71ZM89.34,97.93l-3-6.74-2.78,6.74h5.79Z"/>
      <path class="st0" d="M97.92,105.82v-18.63h5.9c1.78,0,3.19.48,4.25,1.44,1.06.96,1.59,2.25,1.59,3.86,0,1.08-.27,2.04-.81,2.88-.54.83-1.28,1.44-2.22,1.82-.94.38-2.29.57-4.05.57h-1.97v8.07h-2.68ZM103.36,89.55h-2.76v5.82h2.92c1.08,0,1.92-.26,2.5-.77.59-.51.88-1.24.88-2.19,0-1.91-1.18-2.86-3.54-2.86Z"/>
      <path class="st0" d="M116.74,87.1h1.87l8.34,18.71h-2.73l-2.48-5.51h-7.94l-2.33,5.51h-2.74l7.99-18.71ZM120.65,97.93l-3-6.74-2.78,6.74h5.79Z"/>
      <path class="st0" d="M144.14,101.5v2.93c-1.95,1.07-4.21,1.6-6.77,1.6-2.08,0-3.84-.42-5.29-1.25-1.45-.83-2.59-1.98-3.44-3.45s-1.27-3.05-1.27-4.76c0-2.71.97-4.99,2.9-6.83s4.31-2.77,7.15-2.77c1.95,0,4.12.51,6.51,1.53v2.86c-2.18-1.24-4.3-1.86-6.38-1.86s-3.9.67-5.31,2.02c-1.41,1.35-2.11,3.03-2.11,5.06s.69,3.72,2.08,5.04,3.16,1.97,5.31,1.97,4.46-.69,6.61-2.08Z"/>
      <path class="st0" d="M160.93,87.21h2.66v18.61h-2.66v-8.1h-10.46v8.1h-2.66v-18.61h2.66v8.05h10.46v-8.05Z"/>
      <path class="st0" d="M168.12,87.21h10.55v2.37h-7.89v5.67h7.62v2.38h-7.62v5.78h8.14v2.37h-10.8v-18.58Z"/>
    </g>
  </g>
</svg>