<?xml version="1.0" encoding="UTF-8"?>
<svg id="_图层_1" data-name="图层_1" xmlns="http://www.w3.org/2000/svg" version="1.1" viewBox="0 0 317.94 192.81">
  <!-- Generator: Adobe Illustrator 30.4.0, SVG Export Plug-In . SVG Version: 2.1.4 Build 226)  -->
  <defs>
    <style>
      .st0 {
        fill: #fff;
      }
    </style>
  </defs>
  <path class="st0" d="M165.61,45.51l-8.94-8.94c-2.4-2.4-5.56-3.61-8.68-3.61-2.91,0-5.78,1.05-7.98,3.17-2.28,2.2-3.55,5.15-3.58,8.31-.03,3.16,1.19,6.14,3.42,8.37l16.22,16.22c.68.68,1.87.68,2.55,0l6.98-6.98c.44-.48,7.75-8.8.01-16.54Z"/>
  <path class="st0" d="M180.26,59.79c-1.71-1.65-3.48-3.36-5.07-5.2-.02-.02-.04-.04-.05-.06-.04.11-.09.28-.13.51-.66,3.9-2.45,7.25-5.47,10.24-9.42,9.34-18.94,18.9-28.15,28.15l-1.22,1.23c-2.09,2.1-3.35,4.38-3.65,6.6-.47,3.46.79,7.3,3.28,10.02,2.27,2.48,5.27,3.77,8.43,3.62h.04c3.67.06,5.45-.43,8.13-3.04,10.76-10.48,21.43-21.05,29.52-29.08,3.83-3.8,4.71-10.1,2-14.33-2.09-3.28-4.92-6.01-7.66-8.65Z"/>
  <path class="st0" d="M128.45,54.19v39.49c0,1.08.7,1.75,1.35,2.03.66.27,1.63.29,2.39-.47l19.87-19.87c.78-.78.78-2.06,0-2.85l-19.87-19.87c-.47-.47-1.02-.64-1.53-.64-.31,0-.61.07-.86.17-.66.27-1.35.94-1.35,2.03Z"/>
  <path class="st0" d="M103.08,159.45v-24.69h7.33c8.03,0,13.03,4.73,13.03,12.34s-4.99,12.34-13.03,12.34h-7.33ZM107.02,155.91h3.54c5.42,0,8.92-3.45,8.92-8.8s-3.5-8.8-8.92-8.8h-3.54v17.6Z"/>
  <path class="st0" d="M141.07,159.85c-7.09,0-12.87-5.73-12.87-12.78s5.77-12.7,12.87-12.7,12.9,5.58,12.9,12.7-5.67,12.78-12.9,12.78ZM141.07,138.03c-4.92,0-8.92,4.06-8.92,9.04s4,9.12,8.92,9.12,8.96-4.18,8.96-9.12-4.02-9.04-8.96-9.04Z"/>
  <path class="st0" d="M190.31,134.77h-4.06v24.68h4.06v-24.68Z"/>
  <path class="st0" d="M205.24,159.85c-3.48,0-6.32-1.07-7.57-1.62v-3.63c1.76.81,4.48,1.75,7.57,1.75s5.27-1.44,5.27-3.59c0-2.41-2.58-3.36-5.3-4.37-4.27-1.58-7.54-3.11-7.54-7.15,0-5.08,4.59-6.89,8.53-6.89,2.98,0,5.35.77,6.48,1.21l-.02,3.55c-1.57-.61-3.93-1.31-6.58-1.31-3.03,0-4.39,1.6-4.39,3.19-.03,2.09,2.28,2.93,4.95,3.89,4.65,1.68,8.21,3.32,8.21,7.74,0,4.24-3.95,7.2-9.61,7.2Z"/>
  <path class="st0" d="M172.12,149.47l1.54-.66c2.05-.88,4.45-3.17,4.45-6.71,0-4.45-3.21-7.33-8.17-7.33h-9.37v24.68h3.94v-21.18h4.99c3.01,0,4.59,2.19,4.59,4.35s-1.61,4.35-4.59,4.35h-2.09c-.93.13-.45.92-.45.92l7.97,11.56h4.46l-7.26-9.98Z"/>
</svg>